%TF.GenerationSoftware,KiCad,Pcbnew,9.0.7*%
%TF.CreationDate,2026-03-26T23:31:19-05:00*%
%TF.ProjectId,FilthyHPs_Maestro,46696c74-6879-4485-9073-5f4d61657374,rev?*%
%TF.SameCoordinates,Original*%
%TF.FileFunction,AssemblyDrawing,Top*%
%FSLAX46Y46*%
G04 Gerber Fmt 4.6, Leading zero omitted, Abs format (unit mm)*
G04 Created by KiCad (PCBNEW 9.0.7) date 2026-03-26 23:31:19*
%MOMM*%
%LPD*%
G01*
G04 APERTURE LIST*
%ADD10C,0.050000*%
%ADD11C,0.150000*%
%ADD12C,0.075000*%
%ADD13C,0.140000*%
%ADD14C,0.100000*%
%ADD15C,0.127000*%
%ADD16C,0.025400*%
%ADD17C,0.200000*%
G04 APERTURE END LIST*
D10*
X137646666Y-70712447D02*
X137646666Y-70998161D01*
X137646666Y-70998161D02*
X137627619Y-71055304D01*
X137627619Y-71055304D02*
X137589523Y-71093400D01*
X137589523Y-71093400D02*
X137532381Y-71112447D01*
X137532381Y-71112447D02*
X137494285Y-71112447D01*
X138027619Y-70712447D02*
X137837143Y-70712447D01*
X137837143Y-70712447D02*
X137818095Y-70902923D01*
X137818095Y-70902923D02*
X137837143Y-70883876D01*
X137837143Y-70883876D02*
X137875238Y-70864828D01*
X137875238Y-70864828D02*
X137970476Y-70864828D01*
X137970476Y-70864828D02*
X138008571Y-70883876D01*
X138008571Y-70883876D02*
X138027619Y-70902923D01*
X138027619Y-70902923D02*
X138046666Y-70941019D01*
X138046666Y-70941019D02*
X138046666Y-71036257D01*
X138046666Y-71036257D02*
X138027619Y-71074352D01*
X138027619Y-71074352D02*
X138008571Y-71093400D01*
X138008571Y-71093400D02*
X137970476Y-71112447D01*
X137970476Y-71112447D02*
X137875238Y-71112447D01*
X137875238Y-71112447D02*
X137837143Y-71093400D01*
X137837143Y-71093400D02*
X137818095Y-71074352D01*
X150132447Y-93743809D02*
X150418161Y-93743809D01*
X150418161Y-93743809D02*
X150475304Y-93762856D01*
X150475304Y-93762856D02*
X150513400Y-93800952D01*
X150513400Y-93800952D02*
X150532447Y-93858094D01*
X150532447Y-93858094D02*
X150532447Y-93896190D01*
X150532447Y-93343809D02*
X150532447Y-93572380D01*
X150532447Y-93458094D02*
X150132447Y-93458094D01*
X150132447Y-93458094D02*
X150189590Y-93496190D01*
X150189590Y-93496190D02*
X150227685Y-93534285D01*
X150227685Y-93534285D02*
X150246733Y-93572380D01*
X150132447Y-93210476D02*
X150132447Y-92962857D01*
X150132447Y-92962857D02*
X150284828Y-93096190D01*
X150284828Y-93096190D02*
X150284828Y-93039047D01*
X150284828Y-93039047D02*
X150303876Y-93000952D01*
X150303876Y-93000952D02*
X150322923Y-92981904D01*
X150322923Y-92981904D02*
X150361019Y-92962857D01*
X150361019Y-92962857D02*
X150456257Y-92962857D01*
X150456257Y-92962857D02*
X150494352Y-92981904D01*
X150494352Y-92981904D02*
X150513400Y-93000952D01*
X150513400Y-93000952D02*
X150532447Y-93039047D01*
X150532447Y-93039047D02*
X150532447Y-93153333D01*
X150532447Y-93153333D02*
X150513400Y-93191428D01*
X150513400Y-93191428D02*
X150494352Y-93210476D01*
X105760952Y-85952447D02*
X105532381Y-85952447D01*
X105646667Y-85952447D02*
X105646667Y-85552447D01*
X105646667Y-85552447D02*
X105608571Y-85609590D01*
X105608571Y-85609590D02*
X105570476Y-85647685D01*
X105570476Y-85647685D02*
X105532381Y-85666733D01*
X106008571Y-85552447D02*
X106046666Y-85552447D01*
X106046666Y-85552447D02*
X106084762Y-85571495D01*
X106084762Y-85571495D02*
X106103809Y-85590542D01*
X106103809Y-85590542D02*
X106122857Y-85628638D01*
X106122857Y-85628638D02*
X106141904Y-85704828D01*
X106141904Y-85704828D02*
X106141904Y-85800066D01*
X106141904Y-85800066D02*
X106122857Y-85876257D01*
X106122857Y-85876257D02*
X106103809Y-85914352D01*
X106103809Y-85914352D02*
X106084762Y-85933400D01*
X106084762Y-85933400D02*
X106046666Y-85952447D01*
X106046666Y-85952447D02*
X106008571Y-85952447D01*
X106008571Y-85952447D02*
X105970476Y-85933400D01*
X105970476Y-85933400D02*
X105951428Y-85914352D01*
X105951428Y-85914352D02*
X105932381Y-85876257D01*
X105932381Y-85876257D02*
X105913333Y-85800066D01*
X105913333Y-85800066D02*
X105913333Y-85704828D01*
X105913333Y-85704828D02*
X105932381Y-85628638D01*
X105932381Y-85628638D02*
X105951428Y-85590542D01*
X105951428Y-85590542D02*
X105970476Y-85571495D01*
X105970476Y-85571495D02*
X106008571Y-85552447D01*
X106389523Y-85552447D02*
X106427618Y-85552447D01*
X106427618Y-85552447D02*
X106465714Y-85571495D01*
X106465714Y-85571495D02*
X106484761Y-85590542D01*
X106484761Y-85590542D02*
X106503809Y-85628638D01*
X106503809Y-85628638D02*
X106522856Y-85704828D01*
X106522856Y-85704828D02*
X106522856Y-85800066D01*
X106522856Y-85800066D02*
X106503809Y-85876257D01*
X106503809Y-85876257D02*
X106484761Y-85914352D01*
X106484761Y-85914352D02*
X106465714Y-85933400D01*
X106465714Y-85933400D02*
X106427618Y-85952447D01*
X106427618Y-85952447D02*
X106389523Y-85952447D01*
X106389523Y-85952447D02*
X106351428Y-85933400D01*
X106351428Y-85933400D02*
X106332380Y-85914352D01*
X106332380Y-85914352D02*
X106313333Y-85876257D01*
X106313333Y-85876257D02*
X106294285Y-85800066D01*
X106294285Y-85800066D02*
X106294285Y-85704828D01*
X106294285Y-85704828D02*
X106313333Y-85628638D01*
X106313333Y-85628638D02*
X106332380Y-85590542D01*
X106332380Y-85590542D02*
X106351428Y-85571495D01*
X106351428Y-85571495D02*
X106389523Y-85552447D01*
X106694285Y-85685780D02*
X106694285Y-85952447D01*
X106694285Y-85723876D02*
X106713332Y-85704828D01*
X106713332Y-85704828D02*
X106751427Y-85685780D01*
X106751427Y-85685780D02*
X106808570Y-85685780D01*
X106808570Y-85685780D02*
X106846666Y-85704828D01*
X106846666Y-85704828D02*
X106865713Y-85742923D01*
X106865713Y-85742923D02*
X106865713Y-85952447D01*
X107189523Y-85742923D02*
X107056190Y-85742923D01*
X107056190Y-85952447D02*
X107056190Y-85552447D01*
X107056190Y-85552447D02*
X107246666Y-85552447D01*
D11*
X96047619Y-91804819D02*
X96047619Y-90804819D01*
X96047619Y-90804819D02*
X96380952Y-91519104D01*
X96380952Y-91519104D02*
X96714285Y-90804819D01*
X96714285Y-90804819D02*
X96714285Y-91804819D01*
X97523809Y-91281009D02*
X97190476Y-91281009D01*
X97190476Y-91804819D02*
X97190476Y-90804819D01*
X97190476Y-90804819D02*
X97666666Y-90804819D01*
X98047619Y-91423866D02*
X98809524Y-91423866D01*
X99285714Y-91804819D02*
X99285714Y-90804819D01*
X99285714Y-90804819D02*
X99619047Y-91519104D01*
X99619047Y-91519104D02*
X99952380Y-90804819D01*
X99952380Y-90804819D02*
X99952380Y-91804819D01*
X100380952Y-91757200D02*
X100523809Y-91804819D01*
X100523809Y-91804819D02*
X100761904Y-91804819D01*
X100761904Y-91804819D02*
X100857142Y-91757200D01*
X100857142Y-91757200D02*
X100904761Y-91709580D01*
X100904761Y-91709580D02*
X100952380Y-91614342D01*
X100952380Y-91614342D02*
X100952380Y-91519104D01*
X100952380Y-91519104D02*
X100904761Y-91423866D01*
X100904761Y-91423866D02*
X100857142Y-91376247D01*
X100857142Y-91376247D02*
X100761904Y-91328628D01*
X100761904Y-91328628D02*
X100571428Y-91281009D01*
X100571428Y-91281009D02*
X100476190Y-91233390D01*
X100476190Y-91233390D02*
X100428571Y-91185771D01*
X100428571Y-91185771D02*
X100380952Y-91090533D01*
X100380952Y-91090533D02*
X100380952Y-90995295D01*
X100380952Y-90995295D02*
X100428571Y-90900057D01*
X100428571Y-90900057D02*
X100476190Y-90852438D01*
X100476190Y-90852438D02*
X100571428Y-90804819D01*
X100571428Y-90804819D02*
X100809523Y-90804819D01*
X100809523Y-90804819D02*
X100952380Y-90852438D01*
X101380952Y-91804819D02*
X101380952Y-90804819D01*
X101380952Y-90804819D02*
X101714285Y-91519104D01*
X101714285Y-91519104D02*
X102047618Y-90804819D01*
X102047618Y-90804819D02*
X102047618Y-91804819D01*
X102857142Y-91281009D02*
X102523809Y-91281009D01*
X102523809Y-91804819D02*
X102523809Y-90804819D01*
X102523809Y-90804819D02*
X102999999Y-90804819D01*
X103571428Y-90804819D02*
X103666666Y-90804819D01*
X103666666Y-90804819D02*
X103761904Y-90852438D01*
X103761904Y-90852438D02*
X103809523Y-90900057D01*
X103809523Y-90900057D02*
X103857142Y-90995295D01*
X103857142Y-90995295D02*
X103904761Y-91185771D01*
X103904761Y-91185771D02*
X103904761Y-91423866D01*
X103904761Y-91423866D02*
X103857142Y-91614342D01*
X103857142Y-91614342D02*
X103809523Y-91709580D01*
X103809523Y-91709580D02*
X103761904Y-91757200D01*
X103761904Y-91757200D02*
X103666666Y-91804819D01*
X103666666Y-91804819D02*
X103571428Y-91804819D01*
X103571428Y-91804819D02*
X103476190Y-91757200D01*
X103476190Y-91757200D02*
X103428571Y-91709580D01*
X103428571Y-91709580D02*
X103380952Y-91614342D01*
X103380952Y-91614342D02*
X103333333Y-91423866D01*
X103333333Y-91423866D02*
X103333333Y-91185771D01*
X103333333Y-91185771D02*
X103380952Y-90995295D01*
X103380952Y-90995295D02*
X103428571Y-90900057D01*
X103428571Y-90900057D02*
X103476190Y-90852438D01*
X103476190Y-90852438D02*
X103571428Y-90804819D01*
X104809523Y-90804819D02*
X104333333Y-90804819D01*
X104333333Y-90804819D02*
X104285714Y-91281009D01*
X104285714Y-91281009D02*
X104333333Y-91233390D01*
X104333333Y-91233390D02*
X104428571Y-91185771D01*
X104428571Y-91185771D02*
X104666666Y-91185771D01*
X104666666Y-91185771D02*
X104761904Y-91233390D01*
X104761904Y-91233390D02*
X104809523Y-91281009D01*
X104809523Y-91281009D02*
X104857142Y-91376247D01*
X104857142Y-91376247D02*
X104857142Y-91614342D01*
X104857142Y-91614342D02*
X104809523Y-91709580D01*
X104809523Y-91709580D02*
X104761904Y-91757200D01*
X104761904Y-91757200D02*
X104666666Y-91804819D01*
X104666666Y-91804819D02*
X104428571Y-91804819D01*
X104428571Y-91804819D02*
X104333333Y-91757200D01*
X104333333Y-91757200D02*
X104285714Y-91709580D01*
X105476190Y-90804819D02*
X105571428Y-90804819D01*
X105571428Y-90804819D02*
X105666666Y-90852438D01*
X105666666Y-90852438D02*
X105714285Y-90900057D01*
X105714285Y-90900057D02*
X105761904Y-90995295D01*
X105761904Y-90995295D02*
X105809523Y-91185771D01*
X105809523Y-91185771D02*
X105809523Y-91423866D01*
X105809523Y-91423866D02*
X105761904Y-91614342D01*
X105761904Y-91614342D02*
X105714285Y-91709580D01*
X105714285Y-91709580D02*
X105666666Y-91757200D01*
X105666666Y-91757200D02*
X105571428Y-91804819D01*
X105571428Y-91804819D02*
X105476190Y-91804819D01*
X105476190Y-91804819D02*
X105380952Y-91757200D01*
X105380952Y-91757200D02*
X105333333Y-91709580D01*
X105333333Y-91709580D02*
X105285714Y-91614342D01*
X105285714Y-91614342D02*
X105238095Y-91423866D01*
X105238095Y-91423866D02*
X105238095Y-91185771D01*
X105238095Y-91185771D02*
X105285714Y-90995295D01*
X105285714Y-90995295D02*
X105333333Y-90900057D01*
X105333333Y-90900057D02*
X105380952Y-90852438D01*
X105380952Y-90852438D02*
X105476190Y-90804819D01*
X106238095Y-91423866D02*
X107000000Y-91423866D01*
X107428571Y-90900057D02*
X107476190Y-90852438D01*
X107476190Y-90852438D02*
X107571428Y-90804819D01*
X107571428Y-90804819D02*
X107809523Y-90804819D01*
X107809523Y-90804819D02*
X107904761Y-90852438D01*
X107904761Y-90852438D02*
X107952380Y-90900057D01*
X107952380Y-90900057D02*
X107999999Y-90995295D01*
X107999999Y-90995295D02*
X107999999Y-91090533D01*
X107999999Y-91090533D02*
X107952380Y-91233390D01*
X107952380Y-91233390D02*
X107380952Y-91804819D01*
X107380952Y-91804819D02*
X107999999Y-91804819D01*
X101666666Y-93931009D02*
X101333333Y-93931009D01*
X101333333Y-94454819D02*
X101333333Y-93454819D01*
X101333333Y-93454819D02*
X101809523Y-93454819D01*
X102714285Y-94454819D02*
X102142857Y-94454819D01*
X102428571Y-94454819D02*
X102428571Y-93454819D01*
X102428571Y-93454819D02*
X102333333Y-93597676D01*
X102333333Y-93597676D02*
X102238095Y-93692914D01*
X102238095Y-93692914D02*
X102142857Y-93740533D01*
X121545833Y-114838152D02*
X121545833Y-115504819D01*
X121307738Y-114457200D02*
X121069643Y-115171485D01*
X121069643Y-115171485D02*
X121688690Y-115171485D01*
X121974405Y-114504819D02*
X122641071Y-114504819D01*
X122641071Y-114504819D02*
X122212500Y-115504819D01*
X123450595Y-114838152D02*
X123450595Y-115504819D01*
X123022024Y-114838152D02*
X123022024Y-115361961D01*
X123022024Y-115361961D02*
X123069643Y-115457200D01*
X123069643Y-115457200D02*
X123164881Y-115504819D01*
X123164881Y-115504819D02*
X123307738Y-115504819D01*
X123307738Y-115504819D02*
X123402976Y-115457200D01*
X123402976Y-115457200D02*
X123450595Y-115409580D01*
X124260119Y-114981009D02*
X123926786Y-114981009D01*
X123926786Y-115504819D02*
X123926786Y-114504819D01*
X123926786Y-114504819D02*
X124402976Y-114504819D01*
X124831548Y-115457200D02*
X124831548Y-115504819D01*
X124831548Y-115504819D02*
X124783929Y-115600057D01*
X124783929Y-115600057D02*
X124736310Y-115647676D01*
X126498214Y-114504819D02*
X126022024Y-114504819D01*
X126022024Y-114504819D02*
X125974405Y-114981009D01*
X125974405Y-114981009D02*
X126022024Y-114933390D01*
X126022024Y-114933390D02*
X126117262Y-114885771D01*
X126117262Y-114885771D02*
X126355357Y-114885771D01*
X126355357Y-114885771D02*
X126450595Y-114933390D01*
X126450595Y-114933390D02*
X126498214Y-114981009D01*
X126498214Y-114981009D02*
X126545833Y-115076247D01*
X126545833Y-115076247D02*
X126545833Y-115314342D01*
X126545833Y-115314342D02*
X126498214Y-115409580D01*
X126498214Y-115409580D02*
X126450595Y-115457200D01*
X126450595Y-115457200D02*
X126355357Y-115504819D01*
X126355357Y-115504819D02*
X126117262Y-115504819D01*
X126117262Y-115504819D02*
X126022024Y-115457200D01*
X126022024Y-115457200D02*
X125974405Y-115409580D01*
X127164881Y-114504819D02*
X127260119Y-114504819D01*
X127260119Y-114504819D02*
X127355357Y-114552438D01*
X127355357Y-114552438D02*
X127402976Y-114600057D01*
X127402976Y-114600057D02*
X127450595Y-114695295D01*
X127450595Y-114695295D02*
X127498214Y-114885771D01*
X127498214Y-114885771D02*
X127498214Y-115123866D01*
X127498214Y-115123866D02*
X127450595Y-115314342D01*
X127450595Y-115314342D02*
X127402976Y-115409580D01*
X127402976Y-115409580D02*
X127355357Y-115457200D01*
X127355357Y-115457200D02*
X127260119Y-115504819D01*
X127260119Y-115504819D02*
X127164881Y-115504819D01*
X127164881Y-115504819D02*
X127069643Y-115457200D01*
X127069643Y-115457200D02*
X127022024Y-115409580D01*
X127022024Y-115409580D02*
X126974405Y-115314342D01*
X126974405Y-115314342D02*
X126926786Y-115123866D01*
X126926786Y-115123866D02*
X126926786Y-114885771D01*
X126926786Y-114885771D02*
X126974405Y-114695295D01*
X126974405Y-114695295D02*
X127022024Y-114600057D01*
X127022024Y-114600057D02*
X127069643Y-114552438D01*
X127069643Y-114552438D02*
X127164881Y-114504819D01*
X127783929Y-114504819D02*
X128117262Y-115504819D01*
X128117262Y-115504819D02*
X128450595Y-114504819D01*
X124535833Y-112789580D02*
X124488214Y-112837200D01*
X124488214Y-112837200D02*
X124345357Y-112884819D01*
X124345357Y-112884819D02*
X124250119Y-112884819D01*
X124250119Y-112884819D02*
X124107262Y-112837200D01*
X124107262Y-112837200D02*
X124012024Y-112741961D01*
X124012024Y-112741961D02*
X123964405Y-112646723D01*
X123964405Y-112646723D02*
X123916786Y-112456247D01*
X123916786Y-112456247D02*
X123916786Y-112313390D01*
X123916786Y-112313390D02*
X123964405Y-112122914D01*
X123964405Y-112122914D02*
X124012024Y-112027676D01*
X124012024Y-112027676D02*
X124107262Y-111932438D01*
X124107262Y-111932438D02*
X124250119Y-111884819D01*
X124250119Y-111884819D02*
X124345357Y-111884819D01*
X124345357Y-111884819D02*
X124488214Y-111932438D01*
X124488214Y-111932438D02*
X124535833Y-111980057D01*
X125012024Y-112884819D02*
X125202500Y-112884819D01*
X125202500Y-112884819D02*
X125297738Y-112837200D01*
X125297738Y-112837200D02*
X125345357Y-112789580D01*
X125345357Y-112789580D02*
X125440595Y-112646723D01*
X125440595Y-112646723D02*
X125488214Y-112456247D01*
X125488214Y-112456247D02*
X125488214Y-112075295D01*
X125488214Y-112075295D02*
X125440595Y-111980057D01*
X125440595Y-111980057D02*
X125392976Y-111932438D01*
X125392976Y-111932438D02*
X125297738Y-111884819D01*
X125297738Y-111884819D02*
X125107262Y-111884819D01*
X125107262Y-111884819D02*
X125012024Y-111932438D01*
X125012024Y-111932438D02*
X124964405Y-111980057D01*
X124964405Y-111980057D02*
X124916786Y-112075295D01*
X124916786Y-112075295D02*
X124916786Y-112313390D01*
X124916786Y-112313390D02*
X124964405Y-112408628D01*
X124964405Y-112408628D02*
X125012024Y-112456247D01*
X125012024Y-112456247D02*
X125107262Y-112503866D01*
X125107262Y-112503866D02*
X125297738Y-112503866D01*
X125297738Y-112503866D02*
X125392976Y-112456247D01*
X125392976Y-112456247D02*
X125440595Y-112408628D01*
X125440595Y-112408628D02*
X125488214Y-112313390D01*
D10*
X149212447Y-100883809D02*
X149498161Y-100883809D01*
X149498161Y-100883809D02*
X149555304Y-100902856D01*
X149555304Y-100902856D02*
X149593400Y-100940952D01*
X149593400Y-100940952D02*
X149612447Y-100998094D01*
X149612447Y-100998094D02*
X149612447Y-101036190D01*
X149612447Y-100483809D02*
X149612447Y-100712380D01*
X149612447Y-100598094D02*
X149212447Y-100598094D01*
X149212447Y-100598094D02*
X149269590Y-100636190D01*
X149269590Y-100636190D02*
X149307685Y-100674285D01*
X149307685Y-100674285D02*
X149326733Y-100712380D01*
X149612447Y-100102857D02*
X149612447Y-100331428D01*
X149612447Y-100217142D02*
X149212447Y-100217142D01*
X149212447Y-100217142D02*
X149269590Y-100255238D01*
X149269590Y-100255238D02*
X149307685Y-100293333D01*
X149307685Y-100293333D02*
X149326733Y-100331428D01*
D11*
X103704819Y-105630951D02*
X104704819Y-105297618D01*
X104704819Y-105297618D02*
X103704819Y-104964285D01*
X104704819Y-104630951D02*
X103704819Y-104630951D01*
X104704819Y-104154761D02*
X103704819Y-104154761D01*
X103704819Y-104154761D02*
X104704819Y-103583333D01*
X104704819Y-103583333D02*
X103704819Y-103583333D01*
X104800057Y-103345238D02*
X104800057Y-102583333D01*
X103704819Y-101869047D02*
X103704819Y-102345237D01*
X103704819Y-102345237D02*
X104181009Y-102392856D01*
X104181009Y-102392856D02*
X104133390Y-102345237D01*
X104133390Y-102345237D02*
X104085771Y-102249999D01*
X104085771Y-102249999D02*
X104085771Y-102011904D01*
X104085771Y-102011904D02*
X104133390Y-101916666D01*
X104133390Y-101916666D02*
X104181009Y-101869047D01*
X104181009Y-101869047D02*
X104276247Y-101821428D01*
X104276247Y-101821428D02*
X104514342Y-101821428D01*
X104514342Y-101821428D02*
X104609580Y-101869047D01*
X104609580Y-101869047D02*
X104657200Y-101916666D01*
X104657200Y-101916666D02*
X104704819Y-102011904D01*
X104704819Y-102011904D02*
X104704819Y-102249999D01*
X104704819Y-102249999D02*
X104657200Y-102345237D01*
X104657200Y-102345237D02*
X104609580Y-102392856D01*
X103704819Y-101535713D02*
X104704819Y-101202380D01*
X104704819Y-101202380D02*
X103704819Y-100869047D01*
X98054819Y-102833333D02*
X98769104Y-102833333D01*
X98769104Y-102833333D02*
X98911961Y-102880952D01*
X98911961Y-102880952D02*
X99007200Y-102976190D01*
X99007200Y-102976190D02*
X99054819Y-103119047D01*
X99054819Y-103119047D02*
X99054819Y-103214285D01*
X98483390Y-102214285D02*
X98435771Y-102309523D01*
X98435771Y-102309523D02*
X98388152Y-102357142D01*
X98388152Y-102357142D02*
X98292914Y-102404761D01*
X98292914Y-102404761D02*
X98245295Y-102404761D01*
X98245295Y-102404761D02*
X98150057Y-102357142D01*
X98150057Y-102357142D02*
X98102438Y-102309523D01*
X98102438Y-102309523D02*
X98054819Y-102214285D01*
X98054819Y-102214285D02*
X98054819Y-102023809D01*
X98054819Y-102023809D02*
X98102438Y-101928571D01*
X98102438Y-101928571D02*
X98150057Y-101880952D01*
X98150057Y-101880952D02*
X98245295Y-101833333D01*
X98245295Y-101833333D02*
X98292914Y-101833333D01*
X98292914Y-101833333D02*
X98388152Y-101880952D01*
X98388152Y-101880952D02*
X98435771Y-101928571D01*
X98435771Y-101928571D02*
X98483390Y-102023809D01*
X98483390Y-102023809D02*
X98483390Y-102214285D01*
X98483390Y-102214285D02*
X98531009Y-102309523D01*
X98531009Y-102309523D02*
X98578628Y-102357142D01*
X98578628Y-102357142D02*
X98673866Y-102404761D01*
X98673866Y-102404761D02*
X98864342Y-102404761D01*
X98864342Y-102404761D02*
X98959580Y-102357142D01*
X98959580Y-102357142D02*
X99007200Y-102309523D01*
X99007200Y-102309523D02*
X99054819Y-102214285D01*
X99054819Y-102214285D02*
X99054819Y-102023809D01*
X99054819Y-102023809D02*
X99007200Y-101928571D01*
X99007200Y-101928571D02*
X98959580Y-101880952D01*
X98959580Y-101880952D02*
X98864342Y-101833333D01*
X98864342Y-101833333D02*
X98673866Y-101833333D01*
X98673866Y-101833333D02*
X98578628Y-101880952D01*
X98578628Y-101880952D02*
X98531009Y-101928571D01*
X98531009Y-101928571D02*
X98483390Y-102023809D01*
X146244819Y-112713333D02*
X146959104Y-112713333D01*
X146959104Y-112713333D02*
X147101961Y-112760952D01*
X147101961Y-112760952D02*
X147197200Y-112856190D01*
X147197200Y-112856190D02*
X147244819Y-112999047D01*
X147244819Y-112999047D02*
X147244819Y-113094285D01*
X146244819Y-112332380D02*
X146244819Y-111665714D01*
X146244819Y-111665714D02*
X147244819Y-112094285D01*
X108592380Y-82924819D02*
X108020952Y-82924819D01*
X108306666Y-82924819D02*
X108306666Y-81924819D01*
X108306666Y-81924819D02*
X108211428Y-82067676D01*
X108211428Y-82067676D02*
X108116190Y-82162914D01*
X108116190Y-82162914D02*
X108020952Y-82210533D01*
X109211428Y-81924819D02*
X109306666Y-81924819D01*
X109306666Y-81924819D02*
X109401904Y-81972438D01*
X109401904Y-81972438D02*
X109449523Y-82020057D01*
X109449523Y-82020057D02*
X109497142Y-82115295D01*
X109497142Y-82115295D02*
X109544761Y-82305771D01*
X109544761Y-82305771D02*
X109544761Y-82543866D01*
X109544761Y-82543866D02*
X109497142Y-82734342D01*
X109497142Y-82734342D02*
X109449523Y-82829580D01*
X109449523Y-82829580D02*
X109401904Y-82877200D01*
X109401904Y-82877200D02*
X109306666Y-82924819D01*
X109306666Y-82924819D02*
X109211428Y-82924819D01*
X109211428Y-82924819D02*
X109116190Y-82877200D01*
X109116190Y-82877200D02*
X109068571Y-82829580D01*
X109068571Y-82829580D02*
X109020952Y-82734342D01*
X109020952Y-82734342D02*
X108973333Y-82543866D01*
X108973333Y-82543866D02*
X108973333Y-82305771D01*
X108973333Y-82305771D02*
X109020952Y-82115295D01*
X109020952Y-82115295D02*
X109068571Y-82020057D01*
X109068571Y-82020057D02*
X109116190Y-81972438D01*
X109116190Y-81972438D02*
X109211428Y-81924819D01*
X110163809Y-81924819D02*
X110259047Y-81924819D01*
X110259047Y-81924819D02*
X110354285Y-81972438D01*
X110354285Y-81972438D02*
X110401904Y-82020057D01*
X110401904Y-82020057D02*
X110449523Y-82115295D01*
X110449523Y-82115295D02*
X110497142Y-82305771D01*
X110497142Y-82305771D02*
X110497142Y-82543866D01*
X110497142Y-82543866D02*
X110449523Y-82734342D01*
X110449523Y-82734342D02*
X110401904Y-82829580D01*
X110401904Y-82829580D02*
X110354285Y-82877200D01*
X110354285Y-82877200D02*
X110259047Y-82924819D01*
X110259047Y-82924819D02*
X110163809Y-82924819D01*
X110163809Y-82924819D02*
X110068571Y-82877200D01*
X110068571Y-82877200D02*
X110020952Y-82829580D01*
X110020952Y-82829580D02*
X109973333Y-82734342D01*
X109973333Y-82734342D02*
X109925714Y-82543866D01*
X109925714Y-82543866D02*
X109925714Y-82305771D01*
X109925714Y-82305771D02*
X109973333Y-82115295D01*
X109973333Y-82115295D02*
X110020952Y-82020057D01*
X110020952Y-82020057D02*
X110068571Y-81972438D01*
X110068571Y-81972438D02*
X110163809Y-81924819D01*
X111354285Y-82258152D02*
X111354285Y-82924819D01*
X110925714Y-82258152D02*
X110925714Y-82781961D01*
X110925714Y-82781961D02*
X110973333Y-82877200D01*
X110973333Y-82877200D02*
X111068571Y-82924819D01*
X111068571Y-82924819D02*
X111211428Y-82924819D01*
X111211428Y-82924819D02*
X111306666Y-82877200D01*
X111306666Y-82877200D02*
X111354285Y-82829580D01*
X112163809Y-82401009D02*
X111830476Y-82401009D01*
X111830476Y-82924819D02*
X111830476Y-81924819D01*
X111830476Y-81924819D02*
X112306666Y-81924819D01*
X109973333Y-78479580D02*
X109925714Y-78527200D01*
X109925714Y-78527200D02*
X109782857Y-78574819D01*
X109782857Y-78574819D02*
X109687619Y-78574819D01*
X109687619Y-78574819D02*
X109544762Y-78527200D01*
X109544762Y-78527200D02*
X109449524Y-78431961D01*
X109449524Y-78431961D02*
X109401905Y-78336723D01*
X109401905Y-78336723D02*
X109354286Y-78146247D01*
X109354286Y-78146247D02*
X109354286Y-78003390D01*
X109354286Y-78003390D02*
X109401905Y-77812914D01*
X109401905Y-77812914D02*
X109449524Y-77717676D01*
X109449524Y-77717676D02*
X109544762Y-77622438D01*
X109544762Y-77622438D02*
X109687619Y-77574819D01*
X109687619Y-77574819D02*
X109782857Y-77574819D01*
X109782857Y-77574819D02*
X109925714Y-77622438D01*
X109925714Y-77622438D02*
X109973333Y-77670057D01*
X110354286Y-77670057D02*
X110401905Y-77622438D01*
X110401905Y-77622438D02*
X110497143Y-77574819D01*
X110497143Y-77574819D02*
X110735238Y-77574819D01*
X110735238Y-77574819D02*
X110830476Y-77622438D01*
X110830476Y-77622438D02*
X110878095Y-77670057D01*
X110878095Y-77670057D02*
X110925714Y-77765295D01*
X110925714Y-77765295D02*
X110925714Y-77860533D01*
X110925714Y-77860533D02*
X110878095Y-78003390D01*
X110878095Y-78003390D02*
X110306667Y-78574819D01*
X110306667Y-78574819D02*
X110925714Y-78574819D01*
D10*
X150222447Y-86203809D02*
X150508161Y-86203809D01*
X150508161Y-86203809D02*
X150565304Y-86222856D01*
X150565304Y-86222856D02*
X150603400Y-86260952D01*
X150603400Y-86260952D02*
X150622447Y-86318094D01*
X150622447Y-86318094D02*
X150622447Y-86356190D01*
X150622447Y-85803809D02*
X150622447Y-86032380D01*
X150622447Y-85918094D02*
X150222447Y-85918094D01*
X150222447Y-85918094D02*
X150279590Y-85956190D01*
X150279590Y-85956190D02*
X150317685Y-85994285D01*
X150317685Y-85994285D02*
X150336733Y-86032380D01*
X150222447Y-85460952D02*
X150222447Y-85537142D01*
X150222447Y-85537142D02*
X150241495Y-85575238D01*
X150241495Y-85575238D02*
X150260542Y-85594285D01*
X150260542Y-85594285D02*
X150317685Y-85632380D01*
X150317685Y-85632380D02*
X150393876Y-85651428D01*
X150393876Y-85651428D02*
X150546257Y-85651428D01*
X150546257Y-85651428D02*
X150584352Y-85632380D01*
X150584352Y-85632380D02*
X150603400Y-85613333D01*
X150603400Y-85613333D02*
X150622447Y-85575238D01*
X150622447Y-85575238D02*
X150622447Y-85499047D01*
X150622447Y-85499047D02*
X150603400Y-85460952D01*
X150603400Y-85460952D02*
X150584352Y-85441904D01*
X150584352Y-85441904D02*
X150546257Y-85422857D01*
X150546257Y-85422857D02*
X150451019Y-85422857D01*
X150451019Y-85422857D02*
X150412923Y-85441904D01*
X150412923Y-85441904D02*
X150393876Y-85460952D01*
X150393876Y-85460952D02*
X150374828Y-85499047D01*
X150374828Y-85499047D02*
X150374828Y-85575238D01*
X150374828Y-85575238D02*
X150393876Y-85613333D01*
X150393876Y-85613333D02*
X150412923Y-85632380D01*
X150412923Y-85632380D02*
X150451019Y-85651428D01*
X106167552Y-94330952D02*
X106167552Y-94102381D01*
X106167552Y-94216667D02*
X106567552Y-94216667D01*
X106567552Y-94216667D02*
X106510409Y-94178571D01*
X106510409Y-94178571D02*
X106472314Y-94140476D01*
X106472314Y-94140476D02*
X106453266Y-94102381D01*
X106567552Y-94578571D02*
X106567552Y-94616666D01*
X106567552Y-94616666D02*
X106548504Y-94654762D01*
X106548504Y-94654762D02*
X106529457Y-94673809D01*
X106529457Y-94673809D02*
X106491361Y-94692857D01*
X106491361Y-94692857D02*
X106415171Y-94711904D01*
X106415171Y-94711904D02*
X106319933Y-94711904D01*
X106319933Y-94711904D02*
X106243742Y-94692857D01*
X106243742Y-94692857D02*
X106205647Y-94673809D01*
X106205647Y-94673809D02*
X106186600Y-94654762D01*
X106186600Y-94654762D02*
X106167552Y-94616666D01*
X106167552Y-94616666D02*
X106167552Y-94578571D01*
X106167552Y-94578571D02*
X106186600Y-94540476D01*
X106186600Y-94540476D02*
X106205647Y-94521428D01*
X106205647Y-94521428D02*
X106243742Y-94502381D01*
X106243742Y-94502381D02*
X106319933Y-94483333D01*
X106319933Y-94483333D02*
X106415171Y-94483333D01*
X106415171Y-94483333D02*
X106491361Y-94502381D01*
X106491361Y-94502381D02*
X106529457Y-94521428D01*
X106529457Y-94521428D02*
X106548504Y-94540476D01*
X106548504Y-94540476D02*
X106567552Y-94578571D01*
X106567552Y-94959523D02*
X106567552Y-94997618D01*
X106567552Y-94997618D02*
X106548504Y-95035714D01*
X106548504Y-95035714D02*
X106529457Y-95054761D01*
X106529457Y-95054761D02*
X106491361Y-95073809D01*
X106491361Y-95073809D02*
X106415171Y-95092856D01*
X106415171Y-95092856D02*
X106319933Y-95092856D01*
X106319933Y-95092856D02*
X106243742Y-95073809D01*
X106243742Y-95073809D02*
X106205647Y-95054761D01*
X106205647Y-95054761D02*
X106186600Y-95035714D01*
X106186600Y-95035714D02*
X106167552Y-94997618D01*
X106167552Y-94997618D02*
X106167552Y-94959523D01*
X106167552Y-94959523D02*
X106186600Y-94921428D01*
X106186600Y-94921428D02*
X106205647Y-94902380D01*
X106205647Y-94902380D02*
X106243742Y-94883333D01*
X106243742Y-94883333D02*
X106319933Y-94864285D01*
X106319933Y-94864285D02*
X106415171Y-94864285D01*
X106415171Y-94864285D02*
X106491361Y-94883333D01*
X106491361Y-94883333D02*
X106529457Y-94902380D01*
X106529457Y-94902380D02*
X106548504Y-94921428D01*
X106548504Y-94921428D02*
X106567552Y-94959523D01*
X106434219Y-95264285D02*
X106167552Y-95264285D01*
X106396123Y-95264285D02*
X106415171Y-95283332D01*
X106415171Y-95283332D02*
X106434219Y-95321427D01*
X106434219Y-95321427D02*
X106434219Y-95378570D01*
X106434219Y-95378570D02*
X106415171Y-95416666D01*
X106415171Y-95416666D02*
X106377076Y-95435713D01*
X106377076Y-95435713D02*
X106167552Y-95435713D01*
X106377076Y-95759523D02*
X106377076Y-95626190D01*
X106167552Y-95626190D02*
X106567552Y-95626190D01*
X106567552Y-95626190D02*
X106567552Y-95816666D01*
X149202447Y-98343809D02*
X149488161Y-98343809D01*
X149488161Y-98343809D02*
X149545304Y-98362856D01*
X149545304Y-98362856D02*
X149583400Y-98400952D01*
X149583400Y-98400952D02*
X149602447Y-98458094D01*
X149602447Y-98458094D02*
X149602447Y-98496190D01*
X149602447Y-97943809D02*
X149602447Y-98172380D01*
X149602447Y-98058094D02*
X149202447Y-98058094D01*
X149202447Y-98058094D02*
X149259590Y-98096190D01*
X149259590Y-98096190D02*
X149297685Y-98134285D01*
X149297685Y-98134285D02*
X149316733Y-98172380D01*
X149240542Y-97791428D02*
X149221495Y-97772380D01*
X149221495Y-97772380D02*
X149202447Y-97734285D01*
X149202447Y-97734285D02*
X149202447Y-97639047D01*
X149202447Y-97639047D02*
X149221495Y-97600952D01*
X149221495Y-97600952D02*
X149240542Y-97581904D01*
X149240542Y-97581904D02*
X149278638Y-97562857D01*
X149278638Y-97562857D02*
X149316733Y-97562857D01*
X149316733Y-97562857D02*
X149373876Y-97581904D01*
X149373876Y-97581904D02*
X149602447Y-97810476D01*
X149602447Y-97810476D02*
X149602447Y-97562857D01*
D11*
X140419104Y-96931760D02*
X140419104Y-96455570D01*
X140704819Y-97026998D02*
X139704819Y-96693665D01*
X139704819Y-96693665D02*
X140704819Y-96360332D01*
X140704819Y-95455570D02*
X140228628Y-95788903D01*
X140704819Y-96026998D02*
X139704819Y-96026998D01*
X139704819Y-96026998D02*
X139704819Y-95646046D01*
X139704819Y-95646046D02*
X139752438Y-95550808D01*
X139752438Y-95550808D02*
X139800057Y-95503189D01*
X139800057Y-95503189D02*
X139895295Y-95455570D01*
X139895295Y-95455570D02*
X140038152Y-95455570D01*
X140038152Y-95455570D02*
X140133390Y-95503189D01*
X140133390Y-95503189D02*
X140181009Y-95550808D01*
X140181009Y-95550808D02*
X140228628Y-95646046D01*
X140228628Y-95646046D02*
X140228628Y-96026998D01*
X140704819Y-95026998D02*
X139704819Y-95026998D01*
X139704819Y-95026998D02*
X139704819Y-94788903D01*
X139704819Y-94788903D02*
X139752438Y-94646046D01*
X139752438Y-94646046D02*
X139847676Y-94550808D01*
X139847676Y-94550808D02*
X139942914Y-94503189D01*
X139942914Y-94503189D02*
X140133390Y-94455570D01*
X140133390Y-94455570D02*
X140276247Y-94455570D01*
X140276247Y-94455570D02*
X140466723Y-94503189D01*
X140466723Y-94503189D02*
X140561961Y-94550808D01*
X140561961Y-94550808D02*
X140657200Y-94646046D01*
X140657200Y-94646046D02*
X140704819Y-94788903D01*
X140704819Y-94788903D02*
X140704819Y-95026998D01*
X139704819Y-94026998D02*
X140514342Y-94026998D01*
X140514342Y-94026998D02*
X140609580Y-93979379D01*
X140609580Y-93979379D02*
X140657200Y-93931760D01*
X140657200Y-93931760D02*
X140704819Y-93836522D01*
X140704819Y-93836522D02*
X140704819Y-93646046D01*
X140704819Y-93646046D02*
X140657200Y-93550808D01*
X140657200Y-93550808D02*
X140609580Y-93503189D01*
X140609580Y-93503189D02*
X140514342Y-93455570D01*
X140514342Y-93455570D02*
X139704819Y-93455570D01*
X140704819Y-92979379D02*
X139704819Y-92979379D01*
X140704819Y-92503189D02*
X139704819Y-92503189D01*
X139704819Y-92503189D02*
X140704819Y-91931761D01*
X140704819Y-91931761D02*
X139704819Y-91931761D01*
X139704819Y-91265094D02*
X139704819Y-91074618D01*
X139704819Y-91074618D02*
X139752438Y-90979380D01*
X139752438Y-90979380D02*
X139847676Y-90884142D01*
X139847676Y-90884142D02*
X140038152Y-90836523D01*
X140038152Y-90836523D02*
X140371485Y-90836523D01*
X140371485Y-90836523D02*
X140561961Y-90884142D01*
X140561961Y-90884142D02*
X140657200Y-90979380D01*
X140657200Y-90979380D02*
X140704819Y-91074618D01*
X140704819Y-91074618D02*
X140704819Y-91265094D01*
X140704819Y-91265094D02*
X140657200Y-91360332D01*
X140657200Y-91360332D02*
X140561961Y-91455570D01*
X140561961Y-91455570D02*
X140371485Y-91503189D01*
X140371485Y-91503189D02*
X140038152Y-91503189D01*
X140038152Y-91503189D02*
X139847676Y-91455570D01*
X139847676Y-91455570D02*
X139752438Y-91360332D01*
X139752438Y-91360332D02*
X139704819Y-91265094D01*
X140800057Y-90646047D02*
X140800057Y-89884142D01*
X140704819Y-89646046D02*
X139704819Y-89646046D01*
X139704819Y-89646046D02*
X139704819Y-89265094D01*
X139704819Y-89265094D02*
X139752438Y-89169856D01*
X139752438Y-89169856D02*
X139800057Y-89122237D01*
X139800057Y-89122237D02*
X139895295Y-89074618D01*
X139895295Y-89074618D02*
X140038152Y-89074618D01*
X140038152Y-89074618D02*
X140133390Y-89122237D01*
X140133390Y-89122237D02*
X140181009Y-89169856D01*
X140181009Y-89169856D02*
X140228628Y-89265094D01*
X140228628Y-89265094D02*
X140228628Y-89646046D01*
X140704819Y-88074618D02*
X140228628Y-88407951D01*
X140704819Y-88646046D02*
X139704819Y-88646046D01*
X139704819Y-88646046D02*
X139704819Y-88265094D01*
X139704819Y-88265094D02*
X139752438Y-88169856D01*
X139752438Y-88169856D02*
X139800057Y-88122237D01*
X139800057Y-88122237D02*
X139895295Y-88074618D01*
X139895295Y-88074618D02*
X140038152Y-88074618D01*
X140038152Y-88074618D02*
X140133390Y-88122237D01*
X140133390Y-88122237D02*
X140181009Y-88169856D01*
X140181009Y-88169856D02*
X140228628Y-88265094D01*
X140228628Y-88265094D02*
X140228628Y-88646046D01*
X139704819Y-87455570D02*
X139704819Y-87265094D01*
X139704819Y-87265094D02*
X139752438Y-87169856D01*
X139752438Y-87169856D02*
X139847676Y-87074618D01*
X139847676Y-87074618D02*
X140038152Y-87026999D01*
X140038152Y-87026999D02*
X140371485Y-87026999D01*
X140371485Y-87026999D02*
X140561961Y-87074618D01*
X140561961Y-87074618D02*
X140657200Y-87169856D01*
X140657200Y-87169856D02*
X140704819Y-87265094D01*
X140704819Y-87265094D02*
X140704819Y-87455570D01*
X140704819Y-87455570D02*
X140657200Y-87550808D01*
X140657200Y-87550808D02*
X140561961Y-87646046D01*
X140561961Y-87646046D02*
X140371485Y-87693665D01*
X140371485Y-87693665D02*
X140038152Y-87693665D01*
X140038152Y-87693665D02*
X139847676Y-87646046D01*
X139847676Y-87646046D02*
X139752438Y-87550808D01*
X139752438Y-87550808D02*
X139704819Y-87455570D01*
X140800057Y-86836523D02*
X140800057Y-86074618D01*
X140704819Y-85836522D02*
X139704819Y-85836522D01*
X139704819Y-85836522D02*
X140419104Y-85503189D01*
X140419104Y-85503189D02*
X139704819Y-85169856D01*
X139704819Y-85169856D02*
X140704819Y-85169856D01*
X140704819Y-84693665D02*
X139704819Y-84693665D01*
X140704819Y-84217475D02*
X139704819Y-84217475D01*
X139704819Y-84217475D02*
X140704819Y-83646047D01*
X140704819Y-83646047D02*
X139704819Y-83646047D01*
X140704819Y-83169856D02*
X139704819Y-83169856D01*
D12*
X113607143Y-91997757D02*
X113321429Y-91997757D01*
X113664286Y-91826328D02*
X113464286Y-92426328D01*
X113464286Y-92426328D02*
X113264286Y-91826328D01*
X112950000Y-92426328D02*
X112835714Y-92426328D01*
X112835714Y-92426328D02*
X112778571Y-92397757D01*
X112778571Y-92397757D02*
X112721428Y-92340614D01*
X112721428Y-92340614D02*
X112692857Y-92226328D01*
X112692857Y-92226328D02*
X112692857Y-92026328D01*
X112692857Y-92026328D02*
X112721428Y-91912042D01*
X112721428Y-91912042D02*
X112778571Y-91854900D01*
X112778571Y-91854900D02*
X112835714Y-91826328D01*
X112835714Y-91826328D02*
X112950000Y-91826328D01*
X112950000Y-91826328D02*
X113007143Y-91854900D01*
X113007143Y-91854900D02*
X113064285Y-91912042D01*
X113064285Y-91912042D02*
X113092857Y-92026328D01*
X113092857Y-92026328D02*
X113092857Y-92226328D01*
X113092857Y-92226328D02*
X113064285Y-92340614D01*
X113064285Y-92340614D02*
X113007143Y-92397757D01*
X113007143Y-92397757D02*
X112950000Y-92426328D01*
X112492857Y-92426328D02*
X112121429Y-92426328D01*
X112121429Y-92426328D02*
X112321429Y-92197757D01*
X112321429Y-92197757D02*
X112235714Y-92197757D01*
X112235714Y-92197757D02*
X112178572Y-92169185D01*
X112178572Y-92169185D02*
X112150000Y-92140614D01*
X112150000Y-92140614D02*
X112121429Y-92083471D01*
X112121429Y-92083471D02*
X112121429Y-91940614D01*
X112121429Y-91940614D02*
X112150000Y-91883471D01*
X112150000Y-91883471D02*
X112178572Y-91854900D01*
X112178572Y-91854900D02*
X112235714Y-91826328D01*
X112235714Y-91826328D02*
X112407143Y-91826328D01*
X112407143Y-91826328D02*
X112464286Y-91854900D01*
X112464286Y-91854900D02*
X112492857Y-91883471D01*
X111607143Y-92226328D02*
X111607143Y-91826328D01*
X111750000Y-92454900D02*
X111892857Y-92026328D01*
X111892857Y-92026328D02*
X111521428Y-92026328D01*
X111178571Y-92426328D02*
X111121428Y-92426328D01*
X111121428Y-92426328D02*
X111064285Y-92397757D01*
X111064285Y-92397757D02*
X111035714Y-92369185D01*
X111035714Y-92369185D02*
X111007142Y-92312042D01*
X111007142Y-92312042D02*
X110978571Y-92197757D01*
X110978571Y-92197757D02*
X110978571Y-92054900D01*
X110978571Y-92054900D02*
X111007142Y-91940614D01*
X111007142Y-91940614D02*
X111035714Y-91883471D01*
X111035714Y-91883471D02*
X111064285Y-91854900D01*
X111064285Y-91854900D02*
X111121428Y-91826328D01*
X111121428Y-91826328D02*
X111178571Y-91826328D01*
X111178571Y-91826328D02*
X111235714Y-91854900D01*
X111235714Y-91854900D02*
X111264285Y-91883471D01*
X111264285Y-91883471D02*
X111292856Y-91940614D01*
X111292856Y-91940614D02*
X111321428Y-92054900D01*
X111321428Y-92054900D02*
X111321428Y-92197757D01*
X111321428Y-92197757D02*
X111292856Y-92312042D01*
X111292856Y-92312042D02*
X111264285Y-92369185D01*
X111264285Y-92369185D02*
X111235714Y-92397757D01*
X111235714Y-92397757D02*
X111178571Y-92426328D01*
X110407142Y-91826328D02*
X110749999Y-91826328D01*
X110578570Y-91826328D02*
X110578570Y-92426328D01*
X110578570Y-92426328D02*
X110635713Y-92340614D01*
X110635713Y-92340614D02*
X110692856Y-92283471D01*
X110692856Y-92283471D02*
X110749999Y-92254900D01*
X110178570Y-91997757D02*
X109892856Y-91997757D01*
X110235713Y-91826328D02*
X110035713Y-92426328D01*
X110035713Y-92426328D02*
X109835713Y-91826328D01*
X111807142Y-96769185D02*
X111864285Y-96797757D01*
X111864285Y-96797757D02*
X111921428Y-96854900D01*
X111921428Y-96854900D02*
X112007142Y-96940614D01*
X112007142Y-96940614D02*
X112064285Y-96969185D01*
X112064285Y-96969185D02*
X112121428Y-96969185D01*
X112092857Y-96826328D02*
X112150000Y-96854900D01*
X112150000Y-96854900D02*
X112207142Y-96912042D01*
X112207142Y-96912042D02*
X112235714Y-97026328D01*
X112235714Y-97026328D02*
X112235714Y-97226328D01*
X112235714Y-97226328D02*
X112207142Y-97340614D01*
X112207142Y-97340614D02*
X112150000Y-97397757D01*
X112150000Y-97397757D02*
X112092857Y-97426328D01*
X112092857Y-97426328D02*
X111978571Y-97426328D01*
X111978571Y-97426328D02*
X111921428Y-97397757D01*
X111921428Y-97397757D02*
X111864285Y-97340614D01*
X111864285Y-97340614D02*
X111835714Y-97226328D01*
X111835714Y-97226328D02*
X111835714Y-97026328D01*
X111835714Y-97026328D02*
X111864285Y-96912042D01*
X111864285Y-96912042D02*
X111921428Y-96854900D01*
X111921428Y-96854900D02*
X111978571Y-96826328D01*
X111978571Y-96826328D02*
X112092857Y-96826328D01*
X111264286Y-96826328D02*
X111607143Y-96826328D01*
X111435714Y-96826328D02*
X111435714Y-97426328D01*
X111435714Y-97426328D02*
X111492857Y-97340614D01*
X111492857Y-97340614D02*
X111550000Y-97283471D01*
X111550000Y-97283471D02*
X111607143Y-97254900D01*
D13*
X98026190Y-115682208D02*
X98026190Y-114732208D01*
X98026190Y-115184589D02*
X98569047Y-115184589D01*
X98569047Y-115682208D02*
X98569047Y-114732208D01*
X98976190Y-114822684D02*
X99021428Y-114777446D01*
X99021428Y-114777446D02*
X99111904Y-114732208D01*
X99111904Y-114732208D02*
X99338095Y-114732208D01*
X99338095Y-114732208D02*
X99428571Y-114777446D01*
X99428571Y-114777446D02*
X99473809Y-114822684D01*
X99473809Y-114822684D02*
X99519047Y-114913160D01*
X99519047Y-114913160D02*
X99519047Y-115003636D01*
X99519047Y-115003636D02*
X99473809Y-115139350D01*
X99473809Y-115139350D02*
X98930952Y-115682208D01*
X98930952Y-115682208D02*
X99519047Y-115682208D01*
D10*
X118829881Y-93452447D02*
X118601310Y-93452447D01*
X118715596Y-93452447D02*
X118715596Y-93052447D01*
X118715596Y-93052447D02*
X118677500Y-93109590D01*
X118677500Y-93109590D02*
X118639405Y-93147685D01*
X118639405Y-93147685D02*
X118601310Y-93166733D01*
X119077500Y-93052447D02*
X119115595Y-93052447D01*
X119115595Y-93052447D02*
X119153691Y-93071495D01*
X119153691Y-93071495D02*
X119172738Y-93090542D01*
X119172738Y-93090542D02*
X119191786Y-93128638D01*
X119191786Y-93128638D02*
X119210833Y-93204828D01*
X119210833Y-93204828D02*
X119210833Y-93300066D01*
X119210833Y-93300066D02*
X119191786Y-93376257D01*
X119191786Y-93376257D02*
X119172738Y-93414352D01*
X119172738Y-93414352D02*
X119153691Y-93433400D01*
X119153691Y-93433400D02*
X119115595Y-93452447D01*
X119115595Y-93452447D02*
X119077500Y-93452447D01*
X119077500Y-93452447D02*
X119039405Y-93433400D01*
X119039405Y-93433400D02*
X119020357Y-93414352D01*
X119020357Y-93414352D02*
X119001310Y-93376257D01*
X119001310Y-93376257D02*
X118982262Y-93300066D01*
X118982262Y-93300066D02*
X118982262Y-93204828D01*
X118982262Y-93204828D02*
X119001310Y-93128638D01*
X119001310Y-93128638D02*
X119020357Y-93090542D01*
X119020357Y-93090542D02*
X119039405Y-93071495D01*
X119039405Y-93071495D02*
X119077500Y-93052447D01*
X119458452Y-93052447D02*
X119496547Y-93052447D01*
X119496547Y-93052447D02*
X119534643Y-93071495D01*
X119534643Y-93071495D02*
X119553690Y-93090542D01*
X119553690Y-93090542D02*
X119572738Y-93128638D01*
X119572738Y-93128638D02*
X119591785Y-93204828D01*
X119591785Y-93204828D02*
X119591785Y-93300066D01*
X119591785Y-93300066D02*
X119572738Y-93376257D01*
X119572738Y-93376257D02*
X119553690Y-93414352D01*
X119553690Y-93414352D02*
X119534643Y-93433400D01*
X119534643Y-93433400D02*
X119496547Y-93452447D01*
X119496547Y-93452447D02*
X119458452Y-93452447D01*
X119458452Y-93452447D02*
X119420357Y-93433400D01*
X119420357Y-93433400D02*
X119401309Y-93414352D01*
X119401309Y-93414352D02*
X119382262Y-93376257D01*
X119382262Y-93376257D02*
X119363214Y-93300066D01*
X119363214Y-93300066D02*
X119363214Y-93204828D01*
X119363214Y-93204828D02*
X119382262Y-93128638D01*
X119382262Y-93128638D02*
X119401309Y-93090542D01*
X119401309Y-93090542D02*
X119420357Y-93071495D01*
X119420357Y-93071495D02*
X119458452Y-93052447D01*
X119763214Y-93185780D02*
X119763214Y-93585780D01*
X119953690Y-93395304D02*
X119972737Y-93433400D01*
X119972737Y-93433400D02*
X120010833Y-93452447D01*
X119763214Y-93395304D02*
X119782261Y-93433400D01*
X119782261Y-93433400D02*
X119820356Y-93452447D01*
X119820356Y-93452447D02*
X119896547Y-93452447D01*
X119896547Y-93452447D02*
X119934642Y-93433400D01*
X119934642Y-93433400D02*
X119953690Y-93395304D01*
X119953690Y-93395304D02*
X119953690Y-93185780D01*
X120315595Y-93242923D02*
X120182262Y-93242923D01*
X120182262Y-93452447D02*
X120182262Y-93052447D01*
X120182262Y-93052447D02*
X120372738Y-93052447D01*
X132646666Y-70712447D02*
X132646666Y-70998161D01*
X132646666Y-70998161D02*
X132627619Y-71055304D01*
X132627619Y-71055304D02*
X132589523Y-71093400D01*
X132589523Y-71093400D02*
X132532381Y-71112447D01*
X132532381Y-71112447D02*
X132494285Y-71112447D01*
X132799047Y-70712447D02*
X133046666Y-70712447D01*
X133046666Y-70712447D02*
X132913333Y-70864828D01*
X132913333Y-70864828D02*
X132970476Y-70864828D01*
X132970476Y-70864828D02*
X133008571Y-70883876D01*
X133008571Y-70883876D02*
X133027619Y-70902923D01*
X133027619Y-70902923D02*
X133046666Y-70941019D01*
X133046666Y-70941019D02*
X133046666Y-71036257D01*
X133046666Y-71036257D02*
X133027619Y-71074352D01*
X133027619Y-71074352D02*
X133008571Y-71093400D01*
X133008571Y-71093400D02*
X132970476Y-71112447D01*
X132970476Y-71112447D02*
X132856190Y-71112447D01*
X132856190Y-71112447D02*
X132818095Y-71093400D01*
X132818095Y-71093400D02*
X132799047Y-71074352D01*
X105730952Y-87692447D02*
X105502381Y-87692447D01*
X105616667Y-87692447D02*
X105616667Y-87292447D01*
X105616667Y-87292447D02*
X105578571Y-87349590D01*
X105578571Y-87349590D02*
X105540476Y-87387685D01*
X105540476Y-87387685D02*
X105502381Y-87406733D01*
X105978571Y-87292447D02*
X106016666Y-87292447D01*
X106016666Y-87292447D02*
X106054762Y-87311495D01*
X106054762Y-87311495D02*
X106073809Y-87330542D01*
X106073809Y-87330542D02*
X106092857Y-87368638D01*
X106092857Y-87368638D02*
X106111904Y-87444828D01*
X106111904Y-87444828D02*
X106111904Y-87540066D01*
X106111904Y-87540066D02*
X106092857Y-87616257D01*
X106092857Y-87616257D02*
X106073809Y-87654352D01*
X106073809Y-87654352D02*
X106054762Y-87673400D01*
X106054762Y-87673400D02*
X106016666Y-87692447D01*
X106016666Y-87692447D02*
X105978571Y-87692447D01*
X105978571Y-87692447D02*
X105940476Y-87673400D01*
X105940476Y-87673400D02*
X105921428Y-87654352D01*
X105921428Y-87654352D02*
X105902381Y-87616257D01*
X105902381Y-87616257D02*
X105883333Y-87540066D01*
X105883333Y-87540066D02*
X105883333Y-87444828D01*
X105883333Y-87444828D02*
X105902381Y-87368638D01*
X105902381Y-87368638D02*
X105921428Y-87330542D01*
X105921428Y-87330542D02*
X105940476Y-87311495D01*
X105940476Y-87311495D02*
X105978571Y-87292447D01*
X106359523Y-87292447D02*
X106397618Y-87292447D01*
X106397618Y-87292447D02*
X106435714Y-87311495D01*
X106435714Y-87311495D02*
X106454761Y-87330542D01*
X106454761Y-87330542D02*
X106473809Y-87368638D01*
X106473809Y-87368638D02*
X106492856Y-87444828D01*
X106492856Y-87444828D02*
X106492856Y-87540066D01*
X106492856Y-87540066D02*
X106473809Y-87616257D01*
X106473809Y-87616257D02*
X106454761Y-87654352D01*
X106454761Y-87654352D02*
X106435714Y-87673400D01*
X106435714Y-87673400D02*
X106397618Y-87692447D01*
X106397618Y-87692447D02*
X106359523Y-87692447D01*
X106359523Y-87692447D02*
X106321428Y-87673400D01*
X106321428Y-87673400D02*
X106302380Y-87654352D01*
X106302380Y-87654352D02*
X106283333Y-87616257D01*
X106283333Y-87616257D02*
X106264285Y-87540066D01*
X106264285Y-87540066D02*
X106264285Y-87444828D01*
X106264285Y-87444828D02*
X106283333Y-87368638D01*
X106283333Y-87368638D02*
X106302380Y-87330542D01*
X106302380Y-87330542D02*
X106321428Y-87311495D01*
X106321428Y-87311495D02*
X106359523Y-87292447D01*
X106664285Y-87425780D02*
X106664285Y-87692447D01*
X106664285Y-87463876D02*
X106683332Y-87444828D01*
X106683332Y-87444828D02*
X106721427Y-87425780D01*
X106721427Y-87425780D02*
X106778570Y-87425780D01*
X106778570Y-87425780D02*
X106816666Y-87444828D01*
X106816666Y-87444828D02*
X106835713Y-87482923D01*
X106835713Y-87482923D02*
X106835713Y-87692447D01*
X107159523Y-87482923D02*
X107026190Y-87482923D01*
X107026190Y-87692447D02*
X107026190Y-87292447D01*
X107026190Y-87292447D02*
X107216666Y-87292447D01*
X149212447Y-105783333D02*
X149498161Y-105783333D01*
X149498161Y-105783333D02*
X149555304Y-105802380D01*
X149555304Y-105802380D02*
X149593400Y-105840476D01*
X149593400Y-105840476D02*
X149612447Y-105897618D01*
X149612447Y-105897618D02*
X149612447Y-105935714D01*
X149612447Y-105573809D02*
X149612447Y-105497618D01*
X149612447Y-105497618D02*
X149593400Y-105459523D01*
X149593400Y-105459523D02*
X149574352Y-105440475D01*
X149574352Y-105440475D02*
X149517209Y-105402380D01*
X149517209Y-105402380D02*
X149441019Y-105383333D01*
X149441019Y-105383333D02*
X149288638Y-105383333D01*
X149288638Y-105383333D02*
X149250542Y-105402380D01*
X149250542Y-105402380D02*
X149231495Y-105421428D01*
X149231495Y-105421428D02*
X149212447Y-105459523D01*
X149212447Y-105459523D02*
X149212447Y-105535714D01*
X149212447Y-105535714D02*
X149231495Y-105573809D01*
X149231495Y-105573809D02*
X149250542Y-105592856D01*
X149250542Y-105592856D02*
X149288638Y-105611904D01*
X149288638Y-105611904D02*
X149383876Y-105611904D01*
X149383876Y-105611904D02*
X149421971Y-105592856D01*
X149421971Y-105592856D02*
X149441019Y-105573809D01*
X149441019Y-105573809D02*
X149460066Y-105535714D01*
X149460066Y-105535714D02*
X149460066Y-105459523D01*
X149460066Y-105459523D02*
X149441019Y-105421428D01*
X149441019Y-105421428D02*
X149421971Y-105402380D01*
X149421971Y-105402380D02*
X149383876Y-105383333D01*
X150112447Y-91213809D02*
X150398161Y-91213809D01*
X150398161Y-91213809D02*
X150455304Y-91232856D01*
X150455304Y-91232856D02*
X150493400Y-91270952D01*
X150493400Y-91270952D02*
X150512447Y-91328094D01*
X150512447Y-91328094D02*
X150512447Y-91366190D01*
X150512447Y-90813809D02*
X150512447Y-91042380D01*
X150512447Y-90928094D02*
X150112447Y-90928094D01*
X150112447Y-90928094D02*
X150169590Y-90966190D01*
X150169590Y-90966190D02*
X150207685Y-91004285D01*
X150207685Y-91004285D02*
X150226733Y-91042380D01*
X150245780Y-90470952D02*
X150512447Y-90470952D01*
X150093400Y-90566190D02*
X150379114Y-90661428D01*
X150379114Y-90661428D02*
X150379114Y-90413809D01*
D11*
X108137619Y-109199819D02*
X108470952Y-110199819D01*
X108470952Y-110199819D02*
X108804285Y-109199819D01*
X109137619Y-110199819D02*
X109137619Y-109199819D01*
X109613809Y-110199819D02*
X109613809Y-109199819D01*
X109613809Y-109199819D02*
X110185237Y-110199819D01*
X110185237Y-110199819D02*
X110185237Y-109199819D01*
X111328095Y-109199819D02*
X111994761Y-109199819D01*
X111994761Y-109199819D02*
X111566190Y-110199819D01*
X112375714Y-109818866D02*
X113137619Y-109818866D01*
X113518571Y-109199819D02*
X114137618Y-109199819D01*
X114137618Y-109199819D02*
X113804285Y-109580771D01*
X113804285Y-109580771D02*
X113947142Y-109580771D01*
X113947142Y-109580771D02*
X114042380Y-109628390D01*
X114042380Y-109628390D02*
X114089999Y-109676009D01*
X114089999Y-109676009D02*
X114137618Y-109771247D01*
X114137618Y-109771247D02*
X114137618Y-110009342D01*
X114137618Y-110009342D02*
X114089999Y-110104580D01*
X114089999Y-110104580D02*
X114042380Y-110152200D01*
X114042380Y-110152200D02*
X113947142Y-110199819D01*
X113947142Y-110199819D02*
X113661428Y-110199819D01*
X113661428Y-110199819D02*
X113566190Y-110152200D01*
X113566190Y-110152200D02*
X113518571Y-110104580D01*
X114994761Y-109199819D02*
X114804285Y-109199819D01*
X114804285Y-109199819D02*
X114709047Y-109247438D01*
X114709047Y-109247438D02*
X114661428Y-109295057D01*
X114661428Y-109295057D02*
X114566190Y-109437914D01*
X114566190Y-109437914D02*
X114518571Y-109628390D01*
X114518571Y-109628390D02*
X114518571Y-110009342D01*
X114518571Y-110009342D02*
X114566190Y-110104580D01*
X114566190Y-110104580D02*
X114613809Y-110152200D01*
X114613809Y-110152200D02*
X114709047Y-110199819D01*
X114709047Y-110199819D02*
X114899523Y-110199819D01*
X114899523Y-110199819D02*
X114994761Y-110152200D01*
X114994761Y-110152200D02*
X115042380Y-110104580D01*
X115042380Y-110104580D02*
X115089999Y-110009342D01*
X115089999Y-110009342D02*
X115089999Y-109771247D01*
X115089999Y-109771247D02*
X115042380Y-109676009D01*
X115042380Y-109676009D02*
X114994761Y-109628390D01*
X114994761Y-109628390D02*
X114899523Y-109580771D01*
X114899523Y-109580771D02*
X114709047Y-109580771D01*
X114709047Y-109580771D02*
X114613809Y-109628390D01*
X114613809Y-109628390D02*
X114566190Y-109676009D01*
X114566190Y-109676009D02*
X114518571Y-109771247D01*
X115375714Y-109199819D02*
X115709047Y-110199819D01*
X115709047Y-110199819D02*
X116042380Y-109199819D01*
X111256666Y-114599819D02*
X111256666Y-115314104D01*
X111256666Y-115314104D02*
X111209047Y-115456961D01*
X111209047Y-115456961D02*
X111113809Y-115552200D01*
X111113809Y-115552200D02*
X110970952Y-115599819D01*
X110970952Y-115599819D02*
X110875714Y-115599819D01*
X112256666Y-115599819D02*
X111685238Y-115599819D01*
X111970952Y-115599819D02*
X111970952Y-114599819D01*
X111970952Y-114599819D02*
X111875714Y-114742676D01*
X111875714Y-114742676D02*
X111780476Y-114837914D01*
X111780476Y-114837914D02*
X111685238Y-114885533D01*
D13*
X156247290Y-63932208D02*
X156247290Y-62982208D01*
X156247290Y-63434589D02*
X156790147Y-63434589D01*
X156790147Y-63932208D02*
X156790147Y-62982208D01*
X157152052Y-62982208D02*
X157740147Y-62982208D01*
X157740147Y-62982208D02*
X157423480Y-63344112D01*
X157423480Y-63344112D02*
X157559195Y-63344112D01*
X157559195Y-63344112D02*
X157649671Y-63389350D01*
X157649671Y-63389350D02*
X157694909Y-63434589D01*
X157694909Y-63434589D02*
X157740147Y-63525065D01*
X157740147Y-63525065D02*
X157740147Y-63751255D01*
X157740147Y-63751255D02*
X157694909Y-63841731D01*
X157694909Y-63841731D02*
X157649671Y-63886970D01*
X157649671Y-63886970D02*
X157559195Y-63932208D01*
X157559195Y-63932208D02*
X157287766Y-63932208D01*
X157287766Y-63932208D02*
X157197290Y-63886970D01*
X157197290Y-63886970D02*
X157152052Y-63841731D01*
X98026190Y-63932208D02*
X98026190Y-62982208D01*
X98026190Y-63434589D02*
X98569047Y-63434589D01*
X98569047Y-63932208D02*
X98569047Y-62982208D01*
X99428571Y-63298874D02*
X99428571Y-63932208D01*
X99202380Y-62936970D02*
X98976190Y-63615541D01*
X98976190Y-63615541D02*
X99564285Y-63615541D01*
D10*
X150142447Y-88793809D02*
X150428161Y-88793809D01*
X150428161Y-88793809D02*
X150485304Y-88812856D01*
X150485304Y-88812856D02*
X150523400Y-88850952D01*
X150523400Y-88850952D02*
X150542447Y-88908094D01*
X150542447Y-88908094D02*
X150542447Y-88946190D01*
X150542447Y-88393809D02*
X150542447Y-88622380D01*
X150542447Y-88508094D02*
X150142447Y-88508094D01*
X150142447Y-88508094D02*
X150199590Y-88546190D01*
X150199590Y-88546190D02*
X150237685Y-88584285D01*
X150237685Y-88584285D02*
X150256733Y-88622380D01*
X150142447Y-88031904D02*
X150142447Y-88222380D01*
X150142447Y-88222380D02*
X150332923Y-88241428D01*
X150332923Y-88241428D02*
X150313876Y-88222380D01*
X150313876Y-88222380D02*
X150294828Y-88184285D01*
X150294828Y-88184285D02*
X150294828Y-88089047D01*
X150294828Y-88089047D02*
X150313876Y-88050952D01*
X150313876Y-88050952D02*
X150332923Y-88031904D01*
X150332923Y-88031904D02*
X150371019Y-88012857D01*
X150371019Y-88012857D02*
X150466257Y-88012857D01*
X150466257Y-88012857D02*
X150504352Y-88031904D01*
X150504352Y-88031904D02*
X150523400Y-88050952D01*
X150523400Y-88050952D02*
X150542447Y-88089047D01*
X150542447Y-88089047D02*
X150542447Y-88184285D01*
X150542447Y-88184285D02*
X150523400Y-88222380D01*
X150523400Y-88222380D02*
X150504352Y-88241428D01*
X145199047Y-76477552D02*
X145427618Y-76477552D01*
X145313332Y-76477552D02*
X145313332Y-76877552D01*
X145313332Y-76877552D02*
X145351428Y-76820409D01*
X145351428Y-76820409D02*
X145389523Y-76782314D01*
X145389523Y-76782314D02*
X145427618Y-76763266D01*
X144951428Y-76877552D02*
X144913333Y-76877552D01*
X144913333Y-76877552D02*
X144875237Y-76858504D01*
X144875237Y-76858504D02*
X144856190Y-76839457D01*
X144856190Y-76839457D02*
X144837142Y-76801361D01*
X144837142Y-76801361D02*
X144818095Y-76725171D01*
X144818095Y-76725171D02*
X144818095Y-76629933D01*
X144818095Y-76629933D02*
X144837142Y-76553742D01*
X144837142Y-76553742D02*
X144856190Y-76515647D01*
X144856190Y-76515647D02*
X144875237Y-76496600D01*
X144875237Y-76496600D02*
X144913333Y-76477552D01*
X144913333Y-76477552D02*
X144951428Y-76477552D01*
X144951428Y-76477552D02*
X144989523Y-76496600D01*
X144989523Y-76496600D02*
X145008571Y-76515647D01*
X145008571Y-76515647D02*
X145027618Y-76553742D01*
X145027618Y-76553742D02*
X145046666Y-76629933D01*
X145046666Y-76629933D02*
X145046666Y-76725171D01*
X145046666Y-76725171D02*
X145027618Y-76801361D01*
X145027618Y-76801361D02*
X145008571Y-76839457D01*
X145008571Y-76839457D02*
X144989523Y-76858504D01*
X144989523Y-76858504D02*
X144951428Y-76877552D01*
X144570476Y-76877552D02*
X144532381Y-76877552D01*
X144532381Y-76877552D02*
X144494285Y-76858504D01*
X144494285Y-76858504D02*
X144475238Y-76839457D01*
X144475238Y-76839457D02*
X144456190Y-76801361D01*
X144456190Y-76801361D02*
X144437143Y-76725171D01*
X144437143Y-76725171D02*
X144437143Y-76629933D01*
X144437143Y-76629933D02*
X144456190Y-76553742D01*
X144456190Y-76553742D02*
X144475238Y-76515647D01*
X144475238Y-76515647D02*
X144494285Y-76496600D01*
X144494285Y-76496600D02*
X144532381Y-76477552D01*
X144532381Y-76477552D02*
X144570476Y-76477552D01*
X144570476Y-76477552D02*
X144608571Y-76496600D01*
X144608571Y-76496600D02*
X144627619Y-76515647D01*
X144627619Y-76515647D02*
X144646666Y-76553742D01*
X144646666Y-76553742D02*
X144665714Y-76629933D01*
X144665714Y-76629933D02*
X144665714Y-76725171D01*
X144665714Y-76725171D02*
X144646666Y-76801361D01*
X144646666Y-76801361D02*
X144627619Y-76839457D01*
X144627619Y-76839457D02*
X144608571Y-76858504D01*
X144608571Y-76858504D02*
X144570476Y-76877552D01*
X144265714Y-76744219D02*
X144265714Y-76477552D01*
X144265714Y-76706123D02*
X144246667Y-76725171D01*
X144246667Y-76725171D02*
X144208572Y-76744219D01*
X144208572Y-76744219D02*
X144151429Y-76744219D01*
X144151429Y-76744219D02*
X144113333Y-76725171D01*
X144113333Y-76725171D02*
X144094286Y-76687076D01*
X144094286Y-76687076D02*
X144094286Y-76477552D01*
X143770476Y-76687076D02*
X143903809Y-76687076D01*
X143903809Y-76477552D02*
X143903809Y-76877552D01*
X143903809Y-76877552D02*
X143713333Y-76877552D01*
X147676666Y-69842447D02*
X147676666Y-70128161D01*
X147676666Y-70128161D02*
X147657619Y-70185304D01*
X147657619Y-70185304D02*
X147619523Y-70223400D01*
X147619523Y-70223400D02*
X147562381Y-70242447D01*
X147562381Y-70242447D02*
X147524285Y-70242447D01*
X147848095Y-69880542D02*
X147867143Y-69861495D01*
X147867143Y-69861495D02*
X147905238Y-69842447D01*
X147905238Y-69842447D02*
X148000476Y-69842447D01*
X148000476Y-69842447D02*
X148038571Y-69861495D01*
X148038571Y-69861495D02*
X148057619Y-69880542D01*
X148057619Y-69880542D02*
X148076666Y-69918638D01*
X148076666Y-69918638D02*
X148076666Y-69956733D01*
X148076666Y-69956733D02*
X148057619Y-70013876D01*
X148057619Y-70013876D02*
X147829047Y-70242447D01*
X147829047Y-70242447D02*
X148076666Y-70242447D01*
X134796666Y-70712447D02*
X134796666Y-70998161D01*
X134796666Y-70998161D02*
X134777619Y-71055304D01*
X134777619Y-71055304D02*
X134739523Y-71093400D01*
X134739523Y-71093400D02*
X134682381Y-71112447D01*
X134682381Y-71112447D02*
X134644285Y-71112447D01*
X135158571Y-70845780D02*
X135158571Y-71112447D01*
X135063333Y-70693400D02*
X134968095Y-70979114D01*
X134968095Y-70979114D02*
X135215714Y-70979114D01*
D11*
X146134819Y-115823333D02*
X146849104Y-115823333D01*
X146849104Y-115823333D02*
X146991961Y-115870952D01*
X146991961Y-115870952D02*
X147087200Y-115966190D01*
X147087200Y-115966190D02*
X147134819Y-116109047D01*
X147134819Y-116109047D02*
X147134819Y-116204285D01*
X146134819Y-114918571D02*
X146134819Y-115109047D01*
X146134819Y-115109047D02*
X146182438Y-115204285D01*
X146182438Y-115204285D02*
X146230057Y-115251904D01*
X146230057Y-115251904D02*
X146372914Y-115347142D01*
X146372914Y-115347142D02*
X146563390Y-115394761D01*
X146563390Y-115394761D02*
X146944342Y-115394761D01*
X146944342Y-115394761D02*
X147039580Y-115347142D01*
X147039580Y-115347142D02*
X147087200Y-115299523D01*
X147087200Y-115299523D02*
X147134819Y-115204285D01*
X147134819Y-115204285D02*
X147134819Y-115013809D01*
X147134819Y-115013809D02*
X147087200Y-114918571D01*
X147087200Y-114918571D02*
X147039580Y-114870952D01*
X147039580Y-114870952D02*
X146944342Y-114823333D01*
X146944342Y-114823333D02*
X146706247Y-114823333D01*
X146706247Y-114823333D02*
X146611009Y-114870952D01*
X146611009Y-114870952D02*
X146563390Y-114918571D01*
X146563390Y-114918571D02*
X146515771Y-115013809D01*
X146515771Y-115013809D02*
X146515771Y-115204285D01*
X146515771Y-115204285D02*
X146563390Y-115299523D01*
X146563390Y-115299523D02*
X146611009Y-115347142D01*
X146611009Y-115347142D02*
X146706247Y-115394761D01*
D10*
X120409047Y-89257552D02*
X120637618Y-89257552D01*
X120523332Y-89257552D02*
X120523332Y-89657552D01*
X120523332Y-89657552D02*
X120561428Y-89600409D01*
X120561428Y-89600409D02*
X120599523Y-89562314D01*
X120599523Y-89562314D02*
X120637618Y-89543266D01*
X120161428Y-89657552D02*
X120123333Y-89657552D01*
X120123333Y-89657552D02*
X120085237Y-89638504D01*
X120085237Y-89638504D02*
X120066190Y-89619457D01*
X120066190Y-89619457D02*
X120047142Y-89581361D01*
X120047142Y-89581361D02*
X120028095Y-89505171D01*
X120028095Y-89505171D02*
X120028095Y-89409933D01*
X120028095Y-89409933D02*
X120047142Y-89333742D01*
X120047142Y-89333742D02*
X120066190Y-89295647D01*
X120066190Y-89295647D02*
X120085237Y-89276600D01*
X120085237Y-89276600D02*
X120123333Y-89257552D01*
X120123333Y-89257552D02*
X120161428Y-89257552D01*
X120161428Y-89257552D02*
X120199523Y-89276600D01*
X120199523Y-89276600D02*
X120218571Y-89295647D01*
X120218571Y-89295647D02*
X120237618Y-89333742D01*
X120237618Y-89333742D02*
X120256666Y-89409933D01*
X120256666Y-89409933D02*
X120256666Y-89505171D01*
X120256666Y-89505171D02*
X120237618Y-89581361D01*
X120237618Y-89581361D02*
X120218571Y-89619457D01*
X120218571Y-89619457D02*
X120199523Y-89638504D01*
X120199523Y-89638504D02*
X120161428Y-89657552D01*
X119780476Y-89657552D02*
X119742381Y-89657552D01*
X119742381Y-89657552D02*
X119704285Y-89638504D01*
X119704285Y-89638504D02*
X119685238Y-89619457D01*
X119685238Y-89619457D02*
X119666190Y-89581361D01*
X119666190Y-89581361D02*
X119647143Y-89505171D01*
X119647143Y-89505171D02*
X119647143Y-89409933D01*
X119647143Y-89409933D02*
X119666190Y-89333742D01*
X119666190Y-89333742D02*
X119685238Y-89295647D01*
X119685238Y-89295647D02*
X119704285Y-89276600D01*
X119704285Y-89276600D02*
X119742381Y-89257552D01*
X119742381Y-89257552D02*
X119780476Y-89257552D01*
X119780476Y-89257552D02*
X119818571Y-89276600D01*
X119818571Y-89276600D02*
X119837619Y-89295647D01*
X119837619Y-89295647D02*
X119856666Y-89333742D01*
X119856666Y-89333742D02*
X119875714Y-89409933D01*
X119875714Y-89409933D02*
X119875714Y-89505171D01*
X119875714Y-89505171D02*
X119856666Y-89581361D01*
X119856666Y-89581361D02*
X119837619Y-89619457D01*
X119837619Y-89619457D02*
X119818571Y-89638504D01*
X119818571Y-89638504D02*
X119780476Y-89657552D01*
X119475714Y-89524219D02*
X119475714Y-89257552D01*
X119475714Y-89486123D02*
X119456667Y-89505171D01*
X119456667Y-89505171D02*
X119418572Y-89524219D01*
X119418572Y-89524219D02*
X119361429Y-89524219D01*
X119361429Y-89524219D02*
X119323333Y-89505171D01*
X119323333Y-89505171D02*
X119304286Y-89467076D01*
X119304286Y-89467076D02*
X119304286Y-89257552D01*
X118980476Y-89467076D02*
X119113809Y-89467076D01*
X119113809Y-89257552D02*
X119113809Y-89657552D01*
X119113809Y-89657552D02*
X118923333Y-89657552D01*
X149202447Y-103433809D02*
X149488161Y-103433809D01*
X149488161Y-103433809D02*
X149545304Y-103452856D01*
X149545304Y-103452856D02*
X149583400Y-103490952D01*
X149583400Y-103490952D02*
X149602447Y-103548094D01*
X149602447Y-103548094D02*
X149602447Y-103586190D01*
X149602447Y-103033809D02*
X149602447Y-103262380D01*
X149602447Y-103148094D02*
X149202447Y-103148094D01*
X149202447Y-103148094D02*
X149259590Y-103186190D01*
X149259590Y-103186190D02*
X149297685Y-103224285D01*
X149297685Y-103224285D02*
X149316733Y-103262380D01*
X149202447Y-102786190D02*
X149202447Y-102748095D01*
X149202447Y-102748095D02*
X149221495Y-102709999D01*
X149221495Y-102709999D02*
X149240542Y-102690952D01*
X149240542Y-102690952D02*
X149278638Y-102671904D01*
X149278638Y-102671904D02*
X149354828Y-102652857D01*
X149354828Y-102652857D02*
X149450066Y-102652857D01*
X149450066Y-102652857D02*
X149526257Y-102671904D01*
X149526257Y-102671904D02*
X149564352Y-102690952D01*
X149564352Y-102690952D02*
X149583400Y-102709999D01*
X149583400Y-102709999D02*
X149602447Y-102748095D01*
X149602447Y-102748095D02*
X149602447Y-102786190D01*
X149602447Y-102786190D02*
X149583400Y-102824285D01*
X149583400Y-102824285D02*
X149564352Y-102843333D01*
X149564352Y-102843333D02*
X149526257Y-102862380D01*
X149526257Y-102862380D02*
X149450066Y-102881428D01*
X149450066Y-102881428D02*
X149354828Y-102881428D01*
X149354828Y-102881428D02*
X149278638Y-102862380D01*
X149278638Y-102862380D02*
X149240542Y-102843333D01*
X149240542Y-102843333D02*
X149221495Y-102824285D01*
X149221495Y-102824285D02*
X149202447Y-102786190D01*
D13*
X156236190Y-115572208D02*
X156236190Y-114622208D01*
X156236190Y-115074589D02*
X156779047Y-115074589D01*
X156779047Y-115572208D02*
X156779047Y-114622208D01*
X157729047Y-115572208D02*
X157186190Y-115572208D01*
X157457618Y-115572208D02*
X157457618Y-114622208D01*
X157457618Y-114622208D02*
X157367142Y-114757922D01*
X157367142Y-114757922D02*
X157276666Y-114848398D01*
X157276666Y-114848398D02*
X157186190Y-114893636D01*
D14*
%TO.C,J5*%
X136410000Y-61980000D02*
X138950000Y-61980000D01*
X136410000Y-69600000D02*
X136410000Y-61980000D01*
X138315000Y-69600000D02*
X136410000Y-69600000D01*
X138950000Y-61980000D02*
X138950000Y-68965000D01*
X138950000Y-68965000D02*
X138315000Y-69600000D01*
%TO.C,U2*%
D15*
X128540000Y-66460000D02*
X98060000Y-66460000D01*
X98060000Y-88050000D01*
X128540000Y-88050000D01*
X128540000Y-66460000D01*
D14*
%TO.C,J13*%
X150830000Y-92300000D02*
X158450000Y-92300000D01*
X150830000Y-94205000D02*
X150830000Y-92300000D01*
X151465000Y-94840000D02*
X150830000Y-94205000D01*
X158450000Y-92300000D02*
X158450000Y-94840000D01*
X158450000Y-94840000D02*
X151465000Y-94840000D01*
D16*
%TO.C,C4*%
X105579900Y-84463600D02*
X105579900Y-85276400D01*
X105579900Y-84463600D02*
X105579900Y-85276400D01*
X105579900Y-85276400D02*
X106087900Y-85276400D01*
X105579900Y-85276400D02*
X107180100Y-85276400D01*
X106087900Y-84463600D02*
X105579900Y-84463600D01*
X106087900Y-85276400D02*
X106087900Y-84463600D01*
X106672100Y-84463600D02*
X106672100Y-85276400D01*
X106672100Y-85276400D02*
X107180100Y-85276400D01*
X107180100Y-84463600D02*
X105579900Y-84463600D01*
X107180100Y-84463600D02*
X106672100Y-84463600D01*
X107180100Y-85276400D02*
X107180100Y-84463600D01*
X107180100Y-85276400D02*
X107180100Y-84463600D01*
X105783101Y-84870000D02*
X105783101Y-84870000D01*
X105783101Y-84870000D01*
X105783101Y-84870000D01*
X105783101Y-84870000D01*
X105783101Y-84870000D01*
X105783101Y-84870001D01*
X105783101Y-84870001D01*
X105783101Y-84870001D01*
X105783101Y-84870001D01*
X105783101Y-84870001D01*
X105783101Y-84870001D01*
X105783101Y-84870001D01*
X105783100Y-84870001D01*
X105783100Y-84870001D01*
X105783100Y-84870001D01*
X105783100Y-84870001D01*
X105783100Y-84870001D01*
X105783100Y-84870001D01*
X105783100Y-84870001D01*
X105783100Y-84870001D01*
X105783100Y-84870001D01*
X105783100Y-84870001D01*
X105783100Y-84870001D01*
X105783100Y-84870001D01*
X105783099Y-84870001D01*
X105783099Y-84870001D01*
X105783099Y-84870001D01*
X105783099Y-84870001D01*
X105783099Y-84870001D01*
X105783099Y-84870001D01*
X105783099Y-84870000D01*
X105783099Y-84870000D01*
X105783099Y-84870000D01*
X105783099Y-84870000D01*
X105783099Y-84870000D01*
X105783099Y-84870000D01*
X105783099Y-84870000D02*
X105783099Y-84870000D01*
X105783099Y-84870000D01*
X105783099Y-84870000D01*
X105783099Y-84870000D01*
X105783099Y-84870000D01*
X105783099Y-84870000D01*
X105783099Y-84869999D01*
X105783099Y-84869999D01*
X105783099Y-84869999D01*
X105783099Y-84869999D01*
X105783099Y-84869999D01*
X105783100Y-84869999D01*
X105783100Y-84869999D01*
X105783100Y-84869999D01*
X105783100Y-84869999D01*
X105783100Y-84869999D01*
X105783100Y-84869999D01*
X105783100Y-84869999D01*
X105783100Y-84869999D01*
X105783100Y-84869999D01*
X105783100Y-84869999D01*
X105783100Y-84869999D01*
X105783100Y-84869999D01*
X105783101Y-84869999D01*
X105783101Y-84869999D01*
X105783101Y-84869999D01*
X105783101Y-84869999D01*
X105783101Y-84869999D01*
X105783101Y-84869999D01*
X105783101Y-84870000D01*
X105783101Y-84870000D01*
X105783101Y-84870000D01*
X105783101Y-84870000D01*
X105783101Y-84870000D01*
X105783101Y-84870000D01*
X105783101Y-84870000D01*
%TO.C,F1*%
D14*
X104250000Y-95600000D02*
X99750000Y-95600000D01*
X99750000Y-92400000D01*
X104250000Y-92400000D01*
X104250000Y-95600000D01*
D15*
%TO.C,D1*%
X114120000Y-92467500D02*
X117020000Y-92467500D01*
X114120000Y-93767500D02*
X114120000Y-92467500D01*
X117020000Y-92467500D02*
X117020000Y-93767500D01*
X117020000Y-93767500D02*
X114120000Y-93767500D01*
D17*
X116620000Y-90867500D02*
G75*
G02*
X116420000Y-90867500I-100000J0D01*
G01*
X116420000Y-90867500D02*
G75*
G02*
X116620000Y-90867500I100000J0D01*
G01*
D14*
%TO.C,C9*%
X120552500Y-109280000D02*
X120552500Y-115580000D01*
X120552500Y-109280000D02*
X121552500Y-108280000D01*
X120552500Y-115580000D02*
X121552500Y-116580000D01*
X121140222Y-110930000D02*
X121940222Y-110930000D01*
X121540222Y-110530000D02*
X121540222Y-111330000D01*
X121552500Y-108280000D02*
X128852500Y-108280000D01*
X121552500Y-116580000D02*
X128852500Y-116580000D01*
X128852500Y-108280000D02*
X128852500Y-116580000D01*
X128702500Y-112430000D02*
G75*
G02*
X120702500Y-112430000I-4000000J0D01*
G01*
X120702500Y-112430000D02*
G75*
G02*
X128702500Y-112430000I4000000J0D01*
G01*
%TO.C,J11*%
X150760000Y-99190000D02*
X158380000Y-99190000D01*
X150760000Y-101095000D02*
X150760000Y-99190000D01*
X151395000Y-101730000D02*
X150760000Y-101095000D01*
X158380000Y-99190000D02*
X158380000Y-101730000D01*
X158380000Y-101730000D02*
X151395000Y-101730000D01*
%TO.C,J8*%
X97450000Y-99200000D02*
X99400000Y-97250000D01*
X97450000Y-107750000D02*
X97450000Y-99200000D01*
X99400000Y-97250000D02*
X105250000Y-97250000D01*
X99450000Y-97250000D02*
X99450000Y-107750000D01*
X100750000Y-97250000D02*
X100750000Y-107750000D01*
X101750000Y-97250000D02*
X101750000Y-107750000D01*
X102268000Y-101463000D02*
X100037000Y-99232000D01*
X102268000Y-106463000D02*
X100037000Y-104232000D01*
X102463000Y-101268000D02*
X100232000Y-99037000D01*
X102463000Y-106268000D02*
X100232000Y-104037000D01*
X105250000Y-97250000D02*
X105250000Y-107750000D01*
X105250000Y-107750000D02*
X97450000Y-107750000D01*
X102850000Y-100250000D02*
G75*
G02*
X99650000Y-100250000I-1600000J0D01*
G01*
X99650000Y-100250000D02*
G75*
G02*
X102850000Y-100250000I1600000J0D01*
G01*
X102850000Y-105250000D02*
G75*
G02*
X99650000Y-105250000I-1600000J0D01*
G01*
X99650000Y-105250000D02*
G75*
G02*
X102850000Y-105250000I1600000J0D01*
G01*
%TO.C,J7*%
X135620000Y-111350000D02*
X145780000Y-111350000D01*
X135620000Y-113255000D02*
X135620000Y-111350000D01*
X136255000Y-113890000D02*
X135620000Y-113255000D01*
X145780000Y-111350000D02*
X145780000Y-113890000D01*
X145780000Y-113890000D02*
X136255000Y-113890000D01*
%TO.C,C2*%
X106840000Y-75820000D02*
X106840000Y-80420000D01*
X106840000Y-75820000D02*
X107840000Y-74820000D01*
X106840000Y-80420000D02*
X107840000Y-81420000D01*
X107435162Y-76790000D02*
X108065162Y-76790000D01*
X107750162Y-76475000D02*
X107750162Y-77105000D01*
X107840000Y-74820000D02*
X113440000Y-74820000D01*
X107840000Y-81420000D02*
X113440000Y-81420000D01*
X113440000Y-74820000D02*
X113440000Y-81420000D01*
X113290000Y-78120000D02*
G75*
G02*
X106990000Y-78120000I-3150000J0D01*
G01*
X106990000Y-78120000D02*
G75*
G02*
X113290000Y-78120000I3150000J0D01*
G01*
%TO.C,J16*%
X150840000Y-84660000D02*
X158460000Y-84660000D01*
X150840000Y-86565000D02*
X150840000Y-84660000D01*
X151475000Y-87200000D02*
X150840000Y-86565000D01*
X158460000Y-84660000D02*
X158460000Y-87200000D01*
X158460000Y-87200000D02*
X151475000Y-87200000D01*
D16*
%TO.C,C8*%
X105963600Y-96476000D02*
X105963600Y-96984000D01*
X105963600Y-96476000D02*
X105963600Y-98076200D01*
X105963600Y-96984000D02*
X106776400Y-96984000D01*
X105963600Y-97568200D02*
X105963600Y-98076200D01*
X105963600Y-98076200D02*
X106776400Y-98076200D01*
X105963600Y-98076200D02*
X106776400Y-98076200D01*
X106776400Y-96476000D02*
X105963600Y-96476000D01*
X106776400Y-96476000D02*
X105963600Y-96476000D01*
X106776400Y-96984000D02*
X106776400Y-96476000D01*
X106776400Y-97568200D02*
X105963600Y-97568200D01*
X106776400Y-98076200D02*
X106776400Y-96476000D01*
X106776400Y-98076200D02*
X106776400Y-97568200D01*
X106370001Y-96679200D02*
X106370001Y-96679200D01*
X106370001Y-96679200D01*
X106370001Y-96679200D01*
X106370001Y-96679200D01*
X106370001Y-96679200D01*
X106370001Y-96679201D01*
X106370001Y-96679201D01*
X106370001Y-96679201D01*
X106370001Y-96679201D01*
X106370001Y-96679201D01*
X106370001Y-96679201D01*
X106370001Y-96679201D01*
X106370000Y-96679201D01*
X106370000Y-96679201D01*
X106370000Y-96679201D01*
X106370000Y-96679201D01*
X106370000Y-96679201D01*
X106370000Y-96679201D01*
X106370000Y-96679201D01*
X106370000Y-96679201D01*
X106370000Y-96679201D01*
X106370000Y-96679201D01*
X106370000Y-96679201D01*
X106370000Y-96679201D01*
X106369999Y-96679201D01*
X106369999Y-96679201D01*
X106369999Y-96679201D01*
X106369999Y-96679201D01*
X106369999Y-96679201D01*
X106369999Y-96679201D01*
X106369999Y-96679200D01*
X106369999Y-96679200D01*
X106369999Y-96679200D01*
X106369999Y-96679200D01*
X106369999Y-96679200D01*
X106369999Y-96679200D01*
X106369999Y-96679200D02*
X106369999Y-96679200D01*
X106369999Y-96679200D01*
X106369999Y-96679200D01*
X106369999Y-96679200D01*
X106369999Y-96679200D01*
X106369999Y-96679200D01*
X106369999Y-96679199D01*
X106369999Y-96679199D01*
X106369999Y-96679199D01*
X106369999Y-96679199D01*
X106369999Y-96679199D01*
X106370000Y-96679199D01*
X106370000Y-96679199D01*
X106370000Y-96679199D01*
X106370000Y-96679199D01*
X106370000Y-96679199D01*
X106370000Y-96679199D01*
X106370000Y-96679199D01*
X106370000Y-96679199D01*
X106370000Y-96679199D01*
X106370000Y-96679199D01*
X106370000Y-96679199D01*
X106370000Y-96679199D01*
X106370001Y-96679199D01*
X106370001Y-96679199D01*
X106370001Y-96679199D01*
X106370001Y-96679199D01*
X106370001Y-96679199D01*
X106370001Y-96679199D01*
X106370001Y-96679200D01*
X106370001Y-96679200D01*
X106370001Y-96679200D01*
X106370001Y-96679200D01*
X106370001Y-96679200D01*
X106370001Y-96679200D01*
X106370001Y-96679200D01*
%TO.C,R2*%
D14*
X116155000Y-96200000D02*
X114905000Y-96200000D01*
X114905000Y-98200000D01*
X116155000Y-98200000D01*
X116155000Y-96200000D01*
%TO.C,J12*%
X150750000Y-96650000D02*
X158370000Y-96650000D01*
X150750000Y-98555000D02*
X150750000Y-96650000D01*
X151385000Y-99190000D02*
X150750000Y-98555000D01*
X158370000Y-96650000D02*
X158370000Y-99190000D01*
X158370000Y-99190000D02*
X151385000Y-99190000D01*
D15*
%TO.C,U1*%
X131490000Y-73750000D02*
X131490000Y-106770000D01*
X131490000Y-106770000D02*
X149270000Y-106770000D01*
X149270000Y-73750000D02*
X131490000Y-73750000D01*
X149270000Y-106770000D02*
X149270000Y-73750000D01*
D14*
%TO.C,Q1*%
X112400000Y-95625000D02*
X112075000Y-95950000D01*
X111100000Y-95950000D01*
X111100000Y-93050000D01*
X112400000Y-93050000D01*
X112400000Y-95625000D01*
%TO.C,C7*%
X120470000Y-92685000D02*
X118470000Y-92685000D01*
X118470000Y-91435000D01*
X120470000Y-91435000D01*
X120470000Y-92685000D01*
%TO.C,J3*%
X131410000Y-61980000D02*
X133950000Y-61980000D01*
X131410000Y-69600000D02*
X131410000Y-61980000D01*
X133315000Y-69600000D02*
X131410000Y-69600000D01*
X133950000Y-61980000D02*
X133950000Y-68965000D01*
X133950000Y-68965000D02*
X133315000Y-69600000D01*
D16*
%TO.C,C1*%
X105549900Y-86203600D02*
X105549900Y-87016400D01*
X105549900Y-86203600D02*
X105549900Y-87016400D01*
X105549900Y-87016400D02*
X106057900Y-87016400D01*
X105549900Y-87016400D02*
X107150100Y-87016400D01*
X106057900Y-86203600D02*
X105549900Y-86203600D01*
X106057900Y-87016400D02*
X106057900Y-86203600D01*
X106642100Y-86203600D02*
X106642100Y-87016400D01*
X106642100Y-87016400D02*
X107150100Y-87016400D01*
X107150100Y-86203600D02*
X105549900Y-86203600D01*
X107150100Y-86203600D02*
X106642100Y-86203600D01*
X107150100Y-87016400D02*
X107150100Y-86203600D01*
X107150100Y-87016400D02*
X107150100Y-86203600D01*
X105753101Y-86610000D02*
X105753101Y-86610000D01*
X105753101Y-86610000D01*
X105753101Y-86610000D01*
X105753101Y-86610000D01*
X105753101Y-86610000D01*
X105753101Y-86610001D01*
X105753101Y-86610001D01*
X105753101Y-86610001D01*
X105753101Y-86610001D01*
X105753101Y-86610001D01*
X105753101Y-86610001D01*
X105753101Y-86610001D01*
X105753100Y-86610001D01*
X105753100Y-86610001D01*
X105753100Y-86610001D01*
X105753100Y-86610001D01*
X105753100Y-86610001D01*
X105753100Y-86610001D01*
X105753100Y-86610001D01*
X105753100Y-86610001D01*
X105753100Y-86610001D01*
X105753100Y-86610001D01*
X105753100Y-86610001D01*
X105753100Y-86610001D01*
X105753099Y-86610001D01*
X105753099Y-86610001D01*
X105753099Y-86610001D01*
X105753099Y-86610001D01*
X105753099Y-86610001D01*
X105753099Y-86610001D01*
X105753099Y-86610000D01*
X105753099Y-86610000D01*
X105753099Y-86610000D01*
X105753099Y-86610000D01*
X105753099Y-86610000D01*
X105753099Y-86610000D01*
X105753099Y-86610000D02*
X105753099Y-86610000D01*
X105753099Y-86610000D01*
X105753099Y-86610000D01*
X105753099Y-86610000D01*
X105753099Y-86610000D01*
X105753099Y-86610000D01*
X105753099Y-86609999D01*
X105753099Y-86609999D01*
X105753099Y-86609999D01*
X105753099Y-86609999D01*
X105753099Y-86609999D01*
X105753100Y-86609999D01*
X105753100Y-86609999D01*
X105753100Y-86609999D01*
X105753100Y-86609999D01*
X105753100Y-86609999D01*
X105753100Y-86609999D01*
X105753100Y-86609999D01*
X105753100Y-86609999D01*
X105753100Y-86609999D01*
X105753100Y-86609999D01*
X105753100Y-86609999D01*
X105753100Y-86609999D01*
X105753101Y-86609999D01*
X105753101Y-86609999D01*
X105753101Y-86609999D01*
X105753101Y-86609999D01*
X105753101Y-86609999D01*
X105753101Y-86609999D01*
X105753101Y-86610000D01*
X105753101Y-86610000D01*
X105753101Y-86610000D01*
X105753101Y-86610000D01*
X105753101Y-86610000D01*
X105753101Y-86610000D01*
X105753101Y-86610000D01*
D14*
%TO.C,J9*%
X150760000Y-104280000D02*
X158380000Y-104280000D01*
X150760000Y-106185000D02*
X150760000Y-104280000D01*
X151395000Y-106820000D02*
X150760000Y-106185000D01*
X158380000Y-104280000D02*
X158380000Y-106820000D01*
X158380000Y-106820000D02*
X151395000Y-106820000D01*
%TO.C,J14*%
X150830000Y-89750000D02*
X158450000Y-89750000D01*
X150830000Y-91655000D02*
X150830000Y-89750000D01*
X151465000Y-92290000D02*
X150830000Y-91655000D01*
X158450000Y-89750000D02*
X158450000Y-92290000D01*
X158450000Y-92290000D02*
X151465000Y-92290000D01*
%TO.C,J1*%
X106340000Y-108495000D02*
X116840000Y-108495000D01*
X106340000Y-111995000D02*
X116840000Y-111995000D01*
X106340000Y-112995000D02*
X116840000Y-112995000D01*
X106340000Y-114295000D02*
X116840000Y-114295000D01*
X106340000Y-114345000D02*
X106340000Y-108495000D01*
X108290000Y-116295000D02*
X106340000Y-114345000D01*
X110358000Y-111282000D02*
X108127000Y-113513000D01*
X110553000Y-111477000D02*
X108322000Y-113708000D01*
X115358000Y-111282000D02*
X113127000Y-113513000D01*
X115553000Y-111477000D02*
X113322000Y-113708000D01*
X116840000Y-108495000D02*
X116840000Y-116295000D01*
X116840000Y-116295000D02*
X108290000Y-116295000D01*
X110940000Y-112495000D02*
G75*
G02*
X107740000Y-112495000I-1600000J0D01*
G01*
X107740000Y-112495000D02*
G75*
G02*
X110940000Y-112495000I1600000J0D01*
G01*
X115940000Y-112495000D02*
G75*
G02*
X112740000Y-112495000I-1600000J0D01*
G01*
X112740000Y-112495000D02*
G75*
G02*
X115940000Y-112495000I1600000J0D01*
G01*
%TO.C,R1*%
X118285000Y-96210000D02*
X117035000Y-96210000D01*
X117035000Y-98210000D01*
X118285000Y-98210000D01*
X118285000Y-96210000D01*
%TO.C,J15*%
X150830000Y-87200000D02*
X158450000Y-87200000D01*
X150830000Y-89105000D02*
X150830000Y-87200000D01*
X151465000Y-89740000D02*
X150830000Y-89105000D01*
X158450000Y-87200000D02*
X158450000Y-89740000D01*
X158450000Y-89740000D02*
X151465000Y-89740000D01*
D16*
%TO.C,C5*%
X143779900Y-77153600D02*
X143779900Y-77966400D01*
X143779900Y-77153600D02*
X143779900Y-77966400D01*
X143779900Y-77966400D02*
X144287900Y-77966400D01*
X143779900Y-77966400D02*
X145380100Y-77966400D01*
X144287900Y-77153600D02*
X143779900Y-77153600D01*
X144287900Y-77966400D02*
X144287900Y-77153600D01*
X144872100Y-77153600D02*
X144872100Y-77966400D01*
X144872100Y-77966400D02*
X145380100Y-77966400D01*
X145380100Y-77153600D02*
X143779900Y-77153600D01*
X145380100Y-77153600D02*
X144872100Y-77153600D01*
X145380100Y-77966400D02*
X145380100Y-77153600D01*
X145380100Y-77966400D02*
X145380100Y-77153600D01*
X145176901Y-77560000D02*
X145176901Y-77560000D01*
X145176901Y-77560000D01*
X145176901Y-77560000D01*
X145176901Y-77560000D01*
X145176901Y-77560000D01*
X145176901Y-77560001D01*
X145176901Y-77560001D01*
X145176901Y-77560001D01*
X145176901Y-77560001D01*
X145176901Y-77560001D01*
X145176901Y-77560001D01*
X145176901Y-77560001D01*
X145176900Y-77560001D01*
X145176900Y-77560001D01*
X145176900Y-77560001D01*
X145176900Y-77560001D01*
X145176900Y-77560001D01*
X145176900Y-77560001D01*
X145176900Y-77560001D01*
X145176900Y-77560001D01*
X145176900Y-77560001D01*
X145176900Y-77560001D01*
X145176900Y-77560001D01*
X145176900Y-77560001D01*
X145176899Y-77560001D01*
X145176899Y-77560001D01*
X145176899Y-77560001D01*
X145176899Y-77560001D01*
X145176899Y-77560001D01*
X145176899Y-77560001D01*
X145176899Y-77560000D01*
X145176899Y-77560000D01*
X145176899Y-77560000D01*
X145176899Y-77560000D01*
X145176899Y-77560000D01*
X145176899Y-77560000D01*
X145176899Y-77560000D02*
X145176899Y-77560000D01*
X145176899Y-77560000D01*
X145176899Y-77560000D01*
X145176899Y-77560000D01*
X145176899Y-77560000D01*
X145176899Y-77560000D01*
X145176899Y-77559999D01*
X145176899Y-77559999D01*
X145176899Y-77559999D01*
X145176899Y-77559999D01*
X145176899Y-77559999D01*
X145176900Y-77559999D01*
X145176900Y-77559999D01*
X145176900Y-77559999D01*
X145176900Y-77559999D01*
X145176900Y-77559999D01*
X145176900Y-77559999D01*
X145176900Y-77559999D01*
X145176900Y-77559999D01*
X145176900Y-77559999D01*
X145176900Y-77559999D01*
X145176900Y-77559999D01*
X145176900Y-77559999D01*
X145176901Y-77559999D01*
X145176901Y-77559999D01*
X145176901Y-77559999D01*
X145176901Y-77559999D01*
X145176901Y-77559999D01*
X145176901Y-77559999D01*
X145176901Y-77560000D01*
X145176901Y-77560000D01*
X145176901Y-77560000D01*
X145176901Y-77560000D01*
X145176901Y-77560000D01*
X145176901Y-77560000D01*
X145176901Y-77560000D01*
D14*
%TO.C,J2*%
X146640000Y-61960000D02*
X149180000Y-61960000D01*
X146640000Y-69580000D02*
X146640000Y-61960000D01*
X148545000Y-69580000D02*
X146640000Y-69580000D01*
X149180000Y-61960000D02*
X149180000Y-68945000D01*
X149180000Y-68945000D02*
X148545000Y-69580000D01*
%TO.C,J4*%
X133910000Y-61980000D02*
X136450000Y-61980000D01*
X133910000Y-69600000D02*
X133910000Y-61980000D01*
X135815000Y-69600000D02*
X133910000Y-69600000D01*
X136450000Y-61980000D02*
X136450000Y-68965000D01*
X136450000Y-68965000D02*
X135815000Y-69600000D01*
%TO.C,J6*%
X135620000Y-113880000D02*
X145780000Y-113880000D01*
X135620000Y-115785000D02*
X135620000Y-113880000D01*
X136255000Y-116420000D02*
X135620000Y-115785000D01*
X145780000Y-113880000D02*
X145780000Y-116420000D01*
X145780000Y-116420000D02*
X136255000Y-116420000D01*
D16*
%TO.C,C6*%
X118989900Y-89933600D02*
X118989900Y-90746400D01*
X118989900Y-89933600D02*
X118989900Y-90746400D01*
X118989900Y-90746400D02*
X119497900Y-90746400D01*
X118989900Y-90746400D02*
X120590100Y-90746400D01*
X119497900Y-89933600D02*
X118989900Y-89933600D01*
X119497900Y-90746400D02*
X119497900Y-89933600D01*
X120082100Y-89933600D02*
X120082100Y-90746400D01*
X120082100Y-90746400D02*
X120590100Y-90746400D01*
X120590100Y-89933600D02*
X118989900Y-89933600D01*
X120590100Y-89933600D02*
X120082100Y-89933600D01*
X120590100Y-90746400D02*
X120590100Y-89933600D01*
X120590100Y-90746400D02*
X120590100Y-89933600D01*
X120386901Y-90340000D02*
X120386901Y-90340000D01*
X120386901Y-90340000D01*
X120386901Y-90340000D01*
X120386901Y-90340000D01*
X120386901Y-90340000D01*
X120386901Y-90340001D01*
X120386901Y-90340001D01*
X120386901Y-90340001D01*
X120386901Y-90340001D01*
X120386901Y-90340001D01*
X120386901Y-90340001D01*
X120386901Y-90340001D01*
X120386900Y-90340001D01*
X120386900Y-90340001D01*
X120386900Y-90340001D01*
X120386900Y-90340001D01*
X120386900Y-90340001D01*
X120386900Y-90340001D01*
X120386900Y-90340001D01*
X120386900Y-90340001D01*
X120386900Y-90340001D01*
X120386900Y-90340001D01*
X120386900Y-90340001D01*
X120386900Y-90340001D01*
X120386899Y-90340001D01*
X120386899Y-90340001D01*
X120386899Y-90340001D01*
X120386899Y-90340001D01*
X120386899Y-90340001D01*
X120386899Y-90340001D01*
X120386899Y-90340000D01*
X120386899Y-90340000D01*
X120386899Y-90340000D01*
X120386899Y-90340000D01*
X120386899Y-90340000D01*
X120386899Y-90340000D01*
X120386899Y-90340000D02*
X120386899Y-90340000D01*
X120386899Y-90340000D01*
X120386899Y-90340000D01*
X120386899Y-90340000D01*
X120386899Y-90340000D01*
X120386899Y-90340000D01*
X120386899Y-90339999D01*
X120386899Y-90339999D01*
X120386899Y-90339999D01*
X120386899Y-90339999D01*
X120386899Y-90339999D01*
X120386900Y-90339999D01*
X120386900Y-90339999D01*
X120386900Y-90339999D01*
X120386900Y-90339999D01*
X120386900Y-90339999D01*
X120386900Y-90339999D01*
X120386900Y-90339999D01*
X120386900Y-90339999D01*
X120386900Y-90339999D01*
X120386900Y-90339999D01*
X120386900Y-90339999D01*
X120386900Y-90339999D01*
X120386901Y-90339999D01*
X120386901Y-90339999D01*
X120386901Y-90339999D01*
X120386901Y-90339999D01*
X120386901Y-90339999D01*
X120386901Y-90339999D01*
X120386901Y-90340000D01*
X120386901Y-90340000D01*
X120386901Y-90340000D01*
X120386901Y-90340000D01*
X120386901Y-90340000D01*
X120386901Y-90340000D01*
X120386901Y-90340000D01*
D14*
%TO.C,J10*%
X150750000Y-101740000D02*
X158370000Y-101740000D01*
X150750000Y-103645000D02*
X150750000Y-101740000D01*
X151385000Y-104280000D02*
X150750000Y-103645000D01*
X158370000Y-101740000D02*
X158370000Y-104280000D01*
X158370000Y-104280000D02*
X151385000Y-104280000D01*
%TO.C,U3*%
D15*
X127120000Y-106900000D02*
X106820000Y-106900000D01*
X106820000Y-89100000D01*
X127120000Y-89100000D01*
X127120000Y-106900000D01*
%TO.C,D2*%
X107330000Y-96800000D02*
X110230000Y-96800000D01*
X107330000Y-98100000D02*
X107330000Y-96800000D01*
X110230000Y-96800000D02*
X110230000Y-98100000D01*
X110230000Y-98100000D02*
X107330000Y-98100000D01*
D17*
X109830000Y-95200000D02*
G75*
G02*
X109630000Y-95200000I-100000J0D01*
G01*
X109630000Y-95200000D02*
G75*
G02*
X109830000Y-95200000I100000J0D01*
G01*
%TD*%
M02*
