%TF.GenerationSoftware,KiCad,Pcbnew,9.0.7*%
%TF.CreationDate,2026-03-26T23:31:19-05:00*%
%TF.ProjectId,FilthyHPs_Maestro,46696c74-6879-4485-9073-5f4d61657374,rev?*%
%TF.SameCoordinates,Original*%
%TF.FileFunction,Soldermask,Top*%
%TF.FilePolarity,Negative*%
%FSLAX46Y46*%
G04 Gerber Fmt 4.6, Leading zero omitted, Abs format (unit mm)*
G04 Created by KiCad (PCBNEW 9.0.7) date 2026-03-26 23:31:19*
%MOMM*%
%LPD*%
G01*
G04 APERTURE LIST*
G04 Aperture macros list*
%AMRoundRect*
0 Rectangle with rounded corners*
0 $1 Rounding radius*
0 $2 $3 $4 $5 $6 $7 $8 $9 X,Y pos of 4 corners*
0 Add a 4 corners polygon primitive as box body*
4,1,4,$2,$3,$4,$5,$6,$7,$8,$9,$2,$3,0*
0 Add four circle primitives for the rounded corners*
1,1,$1+$1,$2,$3*
1,1,$1+$1,$4,$5*
1,1,$1+$1,$6,$7*
1,1,$1+$1,$8,$9*
0 Add four rect primitives between the rounded corners*
20,1,$1+$1,$2,$3,$4,$5,0*
20,1,$1+$1,$4,$5,$6,$7,0*
20,1,$1+$1,$6,$7,$8,$9,0*
20,1,$1+$1,$8,$9,$2,$3,0*%
G04 Aperture macros list end*
%ADD10R,1.700000X1.700000*%
%ADD11C,1.700000*%
%ADD12C,1.904000*%
%ADD13C,3.400000*%
%ADD14R,0.863600X0.812800*%
%ADD15RoundRect,0.250000X0.400000X1.450000X-0.400000X1.450000X-0.400000X-1.450000X0.400000X-1.450000X0*%
%ADD16RoundRect,0.100500X-0.301500X0.616500X-0.301500X-0.616500X0.301500X-0.616500X0.301500X0.616500X0*%
%ADD17RoundRect,0.250000X-1.500000X-1.000000X1.500000X-1.000000X1.500000X1.000000X-1.500000X1.000000X0*%
%ADD18RoundRect,0.250001X-1.149999X1.149999X-1.149999X-1.149999X1.149999X-1.149999X1.149999X1.149999X0*%
%ADD19C,2.800000*%
%ADD20RoundRect,0.250000X-1.500000X-0.550000X1.500000X-0.550000X1.500000X0.550000X-1.500000X0.550000X0*%
%ADD21R,0.812800X0.863600*%
%ADD22RoundRect,0.250000X-0.450000X0.350000X-0.450000X-0.350000X0.450000X-0.350000X0.450000X0.350000X0*%
%ADD23C,2.083600*%
%ADD24RoundRect,0.150000X0.587500X0.150000X-0.587500X0.150000X-0.587500X-0.150000X0.587500X-0.150000X0*%
%ADD25C,2.600000*%
%ADD26C,3.800000*%
%ADD27RoundRect,0.250000X0.337500X0.475000X-0.337500X0.475000X-0.337500X-0.475000X0.337500X-0.475000X0*%
%ADD28RoundRect,0.250001X-1.149999X-1.149999X1.149999X-1.149999X1.149999X1.149999X-1.149999X1.149999X0*%
%ADD29C,1.734000*%
%ADD30C,3.396000*%
G04 APERTURE END LIST*
D10*
%TO.C,J5*%
X137680000Y-68330000D03*
D11*
X137680000Y-65790000D03*
X137680000Y-63250000D03*
%TD*%
D12*
%TO.C,U2*%
X117364000Y-67984000D03*
X99584000Y-86526000D03*
D13*
X126000000Y-69000000D03*
X111395000Y-85510000D03*
D12*
X107204000Y-67984000D03*
X112284000Y-67984000D03*
X109744000Y-67984000D03*
X114824000Y-67984000D03*
X102124000Y-86526000D03*
%TD*%
D10*
%TO.C,J13*%
X152100000Y-93570000D03*
D11*
X154640000Y-93570000D03*
X157180000Y-93570000D03*
%TD*%
D14*
%TO.C,C4*%
X105656100Y-84870000D03*
X107103900Y-84870000D03*
%TD*%
D15*
%TO.C,F1*%
X104225000Y-94000000D03*
X99775000Y-94000000D03*
%TD*%
D16*
%TO.C,D1*%
X116520000Y-92057500D03*
X114620000Y-92057500D03*
X115570000Y-94177500D03*
%TD*%
D17*
%TO.C,C9*%
X121452500Y-112430000D03*
X127952500Y-112430000D03*
%TD*%
D10*
%TO.C,J11*%
X152030000Y-100460000D03*
D11*
X154570000Y-100460000D03*
X157110000Y-100460000D03*
%TD*%
D18*
%TO.C,J8*%
X101250000Y-100250000D03*
D19*
X101250000Y-105250000D03*
%TD*%
D10*
%TO.C,J7*%
X136890000Y-112620000D03*
D11*
X139430000Y-112620000D03*
X141970000Y-112620000D03*
X144510000Y-112620000D03*
%TD*%
D20*
%TO.C,C2*%
X107340000Y-78120000D03*
X112940000Y-78120000D03*
%TD*%
D10*
%TO.C,J16*%
X152110000Y-85930000D03*
D11*
X154650000Y-85930000D03*
X157190000Y-85930000D03*
%TD*%
D21*
%TO.C,C8*%
X106370000Y-96552200D03*
X106370000Y-98000000D03*
%TD*%
D22*
%TO.C,R2*%
X115530000Y-96200000D03*
X115530000Y-98200000D03*
%TD*%
D10*
%TO.C,J12*%
X152020000Y-97920000D03*
D11*
X154560000Y-97920000D03*
X157100000Y-97920000D03*
%TD*%
D23*
%TO.C,U1*%
X145079000Y-88863000D03*
X145079000Y-86323000D03*
X148000000Y-77560000D03*
X148000000Y-80100000D03*
X148000000Y-82640000D03*
X148000000Y-85180000D03*
X148000000Y-87720000D03*
X148000000Y-90260000D03*
X148000000Y-92800000D03*
X148000000Y-95340000D03*
X148000000Y-97880000D03*
X148000000Y-100420000D03*
X148000000Y-102960000D03*
X148000000Y-105500000D03*
X132760000Y-105500000D03*
X132760000Y-102960000D03*
X132760000Y-100420000D03*
X132760000Y-97880000D03*
X132760000Y-95340000D03*
X132760000Y-92800000D03*
X132760000Y-90260000D03*
X132760000Y-87720000D03*
X132760000Y-85180000D03*
X132760000Y-82640000D03*
X132760000Y-80100000D03*
X132760000Y-77560000D03*
%TD*%
D24*
%TO.C,Q1*%
X112687500Y-95450000D03*
X112687500Y-93550000D03*
X110812500Y-94500000D03*
%TD*%
D25*
%TO.C,H2*%
X98750000Y-115250000D03*
D26*
X98750000Y-115250000D03*
%TD*%
D27*
%TO.C,C7*%
X120507500Y-92060000D03*
X118432500Y-92060000D03*
%TD*%
D10*
%TO.C,J3*%
X132680000Y-68330000D03*
D11*
X132680000Y-65790000D03*
X132680000Y-63250000D03*
%TD*%
D14*
%TO.C,C1*%
X105626100Y-86610000D03*
X107073900Y-86610000D03*
%TD*%
D10*
%TO.C,J9*%
X152030000Y-105550000D03*
D11*
X154570000Y-105550000D03*
X157110000Y-105550000D03*
%TD*%
D10*
%TO.C,J14*%
X152100000Y-91020000D03*
D11*
X154640000Y-91020000D03*
X157180000Y-91020000D03*
%TD*%
D28*
%TO.C,J1*%
X109340000Y-112495000D03*
D19*
X114340000Y-112495000D03*
%TD*%
D25*
%TO.C,H3*%
X156971100Y-63500000D03*
D26*
X156971100Y-63500000D03*
%TD*%
D22*
%TO.C,R1*%
X117660000Y-96210000D03*
X117660000Y-98210000D03*
%TD*%
D25*
%TO.C,H4*%
X98750000Y-63500000D03*
D26*
X98750000Y-63500000D03*
%TD*%
D10*
%TO.C,J15*%
X152100000Y-88470000D03*
D11*
X154640000Y-88470000D03*
X157180000Y-88470000D03*
%TD*%
D14*
%TO.C,C5*%
X145303900Y-77560000D03*
X143856100Y-77560000D03*
%TD*%
D10*
%TO.C,J2*%
X147910000Y-68310000D03*
D11*
X147910000Y-65770000D03*
X147910000Y-63230000D03*
%TD*%
D10*
%TO.C,J4*%
X135180000Y-68330000D03*
D11*
X135180000Y-65790000D03*
X135180000Y-63250000D03*
%TD*%
D10*
%TO.C,J6*%
X136890000Y-115150000D03*
D11*
X139430000Y-115150000D03*
X141970000Y-115150000D03*
X144510000Y-115150000D03*
%TD*%
D14*
%TO.C,C6*%
X120513900Y-90340000D03*
X119066100Y-90340000D03*
%TD*%
D10*
%TO.C,J10*%
X152020000Y-103010000D03*
D11*
X154560000Y-103010000D03*
X157100000Y-103010000D03*
%TD*%
D25*
%TO.C,H1*%
X156960000Y-115140000D03*
D26*
X156960000Y-115140000D03*
%TD*%
D29*
%TO.C,U3*%
X125850000Y-101170000D03*
X125850000Y-96090000D03*
X125850000Y-93550000D03*
X125850000Y-91010000D03*
D30*
X125020000Y-104700000D03*
X109020000Y-91200000D03*
D29*
X125850000Y-98630000D03*
%TD*%
D16*
%TO.C,D2*%
X109730000Y-96390000D03*
X107830000Y-96390000D03*
X108780000Y-98510000D03*
%TD*%
M02*
