%TF.GenerationSoftware,KiCad,Pcbnew,9.0.7*%
%TF.CreationDate,2026-03-26T23:31:19-05:00*%
%TF.ProjectId,FilthyHPs_Maestro,46696c74-6879-4485-9073-5f4d61657374,rev?*%
%TF.SameCoordinates,Original*%
%TF.FileFunction,Copper,L2,Bot*%
%TF.FilePolarity,Positive*%
%FSLAX46Y46*%
G04 Gerber Fmt 4.6, Leading zero omitted, Abs format (unit mm)*
G04 Created by KiCad (PCBNEW 9.0.7) date 2026-03-26 23:31:19*
%MOMM*%
%LPD*%
G01*
G04 APERTURE LIST*
G04 Aperture macros list*
%AMRoundRect*
0 Rectangle with rounded corners*
0 $1 Rounding radius*
0 $2 $3 $4 $5 $6 $7 $8 $9 X,Y pos of 4 corners*
0 Add a 4 corners polygon primitive as box body*
4,1,4,$2,$3,$4,$5,$6,$7,$8,$9,$2,$3,0*
0 Add four circle primitives for the rounded corners*
1,1,$1+$1,$2,$3*
1,1,$1+$1,$4,$5*
1,1,$1+$1,$6,$7*
1,1,$1+$1,$8,$9*
0 Add four rect primitives between the rounded corners*
20,1,$1+$1,$2,$3,$4,$5,0*
20,1,$1+$1,$4,$5,$6,$7,0*
20,1,$1+$1,$6,$7,$8,$9,0*
20,1,$1+$1,$8,$9,$2,$3,0*%
G04 Aperture macros list end*
%TA.AperFunction,ComponentPad*%
%ADD10R,1.700000X1.700000*%
%TD*%
%TA.AperFunction,ComponentPad*%
%ADD11C,1.700000*%
%TD*%
%TA.AperFunction,ComponentPad*%
%ADD12C,3.400000*%
%TD*%
%TA.AperFunction,ComponentPad*%
%ADD13RoundRect,0.250001X-1.149999X1.149999X-1.149999X-1.149999X1.149999X-1.149999X1.149999X1.149999X0*%
%TD*%
%TA.AperFunction,ComponentPad*%
%ADD14C,2.800000*%
%TD*%
%TA.AperFunction,ComponentPad*%
%ADD15C,1.879600*%
%TD*%
%TA.AperFunction,ComponentPad*%
%ADD16C,2.600000*%
%TD*%
%TA.AperFunction,ConnectorPad*%
%ADD17C,3.800000*%
%TD*%
%TA.AperFunction,ComponentPad*%
%ADD18RoundRect,0.250001X-1.149999X-1.149999X1.149999X-1.149999X1.149999X1.149999X-1.149999X1.149999X0*%
%TD*%
%TA.AperFunction,ComponentPad*%
%ADD19C,1.530000*%
%TD*%
%TA.AperFunction,ComponentPad*%
%ADD20C,3.396000*%
%TD*%
%TA.AperFunction,ViaPad*%
%ADD21C,1.600000*%
%TD*%
%TA.AperFunction,ViaPad*%
%ADD22C,2.000000*%
%TD*%
%TA.AperFunction,Conductor*%
%ADD23C,1.000000*%
%TD*%
%TA.AperFunction,Conductor*%
%ADD24C,0.400000*%
%TD*%
G04 APERTURE END LIST*
D10*
%TO.P,J5,1,Pin_1*%
%TO.N,/TOP_HP_LED*%
X137680000Y-68330000D03*
D11*
%TO.P,J5,2,Pin_2*%
%TO.N,/5V_MAIN*%
X137680000Y-65790000D03*
%TO.P,J5,3,Pin_3*%
%TO.N,GND*%
X137680000Y-63250000D03*
%TD*%
%TO.P,U2,GND,GND*%
%TO.N,GND*%
X117364000Y-67984000D03*
X99584000Y-86526000D03*
D12*
%TO.P,U2,MH1*%
%TO.N,N/C*%
X126000000Y-69000000D03*
%TO.P,U2,MH2*%
X111395000Y-85510000D03*
D11*
%TO.P,U2,RST,RST*%
%TO.N,/MAESTRO_RST*%
X107204000Y-67984000D03*
%TO.P,U2,RX,RX*%
%TO.N,/MAESTRO_SERIAL_TX*%
X112284000Y-67984000D03*
%TO.P,U2,TX,TX*%
%TO.N,/MAESTRO_SERIAL_RX*%
X109744000Y-67984000D03*
%TO.P,U2,VIN,VIN*%
%TO.N,/5V_MAIN*%
X114824000Y-67984000D03*
%TO.P,U2,VSRV,VSRV*%
X102124000Y-86526000D03*
%TD*%
D10*
%TO.P,J13,1,Pin_1*%
%TO.N,/A0*%
X152100000Y-93570000D03*
D11*
%TO.P,J13,2,Pin_2*%
%TO.N,/5V_MAIN*%
X154640000Y-93570000D03*
%TO.P,J13,3,Pin_3*%
%TO.N,GND*%
X157180000Y-93570000D03*
%TD*%
D10*
%TO.P,J11,1,Pin_1*%
%TO.N,/D12*%
X152030000Y-100460000D03*
D11*
%TO.P,J11,2,Pin_2*%
%TO.N,/5V_MAIN*%
X154570000Y-100460000D03*
%TO.P,J11,3,Pin_3*%
%TO.N,GND*%
X157110000Y-100460000D03*
%TD*%
D13*
%TO.P,J8,1,Pin_1*%
%TO.N,/VIN_5V*%
X101250000Y-100250000D03*
D14*
%TO.P,J8,2,Pin_2*%
%TO.N,GND*%
X101250000Y-105250000D03*
%TD*%
D10*
%TO.P,J7,1,Pin_1*%
%TO.N,/I2C_DA*%
X136890000Y-112620000D03*
D11*
%TO.P,J7,2,Pin_2*%
%TO.N,/I2C_CLK*%
X139430000Y-112620000D03*
%TO.P,J7,3,Pin_3*%
%TO.N,GND*%
X141970000Y-112620000D03*
%TO.P,J7,4,Pin_4*%
%TO.N,/5V_MAIN*%
X144510000Y-112620000D03*
%TD*%
D10*
%TO.P,J16,1,Pin_1*%
%TO.N,/A3*%
X152110000Y-85930000D03*
D11*
%TO.P,J16,2,Pin_2*%
%TO.N,/5V_MAIN*%
X154650000Y-85930000D03*
%TO.P,J16,3,Pin_3*%
%TO.N,GND*%
X157190000Y-85930000D03*
%TD*%
D10*
%TO.P,J12,1,Pin_1*%
%TO.N,Net-(J12-Pin_1)*%
X152020000Y-97920000D03*
D11*
%TO.P,J12,2,Pin_2*%
%TO.N,/5V_MAIN*%
X154560000Y-97920000D03*
%TO.P,J12,3,Pin_3*%
%TO.N,GND*%
X157100000Y-97920000D03*
%TD*%
D15*
%TO.P,U1,JP2_1,A4*%
%TO.N,/I2C_DA*%
X145079000Y-88863000D03*
%TO.P,U1,JP2_2,A5*%
%TO.N,/I2C_CLK*%
X145079000Y-86323000D03*
%TO.P,U1,JP6_1,RAW*%
%TO.N,/5V_MAIN*%
X148000000Y-77560000D03*
%TO.P,U1,JP6_2,GND_1*%
%TO.N,GND*%
X148000000Y-80100000D03*
%TO.P,U1,JP6_3,RST_1*%
%TO.N,unconnected-(U1-RST_1-PadJP6_3)*%
X148000000Y-82640000D03*
%TO.P,U1,JP6_4,VCC_1*%
%TO.N,unconnected-(U1-VCC_1-PadJP6_4)*%
X148000000Y-85180000D03*
%TO.P,U1,JP6_5,A3*%
%TO.N,/A3*%
X148000000Y-87720000D03*
%TO.P,U1,JP6_6,A2*%
%TO.N,/A2*%
X148000000Y-90260000D03*
%TO.P,U1,JP6_7,A1*%
%TO.N,/A1*%
X148000000Y-92800000D03*
%TO.P,U1,JP6_8,A0*%
%TO.N,/A0*%
X148000000Y-95340000D03*
%TO.P,U1,JP6_9,SCK*%
%TO.N,Net-(J12-Pin_1)*%
X148000000Y-97880000D03*
%TO.P,U1,JP6_10,MISO*%
%TO.N,/D12*%
X148000000Y-100420000D03*
%TO.P,U1,JP6_11,MOSI*%
%TO.N,/D11*%
X148000000Y-102960000D03*
%TO.P,U1,JP6_12,D10*%
%TO.N,/D10*%
X148000000Y-105500000D03*
%TO.P,U1,JP7_1,D9*%
%TO.N,unconnected-(U1-D9-PadJP7_1)*%
X132760000Y-105500000D03*
%TO.P,U1,JP7_2,D8*%
%TO.N,unconnected-(U1-D8-PadJP7_2)*%
X132760000Y-102960000D03*
%TO.P,U1,JP7_3,D7*%
%TO.N,/MAESTRO_RST*%
X132760000Y-100420000D03*
%TO.P,U1,JP7_4,D6*%
%TO.N,/MAESTRO_SERIAL_RX*%
X132760000Y-97880000D03*
%TO.P,U1,JP7_5,D5*%
%TO.N,/MAESTRO_SERIAL_TX*%
X132760000Y-95340000D03*
%TO.P,U1,JP7_6,D4*%
%TO.N,/TOP_HP_LED*%
X132760000Y-92800000D03*
%TO.P,U1,JP7_7,D3*%
%TO.N,/BACK_HP_LED*%
X132760000Y-90260000D03*
%TO.P,U1,JP7_8,D2*%
%TO.N,/FRONT_HP_LED*%
X132760000Y-87720000D03*
%TO.P,U1,JP7_9,GND_2*%
%TO.N,GND*%
X132760000Y-85180000D03*
%TO.P,U1,JP7_10,RST_2*%
%TO.N,unconnected-(U1-RST_2-PadJP7_10)*%
X132760000Y-82640000D03*
%TO.P,U1,JP7_11,RXI_2*%
%TO.N,/RX0*%
X132760000Y-80100000D03*
%TO.P,U1,JP7_12,TXO_2*%
%TO.N,/TX0*%
X132760000Y-77560000D03*
%TD*%
D16*
%TO.P,H2,1*%
%TO.N,N/C*%
X98750000Y-115250000D03*
D17*
X98750000Y-115250000D03*
%TD*%
D10*
%TO.P,J3,1,Pin_1*%
%TO.N,/FRONT_HP_LED*%
X132680000Y-68330000D03*
D11*
%TO.P,J3,2,Pin_2*%
%TO.N,/5V_MAIN*%
X132680000Y-65790000D03*
%TO.P,J3,3,Pin_3*%
%TO.N,GND*%
X132680000Y-63250000D03*
%TD*%
D10*
%TO.P,J9,1,Pin_1*%
%TO.N,/D10*%
X152030000Y-105550000D03*
D11*
%TO.P,J9,2,Pin_2*%
%TO.N,/5V_MAIN*%
X154570000Y-105550000D03*
%TO.P,J9,3,Pin_3*%
%TO.N,GND*%
X157110000Y-105550000D03*
%TD*%
D10*
%TO.P,J14,1,Pin_1*%
%TO.N,/A1*%
X152100000Y-91020000D03*
D11*
%TO.P,J14,2,Pin_2*%
%TO.N,/5V_MAIN*%
X154640000Y-91020000D03*
%TO.P,J14,3,Pin_3*%
%TO.N,GND*%
X157180000Y-91020000D03*
%TD*%
D18*
%TO.P,J1,1,Pin_1*%
%TO.N,/VIN_RAW*%
X109340000Y-112495000D03*
D14*
%TO.P,J1,2,Pin_2*%
%TO.N,GND*%
X114340000Y-112495000D03*
%TD*%
D16*
%TO.P,H3,1*%
%TO.N,N/C*%
X156971100Y-63500000D03*
D17*
X156971100Y-63500000D03*
%TD*%
D16*
%TO.P,H4,1*%
%TO.N,N/C*%
X98750000Y-63500000D03*
D17*
X98750000Y-63500000D03*
%TD*%
D10*
%TO.P,J15,1,Pin_1*%
%TO.N,/A2*%
X152100000Y-88470000D03*
D11*
%TO.P,J15,2,Pin_2*%
%TO.N,/5V_MAIN*%
X154640000Y-88470000D03*
%TO.P,J15,3,Pin_3*%
%TO.N,GND*%
X157180000Y-88470000D03*
%TD*%
D10*
%TO.P,J2,1,Pin_1*%
%TO.N,/TX0*%
X147910000Y-68310000D03*
D11*
%TO.P,J2,2,Pin_2*%
%TO.N,/RX0*%
X147910000Y-65770000D03*
%TO.P,J2,3,Pin_3*%
%TO.N,GND*%
X147910000Y-63230000D03*
%TD*%
D10*
%TO.P,J4,1,Pin_1*%
%TO.N,/BACK_HP_LED*%
X135180000Y-68330000D03*
D11*
%TO.P,J4,2,Pin_2*%
%TO.N,/5V_MAIN*%
X135180000Y-65790000D03*
%TO.P,J4,3,Pin_3*%
%TO.N,GND*%
X135180000Y-63250000D03*
%TD*%
D10*
%TO.P,J6,1,Pin_1*%
%TO.N,/I2C_DA*%
X136890000Y-115150000D03*
D11*
%TO.P,J6,2,Pin_2*%
%TO.N,/I2C_CLK*%
X139430000Y-115150000D03*
%TO.P,J6,3,Pin_3*%
%TO.N,GND*%
X141970000Y-115150000D03*
%TO.P,J6,4,Pin_4*%
%TO.N,/5V_MAIN*%
X144510000Y-115150000D03*
%TD*%
D10*
%TO.P,J10,1,Pin_1*%
%TO.N,/D11*%
X152020000Y-103010000D03*
D11*
%TO.P,J10,2,Pin_2*%
%TO.N,/5V_MAIN*%
X154560000Y-103010000D03*
%TO.P,J10,3,Pin_3*%
%TO.N,GND*%
X157100000Y-103010000D03*
%TD*%
D16*
%TO.P,H1,1*%
%TO.N,N/C*%
X156960000Y-115140000D03*
D17*
X156960000Y-115140000D03*
%TD*%
D19*
%TO.P,U3,EN,~{EN}*%
%TO.N,unconnected-(U3-~{EN}-PadEN)*%
X125850000Y-101170000D03*
%TO.P,U3,GND1,GND*%
%TO.N,GND*%
X125850000Y-96090000D03*
%TO.P,U3,GND2,GND2*%
X125850000Y-93550000D03*
%TO.P,U3,OUT,VOUT*%
%TO.N,/5V_MAIN*%
X125850000Y-91010000D03*
D20*
%TO.P,U3,P1*%
%TO.N,N/C*%
X125020000Y-104700000D03*
%TO.P,U3,P2*%
X109020000Y-91200000D03*
D19*
%TO.P,U3,VIN,VIN*%
%TO.N,/VIN_RAW*%
X125850000Y-98630000D03*
%TD*%
D21*
%TO.N,/5V_MAIN*%
X113820000Y-90290000D03*
%TO.N,/VIN_RAW*%
X112610000Y-99130000D03*
D22*
X118600000Y-108360000D03*
%TD*%
D23*
%TO.N,/5V_MAIN*%
X127840000Y-91010000D02*
X127850000Y-91020000D01*
X102124000Y-86526000D02*
X103456000Y-86526000D01*
%TO.N,GND*%
X117364000Y-67984000D02*
X117364000Y-68484000D01*
D24*
%TO.N,/BACK_HP_LED*%
X132760000Y-90260000D02*
X134240000Y-90260000D01*
X135180000Y-73490000D02*
X135180000Y-68330000D01*
X134240000Y-90260000D02*
X135220000Y-89280000D01*
X135220000Y-73530000D02*
X135180000Y-73490000D01*
X135220000Y-89280000D02*
X135220000Y-73530000D01*
%TO.N,/TOP_HP_LED*%
X132760000Y-92800000D02*
X134720000Y-92800000D01*
X137680000Y-89840000D02*
X137680000Y-68330000D01*
X137650000Y-68360000D02*
X137680000Y-68330000D01*
X134720000Y-92800000D02*
X137680000Y-89840000D01*
X137670000Y-68340000D02*
X137680000Y-68330000D01*
%TO.N,/I2C_CLK*%
X139950000Y-112340000D02*
X139890000Y-112400000D01*
%TO.N,/I2C_DA*%
X136890000Y-112380000D02*
X136930000Y-112340000D01*
X136830000Y-112560000D02*
X136890000Y-112620000D01*
X136830000Y-95580000D02*
X136830000Y-112560000D01*
X136890000Y-112620000D02*
X136890000Y-112380000D01*
X145079000Y-88863000D02*
X143547000Y-88863000D01*
X136890000Y-112400000D02*
X136890000Y-115150000D01*
X143547000Y-88863000D02*
X136830000Y-95580000D01*
X136950000Y-112340000D02*
X136890000Y-112400000D01*
X137120000Y-112390000D02*
X136890000Y-112620000D01*
%TD*%
%TA.AperFunction,Conductor*%
%TO.N,/5V_MAIN*%
G36*
X158975533Y-60000816D02*
G01*
X159042760Y-60005625D01*
X159175699Y-60015136D01*
X159193210Y-60017654D01*
X159384964Y-60059375D01*
X159401930Y-60064358D01*
X159585796Y-60132948D01*
X159601871Y-60140290D01*
X159774113Y-60234357D01*
X159788986Y-60243916D01*
X159946080Y-60361538D01*
X159959440Y-60373117D01*
X160098190Y-60511898D01*
X160109772Y-60525267D01*
X160227350Y-60682373D01*
X160236912Y-60697254D01*
X160330938Y-60869507D01*
X160338285Y-60885603D01*
X160406830Y-61069465D01*
X160411813Y-61086445D01*
X160453491Y-61278203D01*
X160456006Y-61295716D01*
X160465908Y-61434519D01*
X160470263Y-61495581D01*
X160470308Y-61496203D01*
X160470622Y-61505051D01*
X160459528Y-117074008D01*
X160459506Y-117184408D01*
X160459506Y-117184409D01*
X160459493Y-117245878D01*
X160459175Y-117254721D01*
X160444826Y-117454819D01*
X160442306Y-117472329D01*
X160400570Y-117664028D01*
X160395583Y-117681001D01*
X160326995Y-117864803D01*
X160319644Y-117880892D01*
X160225599Y-118053068D01*
X160216033Y-118067949D01*
X160098448Y-118224985D01*
X160086862Y-118238353D01*
X159948124Y-118377062D01*
X159934754Y-118388645D01*
X159777694Y-118506198D01*
X159762812Y-118515761D01*
X159590617Y-118609772D01*
X159574526Y-118617120D01*
X159390707Y-118685672D01*
X159373732Y-118690655D01*
X159182031Y-118732350D01*
X159164522Y-118734867D01*
X159002142Y-118746479D01*
X158964314Y-118749184D01*
X158955473Y-118749500D01*
X129161218Y-118749500D01*
X129131756Y-118740849D01*
X129101747Y-118734308D01*
X129096762Y-118730573D01*
X129094179Y-118729815D01*
X129073504Y-118713148D01*
X128925808Y-118565333D01*
X128914223Y-118551950D01*
X128753864Y-118337523D01*
X128744306Y-118322635D01*
X128616108Y-118087552D01*
X128608765Y-118071448D01*
X128607462Y-118067949D01*
X128515350Y-117820514D01*
X128510376Y-117803530D01*
X128453641Y-117541849D01*
X128451135Y-117524333D01*
X128431923Y-117252790D01*
X128431615Y-117243971D01*
X128431700Y-117140000D01*
X128433217Y-115256286D01*
X128436064Y-111722135D01*
X135539500Y-111722135D01*
X135539500Y-113517870D01*
X135539501Y-113517876D01*
X135545908Y-113577483D01*
X135596202Y-113712328D01*
X135596203Y-113712330D01*
X135669835Y-113810689D01*
X135694252Y-113876153D01*
X135679401Y-113944426D01*
X135669835Y-113959311D01*
X135596203Y-114057669D01*
X135596202Y-114057671D01*
X135545908Y-114192517D01*
X135539501Y-114252116D01*
X135539500Y-114252135D01*
X135539500Y-116047870D01*
X135539501Y-116047876D01*
X135545908Y-116107483D01*
X135596202Y-116242328D01*
X135596206Y-116242335D01*
X135682452Y-116357544D01*
X135682455Y-116357547D01*
X135797664Y-116443793D01*
X135797671Y-116443797D01*
X135932517Y-116494091D01*
X135932516Y-116494091D01*
X135939444Y-116494835D01*
X135992127Y-116500500D01*
X137787872Y-116500499D01*
X137847483Y-116494091D01*
X137982331Y-116443796D01*
X138097546Y-116357546D01*
X138183796Y-116242331D01*
X138232810Y-116110916D01*
X138274681Y-116054984D01*
X138340145Y-116030566D01*
X138408418Y-116045417D01*
X138436673Y-116066569D01*
X138550213Y-116180109D01*
X138722179Y-116305048D01*
X138722181Y-116305049D01*
X138722184Y-116305051D01*
X138911588Y-116401557D01*
X139113757Y-116467246D01*
X139323713Y-116500500D01*
X139323714Y-116500500D01*
X139536286Y-116500500D01*
X139536287Y-116500500D01*
X139746243Y-116467246D01*
X139948412Y-116401557D01*
X140137816Y-116305051D01*
X140224138Y-116242335D01*
X140309786Y-116180109D01*
X140309788Y-116180106D01*
X140309792Y-116180104D01*
X140460104Y-116029792D01*
X140460106Y-116029788D01*
X140460109Y-116029786D01*
X140585048Y-115857820D01*
X140585047Y-115857820D01*
X140585051Y-115857816D01*
X140589514Y-115849054D01*
X140637488Y-115798259D01*
X140705308Y-115781463D01*
X140771444Y-115803999D01*
X140810486Y-115849056D01*
X140814951Y-115857820D01*
X140939890Y-116029786D01*
X141090213Y-116180109D01*
X141262179Y-116305048D01*
X141262181Y-116305049D01*
X141262184Y-116305051D01*
X141451588Y-116401557D01*
X141653757Y-116467246D01*
X141863713Y-116500500D01*
X141863714Y-116500500D01*
X142076286Y-116500500D01*
X142076287Y-116500500D01*
X142286243Y-116467246D01*
X142488412Y-116401557D01*
X142677816Y-116305051D01*
X142764138Y-116242335D01*
X142849786Y-116180109D01*
X142849788Y-116180106D01*
X142849792Y-116180104D01*
X143000104Y-116029792D01*
X143000106Y-116029788D01*
X143000109Y-116029786D01*
X143125048Y-115857820D01*
X143125047Y-115857820D01*
X143125051Y-115857816D01*
X143221557Y-115668412D01*
X143287246Y-115466243D01*
X143320500Y-115256287D01*
X143320500Y-115043713D01*
X143314398Y-115005186D01*
X154559500Y-115005186D01*
X154559500Y-115274813D01*
X154589686Y-115542719D01*
X154589688Y-115542731D01*
X154649684Y-115805594D01*
X154649687Y-115805602D01*
X154738734Y-116060082D01*
X154855714Y-116302994D01*
X154855716Y-116302997D01*
X154999162Y-116531289D01*
X155167266Y-116742085D01*
X155357915Y-116932734D01*
X155568711Y-117100838D01*
X155797003Y-117244284D01*
X156039921Y-117361267D01*
X156155564Y-117401732D01*
X156294397Y-117450312D01*
X156294405Y-117450315D01*
X156294408Y-117450315D01*
X156294409Y-117450316D01*
X156557268Y-117510312D01*
X156825187Y-117540499D01*
X156825188Y-117540500D01*
X156825191Y-117540500D01*
X157094812Y-117540500D01*
X157094812Y-117540499D01*
X157362732Y-117510312D01*
X157625591Y-117450316D01*
X157880079Y-117361267D01*
X158122997Y-117244284D01*
X158351289Y-117100838D01*
X158562085Y-116932734D01*
X158752734Y-116742085D01*
X158920838Y-116531289D01*
X159064284Y-116302997D01*
X159181267Y-116060079D01*
X159270316Y-115805591D01*
X159330312Y-115542732D01*
X159360500Y-115274809D01*
X159360500Y-115005191D01*
X159330312Y-114737268D01*
X159270316Y-114474409D01*
X159181267Y-114219921D01*
X159064284Y-113977003D01*
X158920838Y-113748711D01*
X158752734Y-113537915D01*
X158562085Y-113347266D01*
X158537700Y-113327820D01*
X158452914Y-113260205D01*
X158351289Y-113179162D01*
X158122997Y-113035716D01*
X158122994Y-113035714D01*
X157880082Y-112918734D01*
X157625602Y-112829687D01*
X157625594Y-112829684D01*
X157428446Y-112784687D01*
X157362732Y-112769688D01*
X157362728Y-112769687D01*
X157362719Y-112769686D01*
X157094813Y-112739500D01*
X157094809Y-112739500D01*
X156825191Y-112739500D01*
X156825186Y-112739500D01*
X156557280Y-112769686D01*
X156557268Y-112769688D01*
X156294405Y-112829684D01*
X156294397Y-112829687D01*
X156039917Y-112918734D01*
X155797005Y-113035714D01*
X155568712Y-113179161D01*
X155357915Y-113347265D01*
X155167265Y-113537915D01*
X154999161Y-113748712D01*
X154855714Y-113977005D01*
X154738734Y-114219917D01*
X154649687Y-114474397D01*
X154649684Y-114474405D01*
X154589688Y-114737268D01*
X154589686Y-114737280D01*
X154559500Y-115005186D01*
X143314398Y-115005186D01*
X143287246Y-114833757D01*
X143221557Y-114631588D01*
X143125051Y-114442184D01*
X143125049Y-114442181D01*
X143125048Y-114442179D01*
X143000109Y-114270213D01*
X142849786Y-114119890D01*
X142677815Y-113994948D01*
X142673664Y-113992404D01*
X142674376Y-113991240D01*
X142628076Y-113947519D01*
X142611275Y-113879700D01*
X142633808Y-113813563D01*
X142674236Y-113778530D01*
X142673664Y-113777596D01*
X142677810Y-113775054D01*
X142677816Y-113775051D01*
X142787987Y-113695008D01*
X142849786Y-113650109D01*
X142849788Y-113650106D01*
X142849792Y-113650104D01*
X143000104Y-113499792D01*
X143000106Y-113499788D01*
X143000109Y-113499786D01*
X143125048Y-113327820D01*
X143125047Y-113327820D01*
X143125051Y-113327816D01*
X143221557Y-113138412D01*
X143287246Y-112936243D01*
X143320500Y-112726287D01*
X143320500Y-112513713D01*
X143287246Y-112303757D01*
X143221557Y-112101588D01*
X143125051Y-111912184D01*
X143125049Y-111912181D01*
X143125048Y-111912179D01*
X143000109Y-111740213D01*
X142849786Y-111589890D01*
X142677820Y-111464951D01*
X142488414Y-111368444D01*
X142488413Y-111368443D01*
X142488412Y-111368443D01*
X142286243Y-111302754D01*
X142286241Y-111302753D01*
X142286240Y-111302753D01*
X142124957Y-111277208D01*
X142076287Y-111269500D01*
X141863713Y-111269500D01*
X141815042Y-111277208D01*
X141653760Y-111302753D01*
X141451585Y-111368444D01*
X141262179Y-111464951D01*
X141090213Y-111589890D01*
X140939890Y-111740213D01*
X140814949Y-111912182D01*
X140810484Y-111920946D01*
X140762509Y-111971742D01*
X140694688Y-111988536D01*
X140628553Y-111965998D01*
X140589516Y-111920946D01*
X140585050Y-111912182D01*
X140460109Y-111740213D01*
X140309786Y-111589890D01*
X140137820Y-111464951D01*
X139948414Y-111368444D01*
X139948413Y-111368443D01*
X139948412Y-111368443D01*
X139746243Y-111302754D01*
X139746241Y-111302753D01*
X139746240Y-111302753D01*
X139584957Y-111277208D01*
X139536287Y-111269500D01*
X139323713Y-111269500D01*
X139275042Y-111277208D01*
X139113760Y-111302753D01*
X138911585Y-111368444D01*
X138722179Y-111464951D01*
X138550215Y-111589889D01*
X138436673Y-111703431D01*
X138375350Y-111736915D01*
X138305658Y-111731931D01*
X138249725Y-111690059D01*
X138232810Y-111659082D01*
X138183797Y-111527671D01*
X138183793Y-111527664D01*
X138097547Y-111412455D01*
X138097544Y-111412452D01*
X137982335Y-111326206D01*
X137982328Y-111326202D01*
X137847482Y-111275908D01*
X137847483Y-111275908D01*
X137787883Y-111269501D01*
X137787881Y-111269500D01*
X137787873Y-111269500D01*
X137787865Y-111269500D01*
X137654500Y-111269500D01*
X137587461Y-111249815D01*
X137541706Y-111197011D01*
X137530500Y-111145500D01*
X137530500Y-95921517D01*
X137550185Y-95854478D01*
X137566814Y-95833841D01*
X143717396Y-89683258D01*
X143778717Y-89649775D01*
X143848409Y-89654759D01*
X143904342Y-89696631D01*
X143905393Y-89698056D01*
X143980394Y-89801286D01*
X143980398Y-89801291D01*
X144140708Y-89961601D01*
X144140713Y-89961605D01*
X144179653Y-89989896D01*
X144324118Y-90094855D01*
X144456166Y-90162137D01*
X144526116Y-90197779D01*
X144526119Y-90197780D01*
X144611563Y-90225542D01*
X144741729Y-90267835D01*
X144965646Y-90303300D01*
X144965647Y-90303300D01*
X145192353Y-90303300D01*
X145192354Y-90303300D01*
X145416271Y-90267835D01*
X145631883Y-90197779D01*
X145833882Y-90094855D01*
X146017293Y-89961600D01*
X146177600Y-89801293D01*
X146310855Y-89617882D01*
X146413779Y-89415883D01*
X146483835Y-89200271D01*
X146519300Y-88976354D01*
X146519300Y-88749646D01*
X146483835Y-88525729D01*
X146416629Y-88318887D01*
X146413780Y-88310119D01*
X146413779Y-88310116D01*
X146363425Y-88211292D01*
X146310855Y-88108118D01*
X146293829Y-88084684D01*
X146177605Y-87924713D01*
X146177601Y-87924708D01*
X146017293Y-87764400D01*
X146014236Y-87762179D01*
X145919456Y-87693317D01*
X145876791Y-87637989D01*
X145870812Y-87568376D01*
X145903417Y-87506580D01*
X145919456Y-87492682D01*
X146017293Y-87421600D01*
X146177600Y-87261293D01*
X146310855Y-87077882D01*
X146413779Y-86875883D01*
X146483835Y-86660271D01*
X146519300Y-86436354D01*
X146519300Y-86209646D01*
X146483835Y-85985729D01*
X146413779Y-85770117D01*
X146413779Y-85770116D01*
X146354730Y-85654228D01*
X146310855Y-85568118D01*
X146293829Y-85544684D01*
X146177605Y-85384713D01*
X146177601Y-85384708D01*
X146017291Y-85224398D01*
X146017286Y-85224394D01*
X145833885Y-85091147D01*
X145833884Y-85091146D01*
X145833882Y-85091145D01*
X145718069Y-85032135D01*
X145631883Y-84988220D01*
X145631880Y-84988219D01*
X145416272Y-84918165D01*
X145300887Y-84899890D01*
X145192354Y-84882700D01*
X144965646Y-84882700D01*
X144891007Y-84894521D01*
X144741727Y-84918165D01*
X144526119Y-84988219D01*
X144526116Y-84988220D01*
X144324114Y-85091147D01*
X144140713Y-85224394D01*
X144140708Y-85224398D01*
X143980398Y-85384708D01*
X143980394Y-85384713D01*
X143847147Y-85568114D01*
X143744220Y-85770116D01*
X143744219Y-85770119D01*
X143674165Y-85985727D01*
X143666157Y-86036287D01*
X143638700Y-86209646D01*
X143638700Y-86436354D01*
X143646461Y-86485352D01*
X143674165Y-86660272D01*
X143744219Y-86875880D01*
X143744220Y-86875883D01*
X143847147Y-87077885D01*
X143980394Y-87261286D01*
X143980398Y-87261291D01*
X144140708Y-87421601D01*
X144140713Y-87421605D01*
X144238542Y-87492682D01*
X144281208Y-87548012D01*
X144287187Y-87617625D01*
X144254582Y-87679420D01*
X144238542Y-87693318D01*
X144140713Y-87764394D01*
X144140708Y-87764398D01*
X143980394Y-87924712D01*
X143844771Y-88111385D01*
X143789442Y-88154051D01*
X143744453Y-88162500D01*
X143478003Y-88162500D01*
X143369590Y-88184065D01*
X143369589Y-88184065D01*
X143356131Y-88186742D01*
X143342673Y-88189419D01*
X143342671Y-88189420D01*
X143289866Y-88211292D01*
X143289864Y-88211293D01*
X143289863Y-88211292D01*
X143215196Y-88242221D01*
X143215181Y-88242229D01*
X143169306Y-88272883D01*
X143100457Y-88318886D01*
X143100453Y-88318889D01*
X136285888Y-95133453D01*
X136285887Y-95133454D01*
X136214248Y-95240670D01*
X136214248Y-95240671D01*
X136209225Y-95248189D01*
X136209224Y-95248191D01*
X136156420Y-95375671D01*
X136156418Y-95375677D01*
X136129500Y-95511004D01*
X136129500Y-111145500D01*
X136109815Y-111212539D01*
X136057011Y-111258294D01*
X136005507Y-111269500D01*
X135992133Y-111269500D01*
X135992123Y-111269501D01*
X135932516Y-111275908D01*
X135797671Y-111326202D01*
X135797664Y-111326206D01*
X135682455Y-111412452D01*
X135682452Y-111412455D01*
X135596206Y-111527664D01*
X135596202Y-111527671D01*
X135545908Y-111662517D01*
X135539501Y-111722116D01*
X135539500Y-111722135D01*
X128436064Y-111722135D01*
X128436067Y-111718706D01*
X128440465Y-106257820D01*
X128450000Y-94420000D01*
X128449999Y-94420000D01*
X127024976Y-94420843D01*
X126957925Y-94401198D01*
X126912139Y-94348421D01*
X126902155Y-94279269D01*
X126924587Y-94223955D01*
X126924959Y-94223442D01*
X126932353Y-94213266D01*
X127022785Y-94035783D01*
X127039747Y-93983580D01*
X127084338Y-93846343D01*
X127084338Y-93846342D01*
X127084339Y-93846339D01*
X127115500Y-93649597D01*
X127115500Y-93450403D01*
X127084339Y-93253661D01*
X127084338Y-93253657D01*
X127084338Y-93253656D01*
X127022786Y-93064219D01*
X126981819Y-92983817D01*
X126932353Y-92886734D01*
X126815269Y-92725582D01*
X126674418Y-92584731D01*
X126513266Y-92467647D01*
X126428356Y-92424383D01*
X126335780Y-92377213D01*
X126146342Y-92315661D01*
X125998782Y-92292290D01*
X125949597Y-92284500D01*
X125750403Y-92284500D01*
X125684822Y-92294887D01*
X125553659Y-92315661D01*
X125553656Y-92315661D01*
X125364219Y-92377213D01*
X125186733Y-92467647D01*
X125094790Y-92534447D01*
X125025582Y-92584731D01*
X125025580Y-92584733D01*
X125025579Y-92584733D01*
X124884733Y-92725579D01*
X124884733Y-92725580D01*
X124884731Y-92725582D01*
X124834447Y-92794790D01*
X124767647Y-92886733D01*
X124677213Y-93064219D01*
X124615661Y-93253656D01*
X124615661Y-93253659D01*
X124584500Y-93450403D01*
X124584500Y-93649596D01*
X124615661Y-93846340D01*
X124615661Y-93846343D01*
X124677213Y-94035780D01*
X124767648Y-94213269D01*
X124776425Y-94225349D01*
X124799904Y-94291156D01*
X124784078Y-94359210D01*
X124733971Y-94407904D01*
X124676179Y-94422233D01*
X119236687Y-94425454D01*
X113565612Y-94428812D01*
X113556763Y-94428501D01*
X113285288Y-94409239D01*
X113267768Y-94406730D01*
X113006135Y-94349955D01*
X112989151Y-94344977D01*
X112738264Y-94251532D01*
X112722161Y-94244186D01*
X112487141Y-94115979D01*
X112472248Y-94106416D01*
X112257868Y-93946050D01*
X112244489Y-93934464D01*
X112196235Y-93886239D01*
X112055128Y-93745215D01*
X112043534Y-93731842D01*
X111883047Y-93517563D01*
X111873475Y-93502677D01*
X111791644Y-93352883D01*
X111745120Y-93267719D01*
X111737767Y-93251624D01*
X111667840Y-93064219D01*
X111644175Y-93000796D01*
X111639188Y-92983817D01*
X111582256Y-92722211D01*
X111579739Y-92704715D01*
X111560316Y-92433232D01*
X111560000Y-92424383D01*
X111560000Y-89020000D01*
X109560000Y-89020000D01*
X109312744Y-89020000D01*
X109296559Y-89018939D01*
X109164106Y-89001501D01*
X109164103Y-89001500D01*
X109164097Y-89001500D01*
X108875903Y-89001500D01*
X108875897Y-89001500D01*
X108875893Y-89001501D01*
X108743441Y-89018939D01*
X108727256Y-89020000D01*
X96755109Y-89020000D01*
X96746261Y-89019684D01*
X96474834Y-89000266D01*
X96457318Y-88997747D01*
X96195759Y-88940836D01*
X96178780Y-88935849D01*
X95927991Y-88842287D01*
X95911896Y-88834935D01*
X95676975Y-88706626D01*
X95662089Y-88697057D01*
X95447821Y-88536612D01*
X95434449Y-88525021D01*
X95286804Y-88377325D01*
X95253329Y-88315996D01*
X95250500Y-88289659D01*
X95250500Y-86419713D01*
X98233500Y-86419713D01*
X98233500Y-86632287D01*
X98243534Y-86695644D01*
X98264479Y-86827883D01*
X98266754Y-86842243D01*
X98325268Y-87022331D01*
X98332444Y-87044414D01*
X98428951Y-87233820D01*
X98553890Y-87405786D01*
X98704213Y-87556109D01*
X98876179Y-87681048D01*
X98876181Y-87681049D01*
X98876184Y-87681051D01*
X99065588Y-87777557D01*
X99267757Y-87843246D01*
X99477713Y-87876500D01*
X99477714Y-87876500D01*
X99690286Y-87876500D01*
X99690287Y-87876500D01*
X99900243Y-87843246D01*
X100102412Y-87777557D01*
X100291816Y-87681051D01*
X100379115Y-87617625D01*
X100463786Y-87556109D01*
X100463788Y-87556106D01*
X100463792Y-87556104D01*
X100614104Y-87405792D01*
X100614106Y-87405788D01*
X100614109Y-87405786D01*
X100739048Y-87233820D01*
X100739047Y-87233820D01*
X100739051Y-87233816D01*
X100835557Y-87044412D01*
X100901246Y-86842243D01*
X100934500Y-86632287D01*
X100934500Y-86419713D01*
X100901246Y-86209757D01*
X100835557Y-86007588D01*
X100739051Y-85818184D01*
X100739049Y-85818181D01*
X100739048Y-85818179D01*
X100614109Y-85646213D01*
X100463790Y-85495894D01*
X100463785Y-85495890D01*
X100417182Y-85462031D01*
X100291820Y-85370951D01*
X100281667Y-85365778D01*
X109194500Y-85365778D01*
X109194500Y-85654221D01*
X109194501Y-85654238D01*
X109232149Y-85940206D01*
X109232150Y-85940211D01*
X109232151Y-85940217D01*
X109304344Y-86209646D01*
X109306809Y-86218844D01*
X109306814Y-86218860D01*
X109417191Y-86485336D01*
X109417199Y-86485352D01*
X109561420Y-86735148D01*
X109561431Y-86735164D01*
X109737024Y-86964002D01*
X109737030Y-86964009D01*
X109940990Y-87167969D01*
X109940997Y-87167975D01*
X110026803Y-87233816D01*
X110169844Y-87343575D01*
X110169851Y-87343579D01*
X110419647Y-87487800D01*
X110419663Y-87487808D01*
X110686139Y-87598185D01*
X110686145Y-87598186D01*
X110686155Y-87598191D01*
X110964783Y-87672849D01*
X111250772Y-87710500D01*
X111250779Y-87710500D01*
X111539221Y-87710500D01*
X111539228Y-87710500D01*
X111825217Y-87672849D01*
X112103845Y-87598191D01*
X112103857Y-87598185D01*
X112103860Y-87598185D01*
X112370336Y-87487808D01*
X112370339Y-87487806D01*
X112370345Y-87487804D01*
X112620156Y-87343575D01*
X112849004Y-87167974D01*
X113052974Y-86964004D01*
X113228575Y-86735156D01*
X113372804Y-86485345D01*
X113377245Y-86474625D01*
X113483185Y-86218860D01*
X113483185Y-86218857D01*
X113483191Y-86218845D01*
X113557849Y-85940217D01*
X113595500Y-85654228D01*
X113595500Y-85365772D01*
X113557849Y-85079783D01*
X113483191Y-84801155D01*
X113483186Y-84801145D01*
X113483185Y-84801139D01*
X113372808Y-84534663D01*
X113372800Y-84534647D01*
X113228579Y-84284851D01*
X113228575Y-84284844D01*
X113052974Y-84055996D01*
X113052969Y-84055990D01*
X112849009Y-83852030D01*
X112849002Y-83852024D01*
X112620164Y-83676431D01*
X112620162Y-83676429D01*
X112620156Y-83676425D01*
X112620151Y-83676422D01*
X112620148Y-83676420D01*
X112370352Y-83532199D01*
X112370336Y-83532191D01*
X112103860Y-83421814D01*
X112103848Y-83421810D01*
X112103845Y-83421809D01*
X111825217Y-83347151D01*
X111825211Y-83347150D01*
X111825206Y-83347149D01*
X111539238Y-83309501D01*
X111539233Y-83309500D01*
X111539228Y-83309500D01*
X111250772Y-83309500D01*
X111250766Y-83309500D01*
X111250761Y-83309501D01*
X110964793Y-83347149D01*
X110964786Y-83347150D01*
X110964783Y-83347151D01*
X110786648Y-83394882D01*
X110686155Y-83421809D01*
X110686139Y-83421814D01*
X110419663Y-83532191D01*
X110419647Y-83532199D01*
X110169851Y-83676420D01*
X110169835Y-83676431D01*
X109940997Y-83852024D01*
X109940990Y-83852030D01*
X109737030Y-84055990D01*
X109737024Y-84055997D01*
X109561431Y-84284835D01*
X109561420Y-84284851D01*
X109417199Y-84534647D01*
X109417191Y-84534663D01*
X109306814Y-84801139D01*
X109306809Y-84801155D01*
X109244921Y-85032127D01*
X109232152Y-85079780D01*
X109232149Y-85079793D01*
X109194501Y-85365761D01*
X109194500Y-85365778D01*
X100281667Y-85365778D01*
X100102414Y-85274444D01*
X100102413Y-85274443D01*
X100102412Y-85274443D01*
X99900243Y-85208754D01*
X99900241Y-85208753D01*
X99900240Y-85208753D01*
X99738957Y-85183208D01*
X99690287Y-85175500D01*
X99477713Y-85175500D01*
X99429042Y-85183208D01*
X99267760Y-85208753D01*
X99065585Y-85274444D01*
X98876179Y-85370951D01*
X98704213Y-85495890D01*
X98553890Y-85646213D01*
X98428951Y-85818179D01*
X98332444Y-86007585D01*
X98266753Y-86209760D01*
X98260975Y-86246243D01*
X98233500Y-86419713D01*
X95250500Y-86419713D01*
X95250500Y-77446646D01*
X131319700Y-77446646D01*
X131319700Y-77673353D01*
X131355165Y-77897272D01*
X131425219Y-78112880D01*
X131425220Y-78112883D01*
X131528147Y-78314885D01*
X131661394Y-78498286D01*
X131661398Y-78498291D01*
X131821708Y-78658601D01*
X131821713Y-78658605D01*
X131919542Y-78729682D01*
X131962208Y-78785012D01*
X131968187Y-78854625D01*
X131935582Y-78916420D01*
X131919542Y-78930318D01*
X131821713Y-79001394D01*
X131821708Y-79001398D01*
X131661398Y-79161708D01*
X131661394Y-79161713D01*
X131528147Y-79345114D01*
X131425220Y-79547116D01*
X131425219Y-79547119D01*
X131355165Y-79762727D01*
X131319700Y-79986646D01*
X131319700Y-80213353D01*
X131355165Y-80437272D01*
X131425219Y-80652880D01*
X131425220Y-80652883D01*
X131528147Y-80854885D01*
X131661394Y-81038286D01*
X131661398Y-81038291D01*
X131821708Y-81198601D01*
X131821713Y-81198605D01*
X131919542Y-81269682D01*
X131962208Y-81325012D01*
X131968187Y-81394625D01*
X131935582Y-81456420D01*
X131919542Y-81470318D01*
X131821713Y-81541394D01*
X131821708Y-81541398D01*
X131661398Y-81701708D01*
X131661394Y-81701713D01*
X131528147Y-81885114D01*
X131425220Y-82087116D01*
X131425219Y-82087119D01*
X131355165Y-82302727D01*
X131319700Y-82526646D01*
X131319700Y-82753353D01*
X131355165Y-82977272D01*
X131425219Y-83192880D01*
X131425220Y-83192883D01*
X131528147Y-83394885D01*
X131661394Y-83578286D01*
X131661398Y-83578291D01*
X131821708Y-83738601D01*
X131821713Y-83738605D01*
X131919542Y-83809682D01*
X131962208Y-83865012D01*
X131968187Y-83934625D01*
X131935582Y-83996420D01*
X131919542Y-84010318D01*
X131821713Y-84081394D01*
X131821708Y-84081398D01*
X131661398Y-84241708D01*
X131661394Y-84241713D01*
X131528147Y-84425114D01*
X131425220Y-84627116D01*
X131425219Y-84627119D01*
X131355165Y-84842727D01*
X131319700Y-85066646D01*
X131319700Y-85293353D01*
X131355165Y-85517272D01*
X131425219Y-85732880D01*
X131425220Y-85732883D01*
X131528147Y-85934885D01*
X131661394Y-86118286D01*
X131661398Y-86118291D01*
X131821708Y-86278601D01*
X131821713Y-86278605D01*
X131919542Y-86349682D01*
X131962208Y-86405012D01*
X131968187Y-86474625D01*
X131935582Y-86536420D01*
X131919542Y-86550318D01*
X131821713Y-86621394D01*
X131821708Y-86621398D01*
X131661398Y-86781708D01*
X131661394Y-86781713D01*
X131528147Y-86965114D01*
X131425220Y-87167116D01*
X131425219Y-87167119D01*
X131355165Y-87382727D01*
X131319700Y-87606646D01*
X131319700Y-87833353D01*
X131355165Y-88057272D01*
X131425219Y-88272880D01*
X131425220Y-88272883D01*
X131528147Y-88474885D01*
X131661394Y-88658286D01*
X131661398Y-88658291D01*
X131821708Y-88818601D01*
X131821713Y-88818605D01*
X131919542Y-88889682D01*
X131962208Y-88945012D01*
X131968187Y-89014625D01*
X131935582Y-89076420D01*
X131919542Y-89090318D01*
X131821713Y-89161394D01*
X131821708Y-89161398D01*
X131661398Y-89321708D01*
X131661394Y-89321713D01*
X131528147Y-89505114D01*
X131425220Y-89707116D01*
X131425219Y-89707119D01*
X131355165Y-89922727D01*
X131319700Y-90146646D01*
X131319700Y-90373353D01*
X131355165Y-90597272D01*
X131425219Y-90812880D01*
X131425220Y-90812883D01*
X131486718Y-90933578D01*
X131526480Y-91011615D01*
X131528147Y-91014885D01*
X131661394Y-91198286D01*
X131661398Y-91198291D01*
X131821708Y-91358601D01*
X131821713Y-91358605D01*
X131919542Y-91429682D01*
X131962208Y-91485012D01*
X131968187Y-91554625D01*
X131935582Y-91616420D01*
X131919542Y-91630318D01*
X131821713Y-91701394D01*
X131821708Y-91701398D01*
X131661398Y-91861708D01*
X131661394Y-91861713D01*
X131528147Y-92045114D01*
X131425220Y-92247116D01*
X131425219Y-92247119D01*
X131355165Y-92462727D01*
X131319700Y-92686646D01*
X131319700Y-92913353D01*
X131355165Y-93137272D01*
X131425219Y-93352880D01*
X131425220Y-93352883D01*
X131474910Y-93450403D01*
X131526480Y-93551615D01*
X131528147Y-93554885D01*
X131661394Y-93738286D01*
X131661398Y-93738291D01*
X131821708Y-93898601D01*
X131821713Y-93898605D01*
X131919542Y-93969682D01*
X131962208Y-94025012D01*
X131968187Y-94094625D01*
X131935582Y-94156420D01*
X131919542Y-94170318D01*
X131821713Y-94241394D01*
X131821708Y-94241398D01*
X131661398Y-94401708D01*
X131661394Y-94401713D01*
X131528147Y-94585114D01*
X131425220Y-94787116D01*
X131425219Y-94787119D01*
X131355165Y-95002727D01*
X131319700Y-95226646D01*
X131319700Y-95453353D01*
X131355165Y-95677272D01*
X131425219Y-95892880D01*
X131425220Y-95892883D01*
X131528147Y-96094885D01*
X131661394Y-96278286D01*
X131661398Y-96278291D01*
X131821708Y-96438601D01*
X131821713Y-96438605D01*
X131919542Y-96509682D01*
X131962208Y-96565012D01*
X131968187Y-96634625D01*
X131935582Y-96696420D01*
X131919542Y-96710318D01*
X131821713Y-96781394D01*
X131821708Y-96781398D01*
X131661398Y-96941708D01*
X131661394Y-96941713D01*
X131528147Y-97125114D01*
X131425220Y-97327116D01*
X131425219Y-97327119D01*
X131355165Y-97542727D01*
X131319700Y-97766646D01*
X131319700Y-97993353D01*
X131355165Y-98217272D01*
X131425219Y-98432880D01*
X131425220Y-98432883D01*
X131474910Y-98530403D01*
X131526055Y-98630781D01*
X131528147Y-98634885D01*
X131661394Y-98818286D01*
X131661398Y-98818291D01*
X131821708Y-98978601D01*
X131821713Y-98978605D01*
X131919542Y-99049682D01*
X131962208Y-99105012D01*
X131968187Y-99174625D01*
X131935582Y-99236420D01*
X131919542Y-99250318D01*
X131821713Y-99321394D01*
X131821708Y-99321398D01*
X131661398Y-99481708D01*
X131661394Y-99481713D01*
X131528147Y-99665114D01*
X131425220Y-99867116D01*
X131425219Y-99867119D01*
X131355165Y-100082727D01*
X131319700Y-100306646D01*
X131319700Y-100533353D01*
X131355165Y-100757272D01*
X131425219Y-100972880D01*
X131425220Y-100972883D01*
X131528147Y-101174885D01*
X131661394Y-101358286D01*
X131661398Y-101358291D01*
X131821708Y-101518601D01*
X131821713Y-101518605D01*
X131919542Y-101589682D01*
X131962208Y-101645012D01*
X131968187Y-101714625D01*
X131935582Y-101776420D01*
X131919542Y-101790318D01*
X131821713Y-101861394D01*
X131821708Y-101861398D01*
X131661398Y-102021708D01*
X131661394Y-102021713D01*
X131528147Y-102205114D01*
X131425220Y-102407116D01*
X131425219Y-102407119D01*
X131355165Y-102622727D01*
X131319700Y-102846646D01*
X131319700Y-103073353D01*
X131355165Y-103297272D01*
X131425219Y-103512880D01*
X131425220Y-103512883D01*
X131528147Y-103714885D01*
X131661394Y-103898286D01*
X131661398Y-103898291D01*
X131821708Y-104058601D01*
X131821713Y-104058605D01*
X131919542Y-104129682D01*
X131962208Y-104185012D01*
X131968187Y-104254625D01*
X131935582Y-104316420D01*
X131919542Y-104330318D01*
X131821713Y-104401394D01*
X131821708Y-104401398D01*
X131661398Y-104561708D01*
X131661394Y-104561713D01*
X131528147Y-104745114D01*
X131425220Y-104947116D01*
X131425219Y-104947119D01*
X131355165Y-105162727D01*
X131355165Y-105162729D01*
X131319700Y-105386646D01*
X131319700Y-105613354D01*
X131326500Y-105656286D01*
X131355165Y-105837272D01*
X131425219Y-106052880D01*
X131425220Y-106052883D01*
X131528147Y-106254885D01*
X131661394Y-106438286D01*
X131661398Y-106438291D01*
X131821708Y-106598601D01*
X131821713Y-106598605D01*
X131968221Y-106705048D01*
X132005118Y-106731855D01*
X132137166Y-106799137D01*
X132207116Y-106834779D01*
X132207119Y-106834780D01*
X132307041Y-106867246D01*
X132422729Y-106904835D01*
X132646646Y-106940300D01*
X132646647Y-106940300D01*
X132873353Y-106940300D01*
X132873354Y-106940300D01*
X133097271Y-106904835D01*
X133312883Y-106834779D01*
X133514882Y-106731855D01*
X133698293Y-106598600D01*
X133858600Y-106438293D01*
X133991855Y-106254882D01*
X134094779Y-106052883D01*
X134164835Y-105837271D01*
X134200300Y-105613354D01*
X134200300Y-105386646D01*
X134164835Y-105162729D01*
X134094779Y-104947117D01*
X134094779Y-104947116D01*
X134059137Y-104877166D01*
X133991855Y-104745118D01*
X133937430Y-104670208D01*
X133858605Y-104561713D01*
X133858601Y-104561708D01*
X133698293Y-104401400D01*
X133689414Y-104394949D01*
X133600456Y-104330317D01*
X133557791Y-104274989D01*
X133551812Y-104205376D01*
X133584417Y-104143580D01*
X133600456Y-104129682D01*
X133698293Y-104058600D01*
X133858600Y-103898293D01*
X133991855Y-103714882D01*
X134094779Y-103512883D01*
X134164835Y-103297271D01*
X134200300Y-103073354D01*
X134200300Y-102846646D01*
X134164835Y-102622729D01*
X134094779Y-102407117D01*
X134094779Y-102407116D01*
X134041310Y-102302179D01*
X133991855Y-102205118D01*
X133937430Y-102130208D01*
X133858605Y-102021713D01*
X133858601Y-102021708D01*
X133698293Y-101861400D01*
X133672879Y-101842936D01*
X133600456Y-101790317D01*
X133557791Y-101734989D01*
X133551812Y-101665376D01*
X133584417Y-101603580D01*
X133600456Y-101589682D01*
X133698293Y-101518600D01*
X133858600Y-101358293D01*
X133991855Y-101174882D01*
X134094779Y-100972883D01*
X134164835Y-100757271D01*
X134200300Y-100533354D01*
X134200300Y-100306646D01*
X134164835Y-100082729D01*
X134117050Y-99935661D01*
X134094780Y-99867119D01*
X134094779Y-99867116D01*
X134059137Y-99797166D01*
X133991855Y-99665118D01*
X133941107Y-99595269D01*
X133858605Y-99481713D01*
X133858601Y-99481708D01*
X133698293Y-99321400D01*
X133675650Y-99304949D01*
X133600456Y-99250317D01*
X133557791Y-99194989D01*
X133551812Y-99125376D01*
X133584417Y-99063580D01*
X133600456Y-99049682D01*
X133698293Y-98978600D01*
X133858600Y-98818293D01*
X133991855Y-98634882D01*
X134094779Y-98432883D01*
X134164835Y-98217271D01*
X134200300Y-97993354D01*
X134200300Y-97766646D01*
X134164835Y-97542729D01*
X134117050Y-97395661D01*
X134094780Y-97327119D01*
X134094779Y-97327116D01*
X134059137Y-97257166D01*
X133991855Y-97125118D01*
X133941107Y-97055269D01*
X133858605Y-96941713D01*
X133858601Y-96941708D01*
X133698293Y-96781400D01*
X133675650Y-96764949D01*
X133600456Y-96710317D01*
X133557791Y-96654989D01*
X133551812Y-96585376D01*
X133584417Y-96523580D01*
X133600456Y-96509682D01*
X133698293Y-96438600D01*
X133858600Y-96278293D01*
X133991855Y-96094882D01*
X134094779Y-95892883D01*
X134164835Y-95677271D01*
X134200300Y-95453354D01*
X134200300Y-95226646D01*
X134164835Y-95002729D01*
X134117050Y-94855661D01*
X134094780Y-94787119D01*
X134094779Y-94787116D01*
X134031197Y-94662331D01*
X133991855Y-94585118D01*
X133941107Y-94515269D01*
X133858605Y-94401713D01*
X133858601Y-94401708D01*
X133698293Y-94241400D01*
X133698285Y-94241394D01*
X133600456Y-94170317D01*
X133557791Y-94114989D01*
X133551812Y-94045376D01*
X133584417Y-93983580D01*
X133600456Y-93969682D01*
X133698293Y-93898600D01*
X133858600Y-93738293D01*
X133858602Y-93738289D01*
X133858605Y-93738287D01*
X133994229Y-93551615D01*
X134049558Y-93508949D01*
X134094547Y-93500500D01*
X134788996Y-93500500D01*
X134880040Y-93482389D01*
X134924328Y-93473580D01*
X134988069Y-93447177D01*
X135051807Y-93420777D01*
X135051808Y-93420776D01*
X135051811Y-93420775D01*
X135166543Y-93344114D01*
X138224114Y-90286543D01*
X138300775Y-90171811D01*
X138353580Y-90044329D01*
X138358616Y-90019006D01*
X138366276Y-89980503D01*
X138366276Y-89980500D01*
X138380500Y-89908993D01*
X138380500Y-79986646D01*
X146559700Y-79986646D01*
X146559700Y-80213353D01*
X146595165Y-80437272D01*
X146665219Y-80652880D01*
X146665220Y-80652883D01*
X146768147Y-80854885D01*
X146901394Y-81038286D01*
X146901398Y-81038291D01*
X147061708Y-81198601D01*
X147061713Y-81198605D01*
X147159542Y-81269682D01*
X147202208Y-81325012D01*
X147208187Y-81394625D01*
X147175582Y-81456420D01*
X147159542Y-81470318D01*
X147061713Y-81541394D01*
X147061708Y-81541398D01*
X146901398Y-81701708D01*
X146901394Y-81701713D01*
X146768147Y-81885114D01*
X146665220Y-82087116D01*
X146665219Y-82087119D01*
X146595165Y-82302727D01*
X146559700Y-82526646D01*
X146559700Y-82753353D01*
X146595165Y-82977272D01*
X146665219Y-83192880D01*
X146665220Y-83192883D01*
X146768147Y-83394885D01*
X146901394Y-83578286D01*
X146901398Y-83578291D01*
X147061708Y-83738601D01*
X147061713Y-83738605D01*
X147159542Y-83809682D01*
X147202208Y-83865012D01*
X147208187Y-83934625D01*
X147175582Y-83996420D01*
X147159542Y-84010318D01*
X147061713Y-84081394D01*
X147061708Y-84081398D01*
X146901398Y-84241708D01*
X146901394Y-84241713D01*
X146768147Y-84425114D01*
X146665220Y-84627116D01*
X146665219Y-84627119D01*
X146595165Y-84842727D01*
X146559700Y-85066646D01*
X146559700Y-85293353D01*
X146595165Y-85517272D01*
X146665219Y-85732880D01*
X146665220Y-85732883D01*
X146768147Y-85934885D01*
X146901394Y-86118286D01*
X146901398Y-86118291D01*
X147061708Y-86278601D01*
X147061713Y-86278605D01*
X147159542Y-86349682D01*
X147202208Y-86405012D01*
X147208187Y-86474625D01*
X147175582Y-86536420D01*
X147159542Y-86550318D01*
X147061713Y-86621394D01*
X147061708Y-86621398D01*
X146901398Y-86781708D01*
X146901394Y-86781713D01*
X146768147Y-86965114D01*
X146665220Y-87167116D01*
X146665219Y-87167119D01*
X146595165Y-87382727D01*
X146559700Y-87606646D01*
X146559700Y-87833353D01*
X146595165Y-88057272D01*
X146665219Y-88272880D01*
X146665220Y-88272883D01*
X146768147Y-88474885D01*
X146901394Y-88658286D01*
X146901398Y-88658291D01*
X147061708Y-88818601D01*
X147061713Y-88818605D01*
X147159542Y-88889682D01*
X147202208Y-88945012D01*
X147208187Y-89014625D01*
X147175582Y-89076420D01*
X147159542Y-89090318D01*
X147061713Y-89161394D01*
X147061708Y-89161398D01*
X146901398Y-89321708D01*
X146901394Y-89321713D01*
X146768147Y-89505114D01*
X146665220Y-89707116D01*
X146665219Y-89707119D01*
X146595165Y-89922727D01*
X146559700Y-90146646D01*
X146559700Y-90373353D01*
X146595165Y-90597272D01*
X146665219Y-90812880D01*
X146665220Y-90812883D01*
X146726718Y-90933578D01*
X146766480Y-91011615D01*
X146768147Y-91014885D01*
X146901394Y-91198286D01*
X146901398Y-91198291D01*
X147061708Y-91358601D01*
X147061713Y-91358605D01*
X147159542Y-91429682D01*
X147202208Y-91485012D01*
X147208187Y-91554625D01*
X147175582Y-91616420D01*
X147159542Y-91630318D01*
X147061713Y-91701394D01*
X147061708Y-91701398D01*
X146901398Y-91861708D01*
X146901394Y-91861713D01*
X146768147Y-92045114D01*
X146665220Y-92247116D01*
X146665219Y-92247119D01*
X146595165Y-92462727D01*
X146559700Y-92686646D01*
X146559700Y-92913353D01*
X146595165Y-93137272D01*
X146665219Y-93352880D01*
X146665220Y-93352883D01*
X146714910Y-93450403D01*
X146766480Y-93551615D01*
X146768147Y-93554885D01*
X146901394Y-93738286D01*
X146901398Y-93738291D01*
X147061708Y-93898601D01*
X147061713Y-93898605D01*
X147159542Y-93969682D01*
X147202208Y-94025012D01*
X147208187Y-94094625D01*
X147175582Y-94156420D01*
X147159542Y-94170318D01*
X147061713Y-94241394D01*
X147061708Y-94241398D01*
X146901398Y-94401708D01*
X146901394Y-94401713D01*
X146768147Y-94585114D01*
X146665220Y-94787116D01*
X146665219Y-94787119D01*
X146595165Y-95002727D01*
X146559700Y-95226646D01*
X146559700Y-95453353D01*
X146595165Y-95677272D01*
X146665219Y-95892880D01*
X146665220Y-95892883D01*
X146768147Y-96094885D01*
X146901394Y-96278286D01*
X146901398Y-96278291D01*
X147061708Y-96438601D01*
X147061713Y-96438605D01*
X147159542Y-96509682D01*
X147202208Y-96565012D01*
X147208187Y-96634625D01*
X147175582Y-96696420D01*
X147159542Y-96710318D01*
X147061713Y-96781394D01*
X147061708Y-96781398D01*
X146901398Y-96941708D01*
X146901394Y-96941713D01*
X146768147Y-97125114D01*
X146665220Y-97327116D01*
X146665219Y-97327119D01*
X146595165Y-97542727D01*
X146559700Y-97766646D01*
X146559700Y-97993353D01*
X146595165Y-98217272D01*
X146665219Y-98432880D01*
X146665220Y-98432883D01*
X146714910Y-98530403D01*
X146766055Y-98630781D01*
X146768147Y-98634885D01*
X146901394Y-98818286D01*
X146901398Y-98818291D01*
X147061708Y-98978601D01*
X147061713Y-98978605D01*
X147159542Y-99049682D01*
X147202208Y-99105012D01*
X147208187Y-99174625D01*
X147175582Y-99236420D01*
X147159542Y-99250318D01*
X147061713Y-99321394D01*
X147061708Y-99321398D01*
X146901398Y-99481708D01*
X146901394Y-99481713D01*
X146768147Y-99665114D01*
X146665220Y-99867116D01*
X146665219Y-99867119D01*
X146595165Y-100082727D01*
X146559700Y-100306646D01*
X146559700Y-100533353D01*
X146595165Y-100757272D01*
X146665219Y-100972880D01*
X146665220Y-100972883D01*
X146768147Y-101174885D01*
X146901394Y-101358286D01*
X146901398Y-101358291D01*
X147061708Y-101518601D01*
X147061713Y-101518605D01*
X147159542Y-101589682D01*
X147202208Y-101645012D01*
X147208187Y-101714625D01*
X147175582Y-101776420D01*
X147159542Y-101790318D01*
X147061713Y-101861394D01*
X147061708Y-101861398D01*
X146901398Y-102021708D01*
X146901394Y-102021713D01*
X146768147Y-102205114D01*
X146665220Y-102407116D01*
X146665219Y-102407119D01*
X146595165Y-102622727D01*
X146559700Y-102846646D01*
X146559700Y-103073353D01*
X146595165Y-103297272D01*
X146665219Y-103512880D01*
X146665220Y-103512883D01*
X146768147Y-103714885D01*
X146901394Y-103898286D01*
X146901398Y-103898291D01*
X147061708Y-104058601D01*
X147061713Y-104058605D01*
X147159542Y-104129682D01*
X147202208Y-104185012D01*
X147208187Y-104254625D01*
X147175582Y-104316420D01*
X147159542Y-104330318D01*
X147061713Y-104401394D01*
X147061708Y-104401398D01*
X146901398Y-104561708D01*
X146901394Y-104561713D01*
X146768147Y-104745114D01*
X146665220Y-104947116D01*
X146665219Y-104947119D01*
X146595165Y-105162727D01*
X146595165Y-105162729D01*
X146559700Y-105386646D01*
X146559700Y-105613354D01*
X146566500Y-105656286D01*
X146595165Y-105837272D01*
X146665219Y-106052880D01*
X146665220Y-106052883D01*
X146768147Y-106254885D01*
X146901394Y-106438286D01*
X146901398Y-106438291D01*
X147061708Y-106598601D01*
X147061713Y-106598605D01*
X147208221Y-106705048D01*
X147245118Y-106731855D01*
X147377166Y-106799137D01*
X147447116Y-106834779D01*
X147447119Y-106834780D01*
X147547041Y-106867246D01*
X147662729Y-106904835D01*
X147886646Y-106940300D01*
X147886647Y-106940300D01*
X148113353Y-106940300D01*
X148113354Y-106940300D01*
X148337271Y-106904835D01*
X148552883Y-106834779D01*
X148754882Y-106731855D01*
X148938293Y-106598600D01*
X149098600Y-106438293D01*
X149231855Y-106254882D01*
X149334779Y-106052883D01*
X149404835Y-105837271D01*
X149440300Y-105613354D01*
X149440300Y-105386646D01*
X149404835Y-105162729D01*
X149334779Y-104947117D01*
X149334779Y-104947116D01*
X149299137Y-104877166D01*
X149231855Y-104745118D01*
X149177430Y-104670208D01*
X149098605Y-104561713D01*
X149098601Y-104561708D01*
X148938293Y-104401400D01*
X148929414Y-104394949D01*
X148840456Y-104330317D01*
X148797791Y-104274989D01*
X148791812Y-104205376D01*
X148824417Y-104143580D01*
X148840456Y-104129682D01*
X148938293Y-104058600D01*
X149098600Y-103898293D01*
X149231855Y-103714882D01*
X149334779Y-103512883D01*
X149404835Y-103297271D01*
X149440300Y-103073354D01*
X149440300Y-102846646D01*
X149404835Y-102622729D01*
X149334779Y-102407117D01*
X149334779Y-102407116D01*
X149281310Y-102302179D01*
X149231855Y-102205118D01*
X149177430Y-102130208D01*
X149098605Y-102021713D01*
X149098601Y-102021708D01*
X148938293Y-101861400D01*
X148912879Y-101842936D01*
X148840456Y-101790317D01*
X148797791Y-101734989D01*
X148791812Y-101665376D01*
X148824417Y-101603580D01*
X148840456Y-101589682D01*
X148938293Y-101518600D01*
X149098600Y-101358293D01*
X149231855Y-101174882D01*
X149334779Y-100972883D01*
X149404835Y-100757271D01*
X149440300Y-100533354D01*
X149440300Y-100306646D01*
X149404835Y-100082729D01*
X149357050Y-99935661D01*
X149334780Y-99867119D01*
X149334779Y-99867116D01*
X149299137Y-99797166D01*
X149231855Y-99665118D01*
X149181107Y-99595269D01*
X149098605Y-99481713D01*
X149098601Y-99481708D01*
X148938293Y-99321400D01*
X148915650Y-99304949D01*
X148840456Y-99250317D01*
X148797791Y-99194989D01*
X148791812Y-99125376D01*
X148824417Y-99063580D01*
X148840456Y-99049682D01*
X148938293Y-98978600D01*
X149098600Y-98818293D01*
X149231855Y-98634882D01*
X149334779Y-98432883D01*
X149404835Y-98217271D01*
X149440300Y-97993354D01*
X149440300Y-97766646D01*
X149404835Y-97542729D01*
X149357050Y-97395661D01*
X149334780Y-97327119D01*
X149334779Y-97327116D01*
X149231855Y-97125118D01*
X149207569Y-97091691D01*
X149207568Y-97091688D01*
X149157035Y-97022135D01*
X150669500Y-97022135D01*
X150669500Y-98817870D01*
X150669501Y-98817876D01*
X150675908Y-98877483D01*
X150726202Y-99012328D01*
X150726203Y-99012330D01*
X150808578Y-99122368D01*
X150832995Y-99187832D01*
X150818144Y-99256105D01*
X150808578Y-99270989D01*
X150770841Y-99321400D01*
X150736204Y-99367669D01*
X150736202Y-99367671D01*
X150685908Y-99502517D01*
X150679501Y-99562116D01*
X150679501Y-99562123D01*
X150679500Y-99562135D01*
X150679500Y-101357870D01*
X150679501Y-101357876D01*
X150685908Y-101417483D01*
X150736202Y-101552328D01*
X150736203Y-101552329D01*
X150736204Y-101552331D01*
X150788334Y-101621967D01*
X150812321Y-101654010D01*
X150836738Y-101719474D01*
X150821887Y-101787747D01*
X150812321Y-101802632D01*
X150726203Y-101917669D01*
X150726202Y-101917671D01*
X150675908Y-102052517D01*
X150669501Y-102112116D01*
X150669501Y-102112123D01*
X150669500Y-102112135D01*
X150669500Y-103907870D01*
X150669501Y-103907876D01*
X150675908Y-103967483D01*
X150726202Y-104102328D01*
X150726203Y-104102330D01*
X150808578Y-104212368D01*
X150832995Y-104277832D01*
X150818144Y-104346105D01*
X150808578Y-104360989D01*
X150778327Y-104401400D01*
X150736204Y-104457669D01*
X150736202Y-104457671D01*
X150685908Y-104592517D01*
X150681041Y-104637793D01*
X150679501Y-104652123D01*
X150679500Y-104652135D01*
X150679500Y-106447870D01*
X150679501Y-106447876D01*
X150685908Y-106507483D01*
X150736202Y-106642328D01*
X150736206Y-106642335D01*
X150822452Y-106757544D01*
X150822455Y-106757547D01*
X150937664Y-106843793D01*
X150937671Y-106843797D01*
X151072517Y-106894091D01*
X151072516Y-106894091D01*
X151079444Y-106894835D01*
X151132127Y-106900500D01*
X152927872Y-106900499D01*
X152987483Y-106894091D01*
X153122331Y-106843796D01*
X153237546Y-106757546D01*
X153323796Y-106642331D01*
X153374091Y-106507483D01*
X153380500Y-106447873D01*
X153380499Y-104652128D01*
X153374091Y-104592517D01*
X153323796Y-104457669D01*
X153241421Y-104347630D01*
X153217004Y-104282169D01*
X153231855Y-104213896D01*
X153241417Y-104199016D01*
X153313796Y-104102331D01*
X153364091Y-103967483D01*
X153370500Y-103907873D01*
X153370499Y-102112128D01*
X153364091Y-102052517D01*
X153342421Y-101994418D01*
X153313797Y-101917671D01*
X153313795Y-101917668D01*
X153277104Y-101868655D01*
X153237678Y-101815988D01*
X153213261Y-101750527D01*
X153228112Y-101682253D01*
X153237672Y-101667376D01*
X153323796Y-101552331D01*
X153374091Y-101417483D01*
X153380500Y-101357873D01*
X153380499Y-99562128D01*
X153374091Y-99502517D01*
X153366329Y-99481707D01*
X153323797Y-99367671D01*
X153323795Y-99367668D01*
X153241421Y-99257630D01*
X153217004Y-99192169D01*
X153231855Y-99123896D01*
X153241417Y-99109016D01*
X153313796Y-99012331D01*
X153364091Y-98877483D01*
X153370500Y-98817873D01*
X153370499Y-97813713D01*
X155749500Y-97813713D01*
X155749500Y-98026287D01*
X155782754Y-98236243D01*
X155840896Y-98415186D01*
X155848444Y-98438414D01*
X155944951Y-98627820D01*
X156069890Y-98799786D01*
X156220213Y-98950109D01*
X156392179Y-99075048D01*
X156392181Y-99075049D01*
X156392184Y-99075051D01*
X156405944Y-99082062D01*
X156456740Y-99130035D01*
X156473536Y-99197855D01*
X156451000Y-99263991D01*
X156405954Y-99303027D01*
X156402183Y-99304948D01*
X156230213Y-99429890D01*
X156079890Y-99580213D01*
X155954951Y-99752179D01*
X155858444Y-99941585D01*
X155792753Y-100143760D01*
X155777148Y-100242287D01*
X155759500Y-100353713D01*
X155759500Y-100566287D01*
X155792754Y-100776243D01*
X155824407Y-100873661D01*
X155858444Y-100978414D01*
X155954951Y-101167820D01*
X156079890Y-101339786D01*
X156230213Y-101490109D01*
X156402182Y-101615050D01*
X156415757Y-101621967D01*
X156466553Y-101669941D01*
X156483349Y-101737762D01*
X156460812Y-101803897D01*
X156415760Y-101842936D01*
X156392180Y-101854950D01*
X156220213Y-101979890D01*
X156069890Y-102130213D01*
X155944951Y-102302179D01*
X155848444Y-102491585D01*
X155782753Y-102693760D01*
X155755142Y-102868092D01*
X155749500Y-102903713D01*
X155749500Y-103116287D01*
X155782754Y-103326243D01*
X155843397Y-103512883D01*
X155848444Y-103528414D01*
X155944951Y-103717820D01*
X156069890Y-103889786D01*
X156220213Y-104040109D01*
X156392179Y-104165048D01*
X156392181Y-104165049D01*
X156392184Y-104165051D01*
X156405944Y-104172062D01*
X156456740Y-104220035D01*
X156473536Y-104287855D01*
X156451000Y-104353991D01*
X156405954Y-104393027D01*
X156402183Y-104394948D01*
X156230213Y-104519890D01*
X156079890Y-104670213D01*
X155954951Y-104842179D01*
X155858444Y-105031585D01*
X155792753Y-105233760D01*
X155759500Y-105443713D01*
X155759500Y-105656286D01*
X155792114Y-105862207D01*
X155792754Y-105866243D01*
X155853397Y-106052883D01*
X155858444Y-106068414D01*
X155954951Y-106257820D01*
X156079890Y-106429786D01*
X156230213Y-106580109D01*
X156402179Y-106705048D01*
X156402181Y-106705049D01*
X156402184Y-106705051D01*
X156591588Y-106801557D01*
X156793757Y-106867246D01*
X157003713Y-106900500D01*
X157003714Y-106900500D01*
X157216286Y-106900500D01*
X157216287Y-106900500D01*
X157426243Y-106867246D01*
X157628412Y-106801557D01*
X157817816Y-106705051D01*
X157904138Y-106642335D01*
X157989786Y-106580109D01*
X157989788Y-106580106D01*
X157989792Y-106580104D01*
X158140104Y-106429792D01*
X158140106Y-106429788D01*
X158140109Y-106429786D01*
X158265048Y-106257820D01*
X158265047Y-106257820D01*
X158265051Y-106257816D01*
X158361557Y-106068412D01*
X158427246Y-105866243D01*
X158460500Y-105656287D01*
X158460500Y-105443713D01*
X158427246Y-105233757D01*
X158361557Y-105031588D01*
X158265051Y-104842184D01*
X158265049Y-104842181D01*
X158265048Y-104842179D01*
X158140109Y-104670213D01*
X157989786Y-104519890D01*
X157817819Y-104394951D01*
X157817818Y-104394950D01*
X157817816Y-104394949D01*
X157804053Y-104387936D01*
X157753258Y-104339962D01*
X157736463Y-104272141D01*
X157759001Y-104206006D01*
X157804059Y-104166964D01*
X157807816Y-104165051D01*
X157894145Y-104102330D01*
X157979786Y-104040109D01*
X157979788Y-104040106D01*
X157979792Y-104040104D01*
X158130104Y-103889792D01*
X158130106Y-103889788D01*
X158130109Y-103889786D01*
X158255048Y-103717820D01*
X158255047Y-103717820D01*
X158255051Y-103717816D01*
X158351557Y-103528412D01*
X158417246Y-103326243D01*
X158450500Y-103116287D01*
X158450500Y-102903713D01*
X158417246Y-102693757D01*
X158351557Y-102491588D01*
X158255051Y-102302184D01*
X158255049Y-102302181D01*
X158255048Y-102302179D01*
X158130109Y-102130213D01*
X157979786Y-101979890D01*
X157807817Y-101854949D01*
X157794240Y-101848031D01*
X157743444Y-101800056D01*
X157726650Y-101732235D01*
X157749188Y-101666100D01*
X157794242Y-101627062D01*
X157817816Y-101615051D01*
X157817815Y-101615051D01*
X157817818Y-101615050D01*
X157989786Y-101490109D01*
X157989788Y-101490106D01*
X157989792Y-101490104D01*
X158140104Y-101339792D01*
X158140106Y-101339788D01*
X158140109Y-101339786D01*
X158265048Y-101167820D01*
X158265047Y-101167820D01*
X158265051Y-101167816D01*
X158361557Y-100978412D01*
X158427246Y-100776243D01*
X158460500Y-100566287D01*
X158460500Y-100353713D01*
X158427246Y-100143757D01*
X158361557Y-99941588D01*
X158265051Y-99752184D01*
X158265049Y-99752181D01*
X158265048Y-99752179D01*
X158140109Y-99580213D01*
X157989786Y-99429890D01*
X157817819Y-99304951D01*
X157817818Y-99304950D01*
X157817816Y-99304949D01*
X157804053Y-99297936D01*
X157753258Y-99249962D01*
X157736463Y-99182141D01*
X157759001Y-99116006D01*
X157804059Y-99076964D01*
X157807816Y-99075051D01*
X157894145Y-99012330D01*
X157979786Y-98950109D01*
X157979788Y-98950106D01*
X157979792Y-98950104D01*
X158130104Y-98799792D01*
X158130106Y-98799788D01*
X158130109Y-98799786D01*
X158255048Y-98627820D01*
X158255047Y-98627820D01*
X158255051Y-98627816D01*
X158351557Y-98438412D01*
X158417246Y-98236243D01*
X158450500Y-98026287D01*
X158450500Y-97813713D01*
X158417246Y-97603757D01*
X158351557Y-97401588D01*
X158255051Y-97212184D01*
X158255049Y-97212181D01*
X158255048Y-97212179D01*
X158130109Y-97040213D01*
X157979786Y-96889890D01*
X157807820Y-96764951D01*
X157618414Y-96668444D01*
X157618413Y-96668443D01*
X157618412Y-96668443D01*
X157416243Y-96602754D01*
X157416241Y-96602753D01*
X157416240Y-96602753D01*
X157254957Y-96577208D01*
X157206287Y-96569500D01*
X156993713Y-96569500D01*
X156945042Y-96577208D01*
X156783760Y-96602753D01*
X156581585Y-96668444D01*
X156392179Y-96764951D01*
X156220213Y-96889890D01*
X156069890Y-97040213D01*
X155944951Y-97212179D01*
X155848444Y-97401585D01*
X155782753Y-97603760D01*
X155756955Y-97766646D01*
X155749500Y-97813713D01*
X153370499Y-97813713D01*
X153370499Y-97022128D01*
X153364091Y-96962517D01*
X153356329Y-96941707D01*
X153313797Y-96827671D01*
X153313793Y-96827664D01*
X153227547Y-96712455D01*
X153227544Y-96712452D01*
X153112335Y-96626206D01*
X153112328Y-96626202D01*
X152977482Y-96575908D01*
X152977483Y-96575908D01*
X152917883Y-96569501D01*
X152917881Y-96569500D01*
X152917873Y-96569500D01*
X152917864Y-96569500D01*
X151122129Y-96569500D01*
X151122123Y-96569501D01*
X151062516Y-96575908D01*
X150927671Y-96626202D01*
X150927664Y-96626206D01*
X150812455Y-96712452D01*
X150812452Y-96712455D01*
X150726206Y-96827664D01*
X150726202Y-96827671D01*
X150675908Y-96962517D01*
X150669501Y-97022116D01*
X150669501Y-97022123D01*
X150669500Y-97022135D01*
X149157035Y-97022135D01*
X149098605Y-96941713D01*
X149098601Y-96941708D01*
X148938293Y-96781400D01*
X148915650Y-96764949D01*
X148840456Y-96710317D01*
X148797791Y-96654989D01*
X148791812Y-96585376D01*
X148824417Y-96523580D01*
X148840456Y-96509682D01*
X148938293Y-96438600D01*
X149098600Y-96278293D01*
X149231855Y-96094882D01*
X149334779Y-95892883D01*
X149404835Y-95677271D01*
X149440300Y-95453354D01*
X149440300Y-95226646D01*
X149404835Y-95002729D01*
X149357050Y-94855661D01*
X149334780Y-94787119D01*
X149334779Y-94787116D01*
X149271197Y-94662331D01*
X149231855Y-94585118D01*
X149181107Y-94515269D01*
X149098605Y-94401713D01*
X149098601Y-94401708D01*
X148938293Y-94241400D01*
X148938285Y-94241394D01*
X148840456Y-94170317D01*
X148797791Y-94114989D01*
X148791812Y-94045376D01*
X148824417Y-93983580D01*
X148840456Y-93969682D01*
X148938293Y-93898600D01*
X149098600Y-93738293D01*
X149231855Y-93554882D01*
X149334779Y-93352883D01*
X149404835Y-93137271D01*
X149440300Y-92913354D01*
X149440300Y-92686646D01*
X149404835Y-92462729D01*
X149348612Y-92289691D01*
X149334780Y-92247119D01*
X149334779Y-92247116D01*
X149297757Y-92174458D01*
X149231855Y-92045118D01*
X149139405Y-91917870D01*
X149098605Y-91861713D01*
X149098601Y-91861708D01*
X148938293Y-91701400D01*
X148938285Y-91701394D01*
X148840456Y-91630317D01*
X148797791Y-91574989D01*
X148791812Y-91505376D01*
X148824417Y-91443580D01*
X148840456Y-91429682D01*
X148938293Y-91358600D01*
X149098600Y-91198293D01*
X149231855Y-91014882D01*
X149334779Y-90812883D01*
X149404835Y-90597271D01*
X149440300Y-90373354D01*
X149440300Y-90146646D01*
X149404835Y-89922729D01*
X149349963Y-89753848D01*
X149334780Y-89707119D01*
X149334779Y-89707116D01*
X149262631Y-89565520D01*
X149231855Y-89505118D01*
X149175450Y-89427482D01*
X149098605Y-89321713D01*
X149098601Y-89321708D01*
X148938293Y-89161400D01*
X148938285Y-89161394D01*
X148840456Y-89090317D01*
X148797791Y-89034989D01*
X148791812Y-88965376D01*
X148824417Y-88903580D01*
X148840456Y-88889682D01*
X148938293Y-88818600D01*
X149098600Y-88658293D01*
X149231855Y-88474882D01*
X149334779Y-88272883D01*
X149404835Y-88057271D01*
X149440300Y-87833354D01*
X149440300Y-87606646D01*
X149434834Y-87572135D01*
X150749500Y-87572135D01*
X150749500Y-89367870D01*
X150749501Y-89367876D01*
X150755908Y-89427483D01*
X150806202Y-89562328D01*
X150806203Y-89562330D01*
X150887321Y-89670689D01*
X150911738Y-89736153D01*
X150896887Y-89804426D01*
X150887321Y-89819311D01*
X150806203Y-89927669D01*
X150806202Y-89927671D01*
X150755908Y-90062517D01*
X150752432Y-90094852D01*
X150749501Y-90122123D01*
X150749500Y-90122135D01*
X150749500Y-91917870D01*
X150749501Y-91917876D01*
X150755908Y-91977483D01*
X150806202Y-92112328D01*
X150806203Y-92112330D01*
X150887321Y-92220689D01*
X150911738Y-92286153D01*
X150896887Y-92354426D01*
X150887321Y-92369311D01*
X150806203Y-92477669D01*
X150806202Y-92477671D01*
X150755908Y-92612517D01*
X150749501Y-92672116D01*
X150749501Y-92672123D01*
X150749500Y-92672135D01*
X150749500Y-94467870D01*
X150749501Y-94467876D01*
X150755908Y-94527483D01*
X150806202Y-94662328D01*
X150806206Y-94662335D01*
X150892452Y-94777544D01*
X150892455Y-94777547D01*
X151007664Y-94863793D01*
X151007671Y-94863797D01*
X151142517Y-94914091D01*
X151142516Y-94914091D01*
X151149444Y-94914835D01*
X151202127Y-94920500D01*
X152997872Y-94920499D01*
X153057483Y-94914091D01*
X153192331Y-94863796D01*
X153307546Y-94777546D01*
X153393796Y-94662331D01*
X153444091Y-94527483D01*
X153450500Y-94467873D01*
X153450499Y-92672128D01*
X153444091Y-92612517D01*
X153433728Y-92584733D01*
X153393797Y-92477671D01*
X153393795Y-92477668D01*
X153312678Y-92369309D01*
X153288261Y-92303848D01*
X153303112Y-92235574D01*
X153312673Y-92220696D01*
X153393796Y-92112331D01*
X153444091Y-91977483D01*
X153450500Y-91917873D01*
X153450499Y-90122128D01*
X153444091Y-90062517D01*
X153437307Y-90044329D01*
X153393797Y-89927671D01*
X153393795Y-89927668D01*
X153379815Y-89908993D01*
X153312678Y-89819309D01*
X153288261Y-89753848D01*
X153303112Y-89685574D01*
X153312673Y-89670696D01*
X153393796Y-89562331D01*
X153444091Y-89427483D01*
X153450500Y-89367873D01*
X153450499Y-88363713D01*
X155829500Y-88363713D01*
X155829500Y-88576286D01*
X155856957Y-88749646D01*
X155862754Y-88786243D01*
X155914341Y-88945012D01*
X155928444Y-88988414D01*
X156024951Y-89177820D01*
X156149890Y-89349786D01*
X156300213Y-89500109D01*
X156472182Y-89625050D01*
X156490759Y-89634516D01*
X156541554Y-89682490D01*
X156558349Y-89750311D01*
X156535811Y-89816446D01*
X156490759Y-89855484D01*
X156472182Y-89864949D01*
X156300213Y-89989890D01*
X156149890Y-90140213D01*
X156024951Y-90312179D01*
X155928444Y-90501585D01*
X155862753Y-90703760D01*
X155846859Y-90804111D01*
X155829500Y-90913713D01*
X155829500Y-91126287D01*
X155862754Y-91336243D01*
X155911092Y-91485012D01*
X155928444Y-91538414D01*
X156024951Y-91727820D01*
X156149890Y-91899786D01*
X156300213Y-92050109D01*
X156472182Y-92175050D01*
X156490759Y-92184516D01*
X156541554Y-92232490D01*
X156558349Y-92300311D01*
X156535811Y-92366446D01*
X156490759Y-92405484D01*
X156472182Y-92414949D01*
X156300213Y-92539890D01*
X156149890Y-92690213D01*
X156024951Y-92862179D01*
X155928444Y-93051585D01*
X155862753Y-93253760D01*
X155847054Y-93352880D01*
X155829500Y-93463713D01*
X155829500Y-93676287D01*
X155862754Y-93886243D01*
X155910066Y-94031855D01*
X155928444Y-94088414D01*
X156024951Y-94277820D01*
X156149890Y-94449786D01*
X156300213Y-94600109D01*
X156472179Y-94725048D01*
X156472181Y-94725049D01*
X156472184Y-94725051D01*
X156661588Y-94821557D01*
X156863757Y-94887246D01*
X157073713Y-94920500D01*
X157073714Y-94920500D01*
X157286286Y-94920500D01*
X157286287Y-94920500D01*
X157496243Y-94887246D01*
X157698412Y-94821557D01*
X157887816Y-94725051D01*
X157974138Y-94662335D01*
X158059786Y-94600109D01*
X158059788Y-94600106D01*
X158059792Y-94600104D01*
X158210104Y-94449792D01*
X158210106Y-94449788D01*
X158210109Y-94449786D01*
X158335048Y-94277820D01*
X158335047Y-94277820D01*
X158335051Y-94277816D01*
X158431557Y-94088412D01*
X158497246Y-93886243D01*
X158530500Y-93676287D01*
X158530500Y-93463713D01*
X158497246Y-93253757D01*
X158431557Y-93051588D01*
X158335051Y-92862184D01*
X158335049Y-92862181D01*
X158335048Y-92862179D01*
X158210109Y-92690213D01*
X158059786Y-92539890D01*
X157887817Y-92414949D01*
X157869242Y-92405485D01*
X157818446Y-92357512D01*
X157801650Y-92289691D01*
X157824187Y-92223556D01*
X157869242Y-92184515D01*
X157872117Y-92183049D01*
X157887816Y-92175051D01*
X157939255Y-92137678D01*
X158059786Y-92050109D01*
X158059788Y-92050106D01*
X158059792Y-92050104D01*
X158210104Y-91899792D01*
X158210106Y-91899788D01*
X158210109Y-91899786D01*
X158335048Y-91727820D01*
X158335047Y-91727820D01*
X158335051Y-91727816D01*
X158431557Y-91538412D01*
X158497246Y-91336243D01*
X158530500Y-91126287D01*
X158530500Y-90913713D01*
X158497246Y-90703757D01*
X158431557Y-90501588D01*
X158335051Y-90312184D01*
X158335049Y-90312181D01*
X158335048Y-90312179D01*
X158210109Y-90140213D01*
X158059786Y-89989890D01*
X157887817Y-89864949D01*
X157869242Y-89855485D01*
X157818446Y-89807512D01*
X157801650Y-89739691D01*
X157824187Y-89673556D01*
X157869242Y-89634515D01*
X157872117Y-89633049D01*
X157887816Y-89625051D01*
X157939255Y-89587678D01*
X158059786Y-89500109D01*
X158059788Y-89500106D01*
X158059792Y-89500104D01*
X158210104Y-89349792D01*
X158210106Y-89349788D01*
X158210109Y-89349786D01*
X158335048Y-89177820D01*
X158335047Y-89177820D01*
X158335051Y-89177816D01*
X158431557Y-88988412D01*
X158497246Y-88786243D01*
X158530500Y-88576287D01*
X158530500Y-88363713D01*
X158497246Y-88153757D01*
X158431557Y-87951588D01*
X158335051Y-87762184D01*
X158335049Y-87762181D01*
X158335048Y-87762179D01*
X158210109Y-87590213D01*
X158059786Y-87439890D01*
X157887817Y-87314949D01*
X157884051Y-87313030D01*
X157833256Y-87265054D01*
X157816463Y-87197233D01*
X157839003Y-87131098D01*
X157884057Y-87092061D01*
X157897816Y-87085051D01*
X157984147Y-87022328D01*
X158069786Y-86960109D01*
X158069788Y-86960106D01*
X158069792Y-86960104D01*
X158220104Y-86809792D01*
X158220106Y-86809788D01*
X158220109Y-86809786D01*
X158345048Y-86637820D01*
X158345047Y-86637820D01*
X158345051Y-86637816D01*
X158441557Y-86448412D01*
X158507246Y-86246243D01*
X158540500Y-86036287D01*
X158540500Y-85823713D01*
X158507246Y-85613757D01*
X158441557Y-85411588D01*
X158345051Y-85222184D01*
X158345049Y-85222181D01*
X158345048Y-85222179D01*
X158220109Y-85050213D01*
X158069786Y-84899890D01*
X157897820Y-84774951D01*
X157708414Y-84678444D01*
X157708413Y-84678443D01*
X157708412Y-84678443D01*
X157506243Y-84612754D01*
X157506241Y-84612753D01*
X157506240Y-84612753D01*
X157344957Y-84587208D01*
X157296287Y-84579500D01*
X157083713Y-84579500D01*
X157035042Y-84587208D01*
X156873760Y-84612753D01*
X156671585Y-84678444D01*
X156482179Y-84774951D01*
X156310213Y-84899890D01*
X156159890Y-85050213D01*
X156034951Y-85222179D01*
X155938444Y-85411585D01*
X155872753Y-85613760D01*
X155839500Y-85823713D01*
X155839500Y-86036286D01*
X155868414Y-86218845D01*
X155872754Y-86246243D01*
X155924341Y-86405012D01*
X155938444Y-86448414D01*
X156034951Y-86637820D01*
X156159890Y-86809786D01*
X156310213Y-86960109D01*
X156482179Y-87085048D01*
X156482181Y-87085049D01*
X156482184Y-87085051D01*
X156485943Y-87086966D01*
X156536740Y-87134940D01*
X156553536Y-87202760D01*
X156531000Y-87268896D01*
X156485948Y-87307935D01*
X156472182Y-87314949D01*
X156300213Y-87439890D01*
X156149890Y-87590213D01*
X156024951Y-87762179D01*
X155928444Y-87951585D01*
X155862753Y-88153760D01*
X155829500Y-88363713D01*
X153450499Y-88363713D01*
X153450499Y-87572128D01*
X153444091Y-87512517D01*
X153434872Y-87487800D01*
X153393797Y-87377671D01*
X153393795Y-87377668D01*
X153368268Y-87343568D01*
X153321421Y-87280988D01*
X153297004Y-87215527D01*
X153311855Y-87147253D01*
X153321415Y-87132376D01*
X153403796Y-87022331D01*
X153454091Y-86887483D01*
X153460500Y-86827873D01*
X153460499Y-85032128D01*
X153454091Y-84972517D01*
X153420591Y-84882700D01*
X153403797Y-84837671D01*
X153403793Y-84837664D01*
X153317547Y-84722455D01*
X153317544Y-84722452D01*
X153202335Y-84636206D01*
X153202328Y-84636202D01*
X153067482Y-84585908D01*
X153067483Y-84585908D01*
X153007883Y-84579501D01*
X153007881Y-84579500D01*
X153007873Y-84579500D01*
X153007864Y-84579500D01*
X151212129Y-84579500D01*
X151212123Y-84579501D01*
X151152516Y-84585908D01*
X151017671Y-84636202D01*
X151017664Y-84636206D01*
X150902455Y-84722452D01*
X150902452Y-84722455D01*
X150816206Y-84837664D01*
X150816202Y-84837671D01*
X150765908Y-84972517D01*
X150759501Y-85032116D01*
X150759501Y-85032123D01*
X150759500Y-85032135D01*
X150759500Y-86827870D01*
X150759501Y-86827876D01*
X150765908Y-86887483D01*
X150816202Y-87022328D01*
X150816203Y-87022329D01*
X150816204Y-87022331D01*
X150864590Y-87086966D01*
X150888578Y-87119010D01*
X150912995Y-87184474D01*
X150898144Y-87252747D01*
X150888578Y-87267632D01*
X150806203Y-87377669D01*
X150806202Y-87377671D01*
X150755908Y-87512517D01*
X150751222Y-87556109D01*
X150749501Y-87572123D01*
X150749500Y-87572135D01*
X149434834Y-87572135D01*
X149404835Y-87382729D01*
X149350508Y-87215527D01*
X149334780Y-87167119D01*
X149334779Y-87167116D01*
X149272257Y-87044412D01*
X149231855Y-86965118D01*
X149175450Y-86887482D01*
X149098605Y-86781713D01*
X149098601Y-86781708D01*
X148938293Y-86621400D01*
X148938285Y-86621394D01*
X148840456Y-86550317D01*
X148797791Y-86494989D01*
X148791812Y-86425376D01*
X148824417Y-86363580D01*
X148840456Y-86349682D01*
X148938293Y-86278600D01*
X149098600Y-86118293D01*
X149231855Y-85934882D01*
X149334779Y-85732883D01*
X149404835Y-85517271D01*
X149440300Y-85293354D01*
X149440300Y-85066646D01*
X149404835Y-84842729D01*
X149334779Y-84627117D01*
X149334779Y-84627116D01*
X149287663Y-84534647D01*
X149231855Y-84425118D01*
X149129941Y-84284844D01*
X149098605Y-84241713D01*
X149098601Y-84241708D01*
X148938293Y-84081400D01*
X148938285Y-84081394D01*
X148840456Y-84010317D01*
X148797791Y-83954989D01*
X148791812Y-83885376D01*
X148824417Y-83823580D01*
X148840456Y-83809682D01*
X148938293Y-83738600D01*
X149098600Y-83578293D01*
X149231855Y-83394882D01*
X149334779Y-83192883D01*
X149404835Y-82977271D01*
X149440300Y-82753354D01*
X149440300Y-82526646D01*
X149404835Y-82302729D01*
X149334779Y-82087117D01*
X149334779Y-82087116D01*
X149299137Y-82017166D01*
X149231855Y-81885118D01*
X149214829Y-81861684D01*
X149098605Y-81701713D01*
X149098601Y-81701708D01*
X148938293Y-81541400D01*
X148938285Y-81541394D01*
X148840456Y-81470317D01*
X148797791Y-81414989D01*
X148791812Y-81345376D01*
X148824417Y-81283580D01*
X148840456Y-81269682D01*
X148938293Y-81198600D01*
X149098600Y-81038293D01*
X149231855Y-80854882D01*
X149334779Y-80652883D01*
X149404835Y-80437271D01*
X149440300Y-80213354D01*
X149440300Y-79986646D01*
X149404835Y-79762729D01*
X149334779Y-79547117D01*
X149334779Y-79547116D01*
X149299137Y-79477166D01*
X149231855Y-79345118D01*
X149214829Y-79321684D01*
X149098605Y-79161713D01*
X149098601Y-79161708D01*
X148938291Y-79001398D01*
X148938286Y-79001394D01*
X148754885Y-78868147D01*
X148754884Y-78868146D01*
X148754882Y-78868145D01*
X148690166Y-78835170D01*
X148552883Y-78765220D01*
X148552880Y-78765219D01*
X148337272Y-78695165D01*
X148225312Y-78677432D01*
X148113354Y-78659700D01*
X147886646Y-78659700D01*
X147812007Y-78671521D01*
X147662727Y-78695165D01*
X147447119Y-78765219D01*
X147447116Y-78765220D01*
X147245114Y-78868147D01*
X147061713Y-79001394D01*
X147061708Y-79001398D01*
X146901398Y-79161708D01*
X146901394Y-79161713D01*
X146768147Y-79345114D01*
X146665220Y-79547116D01*
X146665219Y-79547119D01*
X146595165Y-79762727D01*
X146559700Y-79986646D01*
X138380500Y-79986646D01*
X138380500Y-69804499D01*
X138400185Y-69737460D01*
X138452989Y-69691705D01*
X138504500Y-69680499D01*
X138577871Y-69680499D01*
X138577872Y-69680499D01*
X138637483Y-69674091D01*
X138772331Y-69623796D01*
X138887546Y-69537546D01*
X138973796Y-69422331D01*
X139024091Y-69287483D01*
X139030500Y-69227873D01*
X139030499Y-67432128D01*
X139024091Y-67372517D01*
X139016631Y-67352517D01*
X138973797Y-67237671D01*
X138973793Y-67237664D01*
X138887547Y-67122455D01*
X138887544Y-67122452D01*
X138772335Y-67036206D01*
X138772328Y-67036202D01*
X138637482Y-66985908D01*
X138637483Y-66985908D01*
X138577883Y-66979501D01*
X138577881Y-66979500D01*
X138577873Y-66979500D01*
X138577864Y-66979500D01*
X136782129Y-66979500D01*
X136782123Y-66979501D01*
X136722516Y-66985908D01*
X136587671Y-67036202D01*
X136587669Y-67036203D01*
X136504311Y-67098606D01*
X136438847Y-67123023D01*
X136370574Y-67108172D01*
X136355689Y-67098606D01*
X136272330Y-67036203D01*
X136272328Y-67036202D01*
X136137482Y-66985908D01*
X136137483Y-66985908D01*
X136077883Y-66979501D01*
X136077881Y-66979500D01*
X136077873Y-66979500D01*
X136077864Y-66979500D01*
X134282129Y-66979500D01*
X134282123Y-66979501D01*
X134222516Y-66985908D01*
X134087671Y-67036202D01*
X134087669Y-67036203D01*
X134004311Y-67098606D01*
X133938847Y-67123023D01*
X133870574Y-67108172D01*
X133855689Y-67098606D01*
X133772330Y-67036203D01*
X133772328Y-67036202D01*
X133637482Y-66985908D01*
X133637483Y-66985908D01*
X133577883Y-66979501D01*
X133577881Y-66979500D01*
X133577873Y-66979500D01*
X133577864Y-66979500D01*
X131782129Y-66979500D01*
X131782123Y-66979501D01*
X131722516Y-66985908D01*
X131587671Y-67036202D01*
X131587664Y-67036206D01*
X131472455Y-67122452D01*
X131472452Y-67122455D01*
X131386206Y-67237664D01*
X131386202Y-67237671D01*
X131335908Y-67372517D01*
X131331650Y-67412127D01*
X131329501Y-67432123D01*
X131329500Y-67432135D01*
X131329500Y-69227870D01*
X131329501Y-69227876D01*
X131335908Y-69287483D01*
X131386202Y-69422328D01*
X131386206Y-69422335D01*
X131472452Y-69537544D01*
X131472455Y-69537547D01*
X131587664Y-69623793D01*
X131587671Y-69623797D01*
X131722517Y-69674091D01*
X131722516Y-69674091D01*
X131729444Y-69674835D01*
X131782127Y-69680500D01*
X133577872Y-69680499D01*
X133637483Y-69674091D01*
X133772331Y-69623796D01*
X133855689Y-69561393D01*
X133921153Y-69536977D01*
X133989426Y-69551828D01*
X134004309Y-69561393D01*
X134060954Y-69603797D01*
X134087669Y-69623796D01*
X134087671Y-69623797D01*
X134132618Y-69640561D01*
X134222517Y-69674091D01*
X134282127Y-69680500D01*
X134355500Y-69680499D01*
X134422538Y-69700183D01*
X134468294Y-69752986D01*
X134479500Y-69804499D01*
X134479500Y-73421006D01*
X134479500Y-73558994D01*
X134479500Y-73558996D01*
X134479499Y-73558996D01*
X134506418Y-73694322D01*
X134506420Y-73694329D01*
X134510060Y-73703115D01*
X134519500Y-73750570D01*
X134519500Y-88938480D01*
X134499815Y-89005519D01*
X134483181Y-89026161D01*
X134099721Y-89409620D01*
X134038398Y-89443105D01*
X133968706Y-89438121D01*
X133912773Y-89396249D01*
X133911755Y-89394870D01*
X133879005Y-89349792D01*
X133858603Y-89321710D01*
X133698293Y-89161400D01*
X133698285Y-89161394D01*
X133600456Y-89090317D01*
X133557791Y-89034989D01*
X133551812Y-88965376D01*
X133584417Y-88903580D01*
X133600456Y-88889682D01*
X133698293Y-88818600D01*
X133858600Y-88658293D01*
X133991855Y-88474882D01*
X134094779Y-88272883D01*
X134164835Y-88057271D01*
X134200300Y-87833354D01*
X134200300Y-87606646D01*
X134164835Y-87382729D01*
X134110508Y-87215527D01*
X134094780Y-87167119D01*
X134094779Y-87167116D01*
X134032257Y-87044412D01*
X133991855Y-86965118D01*
X133935450Y-86887482D01*
X133858605Y-86781713D01*
X133858601Y-86781708D01*
X133698293Y-86621400D01*
X133698285Y-86621394D01*
X133600456Y-86550317D01*
X133557791Y-86494989D01*
X133551812Y-86425376D01*
X133584417Y-86363580D01*
X133600456Y-86349682D01*
X133698293Y-86278600D01*
X133858600Y-86118293D01*
X133991855Y-85934882D01*
X134094779Y-85732883D01*
X134164835Y-85517271D01*
X134200300Y-85293354D01*
X134200300Y-85066646D01*
X134164835Y-84842729D01*
X134094779Y-84627117D01*
X134094779Y-84627116D01*
X134047663Y-84534647D01*
X133991855Y-84425118D01*
X133889941Y-84284844D01*
X133858605Y-84241713D01*
X133858601Y-84241708D01*
X133698293Y-84081400D01*
X133698285Y-84081394D01*
X133600456Y-84010317D01*
X133557791Y-83954989D01*
X133551812Y-83885376D01*
X133584417Y-83823580D01*
X133600456Y-83809682D01*
X133698293Y-83738600D01*
X133858600Y-83578293D01*
X133991855Y-83394882D01*
X134094779Y-83192883D01*
X134164835Y-82977271D01*
X134200300Y-82753354D01*
X134200300Y-82526646D01*
X134164835Y-82302729D01*
X134094779Y-82087117D01*
X134094779Y-82087116D01*
X134059137Y-82017166D01*
X133991855Y-81885118D01*
X133974829Y-81861684D01*
X133858605Y-81701713D01*
X133858601Y-81701708D01*
X133698293Y-81541400D01*
X133698285Y-81541394D01*
X133600456Y-81470317D01*
X133557791Y-81414989D01*
X133551812Y-81345376D01*
X133584417Y-81283580D01*
X133600456Y-81269682D01*
X133698293Y-81198600D01*
X133858600Y-81038293D01*
X133991855Y-80854882D01*
X134094779Y-80652883D01*
X134164835Y-80437271D01*
X134200300Y-80213354D01*
X134200300Y-79986646D01*
X134164835Y-79762729D01*
X134094779Y-79547117D01*
X134094779Y-79547116D01*
X134059137Y-79477166D01*
X133991855Y-79345118D01*
X133974829Y-79321684D01*
X133858605Y-79161713D01*
X133858601Y-79161708D01*
X133698293Y-79001400D01*
X133698285Y-79001394D01*
X133600456Y-78930317D01*
X133557791Y-78874989D01*
X133551812Y-78805376D01*
X133584417Y-78743580D01*
X133600456Y-78729682D01*
X133698293Y-78658600D01*
X133858600Y-78498293D01*
X133991855Y-78314882D01*
X134094779Y-78112883D01*
X134164835Y-77897271D01*
X134200300Y-77673354D01*
X134200300Y-77446646D01*
X134164835Y-77222729D01*
X134094779Y-77007117D01*
X134094779Y-77007116D01*
X134059137Y-76937166D01*
X133991855Y-76805118D01*
X133974829Y-76781684D01*
X133858605Y-76621713D01*
X133858601Y-76621708D01*
X133698291Y-76461398D01*
X133698286Y-76461394D01*
X133514885Y-76328147D01*
X133514884Y-76328146D01*
X133514882Y-76328145D01*
X133450166Y-76295170D01*
X133312883Y-76225220D01*
X133312880Y-76225219D01*
X133097272Y-76155165D01*
X132985312Y-76137432D01*
X132873354Y-76119700D01*
X132646646Y-76119700D01*
X132572007Y-76131521D01*
X132422727Y-76155165D01*
X132207119Y-76225219D01*
X132207116Y-76225220D01*
X132005114Y-76328147D01*
X131821713Y-76461394D01*
X131821708Y-76461398D01*
X131661398Y-76621708D01*
X131661394Y-76621713D01*
X131528147Y-76805114D01*
X131425220Y-77007116D01*
X131425219Y-77007119D01*
X131355165Y-77222727D01*
X131319700Y-77446646D01*
X95250500Y-77446646D01*
X95250500Y-67877713D01*
X105853500Y-67877713D01*
X105853500Y-68090286D01*
X105886753Y-68300239D01*
X105952444Y-68502414D01*
X106048951Y-68691820D01*
X106173890Y-68863786D01*
X106324213Y-69014109D01*
X106496179Y-69139048D01*
X106496181Y-69139049D01*
X106496184Y-69139051D01*
X106685588Y-69235557D01*
X106887757Y-69301246D01*
X107097713Y-69334500D01*
X107097714Y-69334500D01*
X107310286Y-69334500D01*
X107310287Y-69334500D01*
X107520243Y-69301246D01*
X107722412Y-69235557D01*
X107911816Y-69139051D01*
X108024119Y-69057459D01*
X108083786Y-69014109D01*
X108083788Y-69014106D01*
X108083792Y-69014104D01*
X108234104Y-68863792D01*
X108234106Y-68863788D01*
X108234109Y-68863786D01*
X108359048Y-68691820D01*
X108359049Y-68691819D01*
X108359051Y-68691816D01*
X108363514Y-68683054D01*
X108411488Y-68632259D01*
X108479308Y-68615463D01*
X108545444Y-68637999D01*
X108584486Y-68683056D01*
X108588951Y-68691820D01*
X108713890Y-68863786D01*
X108864213Y-69014109D01*
X109036179Y-69139048D01*
X109036181Y-69139049D01*
X109036184Y-69139051D01*
X109225588Y-69235557D01*
X109427757Y-69301246D01*
X109637713Y-69334500D01*
X109637714Y-69334500D01*
X109850286Y-69334500D01*
X109850287Y-69334500D01*
X110060243Y-69301246D01*
X110262412Y-69235557D01*
X110451816Y-69139051D01*
X110564119Y-69057459D01*
X110623786Y-69014109D01*
X110623788Y-69014106D01*
X110623792Y-69014104D01*
X110774104Y-68863792D01*
X110774106Y-68863788D01*
X110774109Y-68863786D01*
X110899048Y-68691820D01*
X110899049Y-68691819D01*
X110899051Y-68691816D01*
X110903514Y-68683054D01*
X110951488Y-68632259D01*
X111019308Y-68615463D01*
X111085444Y-68637999D01*
X111124486Y-68683056D01*
X111128951Y-68691820D01*
X111253890Y-68863786D01*
X111404213Y-69014109D01*
X111576179Y-69139048D01*
X111576181Y-69139049D01*
X111576184Y-69139051D01*
X111765588Y-69235557D01*
X111967757Y-69301246D01*
X112177713Y-69334500D01*
X112177714Y-69334500D01*
X112390286Y-69334500D01*
X112390287Y-69334500D01*
X112600243Y-69301246D01*
X112802412Y-69235557D01*
X112991816Y-69139051D01*
X113104119Y-69057459D01*
X113163786Y-69014109D01*
X113163788Y-69014106D01*
X113163792Y-69014104D01*
X113314104Y-68863792D01*
X113314106Y-68863788D01*
X113314109Y-68863786D01*
X113439048Y-68691820D01*
X113439049Y-68691819D01*
X113439051Y-68691816D01*
X113535557Y-68502412D01*
X113601246Y-68300243D01*
X113634500Y-68090287D01*
X113634500Y-67877713D01*
X116013500Y-67877713D01*
X116013500Y-68090286D01*
X116046753Y-68300239D01*
X116112444Y-68502414D01*
X116208951Y-68691820D01*
X116333890Y-68863786D01*
X116333896Y-68863792D01*
X116484208Y-69014104D01*
X116509771Y-69032676D01*
X116525969Y-69044445D01*
X116556186Y-69075873D01*
X116586862Y-69121784D01*
X116726214Y-69261136D01*
X116726218Y-69261139D01*
X116890079Y-69370628D01*
X116890092Y-69370635D01*
X117072160Y-69446049D01*
X117072165Y-69446051D01*
X117072169Y-69446051D01*
X117072170Y-69446052D01*
X117265456Y-69484500D01*
X117265459Y-69484500D01*
X117462543Y-69484500D01*
X117592582Y-69458632D01*
X117655835Y-69446051D01*
X117837914Y-69370632D01*
X118001782Y-69261139D01*
X118141139Y-69121782D01*
X118171814Y-69075870D01*
X118202027Y-69044446D01*
X118243792Y-69014104D01*
X118394104Y-68863792D01*
X118399926Y-68855778D01*
X123799500Y-68855778D01*
X123799500Y-69144221D01*
X123799501Y-69144238D01*
X123837149Y-69430206D01*
X123837150Y-69430211D01*
X123837151Y-69430217D01*
X123909488Y-69700183D01*
X123911809Y-69708844D01*
X123911814Y-69708860D01*
X124022191Y-69975336D01*
X124022199Y-69975352D01*
X124166420Y-70225148D01*
X124166431Y-70225164D01*
X124342024Y-70454002D01*
X124342030Y-70454009D01*
X124545990Y-70657969D01*
X124545996Y-70657974D01*
X124774844Y-70833575D01*
X124774851Y-70833579D01*
X125024647Y-70977800D01*
X125024663Y-70977808D01*
X125291139Y-71088185D01*
X125291145Y-71088186D01*
X125291155Y-71088191D01*
X125569783Y-71162849D01*
X125855772Y-71200500D01*
X125855779Y-71200500D01*
X126144221Y-71200500D01*
X126144228Y-71200500D01*
X126430217Y-71162849D01*
X126708845Y-71088191D01*
X126708857Y-71088185D01*
X126708860Y-71088185D01*
X126975336Y-70977808D01*
X126975339Y-70977806D01*
X126975345Y-70977804D01*
X127225156Y-70833575D01*
X127454004Y-70657974D01*
X127657974Y-70454004D01*
X127833575Y-70225156D01*
X127977804Y-69975345D01*
X128069908Y-69752986D01*
X128088185Y-69708860D01*
X128088185Y-69708857D01*
X128088191Y-69708845D01*
X128162849Y-69430217D01*
X128200500Y-69144228D01*
X128200500Y-68855772D01*
X128162849Y-68569783D01*
X128088191Y-68291155D01*
X128088186Y-68291145D01*
X128088185Y-68291139D01*
X127977808Y-68024663D01*
X127977800Y-68024647D01*
X127833579Y-67774851D01*
X127833575Y-67774844D01*
X127657974Y-67545996D01*
X127657969Y-67545990D01*
X127454009Y-67342030D01*
X127454002Y-67342024D01*
X127225164Y-67166431D01*
X127225162Y-67166429D01*
X127225156Y-67166425D01*
X127225151Y-67166422D01*
X127225148Y-67166420D01*
X126975352Y-67022199D01*
X126975336Y-67022191D01*
X126708860Y-66911814D01*
X126708848Y-66911810D01*
X126708845Y-66911809D01*
X126430217Y-66837151D01*
X126430211Y-66837150D01*
X126430206Y-66837149D01*
X126144238Y-66799501D01*
X126144233Y-66799500D01*
X126144228Y-66799500D01*
X125855772Y-66799500D01*
X125855766Y-66799500D01*
X125855761Y-66799501D01*
X125569793Y-66837149D01*
X125569786Y-66837150D01*
X125569783Y-66837151D01*
X125485058Y-66859853D01*
X125291155Y-66911809D01*
X125291139Y-66911814D01*
X125024663Y-67022191D01*
X125024647Y-67022199D01*
X124774851Y-67166420D01*
X124774835Y-67166431D01*
X124545997Y-67342024D01*
X124545990Y-67342030D01*
X124342030Y-67545990D01*
X124342024Y-67545997D01*
X124166431Y-67774835D01*
X124166420Y-67774851D01*
X124022199Y-68024647D01*
X124022191Y-68024663D01*
X123911814Y-68291139D01*
X123911809Y-68291155D01*
X123855203Y-68502414D01*
X123837152Y-68569780D01*
X123837149Y-68569793D01*
X123799501Y-68855761D01*
X123799500Y-68855778D01*
X118399926Y-68855778D01*
X118519051Y-68691816D01*
X118615557Y-68502412D01*
X118681246Y-68300243D01*
X118714500Y-68090287D01*
X118714500Y-67877713D01*
X118681246Y-67667757D01*
X118615557Y-67465588D01*
X118519051Y-67276184D01*
X118519049Y-67276181D01*
X118519048Y-67276179D01*
X118394109Y-67104213D01*
X118243786Y-66953890D01*
X118071820Y-66828951D01*
X117882414Y-66732444D01*
X117882413Y-66732443D01*
X117882412Y-66732443D01*
X117680243Y-66666754D01*
X117680241Y-66666753D01*
X117680240Y-66666753D01*
X117518957Y-66641208D01*
X117470287Y-66633500D01*
X117257713Y-66633500D01*
X117209042Y-66641208D01*
X117047760Y-66666753D01*
X116845585Y-66732444D01*
X116656179Y-66828951D01*
X116484213Y-66953890D01*
X116333890Y-67104213D01*
X116208951Y-67276179D01*
X116112444Y-67465585D01*
X116046753Y-67667760D01*
X116013500Y-67877713D01*
X113634500Y-67877713D01*
X113601246Y-67667757D01*
X113535557Y-67465588D01*
X113439051Y-67276184D01*
X113439049Y-67276181D01*
X113439048Y-67276179D01*
X113314109Y-67104213D01*
X113163786Y-66953890D01*
X112991820Y-66828951D01*
X112802414Y-66732444D01*
X112802413Y-66732443D01*
X112802412Y-66732443D01*
X112600243Y-66666754D01*
X112600241Y-66666753D01*
X112600240Y-66666753D01*
X112438957Y-66641208D01*
X112390287Y-66633500D01*
X112177713Y-66633500D01*
X112129042Y-66641208D01*
X111967760Y-66666753D01*
X111765585Y-66732444D01*
X111576179Y-66828951D01*
X111404213Y-66953890D01*
X111253890Y-67104213D01*
X111128949Y-67276182D01*
X111124484Y-67284946D01*
X111076509Y-67335742D01*
X111008688Y-67352536D01*
X110942553Y-67329998D01*
X110903516Y-67284946D01*
X110899050Y-67276182D01*
X110774109Y-67104213D01*
X110623786Y-66953890D01*
X110451820Y-66828951D01*
X110262414Y-66732444D01*
X110262413Y-66732443D01*
X110262412Y-66732443D01*
X110060243Y-66666754D01*
X110060241Y-66666753D01*
X110060240Y-66666753D01*
X109898957Y-66641208D01*
X109850287Y-66633500D01*
X109637713Y-66633500D01*
X109589042Y-66641208D01*
X109427760Y-66666753D01*
X109225585Y-66732444D01*
X109036179Y-66828951D01*
X108864213Y-66953890D01*
X108713890Y-67104213D01*
X108588949Y-67276182D01*
X108584484Y-67284946D01*
X108536509Y-67335742D01*
X108468688Y-67352536D01*
X108402553Y-67329998D01*
X108363516Y-67284946D01*
X108359050Y-67276182D01*
X108234109Y-67104213D01*
X108083786Y-66953890D01*
X107911820Y-66828951D01*
X107722414Y-66732444D01*
X107722413Y-66732443D01*
X107722412Y-66732443D01*
X107520243Y-66666754D01*
X107520241Y-66666753D01*
X107520240Y-66666753D01*
X107358957Y-66641208D01*
X107310287Y-66633500D01*
X107097713Y-66633500D01*
X107049042Y-66641208D01*
X106887760Y-66666753D01*
X106685585Y-66732444D01*
X106496179Y-66828951D01*
X106324213Y-66953890D01*
X106173890Y-67104213D01*
X106048951Y-67276179D01*
X105952444Y-67465585D01*
X105886753Y-67667760D01*
X105853500Y-67877713D01*
X95250500Y-67877713D01*
X95250500Y-63365186D01*
X96349500Y-63365186D01*
X96349500Y-63634813D01*
X96379686Y-63902719D01*
X96379687Y-63902728D01*
X96379688Y-63902732D01*
X96384209Y-63922540D01*
X96439684Y-64165594D01*
X96439687Y-64165602D01*
X96528734Y-64420082D01*
X96645714Y-64662994D01*
X96645716Y-64662997D01*
X96789162Y-64891289D01*
X96957266Y-65102085D01*
X97147915Y-65292734D01*
X97358711Y-65460838D01*
X97587003Y-65604284D01*
X97829921Y-65721267D01*
X98021049Y-65788145D01*
X98084397Y-65810312D01*
X98084405Y-65810315D01*
X98084408Y-65810315D01*
X98084409Y-65810316D01*
X98347268Y-65870312D01*
X98615187Y-65900499D01*
X98615188Y-65900500D01*
X98615191Y-65900500D01*
X98884812Y-65900500D01*
X98884812Y-65900499D01*
X99152732Y-65870312D01*
X99415591Y-65810316D01*
X99670079Y-65721267D01*
X99912997Y-65604284D01*
X100141289Y-65460838D01*
X100352085Y-65292734D01*
X100542734Y-65102085D01*
X100710838Y-64891289D01*
X100854284Y-64662997D01*
X100971267Y-64420079D01*
X101060316Y-64165591D01*
X101120312Y-63902732D01*
X101150500Y-63634809D01*
X101150500Y-63365191D01*
X101125545Y-63143713D01*
X131329500Y-63143713D01*
X131329500Y-63356287D01*
X131330910Y-63365188D01*
X131359585Y-63546240D01*
X131362754Y-63566243D01*
X131421945Y-63748414D01*
X131428444Y-63768414D01*
X131524951Y-63957820D01*
X131649890Y-64129786D01*
X131800213Y-64280109D01*
X131972179Y-64405048D01*
X131972181Y-64405049D01*
X131972184Y-64405051D01*
X132161588Y-64501557D01*
X132363757Y-64567246D01*
X132573713Y-64600500D01*
X132573714Y-64600500D01*
X132786286Y-64600500D01*
X132786287Y-64600500D01*
X132996243Y-64567246D01*
X133198412Y-64501557D01*
X133387816Y-64405051D01*
X133415348Y-64385048D01*
X133559786Y-64280109D01*
X133559788Y-64280106D01*
X133559792Y-64280104D01*
X133710104Y-64129792D01*
X133829683Y-63965204D01*
X133885011Y-63922540D01*
X133954624Y-63916561D01*
X134016420Y-63949166D01*
X134030313Y-63965199D01*
X134135361Y-64109786D01*
X134149896Y-64129792D01*
X134300213Y-64280109D01*
X134472179Y-64405048D01*
X134472181Y-64405049D01*
X134472184Y-64405051D01*
X134661588Y-64501557D01*
X134863757Y-64567246D01*
X135073713Y-64600500D01*
X135073714Y-64600500D01*
X135286286Y-64600500D01*
X135286287Y-64600500D01*
X135496243Y-64567246D01*
X135698412Y-64501557D01*
X135887816Y-64405051D01*
X135915348Y-64385048D01*
X136059786Y-64280109D01*
X136059788Y-64280106D01*
X136059792Y-64280104D01*
X136210104Y-64129792D01*
X136329683Y-63965204D01*
X136385011Y-63922540D01*
X136454624Y-63916561D01*
X136516420Y-63949166D01*
X136530313Y-63965199D01*
X136635361Y-64109786D01*
X136649896Y-64129792D01*
X136800213Y-64280109D01*
X136972179Y-64405048D01*
X136972181Y-64405049D01*
X136972184Y-64405051D01*
X137161588Y-64501557D01*
X137363757Y-64567246D01*
X137573713Y-64600500D01*
X137573714Y-64600500D01*
X137786286Y-64600500D01*
X137786287Y-64600500D01*
X137996243Y-64567246D01*
X138198412Y-64501557D01*
X138387816Y-64405051D01*
X138415348Y-64385048D01*
X138559786Y-64280109D01*
X138559788Y-64280106D01*
X138559792Y-64280104D01*
X138710104Y-64129792D01*
X138710106Y-64129788D01*
X138710109Y-64129786D01*
X138835048Y-63957820D01*
X138835047Y-63957820D01*
X138835051Y-63957816D01*
X138931557Y-63768412D01*
X138997246Y-63566243D01*
X139030500Y-63356287D01*
X139030500Y-63143713D01*
X139027332Y-63123713D01*
X146559500Y-63123713D01*
X146559500Y-63336286D01*
X146592753Y-63546239D01*
X146592753Y-63546241D01*
X146592754Y-63546243D01*
X146621532Y-63634813D01*
X146658444Y-63748414D01*
X146754951Y-63937820D01*
X146879890Y-64109786D01*
X147030213Y-64260109D01*
X147202182Y-64385050D01*
X147210946Y-64389516D01*
X147261742Y-64437491D01*
X147278536Y-64505312D01*
X147255998Y-64571447D01*
X147210946Y-64610484D01*
X147202182Y-64614949D01*
X147030213Y-64739890D01*
X146879890Y-64890213D01*
X146754951Y-65062179D01*
X146658444Y-65251585D01*
X146592753Y-65453760D01*
X146559500Y-65663713D01*
X146559500Y-65876286D01*
X146592753Y-66086239D01*
X146658444Y-66288414D01*
X146754951Y-66477820D01*
X146879890Y-66649786D01*
X146993430Y-66763326D01*
X147026915Y-66824649D01*
X147021931Y-66894341D01*
X146980059Y-66950274D01*
X146949083Y-66967189D01*
X146817669Y-67016203D01*
X146817664Y-67016206D01*
X146702455Y-67102452D01*
X146702452Y-67102455D01*
X146616206Y-67217664D01*
X146616202Y-67217671D01*
X146565908Y-67352517D01*
X146559501Y-67412116D01*
X146559501Y-67412123D01*
X146559500Y-67412135D01*
X146559500Y-69207870D01*
X146559501Y-69207876D01*
X146565908Y-69267483D01*
X146616202Y-69402328D01*
X146616206Y-69402335D01*
X146702452Y-69517544D01*
X146702455Y-69517547D01*
X146817664Y-69603793D01*
X146817671Y-69603797D01*
X146952517Y-69654091D01*
X146952516Y-69654091D01*
X146959444Y-69654835D01*
X147012127Y-69660500D01*
X148807872Y-69660499D01*
X148867483Y-69654091D01*
X149002331Y-69603796D01*
X149117546Y-69517546D01*
X149203796Y-69402331D01*
X149254091Y-69267483D01*
X149260500Y-69207873D01*
X149260499Y-67412128D01*
X149254091Y-67352517D01*
X149250177Y-67342024D01*
X149203797Y-67217671D01*
X149203793Y-67217664D01*
X149117547Y-67102455D01*
X149117544Y-67102452D01*
X149002335Y-67016206D01*
X149002328Y-67016202D01*
X148870917Y-66967189D01*
X148814983Y-66925318D01*
X148790566Y-66859853D01*
X148805418Y-66791580D01*
X148826563Y-66763332D01*
X148940104Y-66649792D01*
X149065051Y-66477816D01*
X149161557Y-66288412D01*
X149227246Y-66086243D01*
X149260500Y-65876287D01*
X149260500Y-65663713D01*
X149227246Y-65453757D01*
X149161557Y-65251588D01*
X149065051Y-65062184D01*
X149065049Y-65062181D01*
X149065048Y-65062179D01*
X148940109Y-64890213D01*
X148789786Y-64739890D01*
X148617820Y-64614951D01*
X148617115Y-64614591D01*
X148609054Y-64610485D01*
X148558259Y-64562512D01*
X148541463Y-64494692D01*
X148563999Y-64428556D01*
X148609054Y-64389515D01*
X148617816Y-64385051D01*
X148639789Y-64369086D01*
X148789786Y-64260109D01*
X148789788Y-64260106D01*
X148789792Y-64260104D01*
X148940104Y-64109792D01*
X148940106Y-64109788D01*
X148940109Y-64109786D01*
X149065048Y-63937820D01*
X149065047Y-63937820D01*
X149065051Y-63937816D01*
X149161557Y-63748412D01*
X149227246Y-63546243D01*
X149255923Y-63365186D01*
X154570600Y-63365186D01*
X154570600Y-63634813D01*
X154600786Y-63902719D01*
X154600787Y-63902728D01*
X154600788Y-63902732D01*
X154605309Y-63922540D01*
X154660784Y-64165594D01*
X154660787Y-64165602D01*
X154749834Y-64420082D01*
X154866814Y-64662994D01*
X154866816Y-64662997D01*
X155010262Y-64891289D01*
X155178366Y-65102085D01*
X155369015Y-65292734D01*
X155579811Y-65460838D01*
X155808103Y-65604284D01*
X156051021Y-65721267D01*
X156242149Y-65788145D01*
X156305497Y-65810312D01*
X156305505Y-65810315D01*
X156305508Y-65810315D01*
X156305509Y-65810316D01*
X156568368Y-65870312D01*
X156836287Y-65900499D01*
X156836288Y-65900500D01*
X156836291Y-65900500D01*
X157105912Y-65900500D01*
X157105912Y-65900499D01*
X157373832Y-65870312D01*
X157636691Y-65810316D01*
X157891179Y-65721267D01*
X158134097Y-65604284D01*
X158362389Y-65460838D01*
X158573185Y-65292734D01*
X158763834Y-65102085D01*
X158931938Y-64891289D01*
X159075384Y-64662997D01*
X159192367Y-64420079D01*
X159281416Y-64165591D01*
X159341412Y-63902732D01*
X159371600Y-63634809D01*
X159371600Y-63365191D01*
X159341412Y-63097268D01*
X159281416Y-62834409D01*
X159192367Y-62579921D01*
X159075384Y-62337003D01*
X158931938Y-62108711D01*
X158763834Y-61897915D01*
X158573185Y-61707266D01*
X158362389Y-61539162D01*
X158134097Y-61395716D01*
X158134094Y-61395714D01*
X157891182Y-61278734D01*
X157636702Y-61189687D01*
X157636694Y-61189684D01*
X157439546Y-61144687D01*
X157373832Y-61129688D01*
X157373828Y-61129687D01*
X157373819Y-61129686D01*
X157105913Y-61099500D01*
X157105909Y-61099500D01*
X156836291Y-61099500D01*
X156836286Y-61099500D01*
X156568380Y-61129686D01*
X156568368Y-61129688D01*
X156305505Y-61189684D01*
X156305497Y-61189687D01*
X156051017Y-61278734D01*
X155808105Y-61395714D01*
X155579812Y-61539161D01*
X155369015Y-61707265D01*
X155178365Y-61897915D01*
X155010261Y-62108712D01*
X154866814Y-62337005D01*
X154749834Y-62579917D01*
X154660787Y-62834397D01*
X154660784Y-62834405D01*
X154600788Y-63097268D01*
X154600786Y-63097280D01*
X154570600Y-63365186D01*
X149255923Y-63365186D01*
X149260500Y-63336287D01*
X149260500Y-63123713D01*
X149227246Y-62913757D01*
X149161557Y-62711588D01*
X149065051Y-62522184D01*
X149065049Y-62522181D01*
X149065048Y-62522179D01*
X148940109Y-62350213D01*
X148789786Y-62199890D01*
X148617820Y-62074951D01*
X148428414Y-61978444D01*
X148428413Y-61978443D01*
X148428412Y-61978443D01*
X148226243Y-61912754D01*
X148226241Y-61912753D01*
X148226240Y-61912753D01*
X148064957Y-61887208D01*
X148016287Y-61879500D01*
X147803713Y-61879500D01*
X147755042Y-61887208D01*
X147593760Y-61912753D01*
X147391585Y-61978444D01*
X147202179Y-62074951D01*
X147030213Y-62199890D01*
X146879890Y-62350213D01*
X146754951Y-62522179D01*
X146658444Y-62711585D01*
X146592753Y-62913760D01*
X146559500Y-63123713D01*
X139027332Y-63123713D01*
X138997246Y-62933757D01*
X138931557Y-62731588D01*
X138835051Y-62542184D01*
X138835049Y-62542181D01*
X138835048Y-62542179D01*
X138710109Y-62370213D01*
X138559786Y-62219890D01*
X138387820Y-62094951D01*
X138198414Y-61998444D01*
X138198413Y-61998443D01*
X138198412Y-61998443D01*
X137996243Y-61932754D01*
X137996241Y-61932753D01*
X137996240Y-61932753D01*
X137834957Y-61907208D01*
X137786287Y-61899500D01*
X137573713Y-61899500D01*
X137525042Y-61907208D01*
X137363760Y-61932753D01*
X137161585Y-61998444D01*
X136972179Y-62094951D01*
X136800213Y-62219890D01*
X136649894Y-62370209D01*
X136649890Y-62370214D01*
X136530318Y-62534793D01*
X136474989Y-62577459D01*
X136405375Y-62583438D01*
X136343580Y-62550833D01*
X136329682Y-62534793D01*
X136210109Y-62370214D01*
X136210105Y-62370209D01*
X136059786Y-62219890D01*
X135887820Y-62094951D01*
X135698414Y-61998444D01*
X135698413Y-61998443D01*
X135698412Y-61998443D01*
X135496243Y-61932754D01*
X135496241Y-61932753D01*
X135496240Y-61932753D01*
X135334957Y-61907208D01*
X135286287Y-61899500D01*
X135073713Y-61899500D01*
X135025042Y-61907208D01*
X134863760Y-61932753D01*
X134661585Y-61998444D01*
X134472179Y-62094951D01*
X134300213Y-62219890D01*
X134149894Y-62370209D01*
X134149890Y-62370214D01*
X134030318Y-62534793D01*
X133974989Y-62577459D01*
X133905375Y-62583438D01*
X133843580Y-62550833D01*
X133829682Y-62534793D01*
X133710109Y-62370214D01*
X133710105Y-62370209D01*
X133559786Y-62219890D01*
X133387820Y-62094951D01*
X133198414Y-61998444D01*
X133198413Y-61998443D01*
X133198412Y-61998443D01*
X132996243Y-61932754D01*
X132996241Y-61932753D01*
X132996240Y-61932753D01*
X132834957Y-61907208D01*
X132786287Y-61899500D01*
X132573713Y-61899500D01*
X132525042Y-61907208D01*
X132363760Y-61932753D01*
X132161585Y-61998444D01*
X131972179Y-62094951D01*
X131800213Y-62219890D01*
X131649890Y-62370213D01*
X131524951Y-62542179D01*
X131428444Y-62731585D01*
X131362753Y-62933760D01*
X131336856Y-63097268D01*
X131329500Y-63143713D01*
X101125545Y-63143713D01*
X101120312Y-63097268D01*
X101060316Y-62834409D01*
X100971267Y-62579921D01*
X100854284Y-62337003D01*
X100710838Y-62108711D01*
X100542734Y-61897915D01*
X100352085Y-61707266D01*
X100141289Y-61539162D01*
X99912997Y-61395716D01*
X99912994Y-61395714D01*
X99670082Y-61278734D01*
X99415602Y-61189687D01*
X99415594Y-61189684D01*
X99218446Y-61144687D01*
X99152732Y-61129688D01*
X99152728Y-61129687D01*
X99152719Y-61129686D01*
X98884813Y-61099500D01*
X98884809Y-61099500D01*
X98615191Y-61099500D01*
X98615186Y-61099500D01*
X98347280Y-61129686D01*
X98347268Y-61129688D01*
X98084405Y-61189684D01*
X98084397Y-61189687D01*
X97829917Y-61278734D01*
X97587005Y-61395714D01*
X97358712Y-61539161D01*
X97147915Y-61707265D01*
X96957265Y-61897915D01*
X96789161Y-62108712D01*
X96645714Y-62337005D01*
X96528734Y-62579917D01*
X96439687Y-62834397D01*
X96439684Y-62834405D01*
X96379688Y-63097268D01*
X96379686Y-63097280D01*
X96349500Y-63365186D01*
X95250500Y-63365186D01*
X95250500Y-61504427D01*
X95250816Y-61495581D01*
X95255213Y-61434108D01*
X95265130Y-61295436D01*
X95267646Y-61277938D01*
X95309356Y-61086199D01*
X95314333Y-61069248D01*
X95382911Y-60885385D01*
X95390259Y-60869298D01*
X95452815Y-60754734D01*
X95484291Y-60697089D01*
X95493845Y-60682221D01*
X95611448Y-60525123D01*
X95623020Y-60511769D01*
X95761769Y-60373020D01*
X95775123Y-60361448D01*
X95932221Y-60243845D01*
X95947089Y-60234291D01*
X96119298Y-60140258D01*
X96135385Y-60132911D01*
X96319248Y-60064333D01*
X96336199Y-60059356D01*
X96527938Y-60017646D01*
X96545436Y-60015130D01*
X96745582Y-60000816D01*
X96754428Y-60000500D01*
X96815892Y-60000500D01*
X150184108Y-60000500D01*
X158614108Y-60000500D01*
X158966685Y-60000500D01*
X158975533Y-60000816D01*
G37*
%TD.AperFunction*%
%TD*%
%TA.AperFunction,Conductor*%
%TO.N,/VIN_RAW*%
G36*
X125604418Y-97390316D02*
G01*
X125875790Y-97409724D01*
X125893291Y-97412241D01*
X126154803Y-97469129D01*
X126171762Y-97474108D01*
X126422524Y-97567638D01*
X126438616Y-97574987D01*
X126673501Y-97703244D01*
X126688375Y-97712802D01*
X126902624Y-97873188D01*
X126915994Y-97884774D01*
X127105225Y-98074005D01*
X127116811Y-98087375D01*
X127277193Y-98301619D01*
X127286758Y-98316503D01*
X127415011Y-98551382D01*
X127422361Y-98567475D01*
X127515888Y-98818229D01*
X127520872Y-98835205D01*
X127577757Y-99096702D01*
X127580275Y-99114214D01*
X127599684Y-99385581D01*
X127600000Y-99394427D01*
X127600000Y-117245572D01*
X127599684Y-117254418D01*
X127580275Y-117525785D01*
X127577757Y-117543297D01*
X127520872Y-117804794D01*
X127515888Y-117821770D01*
X127422361Y-118072524D01*
X127415011Y-118088617D01*
X127286758Y-118323496D01*
X127277193Y-118338380D01*
X127116811Y-118552624D01*
X127105226Y-118565994D01*
X126958037Y-118713182D01*
X126896717Y-118746666D01*
X126870358Y-118749500D01*
X106549642Y-118749500D01*
X106482603Y-118729815D01*
X106461961Y-118713181D01*
X106314774Y-118565994D01*
X106303188Y-118552624D01*
X106142802Y-118338375D01*
X106133244Y-118323501D01*
X106004987Y-118088616D01*
X105997638Y-118072524D01*
X105904108Y-117821762D01*
X105899129Y-117804803D01*
X105842241Y-117543291D01*
X105839724Y-117525785D01*
X105820316Y-117254418D01*
X105820000Y-117245572D01*
X105820000Y-112370441D01*
X112439500Y-112370441D01*
X112439500Y-112619558D01*
X112439501Y-112619575D01*
X112472017Y-112866561D01*
X112536498Y-113107207D01*
X112631830Y-113337361D01*
X112631837Y-113337376D01*
X112756400Y-113553126D01*
X112908060Y-113750774D01*
X112908066Y-113750781D01*
X113084218Y-113926933D01*
X113084225Y-113926939D01*
X113281873Y-114078599D01*
X113497623Y-114203162D01*
X113497638Y-114203169D01*
X113596825Y-114244253D01*
X113727793Y-114298502D01*
X113968435Y-114362982D01*
X114215435Y-114395500D01*
X114215442Y-114395500D01*
X114464558Y-114395500D01*
X114464565Y-114395500D01*
X114711565Y-114362982D01*
X114952207Y-114298502D01*
X115182373Y-114203164D01*
X115398127Y-114078599D01*
X115595776Y-113926938D01*
X115771938Y-113750776D01*
X115923599Y-113553127D01*
X116048164Y-113337373D01*
X116143502Y-113107207D01*
X116207982Y-112866565D01*
X116240500Y-112619565D01*
X116240500Y-112370435D01*
X116207982Y-112123435D01*
X116143502Y-111882793D01*
X116048164Y-111652627D01*
X115923599Y-111436873D01*
X115771938Y-111239224D01*
X115771933Y-111239218D01*
X115595781Y-111063066D01*
X115595774Y-111063060D01*
X115398126Y-110911400D01*
X115182376Y-110786837D01*
X115182361Y-110786830D01*
X114952207Y-110691498D01*
X114711561Y-110627017D01*
X114464575Y-110594501D01*
X114464570Y-110594500D01*
X114464565Y-110594500D01*
X114215435Y-110594500D01*
X114215429Y-110594500D01*
X114215424Y-110594501D01*
X113968438Y-110627017D01*
X113727792Y-110691498D01*
X113497638Y-110786830D01*
X113497623Y-110786837D01*
X113281873Y-110911400D01*
X113084225Y-111063060D01*
X113084218Y-111063066D01*
X112908066Y-111239218D01*
X112908060Y-111239225D01*
X112756400Y-111436873D01*
X112631837Y-111652623D01*
X112631830Y-111652638D01*
X112536498Y-111882792D01*
X112472017Y-112123438D01*
X112439501Y-112370424D01*
X112439500Y-112370441D01*
X105820000Y-112370441D01*
X105820000Y-104555909D01*
X122821500Y-104555909D01*
X122821500Y-104844090D01*
X122821501Y-104844106D01*
X122859115Y-105129815D01*
X122859116Y-105129820D01*
X122859117Y-105129826D01*
X122859118Y-105129828D01*
X122933706Y-105408199D01*
X123043991Y-105674451D01*
X123043996Y-105674461D01*
X123188091Y-105924041D01*
X123363532Y-106152680D01*
X123363538Y-106152687D01*
X123567312Y-106356461D01*
X123567319Y-106356467D01*
X123795958Y-106531908D01*
X124045538Y-106676003D01*
X124045548Y-106676008D01*
X124193074Y-106737115D01*
X124311799Y-106786293D01*
X124590174Y-106860883D01*
X124875903Y-106898500D01*
X124875910Y-106898500D01*
X125164090Y-106898500D01*
X125164097Y-106898500D01*
X125449826Y-106860883D01*
X125728201Y-106786293D01*
X125994458Y-106676005D01*
X126244042Y-106531908D01*
X126472682Y-106356466D01*
X126676466Y-106152682D01*
X126851908Y-105924042D01*
X126996005Y-105674458D01*
X127106293Y-105408201D01*
X127180883Y-105129826D01*
X127218500Y-104844097D01*
X127218500Y-104555903D01*
X127180883Y-104270174D01*
X127106293Y-103991799D01*
X127057115Y-103873074D01*
X126996008Y-103725548D01*
X126996003Y-103725538D01*
X126851908Y-103475958D01*
X126676467Y-103247319D01*
X126676461Y-103247312D01*
X126472687Y-103043538D01*
X126472680Y-103043532D01*
X126244041Y-102868091D01*
X125994461Y-102723996D01*
X125994451Y-102723991D01*
X125873908Y-102674061D01*
X125819505Y-102630220D01*
X125797440Y-102563926D01*
X125814719Y-102496226D01*
X125865857Y-102448616D01*
X125921361Y-102435500D01*
X125949596Y-102435500D01*
X125949597Y-102435500D01*
X126146339Y-102404339D01*
X126146342Y-102404338D01*
X126146343Y-102404338D01*
X126335780Y-102342786D01*
X126335780Y-102342785D01*
X126335783Y-102342785D01*
X126513266Y-102252353D01*
X126674418Y-102135269D01*
X126815269Y-101994418D01*
X126932353Y-101833266D01*
X127022785Y-101655783D01*
X127084339Y-101466339D01*
X127115500Y-101269597D01*
X127115500Y-101070403D01*
X127084339Y-100873661D01*
X127084338Y-100873657D01*
X127084338Y-100873656D01*
X127022786Y-100684219D01*
X126932352Y-100506733D01*
X126815269Y-100345582D01*
X126674418Y-100204731D01*
X126513266Y-100087647D01*
X126335780Y-99997213D01*
X126146342Y-99935661D01*
X125998782Y-99912290D01*
X125949597Y-99904500D01*
X125750403Y-99904500D01*
X125684822Y-99914887D01*
X125553659Y-99935661D01*
X125553656Y-99935661D01*
X125364219Y-99997213D01*
X125186733Y-100087647D01*
X125094790Y-100154447D01*
X125025582Y-100204731D01*
X125025580Y-100204733D01*
X125025579Y-100204733D01*
X124884733Y-100345579D01*
X124884733Y-100345580D01*
X124884731Y-100345582D01*
X124834447Y-100414790D01*
X124767647Y-100506733D01*
X124677213Y-100684219D01*
X124615661Y-100873656D01*
X124615661Y-100873659D01*
X124584500Y-101070403D01*
X124584500Y-101269596D01*
X124615661Y-101466340D01*
X124615661Y-101466343D01*
X124677213Y-101655780D01*
X124677215Y-101655783D01*
X124767647Y-101833266D01*
X124884731Y-101994418D01*
X125025582Y-102135269D01*
X125186734Y-102252353D01*
X125215510Y-102267015D01*
X125266306Y-102314990D01*
X125283101Y-102382811D01*
X125260564Y-102448946D01*
X125205848Y-102492397D01*
X125159215Y-102501500D01*
X124875903Y-102501500D01*
X124875897Y-102501500D01*
X124875893Y-102501501D01*
X124590184Y-102539115D01*
X124590177Y-102539116D01*
X124590174Y-102539117D01*
X124531343Y-102554880D01*
X124311800Y-102613706D01*
X124045548Y-102723991D01*
X124045538Y-102723996D01*
X123795958Y-102868091D01*
X123567319Y-103043532D01*
X123567312Y-103043538D01*
X123363538Y-103247312D01*
X123363532Y-103247319D01*
X123188091Y-103475958D01*
X123043996Y-103725538D01*
X123043991Y-103725548D01*
X122933706Y-103991800D01*
X122859118Y-104270171D01*
X122859115Y-104270184D01*
X122821501Y-104555893D01*
X122821500Y-104555909D01*
X105820000Y-104555909D01*
X105820000Y-99394427D01*
X105820316Y-99385581D01*
X105839724Y-99114214D01*
X105842240Y-99096710D01*
X105899130Y-98835192D01*
X105904107Y-98818241D01*
X105997640Y-98567470D01*
X106004985Y-98551388D01*
X106133248Y-98316491D01*
X106142798Y-98301630D01*
X106303195Y-98087366D01*
X106314767Y-98074012D01*
X106504012Y-97884767D01*
X106517366Y-97873195D01*
X106731630Y-97712798D01*
X106746491Y-97703248D01*
X106981388Y-97574985D01*
X106997470Y-97567640D01*
X107248241Y-97474107D01*
X107265192Y-97469130D01*
X107526710Y-97412240D01*
X107544207Y-97409724D01*
X107815582Y-97390316D01*
X107824428Y-97390000D01*
X125595572Y-97390000D01*
X125604418Y-97390316D01*
G37*
%TD.AperFunction*%
%TD*%
M02*
