%TF.GenerationSoftware,KiCad,Pcbnew,9.0.7*%
%TF.CreationDate,2026-03-26T23:31:19-05:00*%
%TF.ProjectId,FilthyHPs_Maestro,46696c74-6879-4485-9073-5f4d61657374,rev?*%
%TF.SameCoordinates,Original*%
%TF.FileFunction,Legend,Top*%
%TF.FilePolarity,Positive*%
%FSLAX46Y46*%
G04 Gerber Fmt 4.6, Leading zero omitted, Abs format (unit mm)*
G04 Created by KiCad (PCBNEW 9.0.7) date 2026-03-26 23:31:19*
%MOMM*%
%LPD*%
G01*
G04 APERTURE LIST*
%ADD10C,0.150000*%
%ADD11C,0.125000*%
%ADD12C,0.100000*%
%ADD13C,0.156250*%
%ADD14C,0.400000*%
%ADD15C,0.075000*%
%ADD16C,0.050000*%
%ADD17C,0.120000*%
%ADD18C,0.127000*%
%ADD19C,0.200000*%
G04 APERTURE END LIST*
D10*
X95836779Y-109119819D02*
X95836779Y-109929342D01*
X95836779Y-109929342D02*
X95884398Y-110024580D01*
X95884398Y-110024580D02*
X95932017Y-110072200D01*
X95932017Y-110072200D02*
X96027255Y-110119819D01*
X96027255Y-110119819D02*
X96217731Y-110119819D01*
X96217731Y-110119819D02*
X96312969Y-110072200D01*
X96312969Y-110072200D02*
X96360588Y-110024580D01*
X96360588Y-110024580D02*
X96408207Y-109929342D01*
X96408207Y-109929342D02*
X96408207Y-109119819D01*
X96884398Y-109453152D02*
X96884398Y-110119819D01*
X96884398Y-109548390D02*
X96932017Y-109500771D01*
X96932017Y-109500771D02*
X97027255Y-109453152D01*
X97027255Y-109453152D02*
X97170112Y-109453152D01*
X97170112Y-109453152D02*
X97265350Y-109500771D01*
X97265350Y-109500771D02*
X97312969Y-109596009D01*
X97312969Y-109596009D02*
X97312969Y-110119819D01*
X97789160Y-110119819D02*
X97789160Y-109453152D01*
X97789160Y-109643628D02*
X97836779Y-109548390D01*
X97836779Y-109548390D02*
X97884398Y-109500771D01*
X97884398Y-109500771D02*
X97979636Y-109453152D01*
X97979636Y-109453152D02*
X98074874Y-109453152D01*
X98789160Y-110072200D02*
X98693922Y-110119819D01*
X98693922Y-110119819D02*
X98503446Y-110119819D01*
X98503446Y-110119819D02*
X98408208Y-110072200D01*
X98408208Y-110072200D02*
X98360589Y-109976961D01*
X98360589Y-109976961D02*
X98360589Y-109596009D01*
X98360589Y-109596009D02*
X98408208Y-109500771D01*
X98408208Y-109500771D02*
X98503446Y-109453152D01*
X98503446Y-109453152D02*
X98693922Y-109453152D01*
X98693922Y-109453152D02*
X98789160Y-109500771D01*
X98789160Y-109500771D02*
X98836779Y-109596009D01*
X98836779Y-109596009D02*
X98836779Y-109691247D01*
X98836779Y-109691247D02*
X98360589Y-109786485D01*
X99693922Y-109453152D02*
X99693922Y-110262676D01*
X99693922Y-110262676D02*
X99646303Y-110357914D01*
X99646303Y-110357914D02*
X99598684Y-110405533D01*
X99598684Y-110405533D02*
X99503446Y-110453152D01*
X99503446Y-110453152D02*
X99360589Y-110453152D01*
X99360589Y-110453152D02*
X99265351Y-110405533D01*
X99693922Y-110072200D02*
X99598684Y-110119819D01*
X99598684Y-110119819D02*
X99408208Y-110119819D01*
X99408208Y-110119819D02*
X99312970Y-110072200D01*
X99312970Y-110072200D02*
X99265351Y-110024580D01*
X99265351Y-110024580D02*
X99217732Y-109929342D01*
X99217732Y-109929342D02*
X99217732Y-109643628D01*
X99217732Y-109643628D02*
X99265351Y-109548390D01*
X99265351Y-109548390D02*
X99312970Y-109500771D01*
X99312970Y-109500771D02*
X99408208Y-109453152D01*
X99408208Y-109453152D02*
X99598684Y-109453152D01*
X99598684Y-109453152D02*
X99693922Y-109500771D01*
X100932018Y-110119819D02*
X100932018Y-109119819D01*
X100932018Y-109119819D02*
X101312970Y-109119819D01*
X101312970Y-109119819D02*
X101408208Y-109167438D01*
X101408208Y-109167438D02*
X101455827Y-109215057D01*
X101455827Y-109215057D02*
X101503446Y-109310295D01*
X101503446Y-109310295D02*
X101503446Y-109453152D01*
X101503446Y-109453152D02*
X101455827Y-109548390D01*
X101455827Y-109548390D02*
X101408208Y-109596009D01*
X101408208Y-109596009D02*
X101312970Y-109643628D01*
X101312970Y-109643628D02*
X100932018Y-109643628D01*
X101836780Y-109453152D02*
X102027256Y-110119819D01*
X102027256Y-110119819D02*
X102217732Y-109643628D01*
X102217732Y-109643628D02*
X102408208Y-110119819D01*
X102408208Y-110119819D02*
X102598684Y-109453152D01*
X102979637Y-110119819D02*
X102979637Y-109453152D01*
X102979637Y-109643628D02*
X103027256Y-109548390D01*
X103027256Y-109548390D02*
X103074875Y-109500771D01*
X103074875Y-109500771D02*
X103170113Y-109453152D01*
X103170113Y-109453152D02*
X103265351Y-109453152D01*
D11*
X135158571Y-60787690D02*
X135015714Y-60740071D01*
X135015714Y-60740071D02*
X134968095Y-60692452D01*
X134968095Y-60692452D02*
X134920476Y-60597214D01*
X134920476Y-60597214D02*
X134920476Y-60454357D01*
X134920476Y-60454357D02*
X134968095Y-60359119D01*
X134968095Y-60359119D02*
X135015714Y-60311500D01*
X135015714Y-60311500D02*
X135110952Y-60263880D01*
X135110952Y-60263880D02*
X135491904Y-60263880D01*
X135491904Y-60263880D02*
X135491904Y-61263880D01*
X135491904Y-61263880D02*
X135158571Y-61263880D01*
X135158571Y-61263880D02*
X135063333Y-61216261D01*
X135063333Y-61216261D02*
X135015714Y-61168642D01*
X135015714Y-61168642D02*
X134968095Y-61073404D01*
X134968095Y-61073404D02*
X134968095Y-60978166D01*
X134968095Y-60978166D02*
X135015714Y-60882928D01*
X135015714Y-60882928D02*
X135063333Y-60835309D01*
X135063333Y-60835309D02*
X135158571Y-60787690D01*
X135158571Y-60787690D02*
X135491904Y-60787690D01*
D12*
X126624687Y-60877580D02*
X126958020Y-61353771D01*
X127196115Y-60877580D02*
X127196115Y-61877580D01*
X127196115Y-61877580D02*
X126815163Y-61877580D01*
X126815163Y-61877580D02*
X126719925Y-61829961D01*
X126719925Y-61829961D02*
X126672306Y-61782342D01*
X126672306Y-61782342D02*
X126624687Y-61687104D01*
X126624687Y-61687104D02*
X126624687Y-61544247D01*
X126624687Y-61544247D02*
X126672306Y-61449009D01*
X126672306Y-61449009D02*
X126719925Y-61401390D01*
X126719925Y-61401390D02*
X126815163Y-61353771D01*
X126815163Y-61353771D02*
X127196115Y-61353771D01*
X126291353Y-61544247D02*
X126053258Y-60877580D01*
X125815163Y-61544247D02*
X126053258Y-60877580D01*
X126053258Y-60877580D02*
X126148496Y-60639485D01*
X126148496Y-60639485D02*
X126196115Y-60591866D01*
X126196115Y-60591866D02*
X126291353Y-60544247D01*
X125005639Y-60877580D02*
X125005639Y-61401390D01*
X125005639Y-61401390D02*
X125053258Y-61496628D01*
X125053258Y-61496628D02*
X125148496Y-61544247D01*
X125148496Y-61544247D02*
X125338972Y-61544247D01*
X125338972Y-61544247D02*
X125434210Y-61496628D01*
X125005639Y-60925200D02*
X125100877Y-60877580D01*
X125100877Y-60877580D02*
X125338972Y-60877580D01*
X125338972Y-60877580D02*
X125434210Y-60925200D01*
X125434210Y-60925200D02*
X125481829Y-61020438D01*
X125481829Y-61020438D02*
X125481829Y-61115676D01*
X125481829Y-61115676D02*
X125434210Y-61210914D01*
X125434210Y-61210914D02*
X125338972Y-61258533D01*
X125338972Y-61258533D02*
X125100877Y-61258533D01*
X125100877Y-61258533D02*
X125005639Y-61306152D01*
X124529448Y-61544247D02*
X124529448Y-60877580D01*
X124529448Y-61449009D02*
X124481829Y-61496628D01*
X124481829Y-61496628D02*
X124386591Y-61544247D01*
X124386591Y-61544247D02*
X124243734Y-61544247D01*
X124243734Y-61544247D02*
X124148496Y-61496628D01*
X124148496Y-61496628D02*
X124100877Y-61401390D01*
X124100877Y-61401390D02*
X124100877Y-60877580D01*
X122910400Y-60925200D02*
X122767543Y-60877580D01*
X122767543Y-60877580D02*
X122529448Y-60877580D01*
X122529448Y-60877580D02*
X122434210Y-60925200D01*
X122434210Y-60925200D02*
X122386591Y-60972819D01*
X122386591Y-60972819D02*
X122338972Y-61068057D01*
X122338972Y-61068057D02*
X122338972Y-61163295D01*
X122338972Y-61163295D02*
X122386591Y-61258533D01*
X122386591Y-61258533D02*
X122434210Y-61306152D01*
X122434210Y-61306152D02*
X122529448Y-61353771D01*
X122529448Y-61353771D02*
X122719924Y-61401390D01*
X122719924Y-61401390D02*
X122815162Y-61449009D01*
X122815162Y-61449009D02*
X122862781Y-61496628D01*
X122862781Y-61496628D02*
X122910400Y-61591866D01*
X122910400Y-61591866D02*
X122910400Y-61687104D01*
X122910400Y-61687104D02*
X122862781Y-61782342D01*
X122862781Y-61782342D02*
X122815162Y-61829961D01*
X122815162Y-61829961D02*
X122719924Y-61877580D01*
X122719924Y-61877580D02*
X122481829Y-61877580D01*
X122481829Y-61877580D02*
X122338972Y-61829961D01*
X121767543Y-60877580D02*
X121862781Y-60925200D01*
X121862781Y-60925200D02*
X121910400Y-60972819D01*
X121910400Y-60972819D02*
X121958019Y-61068057D01*
X121958019Y-61068057D02*
X121958019Y-61353771D01*
X121958019Y-61353771D02*
X121910400Y-61449009D01*
X121910400Y-61449009D02*
X121862781Y-61496628D01*
X121862781Y-61496628D02*
X121767543Y-61544247D01*
X121767543Y-61544247D02*
X121624686Y-61544247D01*
X121624686Y-61544247D02*
X121529448Y-61496628D01*
X121529448Y-61496628D02*
X121481829Y-61449009D01*
X121481829Y-61449009D02*
X121434210Y-61353771D01*
X121434210Y-61353771D02*
X121434210Y-61068057D01*
X121434210Y-61068057D02*
X121481829Y-60972819D01*
X121481829Y-60972819D02*
X121529448Y-60925200D01*
X121529448Y-60925200D02*
X121624686Y-60877580D01*
X121624686Y-60877580D02*
X121767543Y-60877580D01*
X121005638Y-61544247D02*
X121005638Y-60877580D01*
X121005638Y-61449009D02*
X120958019Y-61496628D01*
X120958019Y-61496628D02*
X120862781Y-61544247D01*
X120862781Y-61544247D02*
X120719924Y-61544247D01*
X120719924Y-61544247D02*
X120624686Y-61496628D01*
X120624686Y-61496628D02*
X120577067Y-61401390D01*
X120577067Y-61401390D02*
X120577067Y-60877580D01*
X119672305Y-60877580D02*
X119672305Y-61877580D01*
X119672305Y-60925200D02*
X119767543Y-60877580D01*
X119767543Y-60877580D02*
X119958019Y-60877580D01*
X119958019Y-60877580D02*
X120053257Y-60925200D01*
X120053257Y-60925200D02*
X120100876Y-60972819D01*
X120100876Y-60972819D02*
X120148495Y-61068057D01*
X120148495Y-61068057D02*
X120148495Y-61353771D01*
X120148495Y-61353771D02*
X120100876Y-61449009D01*
X120100876Y-61449009D02*
X120053257Y-61496628D01*
X120053257Y-61496628D02*
X119958019Y-61544247D01*
X119958019Y-61544247D02*
X119767543Y-61544247D01*
X119767543Y-61544247D02*
X119672305Y-61496628D01*
X118767543Y-61544247D02*
X118767543Y-60734723D01*
X118767543Y-60734723D02*
X118815162Y-60639485D01*
X118815162Y-60639485D02*
X118862781Y-60591866D01*
X118862781Y-60591866D02*
X118958019Y-60544247D01*
X118958019Y-60544247D02*
X119100876Y-60544247D01*
X119100876Y-60544247D02*
X119196114Y-60591866D01*
X118767543Y-60925200D02*
X118862781Y-60877580D01*
X118862781Y-60877580D02*
X119053257Y-60877580D01*
X119053257Y-60877580D02*
X119148495Y-60925200D01*
X119148495Y-60925200D02*
X119196114Y-60972819D01*
X119196114Y-60972819D02*
X119243733Y-61068057D01*
X119243733Y-61068057D02*
X119243733Y-61353771D01*
X119243733Y-61353771D02*
X119196114Y-61449009D01*
X119196114Y-61449009D02*
X119148495Y-61496628D01*
X119148495Y-61496628D02*
X119053257Y-61544247D01*
X119053257Y-61544247D02*
X118862781Y-61544247D01*
X118862781Y-61544247D02*
X118767543Y-61496628D01*
X117910400Y-60925200D02*
X118005638Y-60877580D01*
X118005638Y-60877580D02*
X118196114Y-60877580D01*
X118196114Y-60877580D02*
X118291352Y-60925200D01*
X118291352Y-60925200D02*
X118338971Y-61020438D01*
X118338971Y-61020438D02*
X118338971Y-61401390D01*
X118338971Y-61401390D02*
X118291352Y-61496628D01*
X118291352Y-61496628D02*
X118196114Y-61544247D01*
X118196114Y-61544247D02*
X118005638Y-61544247D01*
X118005638Y-61544247D02*
X117910400Y-61496628D01*
X117910400Y-61496628D02*
X117862781Y-61401390D01*
X117862781Y-61401390D02*
X117862781Y-61306152D01*
X117862781Y-61306152D02*
X118338971Y-61210914D01*
X117434209Y-60877580D02*
X117434209Y-61544247D01*
X117434209Y-61353771D02*
X117386590Y-61449009D01*
X117386590Y-61449009D02*
X117338971Y-61496628D01*
X117338971Y-61496628D02*
X117243733Y-61544247D01*
X117243733Y-61544247D02*
X117148495Y-61544247D01*
X116672304Y-60877580D02*
X116767542Y-60925200D01*
X116767542Y-60925200D02*
X116815161Y-60972819D01*
X116815161Y-60972819D02*
X116862780Y-61068057D01*
X116862780Y-61068057D02*
X116862780Y-61353771D01*
X116862780Y-61353771D02*
X116815161Y-61449009D01*
X116815161Y-61449009D02*
X116767542Y-61496628D01*
X116767542Y-61496628D02*
X116672304Y-61544247D01*
X116672304Y-61544247D02*
X116529447Y-61544247D01*
X116529447Y-61544247D02*
X116434209Y-61496628D01*
X116434209Y-61496628D02*
X116386590Y-61449009D01*
X116386590Y-61449009D02*
X116338971Y-61353771D01*
X116338971Y-61353771D02*
X116338971Y-61068057D01*
X116338971Y-61068057D02*
X116386590Y-60972819D01*
X116386590Y-60972819D02*
X116434209Y-60925200D01*
X116434209Y-60925200D02*
X116529447Y-60877580D01*
X116529447Y-60877580D02*
X116672304Y-60877580D01*
X116053256Y-61544247D02*
X115672304Y-61544247D01*
X115910399Y-61877580D02*
X115910399Y-61020438D01*
X115910399Y-61020438D02*
X115862780Y-60925200D01*
X115862780Y-60925200D02*
X115767542Y-60877580D01*
X115767542Y-60877580D02*
X115672304Y-60877580D01*
X115338970Y-60877580D02*
X115338970Y-61877580D01*
X114910399Y-60877580D02*
X114910399Y-61401390D01*
X114910399Y-61401390D02*
X114958018Y-61496628D01*
X114958018Y-61496628D02*
X115053256Y-61544247D01*
X115053256Y-61544247D02*
X115196113Y-61544247D01*
X115196113Y-61544247D02*
X115291351Y-61496628D01*
X115291351Y-61496628D02*
X115338970Y-61449009D01*
X113434208Y-60544247D02*
X113434208Y-61972819D01*
X111624684Y-61401390D02*
X111958017Y-61401390D01*
X111958017Y-60877580D02*
X111958017Y-61877580D01*
X111958017Y-61877580D02*
X111481827Y-61877580D01*
X110958017Y-60877580D02*
X111053255Y-60925200D01*
X111053255Y-60925200D02*
X111100874Y-61020438D01*
X111100874Y-61020438D02*
X111100874Y-61877580D01*
X110719921Y-61544247D02*
X110338969Y-61544247D01*
X110577064Y-61877580D02*
X110577064Y-61020438D01*
X110577064Y-61020438D02*
X110529445Y-60925200D01*
X110529445Y-60925200D02*
X110434207Y-60877580D01*
X110434207Y-60877580D02*
X110338969Y-60877580D01*
X110005635Y-60877580D02*
X110005635Y-61877580D01*
X109577064Y-60877580D02*
X109577064Y-61401390D01*
X109577064Y-61401390D02*
X109624683Y-61496628D01*
X109624683Y-61496628D02*
X109719921Y-61544247D01*
X109719921Y-61544247D02*
X109862778Y-61544247D01*
X109862778Y-61544247D02*
X109958016Y-61496628D01*
X109958016Y-61496628D02*
X110005635Y-61449009D01*
X109196111Y-61544247D02*
X108958016Y-60877580D01*
X108719921Y-61544247D02*
X108958016Y-60877580D01*
X108958016Y-60877580D02*
X109053254Y-60639485D01*
X109053254Y-60639485D02*
X109100873Y-60591866D01*
X109100873Y-60591866D02*
X109196111Y-60544247D01*
X108338968Y-60877580D02*
X108338968Y-61877580D01*
X108338968Y-61877580D02*
X108005635Y-61163295D01*
X108005635Y-61163295D02*
X107672302Y-61877580D01*
X107672302Y-61877580D02*
X107672302Y-60877580D01*
X106767540Y-60925200D02*
X106862778Y-60877580D01*
X106862778Y-60877580D02*
X107053254Y-60877580D01*
X107053254Y-60877580D02*
X107148492Y-60925200D01*
X107148492Y-60925200D02*
X107196111Y-60972819D01*
X107196111Y-60972819D02*
X107243730Y-61068057D01*
X107243730Y-61068057D02*
X107243730Y-61353771D01*
X107243730Y-61353771D02*
X107196111Y-61449009D01*
X107196111Y-61449009D02*
X107148492Y-61496628D01*
X107148492Y-61496628D02*
X107053254Y-61544247D01*
X107053254Y-61544247D02*
X106862778Y-61544247D01*
X106862778Y-61544247D02*
X106767540Y-61496628D01*
X106338968Y-60877580D02*
X106338968Y-61877580D01*
X106338968Y-61877580D02*
X105767540Y-60877580D01*
X105767540Y-60877580D02*
X105767540Y-61877580D01*
X105338968Y-60925200D02*
X105243730Y-60877580D01*
X105243730Y-60877580D02*
X105053254Y-60877580D01*
X105053254Y-60877580D02*
X104958016Y-60925200D01*
X104958016Y-60925200D02*
X104910397Y-61020438D01*
X104910397Y-61020438D02*
X104910397Y-61068057D01*
X104910397Y-61068057D02*
X104958016Y-61163295D01*
X104958016Y-61163295D02*
X105053254Y-61210914D01*
X105053254Y-61210914D02*
X105196111Y-61210914D01*
X105196111Y-61210914D02*
X105291349Y-61258533D01*
X105291349Y-61258533D02*
X105338968Y-61353771D01*
X105338968Y-61353771D02*
X105338968Y-61401390D01*
X105338968Y-61401390D02*
X105291349Y-61496628D01*
X105291349Y-61496628D02*
X105196111Y-61544247D01*
X105196111Y-61544247D02*
X105053254Y-61544247D01*
X105053254Y-61544247D02*
X104958016Y-61496628D01*
X104624682Y-61544247D02*
X104243730Y-61544247D01*
X104481825Y-61877580D02*
X104481825Y-61020438D01*
X104481825Y-61020438D02*
X104434206Y-60925200D01*
X104434206Y-60925200D02*
X104338968Y-60877580D01*
X104338968Y-60877580D02*
X104243730Y-60877580D01*
X104005634Y-61544247D02*
X103767539Y-60877580D01*
X103529444Y-61544247D02*
X103767539Y-60877580D01*
X103767539Y-60877580D02*
X103862777Y-60639485D01*
X103862777Y-60639485D02*
X103910396Y-60591866D01*
X103910396Y-60591866D02*
X104005634Y-60544247D01*
D11*
X136548095Y-118326119D02*
X136548095Y-117326119D01*
X136548095Y-117326119D02*
X136786190Y-117326119D01*
X136786190Y-117326119D02*
X136929047Y-117373738D01*
X136929047Y-117373738D02*
X137024285Y-117468976D01*
X137024285Y-117468976D02*
X137071904Y-117564214D01*
X137071904Y-117564214D02*
X137119523Y-117754690D01*
X137119523Y-117754690D02*
X137119523Y-117897547D01*
X137119523Y-117897547D02*
X137071904Y-118088023D01*
X137071904Y-118088023D02*
X137024285Y-118183261D01*
X137024285Y-118183261D02*
X136929047Y-118278500D01*
X136929047Y-118278500D02*
X136786190Y-118326119D01*
X136786190Y-118326119D02*
X136548095Y-118326119D01*
X130865713Y-67901500D02*
X130722856Y-67853880D01*
X130722856Y-67853880D02*
X130484761Y-67853880D01*
X130484761Y-67853880D02*
X130389523Y-67901500D01*
X130389523Y-67901500D02*
X130341904Y-67949119D01*
X130341904Y-67949119D02*
X130294285Y-68044357D01*
X130294285Y-68044357D02*
X130294285Y-68139595D01*
X130294285Y-68139595D02*
X130341904Y-68234833D01*
X130341904Y-68234833D02*
X130389523Y-68282452D01*
X130389523Y-68282452D02*
X130484761Y-68330071D01*
X130484761Y-68330071D02*
X130675237Y-68377690D01*
X130675237Y-68377690D02*
X130770475Y-68425309D01*
X130770475Y-68425309D02*
X130818094Y-68472928D01*
X130818094Y-68472928D02*
X130865713Y-68568166D01*
X130865713Y-68568166D02*
X130865713Y-68663404D01*
X130865713Y-68663404D02*
X130818094Y-68758642D01*
X130818094Y-68758642D02*
X130770475Y-68806261D01*
X130770475Y-68806261D02*
X130675237Y-68853880D01*
X130675237Y-68853880D02*
X130437142Y-68853880D01*
X130437142Y-68853880D02*
X130294285Y-68806261D01*
X159810404Y-94504285D02*
X159810404Y-94028095D01*
X160096119Y-94599523D02*
X159096119Y-94266190D01*
X159096119Y-94266190D02*
X160096119Y-93932857D01*
X159096119Y-93409047D02*
X159096119Y-93313809D01*
X159096119Y-93313809D02*
X159143738Y-93218571D01*
X159143738Y-93218571D02*
X159191357Y-93170952D01*
X159191357Y-93170952D02*
X159286595Y-93123333D01*
X159286595Y-93123333D02*
X159477071Y-93075714D01*
X159477071Y-93075714D02*
X159715166Y-93075714D01*
X159715166Y-93075714D02*
X159905642Y-93123333D01*
X159905642Y-93123333D02*
X160000880Y-93170952D01*
X160000880Y-93170952D02*
X160048500Y-93218571D01*
X160048500Y-93218571D02*
X160096119Y-93313809D01*
X160096119Y-93313809D02*
X160096119Y-93409047D01*
X160096119Y-93409047D02*
X160048500Y-93504285D01*
X160048500Y-93504285D02*
X160000880Y-93551904D01*
X160000880Y-93551904D02*
X159905642Y-93599523D01*
X159905642Y-93599523D02*
X159715166Y-93647142D01*
X159715166Y-93647142D02*
X159477071Y-93647142D01*
X159477071Y-93647142D02*
X159286595Y-93599523D01*
X159286595Y-93599523D02*
X159191357Y-93551904D01*
X159191357Y-93551904D02*
X159143738Y-93504285D01*
X159143738Y-93504285D02*
X159096119Y-93409047D01*
X96246261Y-105511904D02*
X96293880Y-105416666D01*
X96293880Y-105416666D02*
X96293880Y-105273809D01*
X96293880Y-105273809D02*
X96246261Y-105130952D01*
X96246261Y-105130952D02*
X96151023Y-105035714D01*
X96151023Y-105035714D02*
X96055785Y-104988095D01*
X96055785Y-104988095D02*
X95865309Y-104940476D01*
X95865309Y-104940476D02*
X95722452Y-104940476D01*
X95722452Y-104940476D02*
X95531976Y-104988095D01*
X95531976Y-104988095D02*
X95436738Y-105035714D01*
X95436738Y-105035714D02*
X95341500Y-105130952D01*
X95341500Y-105130952D02*
X95293880Y-105273809D01*
X95293880Y-105273809D02*
X95293880Y-105369047D01*
X95293880Y-105369047D02*
X95341500Y-105511904D01*
X95341500Y-105511904D02*
X95389119Y-105559523D01*
X95389119Y-105559523D02*
X95722452Y-105559523D01*
X95722452Y-105559523D02*
X95722452Y-105369047D01*
X140015713Y-67891500D02*
X139872856Y-67843880D01*
X139872856Y-67843880D02*
X139634761Y-67843880D01*
X139634761Y-67843880D02*
X139539523Y-67891500D01*
X139539523Y-67891500D02*
X139491904Y-67939119D01*
X139491904Y-67939119D02*
X139444285Y-68034357D01*
X139444285Y-68034357D02*
X139444285Y-68129595D01*
X139444285Y-68129595D02*
X139491904Y-68224833D01*
X139491904Y-68224833D02*
X139539523Y-68272452D01*
X139539523Y-68272452D02*
X139634761Y-68320071D01*
X139634761Y-68320071D02*
X139825237Y-68367690D01*
X139825237Y-68367690D02*
X139920475Y-68415309D01*
X139920475Y-68415309D02*
X139968094Y-68462928D01*
X139968094Y-68462928D02*
X140015713Y-68558166D01*
X140015713Y-68558166D02*
X140015713Y-68653404D01*
X140015713Y-68653404D02*
X139968094Y-68748642D01*
X139968094Y-68748642D02*
X139920475Y-68796261D01*
X139920475Y-68796261D02*
X139825237Y-68843880D01*
X139825237Y-68843880D02*
X139587142Y-68843880D01*
X139587142Y-68843880D02*
X139444285Y-68796261D01*
X145636666Y-65263880D02*
X145969999Y-65740071D01*
X146208094Y-65263880D02*
X146208094Y-66263880D01*
X146208094Y-66263880D02*
X145827142Y-66263880D01*
X145827142Y-66263880D02*
X145731904Y-66216261D01*
X145731904Y-66216261D02*
X145684285Y-66168642D01*
X145684285Y-66168642D02*
X145636666Y-66073404D01*
X145636666Y-66073404D02*
X145636666Y-65930547D01*
X145636666Y-65930547D02*
X145684285Y-65835309D01*
X145684285Y-65835309D02*
X145731904Y-65787690D01*
X145731904Y-65787690D02*
X145827142Y-65740071D01*
X145827142Y-65740071D02*
X146208094Y-65740071D01*
X145303332Y-66263880D02*
X144636666Y-65263880D01*
X144636666Y-66263880D02*
X145303332Y-65263880D01*
X114831904Y-117323738D02*
X114736666Y-117276119D01*
X114736666Y-117276119D02*
X114593809Y-117276119D01*
X114593809Y-117276119D02*
X114450952Y-117323738D01*
X114450952Y-117323738D02*
X114355714Y-117418976D01*
X114355714Y-117418976D02*
X114308095Y-117514214D01*
X114308095Y-117514214D02*
X114260476Y-117704690D01*
X114260476Y-117704690D02*
X114260476Y-117847547D01*
X114260476Y-117847547D02*
X114308095Y-118038023D01*
X114308095Y-118038023D02*
X114355714Y-118133261D01*
X114355714Y-118133261D02*
X114450952Y-118228500D01*
X114450952Y-118228500D02*
X114593809Y-118276119D01*
X114593809Y-118276119D02*
X114689047Y-118276119D01*
X114689047Y-118276119D02*
X114831904Y-118228500D01*
X114831904Y-118228500D02*
X114879523Y-118180880D01*
X114879523Y-118180880D02*
X114879523Y-117847547D01*
X114879523Y-117847547D02*
X114689047Y-117847547D01*
D13*
X153667718Y-81906189D02*
X153072480Y-82322855D01*
X153667718Y-82620474D02*
X152417718Y-82620474D01*
X152417718Y-82620474D02*
X152417718Y-82144284D01*
X152417718Y-82144284D02*
X152477242Y-82025236D01*
X152477242Y-82025236D02*
X152536766Y-81965713D01*
X152536766Y-81965713D02*
X152655814Y-81906189D01*
X152655814Y-81906189D02*
X152834385Y-81906189D01*
X152834385Y-81906189D02*
X152953433Y-81965713D01*
X152953433Y-81965713D02*
X153012956Y-82025236D01*
X153012956Y-82025236D02*
X153072480Y-82144284D01*
X153072480Y-82144284D02*
X153072480Y-82620474D01*
X153667718Y-81370474D02*
X152417718Y-81370474D01*
X153667718Y-80834760D02*
X153012956Y-80834760D01*
X153012956Y-80834760D02*
X152893909Y-80894284D01*
X152893909Y-80894284D02*
X152834385Y-81013332D01*
X152834385Y-81013332D02*
X152834385Y-81191903D01*
X152834385Y-81191903D02*
X152893909Y-81310951D01*
X152893909Y-81310951D02*
X152953433Y-81370474D01*
X152834385Y-80358570D02*
X153667718Y-80060951D01*
X152834385Y-79763332D02*
X153667718Y-80060951D01*
X153667718Y-80060951D02*
X153965337Y-80179999D01*
X153965337Y-80179999D02*
X154024861Y-80239522D01*
X154024861Y-80239522D02*
X154084385Y-80358570D01*
X152834385Y-79287141D02*
X153667718Y-79287141D01*
X152953433Y-79287141D02*
X152893909Y-79227618D01*
X152893909Y-79227618D02*
X152834385Y-79108570D01*
X152834385Y-79108570D02*
X152834385Y-78929999D01*
X152834385Y-78929999D02*
X152893909Y-78810951D01*
X152893909Y-78810951D02*
X153012956Y-78751427D01*
X153012956Y-78751427D02*
X153667718Y-78751427D01*
X153667718Y-77977618D02*
X153608195Y-78096666D01*
X153608195Y-78096666D02*
X153548671Y-78156189D01*
X153548671Y-78156189D02*
X153429623Y-78215713D01*
X153429623Y-78215713D02*
X153072480Y-78215713D01*
X153072480Y-78215713D02*
X152953433Y-78156189D01*
X152953433Y-78156189D02*
X152893909Y-78096666D01*
X152893909Y-78096666D02*
X152834385Y-77977618D01*
X152834385Y-77977618D02*
X152834385Y-77799047D01*
X152834385Y-77799047D02*
X152893909Y-77679999D01*
X152893909Y-77679999D02*
X152953433Y-77620475D01*
X152953433Y-77620475D02*
X153072480Y-77560951D01*
X153072480Y-77560951D02*
X153429623Y-77560951D01*
X153429623Y-77560951D02*
X153548671Y-77620475D01*
X153548671Y-77620475D02*
X153608195Y-77679999D01*
X153608195Y-77679999D02*
X153667718Y-77799047D01*
X153667718Y-77799047D02*
X153667718Y-77977618D01*
X152834385Y-76489523D02*
X153667718Y-76489523D01*
X152358195Y-76787142D02*
X153251052Y-77084761D01*
X153251052Y-77084761D02*
X153251052Y-76310952D01*
X152417718Y-75239523D02*
X152417718Y-75834761D01*
X152417718Y-75834761D02*
X153012956Y-75894285D01*
X153012956Y-75894285D02*
X152953433Y-75834761D01*
X152953433Y-75834761D02*
X152893909Y-75715714D01*
X152893909Y-75715714D02*
X152893909Y-75418095D01*
X152893909Y-75418095D02*
X152953433Y-75299047D01*
X152953433Y-75299047D02*
X153012956Y-75239523D01*
X153012956Y-75239523D02*
X153132004Y-75180000D01*
X153132004Y-75180000D02*
X153429623Y-75180000D01*
X153429623Y-75180000D02*
X153548671Y-75239523D01*
X153548671Y-75239523D02*
X153608195Y-75299047D01*
X153608195Y-75299047D02*
X153667718Y-75418095D01*
X153667718Y-75418095D02*
X153667718Y-75715714D01*
X153667718Y-75715714D02*
X153608195Y-75834761D01*
X153608195Y-75834761D02*
X153548671Y-75894285D01*
X155680148Y-80477618D02*
X154846815Y-80477618D01*
X154430148Y-80477618D02*
X154489672Y-80537142D01*
X154489672Y-80537142D02*
X154549196Y-80477618D01*
X154549196Y-80477618D02*
X154489672Y-80418095D01*
X154489672Y-80418095D02*
X154430148Y-80477618D01*
X154430148Y-80477618D02*
X154549196Y-80477618D01*
X155620625Y-79941904D02*
X155680148Y-79822857D01*
X155680148Y-79822857D02*
X155680148Y-79584761D01*
X155680148Y-79584761D02*
X155620625Y-79465714D01*
X155620625Y-79465714D02*
X155501577Y-79406190D01*
X155501577Y-79406190D02*
X155442053Y-79406190D01*
X155442053Y-79406190D02*
X155323005Y-79465714D01*
X155323005Y-79465714D02*
X155263482Y-79584761D01*
X155263482Y-79584761D02*
X155263482Y-79763333D01*
X155263482Y-79763333D02*
X155203958Y-79882380D01*
X155203958Y-79882380D02*
X155084910Y-79941904D01*
X155084910Y-79941904D02*
X155025386Y-79941904D01*
X155025386Y-79941904D02*
X154906339Y-79882380D01*
X154906339Y-79882380D02*
X154846815Y-79763333D01*
X154846815Y-79763333D02*
X154846815Y-79584761D01*
X154846815Y-79584761D02*
X154906339Y-79465714D01*
X155680148Y-77382380D02*
X155025386Y-77382380D01*
X155025386Y-77382380D02*
X154906339Y-77441904D01*
X154906339Y-77441904D02*
X154846815Y-77560952D01*
X154846815Y-77560952D02*
X154846815Y-77799047D01*
X154846815Y-77799047D02*
X154906339Y-77918094D01*
X155620625Y-77382380D02*
X155680148Y-77501428D01*
X155680148Y-77501428D02*
X155680148Y-77799047D01*
X155680148Y-77799047D02*
X155620625Y-77918094D01*
X155620625Y-77918094D02*
X155501577Y-77977618D01*
X155501577Y-77977618D02*
X155382529Y-77977618D01*
X155382529Y-77977618D02*
X155263482Y-77918094D01*
X155263482Y-77918094D02*
X155203958Y-77799047D01*
X155203958Y-77799047D02*
X155203958Y-77501428D01*
X155203958Y-77501428D02*
X155144434Y-77382380D01*
X156859245Y-82263333D02*
X157692578Y-82025238D01*
X157692578Y-82025238D02*
X157097340Y-81787143D01*
X157097340Y-81787143D02*
X157692578Y-81549047D01*
X157692578Y-81549047D02*
X156859245Y-81310952D01*
X157692578Y-80299047D02*
X157037816Y-80299047D01*
X157037816Y-80299047D02*
X156918769Y-80358571D01*
X156918769Y-80358571D02*
X156859245Y-80477619D01*
X156859245Y-80477619D02*
X156859245Y-80715714D01*
X156859245Y-80715714D02*
X156918769Y-80834761D01*
X157633055Y-80299047D02*
X157692578Y-80418095D01*
X157692578Y-80418095D02*
X157692578Y-80715714D01*
X157692578Y-80715714D02*
X157633055Y-80834761D01*
X157633055Y-80834761D02*
X157514007Y-80894285D01*
X157514007Y-80894285D02*
X157394959Y-80894285D01*
X157394959Y-80894285D02*
X157275912Y-80834761D01*
X157275912Y-80834761D02*
X157216388Y-80715714D01*
X157216388Y-80715714D02*
X157216388Y-80418095D01*
X157216388Y-80418095D02*
X157156864Y-80299047D01*
X156859245Y-79703809D02*
X157692578Y-79703809D01*
X156978293Y-79703809D02*
X156918769Y-79644286D01*
X156918769Y-79644286D02*
X156859245Y-79525238D01*
X156859245Y-79525238D02*
X156859245Y-79346667D01*
X156859245Y-79346667D02*
X156918769Y-79227619D01*
X156918769Y-79227619D02*
X157037816Y-79168095D01*
X157037816Y-79168095D02*
X157692578Y-79168095D01*
X157692578Y-78572857D02*
X156442578Y-78572857D01*
X157216388Y-78453810D02*
X157692578Y-78096667D01*
X156859245Y-78096667D02*
X157335435Y-78572857D01*
X157633055Y-77084762D02*
X157692578Y-77203810D01*
X157692578Y-77203810D02*
X157692578Y-77441905D01*
X157692578Y-77441905D02*
X157633055Y-77560952D01*
X157633055Y-77560952D02*
X157514007Y-77620476D01*
X157514007Y-77620476D02*
X157037816Y-77620476D01*
X157037816Y-77620476D02*
X156918769Y-77560952D01*
X156918769Y-77560952D02*
X156859245Y-77441905D01*
X156859245Y-77441905D02*
X156859245Y-77203810D01*
X156859245Y-77203810D02*
X156918769Y-77084762D01*
X156918769Y-77084762D02*
X157037816Y-77025238D01*
X157037816Y-77025238D02*
X157156864Y-77025238D01*
X157156864Y-77025238D02*
X157275912Y-77620476D01*
X157692578Y-76489523D02*
X156859245Y-76489523D01*
X157097340Y-76489523D02*
X156978293Y-76430000D01*
X156978293Y-76430000D02*
X156918769Y-76370476D01*
X156918769Y-76370476D02*
X156859245Y-76251428D01*
X156859245Y-76251428D02*
X156859245Y-76132381D01*
X157573531Y-75715713D02*
X157633055Y-75656190D01*
X157633055Y-75656190D02*
X157692578Y-75715713D01*
X157692578Y-75715713D02*
X157633055Y-75775237D01*
X157633055Y-75775237D02*
X157573531Y-75715713D01*
X157573531Y-75715713D02*
X157692578Y-75715713D01*
X157216388Y-75715713D02*
X156502102Y-75775237D01*
X156502102Y-75775237D02*
X156442578Y-75715713D01*
X156442578Y-75715713D02*
X156502102Y-75656190D01*
X156502102Y-75656190D02*
X157216388Y-75715713D01*
X157216388Y-75715713D02*
X156442578Y-75715713D01*
D11*
X160056119Y-103240476D02*
X160056119Y-103811904D01*
X160056119Y-103526190D02*
X159056119Y-103526190D01*
X159056119Y-103526190D02*
X159198976Y-103621428D01*
X159198976Y-103621428D02*
X159294214Y-103716666D01*
X159294214Y-103716666D02*
X159341833Y-103811904D01*
X160056119Y-102288095D02*
X160056119Y-102859523D01*
X160056119Y-102573809D02*
X159056119Y-102573809D01*
X159056119Y-102573809D02*
X159198976Y-102669047D01*
X159198976Y-102669047D02*
X159294214Y-102764285D01*
X159294214Y-102764285D02*
X159341833Y-102859523D01*
X139568095Y-63776261D02*
X139663333Y-63823880D01*
X139663333Y-63823880D02*
X139806190Y-63823880D01*
X139806190Y-63823880D02*
X139949047Y-63776261D01*
X139949047Y-63776261D02*
X140044285Y-63681023D01*
X140044285Y-63681023D02*
X140091904Y-63585785D01*
X140091904Y-63585785D02*
X140139523Y-63395309D01*
X140139523Y-63395309D02*
X140139523Y-63252452D01*
X140139523Y-63252452D02*
X140091904Y-63061976D01*
X140091904Y-63061976D02*
X140044285Y-62966738D01*
X140044285Y-62966738D02*
X139949047Y-62871500D01*
X139949047Y-62871500D02*
X139806190Y-62823880D01*
X139806190Y-62823880D02*
X139710952Y-62823880D01*
X139710952Y-62823880D02*
X139568095Y-62871500D01*
X139568095Y-62871500D02*
X139520476Y-62919119D01*
X139520476Y-62919119D02*
X139520476Y-63252452D01*
X139520476Y-63252452D02*
X139710952Y-63252452D01*
X107196667Y-117336119D02*
X107863333Y-117336119D01*
X107863333Y-117336119D02*
X107434762Y-118336119D01*
X108244286Y-117955166D02*
X109006191Y-117955166D01*
X109387143Y-117336119D02*
X110006190Y-117336119D01*
X110006190Y-117336119D02*
X109672857Y-117717071D01*
X109672857Y-117717071D02*
X109815714Y-117717071D01*
X109815714Y-117717071D02*
X109910952Y-117764690D01*
X109910952Y-117764690D02*
X109958571Y-117812309D01*
X109958571Y-117812309D02*
X110006190Y-117907547D01*
X110006190Y-117907547D02*
X110006190Y-118145642D01*
X110006190Y-118145642D02*
X109958571Y-118240880D01*
X109958571Y-118240880D02*
X109910952Y-118288500D01*
X109910952Y-118288500D02*
X109815714Y-118336119D01*
X109815714Y-118336119D02*
X109530000Y-118336119D01*
X109530000Y-118336119D02*
X109434762Y-118288500D01*
X109434762Y-118288500D02*
X109387143Y-118240880D01*
X110863333Y-117336119D02*
X110672857Y-117336119D01*
X110672857Y-117336119D02*
X110577619Y-117383738D01*
X110577619Y-117383738D02*
X110530000Y-117431357D01*
X110530000Y-117431357D02*
X110434762Y-117574214D01*
X110434762Y-117574214D02*
X110387143Y-117764690D01*
X110387143Y-117764690D02*
X110387143Y-118145642D01*
X110387143Y-118145642D02*
X110434762Y-118240880D01*
X110434762Y-118240880D02*
X110482381Y-118288500D01*
X110482381Y-118288500D02*
X110577619Y-118336119D01*
X110577619Y-118336119D02*
X110768095Y-118336119D01*
X110768095Y-118336119D02*
X110863333Y-118288500D01*
X110863333Y-118288500D02*
X110910952Y-118240880D01*
X110910952Y-118240880D02*
X110958571Y-118145642D01*
X110958571Y-118145642D02*
X110958571Y-117907547D01*
X110958571Y-117907547D02*
X110910952Y-117812309D01*
X110910952Y-117812309D02*
X110863333Y-117764690D01*
X110863333Y-117764690D02*
X110768095Y-117717071D01*
X110768095Y-117717071D02*
X110577619Y-117717071D01*
X110577619Y-117717071D02*
X110482381Y-117764690D01*
X110482381Y-117764690D02*
X110434762Y-117812309D01*
X110434762Y-117812309D02*
X110387143Y-117907547D01*
X111244286Y-117336119D02*
X111577619Y-118336119D01*
X111577619Y-118336119D02*
X111910952Y-117336119D01*
D10*
X104363152Y-109873220D02*
X104648866Y-109111316D01*
X104648866Y-109111316D02*
X104934580Y-109873220D01*
D11*
X159820404Y-86774285D02*
X159820404Y-86298095D01*
X160106119Y-86869523D02*
X159106119Y-86536190D01*
X159106119Y-86536190D02*
X160106119Y-86202857D01*
X159106119Y-85964761D02*
X159106119Y-85345714D01*
X159106119Y-85345714D02*
X159487071Y-85679047D01*
X159487071Y-85679047D02*
X159487071Y-85536190D01*
X159487071Y-85536190D02*
X159534690Y-85440952D01*
X159534690Y-85440952D02*
X159582309Y-85393333D01*
X159582309Y-85393333D02*
X159677547Y-85345714D01*
X159677547Y-85345714D02*
X159915642Y-85345714D01*
X159915642Y-85345714D02*
X160010880Y-85393333D01*
X160010880Y-85393333D02*
X160058500Y-85440952D01*
X160058500Y-85440952D02*
X160106119Y-85536190D01*
X160106119Y-85536190D02*
X160106119Y-85821904D01*
X160106119Y-85821904D02*
X160058500Y-85917142D01*
X160058500Y-85917142D02*
X160010880Y-85964761D01*
X138015713Y-61263880D02*
X137444285Y-61263880D01*
X137729999Y-60263880D02*
X137729999Y-61263880D01*
X159840404Y-91904285D02*
X159840404Y-91428095D01*
X160126119Y-91999523D02*
X159126119Y-91666190D01*
X159126119Y-91666190D02*
X160126119Y-91332857D01*
X160126119Y-90475714D02*
X160126119Y-91047142D01*
X160126119Y-90761428D02*
X159126119Y-90761428D01*
X159126119Y-90761428D02*
X159268976Y-90856666D01*
X159268976Y-90856666D02*
X159364214Y-90951904D01*
X159364214Y-90951904D02*
X159411833Y-91047142D01*
X146301904Y-68803880D02*
X145730476Y-68803880D01*
X146016190Y-67803880D02*
X146016190Y-68803880D01*
X145492380Y-68803880D02*
X144825714Y-67803880D01*
X144825714Y-68803880D02*
X145492380Y-67803880D01*
X132587142Y-60787690D02*
X132920475Y-60787690D01*
X132920475Y-60263880D02*
X132920475Y-61263880D01*
X132920475Y-61263880D02*
X132444285Y-61263880D01*
X96293880Y-100059523D02*
X96293880Y-99583333D01*
X96293880Y-99583333D02*
X95817690Y-99535714D01*
X95817690Y-99535714D02*
X95865309Y-99583333D01*
X95865309Y-99583333D02*
X95912928Y-99678571D01*
X95912928Y-99678571D02*
X95912928Y-99916666D01*
X95912928Y-99916666D02*
X95865309Y-100011904D01*
X95865309Y-100011904D02*
X95817690Y-100059523D01*
X95817690Y-100059523D02*
X95722452Y-100107142D01*
X95722452Y-100107142D02*
X95484357Y-100107142D01*
X95484357Y-100107142D02*
X95389119Y-100059523D01*
X95389119Y-100059523D02*
X95341500Y-100011904D01*
X95341500Y-100011904D02*
X95293880Y-99916666D01*
X95293880Y-99916666D02*
X95293880Y-99678571D01*
X95293880Y-99678571D02*
X95341500Y-99583333D01*
X95341500Y-99583333D02*
X95389119Y-99535714D01*
X96293880Y-100392857D02*
X95293880Y-100726190D01*
X95293880Y-100726190D02*
X96293880Y-101059523D01*
D10*
X98048207Y-111999819D02*
X97714874Y-111523628D01*
X97476779Y-111999819D02*
X97476779Y-110999819D01*
X97476779Y-110999819D02*
X97857731Y-110999819D01*
X97857731Y-110999819D02*
X97952969Y-111047438D01*
X97952969Y-111047438D02*
X98000588Y-111095057D01*
X98000588Y-111095057D02*
X98048207Y-111190295D01*
X98048207Y-111190295D02*
X98048207Y-111333152D01*
X98048207Y-111333152D02*
X98000588Y-111428390D01*
X98000588Y-111428390D02*
X97952969Y-111476009D01*
X97952969Y-111476009D02*
X97857731Y-111523628D01*
X97857731Y-111523628D02*
X97476779Y-111523628D01*
X98857731Y-111952200D02*
X98762493Y-111999819D01*
X98762493Y-111999819D02*
X98572017Y-111999819D01*
X98572017Y-111999819D02*
X98476779Y-111952200D01*
X98476779Y-111952200D02*
X98429160Y-111856961D01*
X98429160Y-111856961D02*
X98429160Y-111476009D01*
X98429160Y-111476009D02*
X98476779Y-111380771D01*
X98476779Y-111380771D02*
X98572017Y-111333152D01*
X98572017Y-111333152D02*
X98762493Y-111333152D01*
X98762493Y-111333152D02*
X98857731Y-111380771D01*
X98857731Y-111380771D02*
X98905350Y-111476009D01*
X98905350Y-111476009D02*
X98905350Y-111571247D01*
X98905350Y-111571247D02*
X98429160Y-111666485D01*
X99762493Y-111333152D02*
X99762493Y-112142676D01*
X99762493Y-112142676D02*
X99714874Y-112237914D01*
X99714874Y-112237914D02*
X99667255Y-112285533D01*
X99667255Y-112285533D02*
X99572017Y-112333152D01*
X99572017Y-112333152D02*
X99429160Y-112333152D01*
X99429160Y-112333152D02*
X99333922Y-112285533D01*
X99762493Y-111952200D02*
X99667255Y-111999819D01*
X99667255Y-111999819D02*
X99476779Y-111999819D01*
X99476779Y-111999819D02*
X99381541Y-111952200D01*
X99381541Y-111952200D02*
X99333922Y-111904580D01*
X99333922Y-111904580D02*
X99286303Y-111809342D01*
X99286303Y-111809342D02*
X99286303Y-111523628D01*
X99286303Y-111523628D02*
X99333922Y-111428390D01*
X99333922Y-111428390D02*
X99381541Y-111380771D01*
X99381541Y-111380771D02*
X99476779Y-111333152D01*
X99476779Y-111333152D02*
X99667255Y-111333152D01*
X99667255Y-111333152D02*
X99762493Y-111380771D01*
X101000589Y-111999819D02*
X101000589Y-110999819D01*
X101000589Y-110999819D02*
X101381541Y-110999819D01*
X101381541Y-110999819D02*
X101476779Y-111047438D01*
X101476779Y-111047438D02*
X101524398Y-111095057D01*
X101524398Y-111095057D02*
X101572017Y-111190295D01*
X101572017Y-111190295D02*
X101572017Y-111333152D01*
X101572017Y-111333152D02*
X101524398Y-111428390D01*
X101524398Y-111428390D02*
X101476779Y-111476009D01*
X101476779Y-111476009D02*
X101381541Y-111523628D01*
X101381541Y-111523628D02*
X101000589Y-111523628D01*
X101905351Y-111333152D02*
X102095827Y-111999819D01*
X102095827Y-111999819D02*
X102286303Y-111523628D01*
X102286303Y-111523628D02*
X102476779Y-111999819D01*
X102476779Y-111999819D02*
X102667255Y-111333152D01*
X103048208Y-111999819D02*
X103048208Y-111333152D01*
X103048208Y-111523628D02*
X103095827Y-111428390D01*
X103095827Y-111428390D02*
X103143446Y-111380771D01*
X103143446Y-111380771D02*
X103238684Y-111333152D01*
X103238684Y-111333152D02*
X103333922Y-111333152D01*
X104429161Y-111333152D02*
X105191066Y-111618866D01*
X105191066Y-111618866D02*
X104429161Y-111904580D01*
D14*
X124593985Y-64063180D02*
X125260652Y-64063180D01*
X125260652Y-63015561D02*
X125260652Y-65015561D01*
X125260652Y-65015561D02*
X124308271Y-65015561D01*
X123260652Y-63015561D02*
X123451128Y-63110800D01*
X123451128Y-63110800D02*
X123546366Y-63301276D01*
X123546366Y-63301276D02*
X123546366Y-65015561D01*
X122784461Y-64348895D02*
X122022557Y-64348895D01*
X122498747Y-65015561D02*
X122498747Y-63301276D01*
X122498747Y-63301276D02*
X122403509Y-63110800D01*
X122403509Y-63110800D02*
X122213033Y-63015561D01*
X122213033Y-63015561D02*
X122022557Y-63015561D01*
X121355890Y-63015561D02*
X121355890Y-65015561D01*
X120498747Y-63015561D02*
X120498747Y-64063180D01*
X120498747Y-64063180D02*
X120593985Y-64253657D01*
X120593985Y-64253657D02*
X120784461Y-64348895D01*
X120784461Y-64348895D02*
X121070176Y-64348895D01*
X121070176Y-64348895D02*
X121260652Y-64253657D01*
X121260652Y-64253657D02*
X121355890Y-64158419D01*
X119736842Y-64348895D02*
X119260652Y-63015561D01*
X118784461Y-64348895D02*
X119260652Y-63015561D01*
X119260652Y-63015561D02*
X119451128Y-62539371D01*
X119451128Y-62539371D02*
X119546366Y-62444133D01*
X119546366Y-62444133D02*
X119736842Y-62348895D01*
X118022556Y-63015561D02*
X118022556Y-65015561D01*
X118022556Y-64063180D02*
X116879699Y-64063180D01*
X116879699Y-63015561D02*
X116879699Y-65015561D01*
X115927318Y-63015561D02*
X115927318Y-65015561D01*
X115927318Y-65015561D02*
X115165413Y-65015561D01*
X115165413Y-65015561D02*
X114974937Y-64920323D01*
X114974937Y-64920323D02*
X114879699Y-64825085D01*
X114879699Y-64825085D02*
X114784461Y-64634609D01*
X114784461Y-64634609D02*
X114784461Y-64348895D01*
X114784461Y-64348895D02*
X114879699Y-64158419D01*
X114879699Y-64158419D02*
X114974937Y-64063180D01*
X114974937Y-64063180D02*
X115165413Y-63967942D01*
X115165413Y-63967942D02*
X115927318Y-63967942D01*
X114022556Y-63110800D02*
X113832080Y-63015561D01*
X113832080Y-63015561D02*
X113451128Y-63015561D01*
X113451128Y-63015561D02*
X113260651Y-63110800D01*
X113260651Y-63110800D02*
X113165413Y-63301276D01*
X113165413Y-63301276D02*
X113165413Y-63396514D01*
X113165413Y-63396514D02*
X113260651Y-63586990D01*
X113260651Y-63586990D02*
X113451128Y-63682228D01*
X113451128Y-63682228D02*
X113736842Y-63682228D01*
X113736842Y-63682228D02*
X113927318Y-63777466D01*
X113927318Y-63777466D02*
X114022556Y-63967942D01*
X114022556Y-63967942D02*
X114022556Y-64063180D01*
X114022556Y-64063180D02*
X113927318Y-64253657D01*
X113927318Y-64253657D02*
X113736842Y-64348895D01*
X113736842Y-64348895D02*
X113451128Y-64348895D01*
X113451128Y-64348895D02*
X113260651Y-64253657D01*
X110974936Y-64348895D02*
X110498746Y-63015561D01*
X110498746Y-63015561D02*
X110022555Y-64348895D01*
X109451126Y-65015561D02*
X108213031Y-65015561D01*
X108213031Y-65015561D02*
X108879698Y-64253657D01*
X108879698Y-64253657D02*
X108593983Y-64253657D01*
X108593983Y-64253657D02*
X108403507Y-64158419D01*
X108403507Y-64158419D02*
X108308269Y-64063180D01*
X108308269Y-64063180D02*
X108213031Y-63872704D01*
X108213031Y-63872704D02*
X108213031Y-63396514D01*
X108213031Y-63396514D02*
X108308269Y-63206038D01*
X108308269Y-63206038D02*
X108403507Y-63110800D01*
X108403507Y-63110800D02*
X108593983Y-63015561D01*
X108593983Y-63015561D02*
X109165412Y-63015561D01*
X109165412Y-63015561D02*
X109355888Y-63110800D01*
X109355888Y-63110800D02*
X109451126Y-63206038D01*
D11*
X150039523Y-70881500D02*
X149896666Y-70833880D01*
X149896666Y-70833880D02*
X149658571Y-70833880D01*
X149658571Y-70833880D02*
X149563333Y-70881500D01*
X149563333Y-70881500D02*
X149515714Y-70929119D01*
X149515714Y-70929119D02*
X149468095Y-71024357D01*
X149468095Y-71024357D02*
X149468095Y-71119595D01*
X149468095Y-71119595D02*
X149515714Y-71214833D01*
X149515714Y-71214833D02*
X149563333Y-71262452D01*
X149563333Y-71262452D02*
X149658571Y-71310071D01*
X149658571Y-71310071D02*
X149849047Y-71357690D01*
X149849047Y-71357690D02*
X149944285Y-71405309D01*
X149944285Y-71405309D02*
X149991904Y-71452928D01*
X149991904Y-71452928D02*
X150039523Y-71548166D01*
X150039523Y-71548166D02*
X150039523Y-71643404D01*
X150039523Y-71643404D02*
X149991904Y-71738642D01*
X149991904Y-71738642D02*
X149944285Y-71786261D01*
X149944285Y-71786261D02*
X149849047Y-71833880D01*
X149849047Y-71833880D02*
X149610952Y-71833880D01*
X149610952Y-71833880D02*
X149468095Y-71786261D01*
X149039523Y-71357690D02*
X148706190Y-71357690D01*
X148563333Y-70833880D02*
X149039523Y-70833880D01*
X149039523Y-70833880D02*
X149039523Y-71833880D01*
X149039523Y-71833880D02*
X148563333Y-71833880D01*
X147563333Y-70833880D02*
X147896666Y-71310071D01*
X148134761Y-70833880D02*
X148134761Y-71833880D01*
X148134761Y-71833880D02*
X147753809Y-71833880D01*
X147753809Y-71833880D02*
X147658571Y-71786261D01*
X147658571Y-71786261D02*
X147610952Y-71738642D01*
X147610952Y-71738642D02*
X147563333Y-71643404D01*
X147563333Y-71643404D02*
X147563333Y-71500547D01*
X147563333Y-71500547D02*
X147610952Y-71405309D01*
X147610952Y-71405309D02*
X147658571Y-71357690D01*
X147658571Y-71357690D02*
X147753809Y-71310071D01*
X147753809Y-71310071D02*
X148134761Y-71310071D01*
X147134761Y-70833880D02*
X147134761Y-71833880D01*
X146706190Y-71119595D02*
X146230000Y-71119595D01*
X146801428Y-70833880D02*
X146468095Y-71833880D01*
X146468095Y-71833880D02*
X146134762Y-70833880D01*
X145325238Y-70833880D02*
X145801428Y-70833880D01*
X145801428Y-70833880D02*
X145801428Y-71833880D01*
X139619523Y-118230880D02*
X139571904Y-118278500D01*
X139571904Y-118278500D02*
X139429047Y-118326119D01*
X139429047Y-118326119D02*
X139333809Y-118326119D01*
X139333809Y-118326119D02*
X139190952Y-118278500D01*
X139190952Y-118278500D02*
X139095714Y-118183261D01*
X139095714Y-118183261D02*
X139048095Y-118088023D01*
X139048095Y-118088023D02*
X139000476Y-117897547D01*
X139000476Y-117897547D02*
X139000476Y-117754690D01*
X139000476Y-117754690D02*
X139048095Y-117564214D01*
X139048095Y-117564214D02*
X139095714Y-117468976D01*
X139095714Y-117468976D02*
X139190952Y-117373738D01*
X139190952Y-117373738D02*
X139333809Y-117326119D01*
X139333809Y-117326119D02*
X139429047Y-117326119D01*
X139429047Y-117326119D02*
X139571904Y-117373738D01*
X139571904Y-117373738D02*
X139619523Y-117421357D01*
X142071904Y-117373738D02*
X141976666Y-117326119D01*
X141976666Y-117326119D02*
X141833809Y-117326119D01*
X141833809Y-117326119D02*
X141690952Y-117373738D01*
X141690952Y-117373738D02*
X141595714Y-117468976D01*
X141595714Y-117468976D02*
X141548095Y-117564214D01*
X141548095Y-117564214D02*
X141500476Y-117754690D01*
X141500476Y-117754690D02*
X141500476Y-117897547D01*
X141500476Y-117897547D02*
X141548095Y-118088023D01*
X141548095Y-118088023D02*
X141595714Y-118183261D01*
X141595714Y-118183261D02*
X141690952Y-118278500D01*
X141690952Y-118278500D02*
X141833809Y-118326119D01*
X141833809Y-118326119D02*
X141929047Y-118326119D01*
X141929047Y-118326119D02*
X142071904Y-118278500D01*
X142071904Y-118278500D02*
X142119523Y-118230880D01*
X142119523Y-118230880D02*
X142119523Y-117897547D01*
X142119523Y-117897547D02*
X141929047Y-117897547D01*
X159840404Y-89304285D02*
X159840404Y-88828095D01*
X160126119Y-89399523D02*
X159126119Y-89066190D01*
X159126119Y-89066190D02*
X160126119Y-88732857D01*
X159221357Y-88447142D02*
X159173738Y-88399523D01*
X159173738Y-88399523D02*
X159126119Y-88304285D01*
X159126119Y-88304285D02*
X159126119Y-88066190D01*
X159126119Y-88066190D02*
X159173738Y-87970952D01*
X159173738Y-87970952D02*
X159221357Y-87923333D01*
X159221357Y-87923333D02*
X159316595Y-87875714D01*
X159316595Y-87875714D02*
X159411833Y-87875714D01*
X159411833Y-87875714D02*
X159554690Y-87923333D01*
X159554690Y-87923333D02*
X160126119Y-88494761D01*
X160126119Y-88494761D02*
X160126119Y-87875714D01*
X145648095Y-63716261D02*
X145743333Y-63763880D01*
X145743333Y-63763880D02*
X145886190Y-63763880D01*
X145886190Y-63763880D02*
X146029047Y-63716261D01*
X146029047Y-63716261D02*
X146124285Y-63621023D01*
X146124285Y-63621023D02*
X146171904Y-63525785D01*
X146171904Y-63525785D02*
X146219523Y-63335309D01*
X146219523Y-63335309D02*
X146219523Y-63192452D01*
X146219523Y-63192452D02*
X146171904Y-63001976D01*
X146171904Y-63001976D02*
X146124285Y-62906738D01*
X146124285Y-62906738D02*
X146029047Y-62811500D01*
X146029047Y-62811500D02*
X145886190Y-62763880D01*
X145886190Y-62763880D02*
X145790952Y-62763880D01*
X145790952Y-62763880D02*
X145648095Y-62811500D01*
X145648095Y-62811500D02*
X145600476Y-62859119D01*
X145600476Y-62859119D02*
X145600476Y-63192452D01*
X145600476Y-63192452D02*
X145790952Y-63192452D01*
X144119523Y-117326119D02*
X143643333Y-117326119D01*
X143643333Y-117326119D02*
X143595714Y-117802309D01*
X143595714Y-117802309D02*
X143643333Y-117754690D01*
X143643333Y-117754690D02*
X143738571Y-117707071D01*
X143738571Y-117707071D02*
X143976666Y-117707071D01*
X143976666Y-117707071D02*
X144071904Y-117754690D01*
X144071904Y-117754690D02*
X144119523Y-117802309D01*
X144119523Y-117802309D02*
X144167142Y-117897547D01*
X144167142Y-117897547D02*
X144167142Y-118135642D01*
X144167142Y-118135642D02*
X144119523Y-118230880D01*
X144119523Y-118230880D02*
X144071904Y-118278500D01*
X144071904Y-118278500D02*
X143976666Y-118326119D01*
X143976666Y-118326119D02*
X143738571Y-118326119D01*
X143738571Y-118326119D02*
X143643333Y-118278500D01*
X143643333Y-118278500D02*
X143595714Y-118230880D01*
X144452857Y-117326119D02*
X144786190Y-118326119D01*
X144786190Y-118326119D02*
X145119523Y-117326119D01*
X140320476Y-66233880D02*
X140796666Y-66233880D01*
X140796666Y-66233880D02*
X140844285Y-65757690D01*
X140844285Y-65757690D02*
X140796666Y-65805309D01*
X140796666Y-65805309D02*
X140701428Y-65852928D01*
X140701428Y-65852928D02*
X140463333Y-65852928D01*
X140463333Y-65852928D02*
X140368095Y-65805309D01*
X140368095Y-65805309D02*
X140320476Y-65757690D01*
X140320476Y-65757690D02*
X140272857Y-65662452D01*
X140272857Y-65662452D02*
X140272857Y-65424357D01*
X140272857Y-65424357D02*
X140320476Y-65329119D01*
X140320476Y-65329119D02*
X140368095Y-65281500D01*
X140368095Y-65281500D02*
X140463333Y-65233880D01*
X140463333Y-65233880D02*
X140701428Y-65233880D01*
X140701428Y-65233880D02*
X140796666Y-65281500D01*
X140796666Y-65281500D02*
X140844285Y-65329119D01*
X139987142Y-66233880D02*
X139653809Y-65233880D01*
X139653809Y-65233880D02*
X139320476Y-66233880D01*
X130428095Y-63716261D02*
X130523333Y-63763880D01*
X130523333Y-63763880D02*
X130666190Y-63763880D01*
X130666190Y-63763880D02*
X130809047Y-63716261D01*
X130809047Y-63716261D02*
X130904285Y-63621023D01*
X130904285Y-63621023D02*
X130951904Y-63525785D01*
X130951904Y-63525785D02*
X130999523Y-63335309D01*
X130999523Y-63335309D02*
X130999523Y-63192452D01*
X130999523Y-63192452D02*
X130951904Y-63001976D01*
X130951904Y-63001976D02*
X130904285Y-62906738D01*
X130904285Y-62906738D02*
X130809047Y-62811500D01*
X130809047Y-62811500D02*
X130666190Y-62763880D01*
X130666190Y-62763880D02*
X130570952Y-62763880D01*
X130570952Y-62763880D02*
X130428095Y-62811500D01*
X130428095Y-62811500D02*
X130380476Y-62859119D01*
X130380476Y-62859119D02*
X130380476Y-63192452D01*
X130380476Y-63192452D02*
X130570952Y-63192452D01*
X130400476Y-66203880D02*
X130876666Y-66203880D01*
X130876666Y-66203880D02*
X130924285Y-65727690D01*
X130924285Y-65727690D02*
X130876666Y-65775309D01*
X130876666Y-65775309D02*
X130781428Y-65822928D01*
X130781428Y-65822928D02*
X130543333Y-65822928D01*
X130543333Y-65822928D02*
X130448095Y-65775309D01*
X130448095Y-65775309D02*
X130400476Y-65727690D01*
X130400476Y-65727690D02*
X130352857Y-65632452D01*
X130352857Y-65632452D02*
X130352857Y-65394357D01*
X130352857Y-65394357D02*
X130400476Y-65299119D01*
X130400476Y-65299119D02*
X130448095Y-65251500D01*
X130448095Y-65251500D02*
X130543333Y-65203880D01*
X130543333Y-65203880D02*
X130781428Y-65203880D01*
X130781428Y-65203880D02*
X130876666Y-65251500D01*
X130876666Y-65251500D02*
X130924285Y-65299119D01*
X130067142Y-66203880D02*
X129733809Y-65203880D01*
X129733809Y-65203880D02*
X129400476Y-66203880D01*
X160016119Y-105860476D02*
X160016119Y-106431904D01*
X160016119Y-106146190D02*
X159016119Y-106146190D01*
X159016119Y-106146190D02*
X159158976Y-106241428D01*
X159158976Y-106241428D02*
X159254214Y-106336666D01*
X159254214Y-106336666D02*
X159301833Y-106431904D01*
X159016119Y-105241428D02*
X159016119Y-105146190D01*
X159016119Y-105146190D02*
X159063738Y-105050952D01*
X159063738Y-105050952D02*
X159111357Y-105003333D01*
X159111357Y-105003333D02*
X159206595Y-104955714D01*
X159206595Y-104955714D02*
X159397071Y-104908095D01*
X159397071Y-104908095D02*
X159635166Y-104908095D01*
X159635166Y-104908095D02*
X159825642Y-104955714D01*
X159825642Y-104955714D02*
X159920880Y-105003333D01*
X159920880Y-105003333D02*
X159968500Y-105050952D01*
X159968500Y-105050952D02*
X160016119Y-105146190D01*
X160016119Y-105146190D02*
X160016119Y-105241428D01*
X160016119Y-105241428D02*
X159968500Y-105336666D01*
X159968500Y-105336666D02*
X159920880Y-105384285D01*
X159920880Y-105384285D02*
X159825642Y-105431904D01*
X159825642Y-105431904D02*
X159635166Y-105479523D01*
X159635166Y-105479523D02*
X159397071Y-105479523D01*
X159397071Y-105479523D02*
X159206595Y-105431904D01*
X159206595Y-105431904D02*
X159111357Y-105384285D01*
X159111357Y-105384285D02*
X159063738Y-105336666D01*
X159063738Y-105336666D02*
X159016119Y-105241428D01*
X138059999Y-70633880D02*
X138059999Y-71633880D01*
X138059999Y-71157690D02*
X137488571Y-71157690D01*
X137488571Y-70633880D02*
X137488571Y-71633880D01*
X137012380Y-70633880D02*
X137012380Y-71633880D01*
X137012380Y-71633880D02*
X136631428Y-71633880D01*
X136631428Y-71633880D02*
X136536190Y-71586261D01*
X136536190Y-71586261D02*
X136488571Y-71538642D01*
X136488571Y-71538642D02*
X136440952Y-71443404D01*
X136440952Y-71443404D02*
X136440952Y-71300547D01*
X136440952Y-71300547D02*
X136488571Y-71205309D01*
X136488571Y-71205309D02*
X136536190Y-71157690D01*
X136536190Y-71157690D02*
X136631428Y-71110071D01*
X136631428Y-71110071D02*
X137012380Y-71110071D01*
X134774285Y-70633880D02*
X135250475Y-70633880D01*
X135250475Y-70633880D02*
X135250475Y-71633880D01*
X134440951Y-71157690D02*
X134107618Y-71157690D01*
X133964761Y-70633880D02*
X134440951Y-70633880D01*
X134440951Y-70633880D02*
X134440951Y-71633880D01*
X134440951Y-71633880D02*
X133964761Y-71633880D01*
X133536189Y-70633880D02*
X133536189Y-71633880D01*
X133536189Y-71633880D02*
X133298094Y-71633880D01*
X133298094Y-71633880D02*
X133155237Y-71586261D01*
X133155237Y-71586261D02*
X133059999Y-71491023D01*
X133059999Y-71491023D02*
X133012380Y-71395785D01*
X133012380Y-71395785D02*
X132964761Y-71205309D01*
X132964761Y-71205309D02*
X132964761Y-71062452D01*
X132964761Y-71062452D02*
X133012380Y-70871976D01*
X133012380Y-70871976D02*
X133059999Y-70776738D01*
X133059999Y-70776738D02*
X133155237Y-70681500D01*
X133155237Y-70681500D02*
X133298094Y-70633880D01*
X133298094Y-70633880D02*
X133536189Y-70633880D01*
X132583808Y-70681500D02*
X132440951Y-70633880D01*
X132440951Y-70633880D02*
X132202856Y-70633880D01*
X132202856Y-70633880D02*
X132107618Y-70681500D01*
X132107618Y-70681500D02*
X132059999Y-70729119D01*
X132059999Y-70729119D02*
X132012380Y-70824357D01*
X132012380Y-70824357D02*
X132012380Y-70919595D01*
X132012380Y-70919595D02*
X132059999Y-71014833D01*
X132059999Y-71014833D02*
X132107618Y-71062452D01*
X132107618Y-71062452D02*
X132202856Y-71110071D01*
X132202856Y-71110071D02*
X132393332Y-71157690D01*
X132393332Y-71157690D02*
X132488570Y-71205309D01*
X132488570Y-71205309D02*
X132536189Y-71252928D01*
X132536189Y-71252928D02*
X132583808Y-71348166D01*
X132583808Y-71348166D02*
X132583808Y-71443404D01*
X132583808Y-71443404D02*
X132536189Y-71538642D01*
X132536189Y-71538642D02*
X132488570Y-71586261D01*
X132488570Y-71586261D02*
X132393332Y-71633880D01*
X132393332Y-71633880D02*
X132155237Y-71633880D01*
X132155237Y-71633880D02*
X132012380Y-71586261D01*
X160066119Y-100720476D02*
X160066119Y-101291904D01*
X160066119Y-101006190D02*
X159066119Y-101006190D01*
X159066119Y-101006190D02*
X159208976Y-101101428D01*
X159208976Y-101101428D02*
X159304214Y-101196666D01*
X159304214Y-101196666D02*
X159351833Y-101291904D01*
X159161357Y-100339523D02*
X159113738Y-100291904D01*
X159113738Y-100291904D02*
X159066119Y-100196666D01*
X159066119Y-100196666D02*
X159066119Y-99958571D01*
X159066119Y-99958571D02*
X159113738Y-99863333D01*
X159113738Y-99863333D02*
X159161357Y-99815714D01*
X159161357Y-99815714D02*
X159256595Y-99768095D01*
X159256595Y-99768095D02*
X159351833Y-99768095D01*
X159351833Y-99768095D02*
X159494690Y-99815714D01*
X159494690Y-99815714D02*
X160066119Y-100387142D01*
X160066119Y-100387142D02*
X160066119Y-99768095D01*
X139783810Y-110626119D02*
X139783810Y-109626119D01*
X140212381Y-109721357D02*
X140260000Y-109673738D01*
X140260000Y-109673738D02*
X140355238Y-109626119D01*
X140355238Y-109626119D02*
X140593333Y-109626119D01*
X140593333Y-109626119D02*
X140688571Y-109673738D01*
X140688571Y-109673738D02*
X140736190Y-109721357D01*
X140736190Y-109721357D02*
X140783809Y-109816595D01*
X140783809Y-109816595D02*
X140783809Y-109911833D01*
X140783809Y-109911833D02*
X140736190Y-110054690D01*
X140736190Y-110054690D02*
X140164762Y-110626119D01*
X140164762Y-110626119D02*
X140783809Y-110626119D01*
X141783809Y-110530880D02*
X141736190Y-110578500D01*
X141736190Y-110578500D02*
X141593333Y-110626119D01*
X141593333Y-110626119D02*
X141498095Y-110626119D01*
X141498095Y-110626119D02*
X141355238Y-110578500D01*
X141355238Y-110578500D02*
X141260000Y-110483261D01*
X141260000Y-110483261D02*
X141212381Y-110388023D01*
X141212381Y-110388023D02*
X141164762Y-110197547D01*
X141164762Y-110197547D02*
X141164762Y-110054690D01*
X141164762Y-110054690D02*
X141212381Y-109864214D01*
X141212381Y-109864214D02*
X141260000Y-109768976D01*
X141260000Y-109768976D02*
X141355238Y-109673738D01*
X141355238Y-109673738D02*
X141498095Y-109626119D01*
X141498095Y-109626119D02*
X141593333Y-109626119D01*
X141593333Y-109626119D02*
X141736190Y-109673738D01*
X141736190Y-109673738D02*
X141783809Y-109721357D01*
X160136119Y-98210476D02*
X160136119Y-98781904D01*
X160136119Y-98496190D02*
X159136119Y-98496190D01*
X159136119Y-98496190D02*
X159278976Y-98591428D01*
X159278976Y-98591428D02*
X159374214Y-98686666D01*
X159374214Y-98686666D02*
X159421833Y-98781904D01*
X159136119Y-97877142D02*
X159136119Y-97258095D01*
X159136119Y-97258095D02*
X159517071Y-97591428D01*
X159517071Y-97591428D02*
X159517071Y-97448571D01*
X159517071Y-97448571D02*
X159564690Y-97353333D01*
X159564690Y-97353333D02*
X159612309Y-97305714D01*
X159612309Y-97305714D02*
X159707547Y-97258095D01*
X159707547Y-97258095D02*
X159945642Y-97258095D01*
X159945642Y-97258095D02*
X160040880Y-97305714D01*
X160040880Y-97305714D02*
X160088500Y-97353333D01*
X160088500Y-97353333D02*
X160136119Y-97448571D01*
X160136119Y-97448571D02*
X160136119Y-97734285D01*
X160136119Y-97734285D02*
X160088500Y-97829523D01*
X160088500Y-97829523D02*
X160040880Y-97877142D01*
D10*
X135912017Y-108020961D02*
X135912017Y-108668580D01*
X135912017Y-108668580D02*
X135873922Y-108744771D01*
X135873922Y-108744771D02*
X135835826Y-108782866D01*
X135835826Y-108782866D02*
X135759636Y-108820961D01*
X135759636Y-108820961D02*
X135645350Y-108820961D01*
X135645350Y-108820961D02*
X135569160Y-108782866D01*
X135912017Y-108516200D02*
X135835826Y-108554295D01*
X135835826Y-108554295D02*
X135683445Y-108554295D01*
X135683445Y-108554295D02*
X135607255Y-108516200D01*
X135607255Y-108516200D02*
X135569160Y-108478104D01*
X135569160Y-108478104D02*
X135531064Y-108401914D01*
X135531064Y-108401914D02*
X135531064Y-108173342D01*
X135531064Y-108173342D02*
X135569160Y-108097152D01*
X135569160Y-108097152D02*
X135607255Y-108059057D01*
X135607255Y-108059057D02*
X135683445Y-108020961D01*
X135683445Y-108020961D02*
X135835826Y-108020961D01*
X135835826Y-108020961D02*
X135912017Y-108059057D01*
X136292970Y-108554295D02*
X136292970Y-108020961D01*
X136292970Y-107754295D02*
X136254874Y-107792390D01*
X136254874Y-107792390D02*
X136292970Y-107830485D01*
X136292970Y-107830485D02*
X136331065Y-107792390D01*
X136331065Y-107792390D02*
X136292970Y-107754295D01*
X136292970Y-107754295D02*
X136292970Y-107830485D01*
X136559636Y-108020961D02*
X136864398Y-108020961D01*
X136673922Y-107754295D02*
X136673922Y-108440009D01*
X136673922Y-108440009D02*
X136712017Y-108516200D01*
X136712017Y-108516200D02*
X136788207Y-108554295D01*
X136788207Y-108554295D02*
X136864398Y-108554295D01*
X137131065Y-108554295D02*
X137131065Y-107754295D01*
X137473922Y-108554295D02*
X137473922Y-108135247D01*
X137473922Y-108135247D02*
X137435827Y-108059057D01*
X137435827Y-108059057D02*
X137359636Y-108020961D01*
X137359636Y-108020961D02*
X137245350Y-108020961D01*
X137245350Y-108020961D02*
X137169160Y-108059057D01*
X137169160Y-108059057D02*
X137131065Y-108097152D01*
X138197732Y-108020961D02*
X138197732Y-108554295D01*
X137854875Y-108020961D02*
X137854875Y-108440009D01*
X137854875Y-108440009D02*
X137892970Y-108516200D01*
X137892970Y-108516200D02*
X137969160Y-108554295D01*
X137969160Y-108554295D02*
X138083446Y-108554295D01*
X138083446Y-108554295D02*
X138159637Y-108516200D01*
X138159637Y-108516200D02*
X138197732Y-108478104D01*
X138578685Y-108554295D02*
X138578685Y-107754295D01*
X138578685Y-108059057D02*
X138654875Y-108020961D01*
X138654875Y-108020961D02*
X138807256Y-108020961D01*
X138807256Y-108020961D02*
X138883447Y-108059057D01*
X138883447Y-108059057D02*
X138921542Y-108097152D01*
X138921542Y-108097152D02*
X138959637Y-108173342D01*
X138959637Y-108173342D02*
X138959637Y-108401914D01*
X138959637Y-108401914D02*
X138921542Y-108478104D01*
X138921542Y-108478104D02*
X138883447Y-108516200D01*
X138883447Y-108516200D02*
X138807256Y-108554295D01*
X138807256Y-108554295D02*
X138654875Y-108554295D01*
X138654875Y-108554295D02*
X138578685Y-108516200D01*
X139302495Y-108478104D02*
X139340590Y-108516200D01*
X139340590Y-108516200D02*
X139302495Y-108554295D01*
X139302495Y-108554295D02*
X139264399Y-108516200D01*
X139264399Y-108516200D02*
X139302495Y-108478104D01*
X139302495Y-108478104D02*
X139302495Y-108554295D01*
X140026304Y-108516200D02*
X139950113Y-108554295D01*
X139950113Y-108554295D02*
X139797732Y-108554295D01*
X139797732Y-108554295D02*
X139721542Y-108516200D01*
X139721542Y-108516200D02*
X139683447Y-108478104D01*
X139683447Y-108478104D02*
X139645351Y-108401914D01*
X139645351Y-108401914D02*
X139645351Y-108173342D01*
X139645351Y-108173342D02*
X139683447Y-108097152D01*
X139683447Y-108097152D02*
X139721542Y-108059057D01*
X139721542Y-108059057D02*
X139797732Y-108020961D01*
X139797732Y-108020961D02*
X139950113Y-108020961D01*
X139950113Y-108020961D02*
X140026304Y-108059057D01*
X140483446Y-108554295D02*
X140407256Y-108516200D01*
X140407256Y-108516200D02*
X140369161Y-108478104D01*
X140369161Y-108478104D02*
X140331065Y-108401914D01*
X140331065Y-108401914D02*
X140331065Y-108173342D01*
X140331065Y-108173342D02*
X140369161Y-108097152D01*
X140369161Y-108097152D02*
X140407256Y-108059057D01*
X140407256Y-108059057D02*
X140483446Y-108020961D01*
X140483446Y-108020961D02*
X140597732Y-108020961D01*
X140597732Y-108020961D02*
X140673923Y-108059057D01*
X140673923Y-108059057D02*
X140712018Y-108097152D01*
X140712018Y-108097152D02*
X140750113Y-108173342D01*
X140750113Y-108173342D02*
X140750113Y-108401914D01*
X140750113Y-108401914D02*
X140712018Y-108478104D01*
X140712018Y-108478104D02*
X140673923Y-108516200D01*
X140673923Y-108516200D02*
X140597732Y-108554295D01*
X140597732Y-108554295D02*
X140483446Y-108554295D01*
X141092971Y-108554295D02*
X141092971Y-108020961D01*
X141092971Y-108097152D02*
X141131066Y-108059057D01*
X141131066Y-108059057D02*
X141207256Y-108020961D01*
X141207256Y-108020961D02*
X141321542Y-108020961D01*
X141321542Y-108020961D02*
X141397733Y-108059057D01*
X141397733Y-108059057D02*
X141435828Y-108135247D01*
X141435828Y-108135247D02*
X141435828Y-108554295D01*
X141435828Y-108135247D02*
X141473923Y-108059057D01*
X141473923Y-108059057D02*
X141550114Y-108020961D01*
X141550114Y-108020961D02*
X141664399Y-108020961D01*
X141664399Y-108020961D02*
X141740590Y-108059057D01*
X141740590Y-108059057D02*
X141778685Y-108135247D01*
X141778685Y-108135247D02*
X141778685Y-108554295D01*
X142731066Y-107716200D02*
X142045352Y-108744771D01*
X142997733Y-108554295D02*
X142997733Y-108020961D01*
X142997733Y-108173342D02*
X143035828Y-108097152D01*
X143035828Y-108097152D02*
X143073923Y-108059057D01*
X143073923Y-108059057D02*
X143150114Y-108020961D01*
X143150114Y-108020961D02*
X143226304Y-108020961D01*
X143416780Y-108020961D02*
X143607256Y-108554295D01*
X143797733Y-108020961D02*
X143607256Y-108554295D01*
X143607256Y-108554295D02*
X143531066Y-108744771D01*
X143531066Y-108744771D02*
X143492971Y-108782866D01*
X143492971Y-108782866D02*
X143416780Y-108820961D01*
X144445352Y-108554295D02*
X144445352Y-108135247D01*
X144445352Y-108135247D02*
X144407257Y-108059057D01*
X144407257Y-108059057D02*
X144331066Y-108020961D01*
X144331066Y-108020961D02*
X144178685Y-108020961D01*
X144178685Y-108020961D02*
X144102495Y-108059057D01*
X144445352Y-108516200D02*
X144369161Y-108554295D01*
X144369161Y-108554295D02*
X144178685Y-108554295D01*
X144178685Y-108554295D02*
X144102495Y-108516200D01*
X144102495Y-108516200D02*
X144064399Y-108440009D01*
X144064399Y-108440009D02*
X144064399Y-108363819D01*
X144064399Y-108363819D02*
X144102495Y-108287628D01*
X144102495Y-108287628D02*
X144178685Y-108249533D01*
X144178685Y-108249533D02*
X144369161Y-108249533D01*
X144369161Y-108249533D02*
X144445352Y-108211438D01*
X144826305Y-108020961D02*
X144826305Y-108554295D01*
X144826305Y-108097152D02*
X144864400Y-108059057D01*
X144864400Y-108059057D02*
X144940590Y-108020961D01*
X144940590Y-108020961D02*
X145054876Y-108020961D01*
X145054876Y-108020961D02*
X145131067Y-108059057D01*
X145131067Y-108059057D02*
X145169162Y-108135247D01*
X145169162Y-108135247D02*
X145169162Y-108554295D01*
X145550115Y-108249533D02*
X146159639Y-108249533D01*
X146502495Y-108516200D02*
X146578686Y-108554295D01*
X146578686Y-108554295D02*
X146731067Y-108554295D01*
X146731067Y-108554295D02*
X146807257Y-108516200D01*
X146807257Y-108516200D02*
X146845353Y-108440009D01*
X146845353Y-108440009D02*
X146845353Y-108401914D01*
X146845353Y-108401914D02*
X146807257Y-108325723D01*
X146807257Y-108325723D02*
X146731067Y-108287628D01*
X146731067Y-108287628D02*
X146616781Y-108287628D01*
X146616781Y-108287628D02*
X146540591Y-108249533D01*
X146540591Y-108249533D02*
X146502495Y-108173342D01*
X146502495Y-108173342D02*
X146502495Y-108135247D01*
X146502495Y-108135247D02*
X146540591Y-108059057D01*
X146540591Y-108059057D02*
X146616781Y-108020961D01*
X146616781Y-108020961D02*
X146731067Y-108020961D01*
X146731067Y-108020961D02*
X146807257Y-108059057D01*
X147302495Y-108554295D02*
X147226305Y-108516200D01*
X147226305Y-108516200D02*
X147188210Y-108478104D01*
X147188210Y-108478104D02*
X147150114Y-108401914D01*
X147150114Y-108401914D02*
X147150114Y-108173342D01*
X147150114Y-108173342D02*
X147188210Y-108097152D01*
X147188210Y-108097152D02*
X147226305Y-108059057D01*
X147226305Y-108059057D02*
X147302495Y-108020961D01*
X147302495Y-108020961D02*
X147416781Y-108020961D01*
X147416781Y-108020961D02*
X147492972Y-108059057D01*
X147492972Y-108059057D02*
X147531067Y-108097152D01*
X147531067Y-108097152D02*
X147569162Y-108173342D01*
X147569162Y-108173342D02*
X147569162Y-108401914D01*
X147569162Y-108401914D02*
X147531067Y-108478104D01*
X147531067Y-108478104D02*
X147492972Y-108516200D01*
X147492972Y-108516200D02*
X147416781Y-108554295D01*
X147416781Y-108554295D02*
X147302495Y-108554295D01*
X147912020Y-108020961D02*
X147912020Y-108554295D01*
X147912020Y-108097152D02*
X147950115Y-108059057D01*
X147950115Y-108059057D02*
X148026305Y-108020961D01*
X148026305Y-108020961D02*
X148140591Y-108020961D01*
X148140591Y-108020961D02*
X148216782Y-108059057D01*
X148216782Y-108059057D02*
X148254877Y-108135247D01*
X148254877Y-108135247D02*
X148254877Y-108554295D01*
X148978687Y-108554295D02*
X148978687Y-107754295D01*
X148978687Y-108516200D02*
X148902496Y-108554295D01*
X148902496Y-108554295D02*
X148750115Y-108554295D01*
X148750115Y-108554295D02*
X148673925Y-108516200D01*
X148673925Y-108516200D02*
X148635830Y-108478104D01*
X148635830Y-108478104D02*
X148597734Y-108401914D01*
X148597734Y-108401914D02*
X148597734Y-108173342D01*
X148597734Y-108173342D02*
X148635830Y-108097152D01*
X148635830Y-108097152D02*
X148673925Y-108059057D01*
X148673925Y-108059057D02*
X148750115Y-108020961D01*
X148750115Y-108020961D02*
X148902496Y-108020961D01*
X148902496Y-108020961D02*
X148978687Y-108059057D01*
X149702497Y-108020961D02*
X149702497Y-108668580D01*
X149702497Y-108668580D02*
X149664402Y-108744771D01*
X149664402Y-108744771D02*
X149626306Y-108782866D01*
X149626306Y-108782866D02*
X149550116Y-108820961D01*
X149550116Y-108820961D02*
X149435830Y-108820961D01*
X149435830Y-108820961D02*
X149359640Y-108782866D01*
X149702497Y-108516200D02*
X149626306Y-108554295D01*
X149626306Y-108554295D02*
X149473925Y-108554295D01*
X149473925Y-108554295D02*
X149397735Y-108516200D01*
X149397735Y-108516200D02*
X149359640Y-108478104D01*
X149359640Y-108478104D02*
X149321544Y-108401914D01*
X149321544Y-108401914D02*
X149321544Y-108173342D01*
X149321544Y-108173342D02*
X149359640Y-108097152D01*
X149359640Y-108097152D02*
X149397735Y-108059057D01*
X149397735Y-108059057D02*
X149473925Y-108020961D01*
X149473925Y-108020961D02*
X149626306Y-108020961D01*
X149626306Y-108020961D02*
X149702497Y-108059057D01*
X150388212Y-108516200D02*
X150312021Y-108554295D01*
X150312021Y-108554295D02*
X150159640Y-108554295D01*
X150159640Y-108554295D02*
X150083450Y-108516200D01*
X150083450Y-108516200D02*
X150045354Y-108440009D01*
X150045354Y-108440009D02*
X150045354Y-108135247D01*
X150045354Y-108135247D02*
X150083450Y-108059057D01*
X150083450Y-108059057D02*
X150159640Y-108020961D01*
X150159640Y-108020961D02*
X150312021Y-108020961D01*
X150312021Y-108020961D02*
X150388212Y-108059057D01*
X150388212Y-108059057D02*
X150426307Y-108135247D01*
X150426307Y-108135247D02*
X150426307Y-108211438D01*
X150426307Y-108211438D02*
X150045354Y-108287628D01*
X150769164Y-108554295D02*
X150769164Y-108020961D01*
X150769164Y-108173342D02*
X150807259Y-108097152D01*
X150807259Y-108097152D02*
X150845354Y-108059057D01*
X150845354Y-108059057D02*
X150921545Y-108020961D01*
X150921545Y-108020961D02*
X150997735Y-108020961D01*
X151378687Y-108554295D02*
X151302497Y-108516200D01*
X151302497Y-108516200D02*
X151264402Y-108478104D01*
X151264402Y-108478104D02*
X151226306Y-108401914D01*
X151226306Y-108401914D02*
X151226306Y-108173342D01*
X151226306Y-108173342D02*
X151264402Y-108097152D01*
X151264402Y-108097152D02*
X151302497Y-108059057D01*
X151302497Y-108059057D02*
X151378687Y-108020961D01*
X151378687Y-108020961D02*
X151492973Y-108020961D01*
X151492973Y-108020961D02*
X151569164Y-108059057D01*
X151569164Y-108059057D02*
X151607259Y-108097152D01*
X151607259Y-108097152D02*
X151645354Y-108173342D01*
X151645354Y-108173342D02*
X151645354Y-108401914D01*
X151645354Y-108401914D02*
X151607259Y-108478104D01*
X151607259Y-108478104D02*
X151569164Y-108516200D01*
X151569164Y-108516200D02*
X151492973Y-108554295D01*
X151492973Y-108554295D02*
X151378687Y-108554295D01*
X151873926Y-108020961D02*
X152178688Y-108020961D01*
X151988212Y-107754295D02*
X151988212Y-108440009D01*
X151988212Y-108440009D02*
X152026307Y-108516200D01*
X152026307Y-108516200D02*
X152102497Y-108554295D01*
X152102497Y-108554295D02*
X152178688Y-108554295D01*
X152445355Y-108554295D02*
X152445355Y-107754295D01*
X152788212Y-108554295D02*
X152788212Y-108135247D01*
X152788212Y-108135247D02*
X152750117Y-108059057D01*
X152750117Y-108059057D02*
X152673926Y-108020961D01*
X152673926Y-108020961D02*
X152559640Y-108020961D01*
X152559640Y-108020961D02*
X152483450Y-108059057D01*
X152483450Y-108059057D02*
X152445355Y-108097152D01*
X153740593Y-107716200D02*
X153054879Y-108744771D01*
X154273926Y-108135247D02*
X154007260Y-108135247D01*
X154007260Y-108554295D02*
X154007260Y-107754295D01*
X154007260Y-107754295D02*
X154388212Y-107754295D01*
X154807259Y-108554295D02*
X154731069Y-108516200D01*
X154731069Y-108516200D02*
X154692974Y-108440009D01*
X154692974Y-108440009D02*
X154692974Y-107754295D01*
X154997736Y-108020961D02*
X155302498Y-108020961D01*
X155112022Y-107754295D02*
X155112022Y-108440009D01*
X155112022Y-108440009D02*
X155150117Y-108516200D01*
X155150117Y-108516200D02*
X155226307Y-108554295D01*
X155226307Y-108554295D02*
X155302498Y-108554295D01*
X155569165Y-108554295D02*
X155569165Y-107754295D01*
X155912022Y-108554295D02*
X155912022Y-108135247D01*
X155912022Y-108135247D02*
X155873927Y-108059057D01*
X155873927Y-108059057D02*
X155797736Y-108020961D01*
X155797736Y-108020961D02*
X155683450Y-108020961D01*
X155683450Y-108020961D02*
X155607260Y-108059057D01*
X155607260Y-108059057D02*
X155569165Y-108097152D01*
X156216784Y-108020961D02*
X156407260Y-108554295D01*
X156597737Y-108020961D02*
X156407260Y-108554295D01*
X156407260Y-108554295D02*
X156331070Y-108744771D01*
X156331070Y-108744771D02*
X156292975Y-108782866D01*
X156292975Y-108782866D02*
X156216784Y-108820961D01*
X156902499Y-108554295D02*
X156902499Y-107754295D01*
X156902499Y-108135247D02*
X157359642Y-108135247D01*
X157359642Y-108554295D02*
X157359642Y-107754295D01*
X157740594Y-108554295D02*
X157740594Y-107754295D01*
X157740594Y-107754295D02*
X158045356Y-107754295D01*
X158045356Y-107754295D02*
X158121546Y-107792390D01*
X158121546Y-107792390D02*
X158159641Y-107830485D01*
X158159641Y-107830485D02*
X158197737Y-107906676D01*
X158197737Y-107906676D02*
X158197737Y-108020961D01*
X158197737Y-108020961D02*
X158159641Y-108097152D01*
X158159641Y-108097152D02*
X158121546Y-108135247D01*
X158121546Y-108135247D02*
X158045356Y-108173342D01*
X158045356Y-108173342D02*
X157740594Y-108173342D01*
X158502498Y-108516200D02*
X158578689Y-108554295D01*
X158578689Y-108554295D02*
X158731070Y-108554295D01*
X158731070Y-108554295D02*
X158807260Y-108516200D01*
X158807260Y-108516200D02*
X158845356Y-108440009D01*
X158845356Y-108440009D02*
X158845356Y-108401914D01*
X158845356Y-108401914D02*
X158807260Y-108325723D01*
X158807260Y-108325723D02*
X158731070Y-108287628D01*
X158731070Y-108287628D02*
X158616784Y-108287628D01*
X158616784Y-108287628D02*
X158540594Y-108249533D01*
X158540594Y-108249533D02*
X158502498Y-108173342D01*
X158502498Y-108173342D02*
X158502498Y-108135247D01*
X158502498Y-108135247D02*
X158540594Y-108059057D01*
X158540594Y-108059057D02*
X158616784Y-108020961D01*
X158616784Y-108020961D02*
X158731070Y-108020961D01*
X158731070Y-108020961D02*
X158807260Y-108059057D01*
X102253332Y-71704819D02*
X102253332Y-70704819D01*
X102253332Y-70704819D02*
X102634284Y-70704819D01*
X102634284Y-70704819D02*
X102729522Y-70752438D01*
X102729522Y-70752438D02*
X102777141Y-70800057D01*
X102777141Y-70800057D02*
X102824760Y-70895295D01*
X102824760Y-70895295D02*
X102824760Y-71038152D01*
X102824760Y-71038152D02*
X102777141Y-71133390D01*
X102777141Y-71133390D02*
X102729522Y-71181009D01*
X102729522Y-71181009D02*
X102634284Y-71228628D01*
X102634284Y-71228628D02*
X102253332Y-71228628D01*
X103396189Y-71704819D02*
X103300951Y-71657200D01*
X103300951Y-71657200D02*
X103253332Y-71609580D01*
X103253332Y-71609580D02*
X103205713Y-71514342D01*
X103205713Y-71514342D02*
X103205713Y-71228628D01*
X103205713Y-71228628D02*
X103253332Y-71133390D01*
X103253332Y-71133390D02*
X103300951Y-71085771D01*
X103300951Y-71085771D02*
X103396189Y-71038152D01*
X103396189Y-71038152D02*
X103539046Y-71038152D01*
X103539046Y-71038152D02*
X103634284Y-71085771D01*
X103634284Y-71085771D02*
X103681903Y-71133390D01*
X103681903Y-71133390D02*
X103729522Y-71228628D01*
X103729522Y-71228628D02*
X103729522Y-71514342D01*
X103729522Y-71514342D02*
X103681903Y-71609580D01*
X103681903Y-71609580D02*
X103634284Y-71657200D01*
X103634284Y-71657200D02*
X103539046Y-71704819D01*
X103539046Y-71704819D02*
X103396189Y-71704819D01*
X104300951Y-71704819D02*
X104205713Y-71657200D01*
X104205713Y-71657200D02*
X104158094Y-71561961D01*
X104158094Y-71561961D02*
X104158094Y-70704819D01*
X104824761Y-71704819D02*
X104729523Y-71657200D01*
X104729523Y-71657200D02*
X104681904Y-71609580D01*
X104681904Y-71609580D02*
X104634285Y-71514342D01*
X104634285Y-71514342D02*
X104634285Y-71228628D01*
X104634285Y-71228628D02*
X104681904Y-71133390D01*
X104681904Y-71133390D02*
X104729523Y-71085771D01*
X104729523Y-71085771D02*
X104824761Y-71038152D01*
X104824761Y-71038152D02*
X104967618Y-71038152D01*
X104967618Y-71038152D02*
X105062856Y-71085771D01*
X105062856Y-71085771D02*
X105110475Y-71133390D01*
X105110475Y-71133390D02*
X105158094Y-71228628D01*
X105158094Y-71228628D02*
X105158094Y-71514342D01*
X105158094Y-71514342D02*
X105110475Y-71609580D01*
X105110475Y-71609580D02*
X105062856Y-71657200D01*
X105062856Y-71657200D02*
X104967618Y-71704819D01*
X104967618Y-71704819D02*
X104824761Y-71704819D01*
X105729523Y-71704819D02*
X105634285Y-71657200D01*
X105634285Y-71657200D02*
X105586666Y-71561961D01*
X105586666Y-71561961D02*
X105586666Y-70704819D01*
X106539047Y-71038152D02*
X106539047Y-71704819D01*
X106110476Y-71038152D02*
X106110476Y-71561961D01*
X106110476Y-71561961D02*
X106158095Y-71657200D01*
X106158095Y-71657200D02*
X106253333Y-71704819D01*
X106253333Y-71704819D02*
X106396190Y-71704819D01*
X106396190Y-71704819D02*
X106491428Y-71657200D01*
X106491428Y-71657200D02*
X106539047Y-71609580D01*
X106777143Y-71800057D02*
X107539047Y-71800057D01*
X107777143Y-71704819D02*
X107777143Y-70704819D01*
X107777143Y-70704819D02*
X108110476Y-71419104D01*
X108110476Y-71419104D02*
X108443809Y-70704819D01*
X108443809Y-70704819D02*
X108443809Y-71704819D01*
X108920000Y-71704819D02*
X108920000Y-71038152D01*
X108920000Y-70704819D02*
X108872381Y-70752438D01*
X108872381Y-70752438D02*
X108920000Y-70800057D01*
X108920000Y-70800057D02*
X108967619Y-70752438D01*
X108967619Y-70752438D02*
X108920000Y-70704819D01*
X108920000Y-70704819D02*
X108920000Y-70800057D01*
X109824761Y-71657200D02*
X109729523Y-71704819D01*
X109729523Y-71704819D02*
X109539047Y-71704819D01*
X109539047Y-71704819D02*
X109443809Y-71657200D01*
X109443809Y-71657200D02*
X109396190Y-71609580D01*
X109396190Y-71609580D02*
X109348571Y-71514342D01*
X109348571Y-71514342D02*
X109348571Y-71228628D01*
X109348571Y-71228628D02*
X109396190Y-71133390D01*
X109396190Y-71133390D02*
X109443809Y-71085771D01*
X109443809Y-71085771D02*
X109539047Y-71038152D01*
X109539047Y-71038152D02*
X109729523Y-71038152D01*
X109729523Y-71038152D02*
X109824761Y-71085771D01*
X110253333Y-71704819D02*
X110253333Y-71038152D01*
X110253333Y-71228628D02*
X110300952Y-71133390D01*
X110300952Y-71133390D02*
X110348571Y-71085771D01*
X110348571Y-71085771D02*
X110443809Y-71038152D01*
X110443809Y-71038152D02*
X110539047Y-71038152D01*
X111015238Y-71704819D02*
X110920000Y-71657200D01*
X110920000Y-71657200D02*
X110872381Y-71609580D01*
X110872381Y-71609580D02*
X110824762Y-71514342D01*
X110824762Y-71514342D02*
X110824762Y-71228628D01*
X110824762Y-71228628D02*
X110872381Y-71133390D01*
X110872381Y-71133390D02*
X110920000Y-71085771D01*
X110920000Y-71085771D02*
X111015238Y-71038152D01*
X111015238Y-71038152D02*
X111158095Y-71038152D01*
X111158095Y-71038152D02*
X111253333Y-71085771D01*
X111253333Y-71085771D02*
X111300952Y-71133390D01*
X111300952Y-71133390D02*
X111348571Y-71228628D01*
X111348571Y-71228628D02*
X111348571Y-71514342D01*
X111348571Y-71514342D02*
X111300952Y-71609580D01*
X111300952Y-71609580D02*
X111253333Y-71657200D01*
X111253333Y-71657200D02*
X111158095Y-71704819D01*
X111158095Y-71704819D02*
X111015238Y-71704819D01*
X111539048Y-71800057D02*
X112300952Y-71800057D01*
X112539048Y-71704819D02*
X112539048Y-70704819D01*
X112539048Y-70704819D02*
X112872381Y-71419104D01*
X112872381Y-71419104D02*
X113205714Y-70704819D01*
X113205714Y-70704819D02*
X113205714Y-71704819D01*
X114110476Y-71704819D02*
X114110476Y-71181009D01*
X114110476Y-71181009D02*
X114062857Y-71085771D01*
X114062857Y-71085771D02*
X113967619Y-71038152D01*
X113967619Y-71038152D02*
X113777143Y-71038152D01*
X113777143Y-71038152D02*
X113681905Y-71085771D01*
X114110476Y-71657200D02*
X114015238Y-71704819D01*
X114015238Y-71704819D02*
X113777143Y-71704819D01*
X113777143Y-71704819D02*
X113681905Y-71657200D01*
X113681905Y-71657200D02*
X113634286Y-71561961D01*
X113634286Y-71561961D02*
X113634286Y-71466723D01*
X113634286Y-71466723D02*
X113681905Y-71371485D01*
X113681905Y-71371485D02*
X113777143Y-71323866D01*
X113777143Y-71323866D02*
X114015238Y-71323866D01*
X114015238Y-71323866D02*
X114110476Y-71276247D01*
X114967619Y-71657200D02*
X114872381Y-71704819D01*
X114872381Y-71704819D02*
X114681905Y-71704819D01*
X114681905Y-71704819D02*
X114586667Y-71657200D01*
X114586667Y-71657200D02*
X114539048Y-71561961D01*
X114539048Y-71561961D02*
X114539048Y-71181009D01*
X114539048Y-71181009D02*
X114586667Y-71085771D01*
X114586667Y-71085771D02*
X114681905Y-71038152D01*
X114681905Y-71038152D02*
X114872381Y-71038152D01*
X114872381Y-71038152D02*
X114967619Y-71085771D01*
X114967619Y-71085771D02*
X115015238Y-71181009D01*
X115015238Y-71181009D02*
X115015238Y-71276247D01*
X115015238Y-71276247D02*
X114539048Y-71371485D01*
X115396191Y-71657200D02*
X115491429Y-71704819D01*
X115491429Y-71704819D02*
X115681905Y-71704819D01*
X115681905Y-71704819D02*
X115777143Y-71657200D01*
X115777143Y-71657200D02*
X115824762Y-71561961D01*
X115824762Y-71561961D02*
X115824762Y-71514342D01*
X115824762Y-71514342D02*
X115777143Y-71419104D01*
X115777143Y-71419104D02*
X115681905Y-71371485D01*
X115681905Y-71371485D02*
X115539048Y-71371485D01*
X115539048Y-71371485D02*
X115443810Y-71323866D01*
X115443810Y-71323866D02*
X115396191Y-71228628D01*
X115396191Y-71228628D02*
X115396191Y-71181009D01*
X115396191Y-71181009D02*
X115443810Y-71085771D01*
X115443810Y-71085771D02*
X115539048Y-71038152D01*
X115539048Y-71038152D02*
X115681905Y-71038152D01*
X115681905Y-71038152D02*
X115777143Y-71085771D01*
X116110477Y-71038152D02*
X116491429Y-71038152D01*
X116253334Y-70704819D02*
X116253334Y-71561961D01*
X116253334Y-71561961D02*
X116300953Y-71657200D01*
X116300953Y-71657200D02*
X116396191Y-71704819D01*
X116396191Y-71704819D02*
X116491429Y-71704819D01*
X116824763Y-71704819D02*
X116824763Y-71038152D01*
X116824763Y-71228628D02*
X116872382Y-71133390D01*
X116872382Y-71133390D02*
X116920001Y-71085771D01*
X116920001Y-71085771D02*
X117015239Y-71038152D01*
X117015239Y-71038152D02*
X117110477Y-71038152D01*
X117586668Y-71704819D02*
X117491430Y-71657200D01*
X117491430Y-71657200D02*
X117443811Y-71609580D01*
X117443811Y-71609580D02*
X117396192Y-71514342D01*
X117396192Y-71514342D02*
X117396192Y-71228628D01*
X117396192Y-71228628D02*
X117443811Y-71133390D01*
X117443811Y-71133390D02*
X117491430Y-71085771D01*
X117491430Y-71085771D02*
X117586668Y-71038152D01*
X117586668Y-71038152D02*
X117729525Y-71038152D01*
X117729525Y-71038152D02*
X117824763Y-71085771D01*
X117824763Y-71085771D02*
X117872382Y-71133390D01*
X117872382Y-71133390D02*
X117920001Y-71228628D01*
X117920001Y-71228628D02*
X117920001Y-71514342D01*
X117920001Y-71514342D02*
X117872382Y-71609580D01*
X117872382Y-71609580D02*
X117824763Y-71657200D01*
X117824763Y-71657200D02*
X117729525Y-71704819D01*
X117729525Y-71704819D02*
X117586668Y-71704819D01*
X118110478Y-71800057D02*
X118872382Y-71800057D01*
X119539049Y-70704819D02*
X119348573Y-70704819D01*
X119348573Y-70704819D02*
X119253335Y-70752438D01*
X119253335Y-70752438D02*
X119205716Y-70800057D01*
X119205716Y-70800057D02*
X119110478Y-70942914D01*
X119110478Y-70942914D02*
X119062859Y-71133390D01*
X119062859Y-71133390D02*
X119062859Y-71514342D01*
X119062859Y-71514342D02*
X119110478Y-71609580D01*
X119110478Y-71609580D02*
X119158097Y-71657200D01*
X119158097Y-71657200D02*
X119253335Y-71704819D01*
X119253335Y-71704819D02*
X119443811Y-71704819D01*
X119443811Y-71704819D02*
X119539049Y-71657200D01*
X119539049Y-71657200D02*
X119586668Y-71609580D01*
X119586668Y-71609580D02*
X119634287Y-71514342D01*
X119634287Y-71514342D02*
X119634287Y-71276247D01*
X119634287Y-71276247D02*
X119586668Y-71181009D01*
X119586668Y-71181009D02*
X119539049Y-71133390D01*
X119539049Y-71133390D02*
X119443811Y-71085771D01*
X119443811Y-71085771D02*
X119253335Y-71085771D01*
X119253335Y-71085771D02*
X119158097Y-71133390D01*
X119158097Y-71133390D02*
X119110478Y-71181009D01*
X119110478Y-71181009D02*
X119062859Y-71276247D01*
D15*
X98463627Y-84049100D02*
X98549342Y-84077671D01*
X98549342Y-84077671D02*
X98692199Y-84077671D01*
X98692199Y-84077671D02*
X98749342Y-84049100D01*
X98749342Y-84049100D02*
X98777913Y-84020528D01*
X98777913Y-84020528D02*
X98806484Y-83963385D01*
X98806484Y-83963385D02*
X98806484Y-83906242D01*
X98806484Y-83906242D02*
X98777913Y-83849100D01*
X98777913Y-83849100D02*
X98749342Y-83820528D01*
X98749342Y-83820528D02*
X98692199Y-83791957D01*
X98692199Y-83791957D02*
X98577913Y-83763385D01*
X98577913Y-83763385D02*
X98520770Y-83734814D01*
X98520770Y-83734814D02*
X98492199Y-83706242D01*
X98492199Y-83706242D02*
X98463627Y-83649100D01*
X98463627Y-83649100D02*
X98463627Y-83591957D01*
X98463627Y-83591957D02*
X98492199Y-83534814D01*
X98492199Y-83534814D02*
X98520770Y-83506242D01*
X98520770Y-83506242D02*
X98577913Y-83477671D01*
X98577913Y-83477671D02*
X98720770Y-83477671D01*
X98720770Y-83477671D02*
X98806484Y-83506242D01*
X99063628Y-83763385D02*
X99263628Y-83763385D01*
X99349342Y-84077671D02*
X99063628Y-84077671D01*
X99063628Y-84077671D02*
X99063628Y-83477671D01*
X99063628Y-83477671D02*
X99349342Y-83477671D01*
X99949342Y-84077671D02*
X99749342Y-83791957D01*
X99606485Y-84077671D02*
X99606485Y-83477671D01*
X99606485Y-83477671D02*
X99835056Y-83477671D01*
X99835056Y-83477671D02*
X99892199Y-83506242D01*
X99892199Y-83506242D02*
X99920770Y-83534814D01*
X99920770Y-83534814D02*
X99949342Y-83591957D01*
X99949342Y-83591957D02*
X99949342Y-83677671D01*
X99949342Y-83677671D02*
X99920770Y-83734814D01*
X99920770Y-83734814D02*
X99892199Y-83763385D01*
X99892199Y-83763385D02*
X99835056Y-83791957D01*
X99835056Y-83791957D02*
X99606485Y-83791957D01*
X100120770Y-83477671D02*
X100320770Y-84077671D01*
X100320770Y-84077671D02*
X100520770Y-83477671D01*
X100835056Y-83477671D02*
X100949342Y-83477671D01*
X100949342Y-83477671D02*
X101006485Y-83506242D01*
X101006485Y-83506242D02*
X101063628Y-83563385D01*
X101063628Y-83563385D02*
X101092199Y-83677671D01*
X101092199Y-83677671D02*
X101092199Y-83877671D01*
X101092199Y-83877671D02*
X101063628Y-83991957D01*
X101063628Y-83991957D02*
X101006485Y-84049100D01*
X101006485Y-84049100D02*
X100949342Y-84077671D01*
X100949342Y-84077671D02*
X100835056Y-84077671D01*
X100835056Y-84077671D02*
X100777914Y-84049100D01*
X100777914Y-84049100D02*
X100720771Y-83991957D01*
X100720771Y-83991957D02*
X100692199Y-83877671D01*
X100692199Y-83877671D02*
X100692199Y-83677671D01*
X100692199Y-83677671D02*
X100720771Y-83563385D01*
X100720771Y-83563385D02*
X100777914Y-83506242D01*
X100777914Y-83506242D02*
X100835056Y-83477671D01*
X101806485Y-84077671D02*
X101806485Y-83477671D01*
X101806485Y-83477671D02*
X102035056Y-83477671D01*
X102035056Y-83477671D02*
X102092199Y-83506242D01*
X102092199Y-83506242D02*
X102120770Y-83534814D01*
X102120770Y-83534814D02*
X102149342Y-83591957D01*
X102149342Y-83591957D02*
X102149342Y-83677671D01*
X102149342Y-83677671D02*
X102120770Y-83734814D01*
X102120770Y-83734814D02*
X102092199Y-83763385D01*
X102092199Y-83763385D02*
X102035056Y-83791957D01*
X102035056Y-83791957D02*
X101806485Y-83791957D01*
X102349342Y-83477671D02*
X102492199Y-84077671D01*
X102492199Y-84077671D02*
X102606485Y-83649100D01*
X102606485Y-83649100D02*
X102720770Y-84077671D01*
X102720770Y-84077671D02*
X102863628Y-83477671D01*
X103435056Y-84077671D02*
X103235056Y-83791957D01*
X103092199Y-84077671D02*
X103092199Y-83477671D01*
X103092199Y-83477671D02*
X103320770Y-83477671D01*
X103320770Y-83477671D02*
X103377913Y-83506242D01*
X103377913Y-83506242D02*
X103406484Y-83534814D01*
X103406484Y-83534814D02*
X103435056Y-83591957D01*
X103435056Y-83591957D02*
X103435056Y-83677671D01*
X103435056Y-83677671D02*
X103406484Y-83734814D01*
X103406484Y-83734814D02*
X103377913Y-83763385D01*
X103377913Y-83763385D02*
X103320770Y-83791957D01*
X103320770Y-83791957D02*
X103092199Y-83791957D01*
D12*
X102496115Y-84863533D02*
X101734211Y-84863533D01*
X102115163Y-84482580D02*
X102115163Y-85244485D01*
D15*
X108115056Y-85086528D02*
X108086484Y-85115100D01*
X108086484Y-85115100D02*
X108000770Y-85143671D01*
X108000770Y-85143671D02*
X107943627Y-85143671D01*
X107943627Y-85143671D02*
X107857913Y-85115100D01*
X107857913Y-85115100D02*
X107800770Y-85057957D01*
X107800770Y-85057957D02*
X107772199Y-85000814D01*
X107772199Y-85000814D02*
X107743627Y-84886528D01*
X107743627Y-84886528D02*
X107743627Y-84800814D01*
X107743627Y-84800814D02*
X107772199Y-84686528D01*
X107772199Y-84686528D02*
X107800770Y-84629385D01*
X107800770Y-84629385D02*
X107857913Y-84572242D01*
X107857913Y-84572242D02*
X107943627Y-84543671D01*
X107943627Y-84543671D02*
X108000770Y-84543671D01*
X108000770Y-84543671D02*
X108086484Y-84572242D01*
X108086484Y-84572242D02*
X108115056Y-84600814D01*
X108629342Y-84743671D02*
X108629342Y-85143671D01*
X108486484Y-84515100D02*
X108343627Y-84943671D01*
X108343627Y-84943671D02*
X108715056Y-84943671D01*
D10*
X101656666Y-93911009D02*
X101323333Y-93911009D01*
X101323333Y-94434819D02*
X101323333Y-93434819D01*
X101323333Y-93434819D02*
X101799523Y-93434819D01*
X102704285Y-94434819D02*
X102132857Y-94434819D01*
X102418571Y-94434819D02*
X102418571Y-93434819D01*
X102418571Y-93434819D02*
X102323333Y-93577676D01*
X102323333Y-93577676D02*
X102228095Y-93672914D01*
X102228095Y-93672914D02*
X102132857Y-93720533D01*
D16*
X115865237Y-92835052D02*
X115865237Y-93235052D01*
X115865237Y-93235052D02*
X115769999Y-93235052D01*
X115769999Y-93235052D02*
X115712856Y-93216004D01*
X115712856Y-93216004D02*
X115674761Y-93177909D01*
X115674761Y-93177909D02*
X115655714Y-93139814D01*
X115655714Y-93139814D02*
X115636666Y-93063623D01*
X115636666Y-93063623D02*
X115636666Y-93006480D01*
X115636666Y-93006480D02*
X115655714Y-92930290D01*
X115655714Y-92930290D02*
X115674761Y-92892195D01*
X115674761Y-92892195D02*
X115712856Y-92854100D01*
X115712856Y-92854100D02*
X115769999Y-92835052D01*
X115769999Y-92835052D02*
X115865237Y-92835052D01*
X115255714Y-92835052D02*
X115484285Y-92835052D01*
X115369999Y-92835052D02*
X115369999Y-93235052D01*
X115369999Y-93235052D02*
X115408095Y-93177909D01*
X115408095Y-93177909D02*
X115446190Y-93139814D01*
X115446190Y-93139814D02*
X115484285Y-93120766D01*
D10*
X119915833Y-117369580D02*
X119868214Y-117417200D01*
X119868214Y-117417200D02*
X119725357Y-117464819D01*
X119725357Y-117464819D02*
X119630119Y-117464819D01*
X119630119Y-117464819D02*
X119487262Y-117417200D01*
X119487262Y-117417200D02*
X119392024Y-117321961D01*
X119392024Y-117321961D02*
X119344405Y-117226723D01*
X119344405Y-117226723D02*
X119296786Y-117036247D01*
X119296786Y-117036247D02*
X119296786Y-116893390D01*
X119296786Y-116893390D02*
X119344405Y-116702914D01*
X119344405Y-116702914D02*
X119392024Y-116607676D01*
X119392024Y-116607676D02*
X119487262Y-116512438D01*
X119487262Y-116512438D02*
X119630119Y-116464819D01*
X119630119Y-116464819D02*
X119725357Y-116464819D01*
X119725357Y-116464819D02*
X119868214Y-116512438D01*
X119868214Y-116512438D02*
X119915833Y-116560057D01*
X120392024Y-117464819D02*
X120582500Y-117464819D01*
X120582500Y-117464819D02*
X120677738Y-117417200D01*
X120677738Y-117417200D02*
X120725357Y-117369580D01*
X120725357Y-117369580D02*
X120820595Y-117226723D01*
X120820595Y-117226723D02*
X120868214Y-117036247D01*
X120868214Y-117036247D02*
X120868214Y-116655295D01*
X120868214Y-116655295D02*
X120820595Y-116560057D01*
X120820595Y-116560057D02*
X120772976Y-116512438D01*
X120772976Y-116512438D02*
X120677738Y-116464819D01*
X120677738Y-116464819D02*
X120487262Y-116464819D01*
X120487262Y-116464819D02*
X120392024Y-116512438D01*
X120392024Y-116512438D02*
X120344405Y-116560057D01*
X120344405Y-116560057D02*
X120296786Y-116655295D01*
X120296786Y-116655295D02*
X120296786Y-116893390D01*
X120296786Y-116893390D02*
X120344405Y-116988628D01*
X120344405Y-116988628D02*
X120392024Y-117036247D01*
X120392024Y-117036247D02*
X120487262Y-117083866D01*
X120487262Y-117083866D02*
X120677738Y-117083866D01*
X120677738Y-117083866D02*
X120772976Y-117036247D01*
X120772976Y-117036247D02*
X120820595Y-116988628D01*
X120820595Y-116988628D02*
X120868214Y-116893390D01*
X109973333Y-74129580D02*
X109925714Y-74177200D01*
X109925714Y-74177200D02*
X109782857Y-74224819D01*
X109782857Y-74224819D02*
X109687619Y-74224819D01*
X109687619Y-74224819D02*
X109544762Y-74177200D01*
X109544762Y-74177200D02*
X109449524Y-74081961D01*
X109449524Y-74081961D02*
X109401905Y-73986723D01*
X109401905Y-73986723D02*
X109354286Y-73796247D01*
X109354286Y-73796247D02*
X109354286Y-73653390D01*
X109354286Y-73653390D02*
X109401905Y-73462914D01*
X109401905Y-73462914D02*
X109449524Y-73367676D01*
X109449524Y-73367676D02*
X109544762Y-73272438D01*
X109544762Y-73272438D02*
X109687619Y-73224819D01*
X109687619Y-73224819D02*
X109782857Y-73224819D01*
X109782857Y-73224819D02*
X109925714Y-73272438D01*
X109925714Y-73272438D02*
X109973333Y-73320057D01*
X110354286Y-73320057D02*
X110401905Y-73272438D01*
X110401905Y-73272438D02*
X110497143Y-73224819D01*
X110497143Y-73224819D02*
X110735238Y-73224819D01*
X110735238Y-73224819D02*
X110830476Y-73272438D01*
X110830476Y-73272438D02*
X110878095Y-73320057D01*
X110878095Y-73320057D02*
X110925714Y-73415295D01*
X110925714Y-73415295D02*
X110925714Y-73510533D01*
X110925714Y-73510533D02*
X110878095Y-73653390D01*
X110878095Y-73653390D02*
X110306667Y-74224819D01*
X110306667Y-74224819D02*
X110925714Y-74224819D01*
D15*
X106153471Y-99011156D02*
X106124900Y-98982584D01*
X106124900Y-98982584D02*
X106096328Y-98896870D01*
X106096328Y-98896870D02*
X106096328Y-98839727D01*
X106096328Y-98839727D02*
X106124900Y-98754013D01*
X106124900Y-98754013D02*
X106182042Y-98696870D01*
X106182042Y-98696870D02*
X106239185Y-98668299D01*
X106239185Y-98668299D02*
X106353471Y-98639727D01*
X106353471Y-98639727D02*
X106439185Y-98639727D01*
X106439185Y-98639727D02*
X106553471Y-98668299D01*
X106553471Y-98668299D02*
X106610614Y-98696870D01*
X106610614Y-98696870D02*
X106667757Y-98754013D01*
X106667757Y-98754013D02*
X106696328Y-98839727D01*
X106696328Y-98839727D02*
X106696328Y-98896870D01*
X106696328Y-98896870D02*
X106667757Y-98982584D01*
X106667757Y-98982584D02*
X106639185Y-99011156D01*
X106439185Y-99354013D02*
X106467757Y-99296870D01*
X106467757Y-99296870D02*
X106496328Y-99268299D01*
X106496328Y-99268299D02*
X106553471Y-99239727D01*
X106553471Y-99239727D02*
X106582042Y-99239727D01*
X106582042Y-99239727D02*
X106639185Y-99268299D01*
X106639185Y-99268299D02*
X106667757Y-99296870D01*
X106667757Y-99296870D02*
X106696328Y-99354013D01*
X106696328Y-99354013D02*
X106696328Y-99468299D01*
X106696328Y-99468299D02*
X106667757Y-99525442D01*
X106667757Y-99525442D02*
X106639185Y-99554013D01*
X106639185Y-99554013D02*
X106582042Y-99582584D01*
X106582042Y-99582584D02*
X106553471Y-99582584D01*
X106553471Y-99582584D02*
X106496328Y-99554013D01*
X106496328Y-99554013D02*
X106467757Y-99525442D01*
X106467757Y-99525442D02*
X106439185Y-99468299D01*
X106439185Y-99468299D02*
X106439185Y-99354013D01*
X106439185Y-99354013D02*
X106410614Y-99296870D01*
X106410614Y-99296870D02*
X106382042Y-99268299D01*
X106382042Y-99268299D02*
X106324900Y-99239727D01*
X106324900Y-99239727D02*
X106210614Y-99239727D01*
X106210614Y-99239727D02*
X106153471Y-99268299D01*
X106153471Y-99268299D02*
X106124900Y-99296870D01*
X106124900Y-99296870D02*
X106096328Y-99354013D01*
X106096328Y-99354013D02*
X106096328Y-99468299D01*
X106096328Y-99468299D02*
X106124900Y-99525442D01*
X106124900Y-99525442D02*
X106153471Y-99554013D01*
X106153471Y-99554013D02*
X106210614Y-99582584D01*
X106210614Y-99582584D02*
X106324900Y-99582584D01*
X106324900Y-99582584D02*
X106382042Y-99554013D01*
X106382042Y-99554013D02*
X106410614Y-99525442D01*
X106410614Y-99525442D02*
X106439185Y-99468299D01*
D16*
X116082447Y-99998095D02*
X116082447Y-100226666D01*
X116082447Y-100112380D02*
X115682447Y-100112380D01*
X115682447Y-100112380D02*
X115739590Y-100150476D01*
X115739590Y-100150476D02*
X115777685Y-100188571D01*
X115777685Y-100188571D02*
X115796733Y-100226666D01*
X115682447Y-99750476D02*
X115682447Y-99712381D01*
X115682447Y-99712381D02*
X115701495Y-99674285D01*
X115701495Y-99674285D02*
X115720542Y-99655238D01*
X115720542Y-99655238D02*
X115758638Y-99636190D01*
X115758638Y-99636190D02*
X115834828Y-99617143D01*
X115834828Y-99617143D02*
X115930066Y-99617143D01*
X115930066Y-99617143D02*
X116006257Y-99636190D01*
X116006257Y-99636190D02*
X116044352Y-99655238D01*
X116044352Y-99655238D02*
X116063400Y-99674285D01*
X116063400Y-99674285D02*
X116082447Y-99712381D01*
X116082447Y-99712381D02*
X116082447Y-99750476D01*
X116082447Y-99750476D02*
X116063400Y-99788571D01*
X116063400Y-99788571D02*
X116044352Y-99807619D01*
X116044352Y-99807619D02*
X116006257Y-99826666D01*
X116006257Y-99826666D02*
X115930066Y-99845714D01*
X115930066Y-99845714D02*
X115834828Y-99845714D01*
X115834828Y-99845714D02*
X115758638Y-99826666D01*
X115758638Y-99826666D02*
X115720542Y-99807619D01*
X115720542Y-99807619D02*
X115701495Y-99788571D01*
X115701495Y-99788571D02*
X115682447Y-99750476D01*
X116082447Y-99445714D02*
X115682447Y-99445714D01*
X115930066Y-99407619D02*
X116082447Y-99293333D01*
X115815780Y-99293333D02*
X115968161Y-99445714D01*
X115442447Y-99716666D02*
X115251971Y-99849999D01*
X115442447Y-99945237D02*
X115042447Y-99945237D01*
X115042447Y-99945237D02*
X115042447Y-99792856D01*
X115042447Y-99792856D02*
X115061495Y-99754761D01*
X115061495Y-99754761D02*
X115080542Y-99735714D01*
X115080542Y-99735714D02*
X115118638Y-99716666D01*
X115118638Y-99716666D02*
X115175780Y-99716666D01*
X115175780Y-99716666D02*
X115213876Y-99735714D01*
X115213876Y-99735714D02*
X115232923Y-99754761D01*
X115232923Y-99754761D02*
X115251971Y-99792856D01*
X115251971Y-99792856D02*
X115251971Y-99945237D01*
X115080542Y-99564285D02*
X115061495Y-99545237D01*
X115061495Y-99545237D02*
X115042447Y-99507142D01*
X115042447Y-99507142D02*
X115042447Y-99411904D01*
X115042447Y-99411904D02*
X115061495Y-99373809D01*
X115061495Y-99373809D02*
X115080542Y-99354761D01*
X115080542Y-99354761D02*
X115118638Y-99335714D01*
X115118638Y-99335714D02*
X115156733Y-99335714D01*
X115156733Y-99335714D02*
X115213876Y-99354761D01*
X115213876Y-99354761D02*
X115442447Y-99583333D01*
X115442447Y-99583333D02*
X115442447Y-99335714D01*
D10*
X143738095Y-74481819D02*
X143738095Y-75291342D01*
X143738095Y-75291342D02*
X143785714Y-75386580D01*
X143785714Y-75386580D02*
X143833333Y-75434200D01*
X143833333Y-75434200D02*
X143928571Y-75481819D01*
X143928571Y-75481819D02*
X144119047Y-75481819D01*
X144119047Y-75481819D02*
X144214285Y-75434200D01*
X144214285Y-75434200D02*
X144261904Y-75386580D01*
X144261904Y-75386580D02*
X144309523Y-75291342D01*
X144309523Y-75291342D02*
X144309523Y-74481819D01*
X145309523Y-75481819D02*
X144738095Y-75481819D01*
X145023809Y-75481819D02*
X145023809Y-74481819D01*
X145023809Y-74481819D02*
X144928571Y-74624676D01*
X144928571Y-74624676D02*
X144833333Y-74719914D01*
X144833333Y-74719914D02*
X144738095Y-74767533D01*
D16*
X119357463Y-92174352D02*
X119338415Y-92193400D01*
X119338415Y-92193400D02*
X119281273Y-92212447D01*
X119281273Y-92212447D02*
X119243177Y-92212447D01*
X119243177Y-92212447D02*
X119186034Y-92193400D01*
X119186034Y-92193400D02*
X119147939Y-92155304D01*
X119147939Y-92155304D02*
X119128892Y-92117209D01*
X119128892Y-92117209D02*
X119109844Y-92041019D01*
X119109844Y-92041019D02*
X119109844Y-91983876D01*
X119109844Y-91983876D02*
X119128892Y-91907685D01*
X119128892Y-91907685D02*
X119147939Y-91869590D01*
X119147939Y-91869590D02*
X119186034Y-91831495D01*
X119186034Y-91831495D02*
X119243177Y-91812447D01*
X119243177Y-91812447D02*
X119281273Y-91812447D01*
X119281273Y-91812447D02*
X119338415Y-91831495D01*
X119338415Y-91831495D02*
X119357463Y-91850542D01*
X119490796Y-91812447D02*
X119757463Y-91812447D01*
X119757463Y-91812447D02*
X119586034Y-92212447D01*
D15*
X108085056Y-86826528D02*
X108056484Y-86855100D01*
X108056484Y-86855100D02*
X107970770Y-86883671D01*
X107970770Y-86883671D02*
X107913627Y-86883671D01*
X107913627Y-86883671D02*
X107827913Y-86855100D01*
X107827913Y-86855100D02*
X107770770Y-86797957D01*
X107770770Y-86797957D02*
X107742199Y-86740814D01*
X107742199Y-86740814D02*
X107713627Y-86626528D01*
X107713627Y-86626528D02*
X107713627Y-86540814D01*
X107713627Y-86540814D02*
X107742199Y-86426528D01*
X107742199Y-86426528D02*
X107770770Y-86369385D01*
X107770770Y-86369385D02*
X107827913Y-86312242D01*
X107827913Y-86312242D02*
X107913627Y-86283671D01*
X107913627Y-86283671D02*
X107970770Y-86283671D01*
X107970770Y-86283671D02*
X108056484Y-86312242D01*
X108056484Y-86312242D02*
X108085056Y-86340814D01*
X108656484Y-86883671D02*
X108313627Y-86883671D01*
X108485056Y-86883671D02*
X108485056Y-86283671D01*
X108485056Y-86283671D02*
X108427913Y-86369385D01*
X108427913Y-86369385D02*
X108370770Y-86426528D01*
X108370770Y-86426528D02*
X108313627Y-86455100D01*
D10*
X111256666Y-114559819D02*
X111256666Y-115274104D01*
X111256666Y-115274104D02*
X111209047Y-115416961D01*
X111209047Y-115416961D02*
X111113809Y-115512200D01*
X111113809Y-115512200D02*
X110970952Y-115559819D01*
X110970952Y-115559819D02*
X110875714Y-115559819D01*
X112256666Y-115559819D02*
X111685238Y-115559819D01*
X111970952Y-115559819D02*
X111970952Y-114559819D01*
X111970952Y-114559819D02*
X111875714Y-114702676D01*
X111875714Y-114702676D02*
X111780476Y-114797914D01*
X111780476Y-114797914D02*
X111685238Y-114845533D01*
D16*
X118212447Y-100318571D02*
X118212447Y-100547142D01*
X118212447Y-100432856D02*
X117812447Y-100432856D01*
X117812447Y-100432856D02*
X117869590Y-100470952D01*
X117869590Y-100470952D02*
X117907685Y-100509047D01*
X117907685Y-100509047D02*
X117926733Y-100547142D01*
X117812447Y-100070952D02*
X117812447Y-100032857D01*
X117812447Y-100032857D02*
X117831495Y-99994761D01*
X117831495Y-99994761D02*
X117850542Y-99975714D01*
X117850542Y-99975714D02*
X117888638Y-99956666D01*
X117888638Y-99956666D02*
X117964828Y-99937619D01*
X117964828Y-99937619D02*
X118060066Y-99937619D01*
X118060066Y-99937619D02*
X118136257Y-99956666D01*
X118136257Y-99956666D02*
X118174352Y-99975714D01*
X118174352Y-99975714D02*
X118193400Y-99994761D01*
X118193400Y-99994761D02*
X118212447Y-100032857D01*
X118212447Y-100032857D02*
X118212447Y-100070952D01*
X118212447Y-100070952D02*
X118193400Y-100109047D01*
X118193400Y-100109047D02*
X118174352Y-100128095D01*
X118174352Y-100128095D02*
X118136257Y-100147142D01*
X118136257Y-100147142D02*
X118060066Y-100166190D01*
X118060066Y-100166190D02*
X117964828Y-100166190D01*
X117964828Y-100166190D02*
X117888638Y-100147142D01*
X117888638Y-100147142D02*
X117850542Y-100128095D01*
X117850542Y-100128095D02*
X117831495Y-100109047D01*
X117831495Y-100109047D02*
X117812447Y-100070952D01*
X117812447Y-99690000D02*
X117812447Y-99651905D01*
X117812447Y-99651905D02*
X117831495Y-99613809D01*
X117831495Y-99613809D02*
X117850542Y-99594762D01*
X117850542Y-99594762D02*
X117888638Y-99575714D01*
X117888638Y-99575714D02*
X117964828Y-99556667D01*
X117964828Y-99556667D02*
X118060066Y-99556667D01*
X118060066Y-99556667D02*
X118136257Y-99575714D01*
X118136257Y-99575714D02*
X118174352Y-99594762D01*
X118174352Y-99594762D02*
X118193400Y-99613809D01*
X118193400Y-99613809D02*
X118212447Y-99651905D01*
X118212447Y-99651905D02*
X118212447Y-99690000D01*
X118212447Y-99690000D02*
X118193400Y-99728095D01*
X118193400Y-99728095D02*
X118174352Y-99747143D01*
X118174352Y-99747143D02*
X118136257Y-99766190D01*
X118136257Y-99766190D02*
X118060066Y-99785238D01*
X118060066Y-99785238D02*
X117964828Y-99785238D01*
X117964828Y-99785238D02*
X117888638Y-99766190D01*
X117888638Y-99766190D02*
X117850542Y-99747143D01*
X117850542Y-99747143D02*
X117831495Y-99728095D01*
X117831495Y-99728095D02*
X117812447Y-99690000D01*
X118212447Y-99385238D02*
X117812447Y-99385238D01*
X118060066Y-99347143D02*
X118212447Y-99232857D01*
X117945780Y-99232857D02*
X118098161Y-99385238D01*
X117542447Y-99616666D02*
X117351971Y-99749999D01*
X117542447Y-99845237D02*
X117142447Y-99845237D01*
X117142447Y-99845237D02*
X117142447Y-99692856D01*
X117142447Y-99692856D02*
X117161495Y-99654761D01*
X117161495Y-99654761D02*
X117180542Y-99635714D01*
X117180542Y-99635714D02*
X117218638Y-99616666D01*
X117218638Y-99616666D02*
X117275780Y-99616666D01*
X117275780Y-99616666D02*
X117313876Y-99635714D01*
X117313876Y-99635714D02*
X117332923Y-99654761D01*
X117332923Y-99654761D02*
X117351971Y-99692856D01*
X117351971Y-99692856D02*
X117351971Y-99845237D01*
X117542447Y-99235714D02*
X117542447Y-99464285D01*
X117542447Y-99349999D02*
X117142447Y-99349999D01*
X117142447Y-99349999D02*
X117199590Y-99388095D01*
X117199590Y-99388095D02*
X117237685Y-99426190D01*
X117237685Y-99426190D02*
X117256733Y-99464285D01*
D15*
X142844943Y-77343471D02*
X142873515Y-77314900D01*
X142873515Y-77314900D02*
X142959229Y-77286328D01*
X142959229Y-77286328D02*
X143016372Y-77286328D01*
X143016372Y-77286328D02*
X143102086Y-77314900D01*
X143102086Y-77314900D02*
X143159229Y-77372042D01*
X143159229Y-77372042D02*
X143187800Y-77429185D01*
X143187800Y-77429185D02*
X143216372Y-77543471D01*
X143216372Y-77543471D02*
X143216372Y-77629185D01*
X143216372Y-77629185D02*
X143187800Y-77743471D01*
X143187800Y-77743471D02*
X143159229Y-77800614D01*
X143159229Y-77800614D02*
X143102086Y-77857757D01*
X143102086Y-77857757D02*
X143016372Y-77886328D01*
X143016372Y-77886328D02*
X142959229Y-77886328D01*
X142959229Y-77886328D02*
X142873515Y-77857757D01*
X142873515Y-77857757D02*
X142844943Y-77829185D01*
X142302086Y-77886328D02*
X142587800Y-77886328D01*
X142587800Y-77886328D02*
X142616372Y-77600614D01*
X142616372Y-77600614D02*
X142587800Y-77629185D01*
X142587800Y-77629185D02*
X142530658Y-77657757D01*
X142530658Y-77657757D02*
X142387800Y-77657757D01*
X142387800Y-77657757D02*
X142330658Y-77629185D01*
X142330658Y-77629185D02*
X142302086Y-77600614D01*
X142302086Y-77600614D02*
X142273515Y-77543471D01*
X142273515Y-77543471D02*
X142273515Y-77400614D01*
X142273515Y-77400614D02*
X142302086Y-77343471D01*
X142302086Y-77343471D02*
X142330658Y-77314900D01*
X142330658Y-77314900D02*
X142387800Y-77286328D01*
X142387800Y-77286328D02*
X142530658Y-77286328D01*
X142530658Y-77286328D02*
X142587800Y-77314900D01*
X142587800Y-77314900D02*
X142616372Y-77343471D01*
D16*
X118100796Y-90155647D02*
X118119844Y-90136600D01*
X118119844Y-90136600D02*
X118176986Y-90117552D01*
X118176986Y-90117552D02*
X118215082Y-90117552D01*
X118215082Y-90117552D02*
X118272225Y-90136600D01*
X118272225Y-90136600D02*
X118310320Y-90174695D01*
X118310320Y-90174695D02*
X118329367Y-90212790D01*
X118329367Y-90212790D02*
X118348415Y-90288980D01*
X118348415Y-90288980D02*
X118348415Y-90346123D01*
X118348415Y-90346123D02*
X118329367Y-90422314D01*
X118329367Y-90422314D02*
X118310320Y-90460409D01*
X118310320Y-90460409D02*
X118272225Y-90498504D01*
X118272225Y-90498504D02*
X118215082Y-90517552D01*
X118215082Y-90517552D02*
X118176986Y-90517552D01*
X118176986Y-90517552D02*
X118119844Y-90498504D01*
X118119844Y-90498504D02*
X118100796Y-90479457D01*
X117757939Y-90517552D02*
X117834129Y-90517552D01*
X117834129Y-90517552D02*
X117872225Y-90498504D01*
X117872225Y-90498504D02*
X117891272Y-90479457D01*
X117891272Y-90479457D02*
X117929367Y-90422314D01*
X117929367Y-90422314D02*
X117948415Y-90346123D01*
X117948415Y-90346123D02*
X117948415Y-90193742D01*
X117948415Y-90193742D02*
X117929367Y-90155647D01*
X117929367Y-90155647D02*
X117910320Y-90136600D01*
X117910320Y-90136600D02*
X117872225Y-90117552D01*
X117872225Y-90117552D02*
X117796034Y-90117552D01*
X117796034Y-90117552D02*
X117757939Y-90136600D01*
X117757939Y-90136600D02*
X117738891Y-90155647D01*
X117738891Y-90155647D02*
X117719844Y-90193742D01*
X117719844Y-90193742D02*
X117719844Y-90288980D01*
X117719844Y-90288980D02*
X117738891Y-90327076D01*
X117738891Y-90327076D02*
X117757939Y-90346123D01*
X117757939Y-90346123D02*
X117796034Y-90365171D01*
X117796034Y-90365171D02*
X117872225Y-90365171D01*
X117872225Y-90365171D02*
X117910320Y-90346123D01*
X117910320Y-90346123D02*
X117929367Y-90327076D01*
X117929367Y-90327076D02*
X117948415Y-90288980D01*
D10*
X107620951Y-103204819D02*
X107620951Y-102204819D01*
X107620951Y-102204819D02*
X108001903Y-102204819D01*
X108001903Y-102204819D02*
X108097141Y-102252438D01*
X108097141Y-102252438D02*
X108144760Y-102300057D01*
X108144760Y-102300057D02*
X108192379Y-102395295D01*
X108192379Y-102395295D02*
X108192379Y-102538152D01*
X108192379Y-102538152D02*
X108144760Y-102633390D01*
X108144760Y-102633390D02*
X108097141Y-102681009D01*
X108097141Y-102681009D02*
X108001903Y-102728628D01*
X108001903Y-102728628D02*
X107620951Y-102728628D01*
X108763808Y-103204819D02*
X108668570Y-103157200D01*
X108668570Y-103157200D02*
X108620951Y-103109580D01*
X108620951Y-103109580D02*
X108573332Y-103014342D01*
X108573332Y-103014342D02*
X108573332Y-102728628D01*
X108573332Y-102728628D02*
X108620951Y-102633390D01*
X108620951Y-102633390D02*
X108668570Y-102585771D01*
X108668570Y-102585771D02*
X108763808Y-102538152D01*
X108763808Y-102538152D02*
X108906665Y-102538152D01*
X108906665Y-102538152D02*
X109001903Y-102585771D01*
X109001903Y-102585771D02*
X109049522Y-102633390D01*
X109049522Y-102633390D02*
X109097141Y-102728628D01*
X109097141Y-102728628D02*
X109097141Y-103014342D01*
X109097141Y-103014342D02*
X109049522Y-103109580D01*
X109049522Y-103109580D02*
X109001903Y-103157200D01*
X109001903Y-103157200D02*
X108906665Y-103204819D01*
X108906665Y-103204819D02*
X108763808Y-103204819D01*
X109668570Y-103204819D02*
X109573332Y-103157200D01*
X109573332Y-103157200D02*
X109525713Y-103061961D01*
X109525713Y-103061961D02*
X109525713Y-102204819D01*
X110192380Y-103204819D02*
X110097142Y-103157200D01*
X110097142Y-103157200D02*
X110049523Y-103109580D01*
X110049523Y-103109580D02*
X110001904Y-103014342D01*
X110001904Y-103014342D02*
X110001904Y-102728628D01*
X110001904Y-102728628D02*
X110049523Y-102633390D01*
X110049523Y-102633390D02*
X110097142Y-102585771D01*
X110097142Y-102585771D02*
X110192380Y-102538152D01*
X110192380Y-102538152D02*
X110335237Y-102538152D01*
X110335237Y-102538152D02*
X110430475Y-102585771D01*
X110430475Y-102585771D02*
X110478094Y-102633390D01*
X110478094Y-102633390D02*
X110525713Y-102728628D01*
X110525713Y-102728628D02*
X110525713Y-103014342D01*
X110525713Y-103014342D02*
X110478094Y-103109580D01*
X110478094Y-103109580D02*
X110430475Y-103157200D01*
X110430475Y-103157200D02*
X110335237Y-103204819D01*
X110335237Y-103204819D02*
X110192380Y-103204819D01*
X111097142Y-103204819D02*
X111001904Y-103157200D01*
X111001904Y-103157200D02*
X110954285Y-103061961D01*
X110954285Y-103061961D02*
X110954285Y-102204819D01*
X111906666Y-102538152D02*
X111906666Y-103204819D01*
X111478095Y-102538152D02*
X111478095Y-103061961D01*
X111478095Y-103061961D02*
X111525714Y-103157200D01*
X111525714Y-103157200D02*
X111620952Y-103204819D01*
X111620952Y-103204819D02*
X111763809Y-103204819D01*
X111763809Y-103204819D02*
X111859047Y-103157200D01*
X111859047Y-103157200D02*
X111906666Y-103109580D01*
X112144762Y-103300057D02*
X112906666Y-103300057D01*
X113144762Y-103204819D02*
X113144762Y-102204819D01*
X113144762Y-102204819D02*
X113382857Y-102204819D01*
X113382857Y-102204819D02*
X113525714Y-102252438D01*
X113525714Y-102252438D02*
X113620952Y-102347676D01*
X113620952Y-102347676D02*
X113668571Y-102442914D01*
X113668571Y-102442914D02*
X113716190Y-102633390D01*
X113716190Y-102633390D02*
X113716190Y-102776247D01*
X113716190Y-102776247D02*
X113668571Y-102966723D01*
X113668571Y-102966723D02*
X113620952Y-103061961D01*
X113620952Y-103061961D02*
X113525714Y-103157200D01*
X113525714Y-103157200D02*
X113382857Y-103204819D01*
X113382857Y-103204819D02*
X113144762Y-103204819D01*
X114097143Y-102300057D02*
X114144762Y-102252438D01*
X114144762Y-102252438D02*
X114240000Y-102204819D01*
X114240000Y-102204819D02*
X114478095Y-102204819D01*
X114478095Y-102204819D02*
X114573333Y-102252438D01*
X114573333Y-102252438D02*
X114620952Y-102300057D01*
X114620952Y-102300057D02*
X114668571Y-102395295D01*
X114668571Y-102395295D02*
X114668571Y-102490533D01*
X114668571Y-102490533D02*
X114620952Y-102633390D01*
X114620952Y-102633390D02*
X114049524Y-103204819D01*
X114049524Y-103204819D02*
X114668571Y-103204819D01*
X115525714Y-102538152D02*
X115525714Y-103204819D01*
X115287619Y-102157200D02*
X115049524Y-102871485D01*
X115049524Y-102871485D02*
X115668571Y-102871485D01*
X115906667Y-102204819D02*
X116240000Y-103204819D01*
X116240000Y-103204819D02*
X116573333Y-102204819D01*
X117382857Y-102204819D02*
X116906667Y-102204819D01*
X116906667Y-102204819D02*
X116859048Y-102681009D01*
X116859048Y-102681009D02*
X116906667Y-102633390D01*
X116906667Y-102633390D02*
X117001905Y-102585771D01*
X117001905Y-102585771D02*
X117240000Y-102585771D01*
X117240000Y-102585771D02*
X117335238Y-102633390D01*
X117335238Y-102633390D02*
X117382857Y-102681009D01*
X117382857Y-102681009D02*
X117430476Y-102776247D01*
X117430476Y-102776247D02*
X117430476Y-103014342D01*
X117430476Y-103014342D02*
X117382857Y-103109580D01*
X117382857Y-103109580D02*
X117335238Y-103157200D01*
X117335238Y-103157200D02*
X117240000Y-103204819D01*
X117240000Y-103204819D02*
X117001905Y-103204819D01*
X117001905Y-103204819D02*
X116906667Y-103157200D01*
X116906667Y-103157200D02*
X116859048Y-103109580D01*
X118049524Y-102204819D02*
X118144762Y-102204819D01*
X118144762Y-102204819D02*
X118240000Y-102252438D01*
X118240000Y-102252438D02*
X118287619Y-102300057D01*
X118287619Y-102300057D02*
X118335238Y-102395295D01*
X118335238Y-102395295D02*
X118382857Y-102585771D01*
X118382857Y-102585771D02*
X118382857Y-102823866D01*
X118382857Y-102823866D02*
X118335238Y-103014342D01*
X118335238Y-103014342D02*
X118287619Y-103109580D01*
X118287619Y-103109580D02*
X118240000Y-103157200D01*
X118240000Y-103157200D02*
X118144762Y-103204819D01*
X118144762Y-103204819D02*
X118049524Y-103204819D01*
X118049524Y-103204819D02*
X117954286Y-103157200D01*
X117954286Y-103157200D02*
X117906667Y-103109580D01*
X117906667Y-103109580D02*
X117859048Y-103014342D01*
X117859048Y-103014342D02*
X117811429Y-102823866D01*
X117811429Y-102823866D02*
X117811429Y-102585771D01*
X117811429Y-102585771D02*
X117859048Y-102395295D01*
X117859048Y-102395295D02*
X117906667Y-102300057D01*
X117906667Y-102300057D02*
X117954286Y-102252438D01*
X117954286Y-102252438D02*
X118049524Y-102204819D01*
X119144762Y-102681009D02*
X118811429Y-102681009D01*
X118811429Y-103204819D02*
X118811429Y-102204819D01*
X118811429Y-102204819D02*
X119287619Y-102204819D01*
X120144762Y-102204819D02*
X119668572Y-102204819D01*
X119668572Y-102204819D02*
X119620953Y-102681009D01*
X119620953Y-102681009D02*
X119668572Y-102633390D01*
X119668572Y-102633390D02*
X119763810Y-102585771D01*
X119763810Y-102585771D02*
X120001905Y-102585771D01*
X120001905Y-102585771D02*
X120097143Y-102633390D01*
X120097143Y-102633390D02*
X120144762Y-102681009D01*
X120144762Y-102681009D02*
X120192381Y-102776247D01*
X120192381Y-102776247D02*
X120192381Y-103014342D01*
X120192381Y-103014342D02*
X120144762Y-103109580D01*
X120144762Y-103109580D02*
X120097143Y-103157200D01*
X120097143Y-103157200D02*
X120001905Y-103204819D01*
X120001905Y-103204819D02*
X119763810Y-103204819D01*
X119763810Y-103204819D02*
X119668572Y-103157200D01*
X119668572Y-103157200D02*
X119620953Y-103109580D01*
X120382858Y-103300057D02*
X121144762Y-103300057D01*
X121859048Y-102204819D02*
X121382858Y-102204819D01*
X121382858Y-102204819D02*
X121335239Y-102681009D01*
X121335239Y-102681009D02*
X121382858Y-102633390D01*
X121382858Y-102633390D02*
X121478096Y-102585771D01*
X121478096Y-102585771D02*
X121716191Y-102585771D01*
X121716191Y-102585771D02*
X121811429Y-102633390D01*
X121811429Y-102633390D02*
X121859048Y-102681009D01*
X121859048Y-102681009D02*
X121906667Y-102776247D01*
X121906667Y-102776247D02*
X121906667Y-103014342D01*
X121906667Y-103014342D02*
X121859048Y-103109580D01*
X121859048Y-103109580D02*
X121811429Y-103157200D01*
X121811429Y-103157200D02*
X121716191Y-103204819D01*
X121716191Y-103204819D02*
X121478096Y-103204819D01*
X121478096Y-103204819D02*
X121382858Y-103157200D01*
X121382858Y-103157200D02*
X121335239Y-103109580D01*
D17*
X122070000Y-90663855D02*
X122222381Y-90663855D01*
X122222381Y-90663855D02*
X122298571Y-90701950D01*
X122298571Y-90701950D02*
X122374762Y-90778140D01*
X122374762Y-90778140D02*
X122412857Y-90930521D01*
X122412857Y-90930521D02*
X122412857Y-91197188D01*
X122412857Y-91197188D02*
X122374762Y-91349569D01*
X122374762Y-91349569D02*
X122298571Y-91425760D01*
X122298571Y-91425760D02*
X122222381Y-91463855D01*
X122222381Y-91463855D02*
X122070000Y-91463855D01*
X122070000Y-91463855D02*
X121993809Y-91425760D01*
X121993809Y-91425760D02*
X121917619Y-91349569D01*
X121917619Y-91349569D02*
X121879523Y-91197188D01*
X121879523Y-91197188D02*
X121879523Y-90930521D01*
X121879523Y-90930521D02*
X121917619Y-90778140D01*
X121917619Y-90778140D02*
X121993809Y-90701950D01*
X121993809Y-90701950D02*
X122070000Y-90663855D01*
X122755714Y-90663855D02*
X122755714Y-91311474D01*
X122755714Y-91311474D02*
X122793809Y-91387664D01*
X122793809Y-91387664D02*
X122831904Y-91425760D01*
X122831904Y-91425760D02*
X122908095Y-91463855D01*
X122908095Y-91463855D02*
X123060476Y-91463855D01*
X123060476Y-91463855D02*
X123136666Y-91425760D01*
X123136666Y-91425760D02*
X123174761Y-91387664D01*
X123174761Y-91387664D02*
X123212857Y-91311474D01*
X123212857Y-91311474D02*
X123212857Y-90663855D01*
X123479523Y-90663855D02*
X123936666Y-90663855D01*
X123708094Y-91463855D02*
X123708094Y-90663855D01*
X122160476Y-95701950D02*
X122084286Y-95663855D01*
X122084286Y-95663855D02*
X121970000Y-95663855D01*
X121970000Y-95663855D02*
X121855714Y-95701950D01*
X121855714Y-95701950D02*
X121779524Y-95778140D01*
X121779524Y-95778140D02*
X121741429Y-95854331D01*
X121741429Y-95854331D02*
X121703333Y-96006712D01*
X121703333Y-96006712D02*
X121703333Y-96120998D01*
X121703333Y-96120998D02*
X121741429Y-96273379D01*
X121741429Y-96273379D02*
X121779524Y-96349569D01*
X121779524Y-96349569D02*
X121855714Y-96425760D01*
X121855714Y-96425760D02*
X121970000Y-96463855D01*
X121970000Y-96463855D02*
X122046191Y-96463855D01*
X122046191Y-96463855D02*
X122160476Y-96425760D01*
X122160476Y-96425760D02*
X122198572Y-96387664D01*
X122198572Y-96387664D02*
X122198572Y-96120998D01*
X122198572Y-96120998D02*
X122046191Y-96120998D01*
X122541429Y-96463855D02*
X122541429Y-95663855D01*
X122541429Y-95663855D02*
X122998572Y-96463855D01*
X122998572Y-96463855D02*
X122998572Y-95663855D01*
X123379524Y-96463855D02*
X123379524Y-95663855D01*
X123379524Y-95663855D02*
X123570000Y-95663855D01*
X123570000Y-95663855D02*
X123684286Y-95701950D01*
X123684286Y-95701950D02*
X123760476Y-95778140D01*
X123760476Y-95778140D02*
X123798571Y-95854331D01*
X123798571Y-95854331D02*
X123836667Y-96006712D01*
X123836667Y-96006712D02*
X123836667Y-96120998D01*
X123836667Y-96120998D02*
X123798571Y-96273379D01*
X123798571Y-96273379D02*
X123760476Y-96349569D01*
X123760476Y-96349569D02*
X123684286Y-96425760D01*
X123684286Y-96425760D02*
X123570000Y-96463855D01*
X123570000Y-96463855D02*
X123379524Y-96463855D01*
X122160476Y-93151950D02*
X122084286Y-93113855D01*
X122084286Y-93113855D02*
X121970000Y-93113855D01*
X121970000Y-93113855D02*
X121855714Y-93151950D01*
X121855714Y-93151950D02*
X121779524Y-93228140D01*
X121779524Y-93228140D02*
X121741429Y-93304331D01*
X121741429Y-93304331D02*
X121703333Y-93456712D01*
X121703333Y-93456712D02*
X121703333Y-93570998D01*
X121703333Y-93570998D02*
X121741429Y-93723379D01*
X121741429Y-93723379D02*
X121779524Y-93799569D01*
X121779524Y-93799569D02*
X121855714Y-93875760D01*
X121855714Y-93875760D02*
X121970000Y-93913855D01*
X121970000Y-93913855D02*
X122046191Y-93913855D01*
X122046191Y-93913855D02*
X122160476Y-93875760D01*
X122160476Y-93875760D02*
X122198572Y-93837664D01*
X122198572Y-93837664D02*
X122198572Y-93570998D01*
X122198572Y-93570998D02*
X122046191Y-93570998D01*
X122541429Y-93913855D02*
X122541429Y-93113855D01*
X122541429Y-93113855D02*
X122998572Y-93913855D01*
X122998572Y-93913855D02*
X122998572Y-93113855D01*
X123379524Y-93913855D02*
X123379524Y-93113855D01*
X123379524Y-93113855D02*
X123570000Y-93113855D01*
X123570000Y-93113855D02*
X123684286Y-93151950D01*
X123684286Y-93151950D02*
X123760476Y-93228140D01*
X123760476Y-93228140D02*
X123798571Y-93304331D01*
X123798571Y-93304331D02*
X123836667Y-93456712D01*
X123836667Y-93456712D02*
X123836667Y-93570998D01*
X123836667Y-93570998D02*
X123798571Y-93723379D01*
X123798571Y-93723379D02*
X123760476Y-93799569D01*
X123760476Y-93799569D02*
X123684286Y-93875760D01*
X123684286Y-93875760D02*
X123570000Y-93913855D01*
X123570000Y-93913855D02*
X123379524Y-93913855D01*
X122679524Y-101144807D02*
X122946190Y-101144807D01*
X123060476Y-101563855D02*
X122679524Y-101563855D01*
X122679524Y-101563855D02*
X122679524Y-100763855D01*
X122679524Y-100763855D02*
X123060476Y-100763855D01*
X123403334Y-101563855D02*
X123403334Y-100763855D01*
X123403334Y-100763855D02*
X123860477Y-101563855D01*
X123860477Y-101563855D02*
X123860477Y-100763855D01*
D16*
X109075237Y-97167552D02*
X109075237Y-97567552D01*
X109075237Y-97567552D02*
X108979999Y-97567552D01*
X108979999Y-97567552D02*
X108922856Y-97548504D01*
X108922856Y-97548504D02*
X108884761Y-97510409D01*
X108884761Y-97510409D02*
X108865714Y-97472314D01*
X108865714Y-97472314D02*
X108846666Y-97396123D01*
X108846666Y-97396123D02*
X108846666Y-97338980D01*
X108846666Y-97338980D02*
X108865714Y-97262790D01*
X108865714Y-97262790D02*
X108884761Y-97224695D01*
X108884761Y-97224695D02*
X108922856Y-97186600D01*
X108922856Y-97186600D02*
X108979999Y-97167552D01*
X108979999Y-97167552D02*
X109075237Y-97167552D01*
X108694285Y-97529457D02*
X108675237Y-97548504D01*
X108675237Y-97548504D02*
X108637142Y-97567552D01*
X108637142Y-97567552D02*
X108541904Y-97567552D01*
X108541904Y-97567552D02*
X108503809Y-97548504D01*
X108503809Y-97548504D02*
X108484761Y-97529457D01*
X108484761Y-97529457D02*
X108465714Y-97491361D01*
X108465714Y-97491361D02*
X108465714Y-97453266D01*
X108465714Y-97453266D02*
X108484761Y-97396123D01*
X108484761Y-97396123D02*
X108713333Y-97167552D01*
X108713333Y-97167552D02*
X108465714Y-97167552D01*
%TO.C,U2*%
D18*
X128540000Y-66460000D02*
X98060000Y-66460000D01*
X98060000Y-88050000D01*
X128540000Y-88050000D01*
X128540000Y-66460000D01*
D17*
%TO.C,F1*%
X103386252Y-92290000D02*
X100613748Y-92290000D01*
X103386252Y-95710000D02*
X100613748Y-95710000D01*
D18*
%TO.C,D1*%
X114120000Y-93767500D02*
X114120000Y-92992500D01*
X114120000Y-93767500D02*
X114950000Y-93767500D01*
X115240000Y-92467500D02*
X115900000Y-92467500D01*
X117020000Y-92992500D02*
X117020000Y-93767500D01*
X117020000Y-93767500D02*
X116190000Y-93767500D01*
D19*
X116620000Y-90867500D02*
G75*
G02*
X116420000Y-90867500I-100000J0D01*
G01*
X116420000Y-90867500D02*
G75*
G02*
X116620000Y-90867500I100000J0D01*
G01*
D17*
%TO.C,C9*%
X119202500Y-109920000D02*
X120202500Y-109920000D01*
X119702500Y-109420000D02*
X119702500Y-110420000D01*
X120442500Y-109234437D02*
X120442500Y-110920000D01*
X120442500Y-109234437D02*
X121506937Y-108170000D01*
X120442500Y-115625563D02*
X120442500Y-113940000D01*
X120442500Y-115625563D02*
X121506937Y-116690000D01*
X121506937Y-108170000D02*
X128962500Y-108170000D01*
X121506937Y-116690000D02*
X128962500Y-116690000D01*
X128962500Y-108170000D02*
X128962500Y-110920000D01*
X128962500Y-116690000D02*
X128962500Y-113940000D01*
%TO.C,J8*%
X97330000Y-97130000D02*
X105370000Y-97130000D01*
X97330000Y-99950000D02*
X97330000Y-97130000D01*
X97330000Y-107870000D02*
X97330000Y-100550000D01*
X99450000Y-97130000D02*
X99450000Y-98370000D01*
X99450000Y-102130000D02*
X99450000Y-104707000D01*
X99450000Y-105793000D02*
X99450000Y-107870000D01*
X100750000Y-97130000D02*
X100750000Y-98370000D01*
X100750000Y-102130000D02*
X100750000Y-103438000D01*
X100750000Y-107062000D02*
X100750000Y-107870000D01*
X101750000Y-97130000D02*
X101750000Y-98370000D01*
X101750000Y-102130000D02*
X101750000Y-103438000D01*
X101750000Y-107062000D02*
X101750000Y-107870000D01*
X105370000Y-97130000D02*
X105370000Y-107870000D01*
X105370000Y-107870000D02*
X97330000Y-107870000D01*
X97330000Y-100250000D02*
X96720000Y-100690000D01*
X96720000Y-99810000D01*
X97330000Y-100250000D01*
G36*
X97330000Y-100250000D02*
G01*
X96720000Y-100690000D01*
X96720000Y-99810000D01*
X97330000Y-100250000D01*
G37*
%TO.C,C2*%
X105702500Y-76272500D02*
X106490000Y-76272500D01*
X106096250Y-75878750D02*
X106096250Y-76666250D01*
X106730000Y-75774437D02*
X106730000Y-77060000D01*
X106730000Y-75774437D02*
X107794437Y-74710000D01*
X106730000Y-80465563D02*
X106730000Y-79180000D01*
X106730000Y-80465563D02*
X107794437Y-81530000D01*
X107794437Y-74710000D02*
X113550000Y-74710000D01*
X107794437Y-81530000D02*
X113550000Y-81530000D01*
X113550000Y-74710000D02*
X113550000Y-77060000D01*
X113550000Y-81530000D02*
X113550000Y-79180000D01*
%TO.C,R2*%
X114795000Y-96972936D02*
X114795000Y-97427064D01*
X116265000Y-96972936D02*
X116265000Y-97427064D01*
D18*
%TO.C,U1*%
X131490000Y-73750000D02*
X131490000Y-106770000D01*
X131490000Y-106770000D02*
X149270000Y-106770000D01*
X149270000Y-73750000D02*
X131490000Y-73750000D01*
X149270000Y-106770000D02*
X149270000Y-73750000D01*
D17*
%TO.C,Q1*%
X110990000Y-92940000D02*
X112510000Y-92940000D01*
X110990000Y-93940000D02*
X110990000Y-92940000D01*
X110990000Y-96060000D02*
X110990000Y-95060000D01*
X112510000Y-92940000D02*
X112510000Y-92990000D01*
X112510000Y-94110000D02*
X112510000Y-94890000D01*
X112510000Y-96010000D02*
X112510000Y-96060000D01*
X112510000Y-96060000D02*
X110990000Y-96060000D01*
X113050000Y-94880000D02*
X112810000Y-94550000D01*
X113290000Y-94550000D01*
X113050000Y-94880000D01*
G36*
X113050000Y-94880000D02*
G01*
X112810000Y-94550000D01*
X113290000Y-94550000D01*
X113050000Y-94880000D01*
G37*
%TO.C,C7*%
X119731252Y-91325000D02*
X119208748Y-91325000D01*
X119731252Y-92795000D02*
X119208748Y-92795000D01*
%TO.C,J1*%
X106220000Y-108375000D02*
X116960000Y-108375000D01*
X106220000Y-111995000D02*
X107460000Y-111995000D01*
X106220000Y-112995000D02*
X107460000Y-112995000D01*
X106220000Y-114295000D02*
X107460000Y-114295000D01*
X106220000Y-116415000D02*
X106220000Y-108375000D01*
X109040000Y-116415000D02*
X106220000Y-116415000D01*
X111220000Y-111995000D02*
X112528000Y-111995000D01*
X111220000Y-112995000D02*
X112528000Y-112995000D01*
X111220000Y-114295000D02*
X113797000Y-114295000D01*
X114883000Y-114295000D02*
X116960000Y-114295000D01*
X116152000Y-111995000D02*
X116960000Y-111995000D01*
X116152000Y-112995000D02*
X116960000Y-112995000D01*
X116960000Y-108375000D02*
X116960000Y-116415000D01*
X116960000Y-116415000D02*
X109640000Y-116415000D01*
X109780000Y-117025000D02*
X108900000Y-117025000D01*
X109340000Y-116415000D01*
X109780000Y-117025000D01*
G36*
X109780000Y-117025000D02*
G01*
X108900000Y-117025000D01*
X109340000Y-116415000D01*
X109780000Y-117025000D01*
G37*
%TO.C,R1*%
X116925000Y-96982936D02*
X116925000Y-97437064D01*
X118395000Y-96982936D02*
X118395000Y-97437064D01*
%TO.C,U3*%
D18*
X127120000Y-106900000D02*
X106820000Y-106900000D01*
X106820000Y-89100000D01*
X127120000Y-89100000D01*
X127120000Y-106900000D01*
%TO.C,D2*%
X107330000Y-98100000D02*
X107330000Y-97325000D01*
X107330000Y-98100000D02*
X108160000Y-98100000D01*
X108450000Y-96800000D02*
X109110000Y-96800000D01*
X110230000Y-97325000D02*
X110230000Y-98100000D01*
X110230000Y-98100000D02*
X109400000Y-98100000D01*
D19*
X109830000Y-95200000D02*
G75*
G02*
X109630000Y-95200000I-100000J0D01*
G01*
X109630000Y-95200000D02*
G75*
G02*
X109830000Y-95200000I100000J0D01*
G01*
%TD*%
M02*
