M48
; DRILL file {KiCad 9.0.7} date 2026-03-26T23:31:23-0500
; FORMAT={-:-/ absolute / metric / decimal}
; #@! TF.CreationDate,2026-03-26T23:31:23-05:00
; #@! TF.GenerationSoftware,Kicad,Pcbnew,9.0.7
; #@! TF.FileFunction,MixedPlating,1,2
FMAT,2
METRIC
; #@! TA.AperFunction,Plated,PTH,ViaDrill
T1C0.800
; #@! TA.AperFunction,Plated,PTH,ViaDrill
T2C1.000
; #@! TA.AperFunction,Plated,PTH,ComponentDrill
T3C1.000
; #@! TA.AperFunction,Plated,PTH,ComponentDrill
T4C1.016
; #@! TA.AperFunction,Plated,PTH,ComponentDrill
T5C1.020
; #@! TA.AperFunction,Plated,PTH,ComponentDrill
T6C1.300
; #@! TA.AperFunction,Plated,PTH,ComponentDrill
T7C2.180
; #@! TA.AperFunction,Plated,PTH,ComponentDrill
T8C2.200
; #@! TA.AperFunction,Plated,PTH,ComponentDrill
T9C2.380
%
G90
G05
T1
X112.61Y-99.13
X113.82Y-90.29
T2
X118.6Y-108.36
T3
X132.68Y-63.25
X132.68Y-65.79
X132.68Y-68.33
X135.18Y-63.25
X135.18Y-65.79
X135.18Y-68.33
X136.89Y-112.62
X136.89Y-115.15
X137.68Y-63.25
X137.68Y-65.79
X137.68Y-68.33
X139.43Y-112.62
X139.43Y-115.15
X141.97Y-112.62
X141.97Y-115.15
X144.51Y-112.62
X144.51Y-115.15
X147.91Y-63.23
X147.91Y-65.77
X147.91Y-68.31
X152.02Y-97.92
X152.02Y-103.01
X152.03Y-100.46
X152.03Y-105.55
X152.1Y-88.47
X152.1Y-91.02
X152.1Y-93.57
X152.11Y-85.93
X154.56Y-97.92
X154.56Y-103.01
X154.57Y-100.46
X154.57Y-105.55
X154.64Y-88.47
X154.64Y-91.02
X154.64Y-93.57
X154.65Y-85.93
X157.1Y-97.92
X157.1Y-103.01
X157.11Y-100.46
X157.11Y-105.55
X157.18Y-88.47
X157.18Y-91.02
X157.18Y-93.57
X157.19Y-85.93
T4
X132.76Y-77.56
X132.76Y-80.1
X132.76Y-82.64
X132.76Y-85.18
X132.76Y-87.72
X132.76Y-90.26
X132.76Y-92.8
X132.76Y-95.34
X132.76Y-97.88
X132.76Y-100.42
X132.76Y-102.96
X132.76Y-105.5
X145.079Y-86.323
X145.079Y-88.863
X148.0Y-77.56
X148.0Y-80.1
X148.0Y-82.64
X148.0Y-85.18
X148.0Y-87.72
X148.0Y-90.26
X148.0Y-92.8
X148.0Y-95.34
X148.0Y-97.88
X148.0Y-100.42
X148.0Y-102.96
X148.0Y-105.5
T5
X99.584Y-86.526
X102.124Y-86.526
X107.204Y-67.984
X109.744Y-67.984
X112.284Y-67.984
X114.824Y-67.984
X117.364Y-67.984
X125.85Y-91.01
X125.85Y-93.55
X125.85Y-96.09
X125.85Y-98.63
X125.85Y-101.17
T6
X101.25Y-100.25
X101.25Y-105.25
X109.34Y-112.495
X114.34Y-112.495
T7
X111.395Y-85.51
X126.0Y-69.0
T8
X98.75Y-63.5
X98.75Y-115.25
X156.96Y-115.14
X156.971Y-63.5
T9
X109.02Y-91.2
X125.02Y-104.7
M30
