%TF.GenerationSoftware,KiCad,Pcbnew,9.0.7*%
%TF.CreationDate,2026-03-26T23:31:19-05:00*%
%TF.ProjectId,FilthyHPs_Maestro,46696c74-6879-4485-9073-5f4d61657374,rev?*%
%TF.SameCoordinates,Original*%
%TF.FileFunction,Other,User*%
%FSLAX46Y46*%
G04 Gerber Fmt 4.6, Leading zero omitted, Abs format (unit mm)*
G04 Created by KiCad (PCBNEW 9.0.7) date 2026-03-26 23:31:19*
%MOMM*%
%LPD*%
G01*
G04 APERTURE LIST*
%ADD10C,0.050000*%
G04 APERTURE END LIST*
%TO.C,U2*%
D10*
X128790000Y-66210000D02*
X97810000Y-66210000D01*
X97810000Y-88300000D01*
X128790000Y-88300000D01*
X128790000Y-66210000D01*
%TO.C,F1*%
X105130000Y-95950000D02*
X98870000Y-95950000D01*
X98870000Y-92050000D01*
X105130000Y-92050000D01*
X105130000Y-95950000D01*
%TO.C,C9*%
X119452500Y-110930000D02*
X119452500Y-113930000D01*
X119452500Y-113930000D02*
X120302500Y-113930000D01*
X120302500Y-109180000D02*
X120302500Y-110930000D01*
X120302500Y-109180000D02*
X121452500Y-108030000D01*
X120302500Y-110930000D02*
X119452500Y-110930000D01*
X120302500Y-113930000D02*
X120302500Y-115680000D01*
X120302500Y-115680000D02*
X121452500Y-116830000D01*
X121452500Y-108030000D02*
X129102500Y-108030000D01*
X121452500Y-116830000D02*
X129102500Y-116830000D01*
X129102500Y-108030000D02*
X129102500Y-110930000D01*
X129102500Y-110930000D02*
X129952500Y-110930000D01*
X129102500Y-113930000D02*
X129102500Y-116830000D01*
X129952500Y-110930000D02*
X129952500Y-113930000D01*
X129952500Y-113930000D02*
X129102500Y-113930000D01*
%TO.C,R2*%
X116480000Y-95350000D02*
X114580000Y-95350000D01*
X114580000Y-99050000D01*
X116480000Y-99050000D01*
X116480000Y-95350000D01*
%TO.C,U1*%
X131240000Y-73500000D02*
X149520000Y-73500000D01*
X131240000Y-107020000D02*
X131240000Y-73500000D01*
X149520000Y-73500000D02*
X149520000Y-107020000D01*
X149520000Y-107020000D02*
X131240000Y-107020000D01*
%TO.C,Q1*%
X109820000Y-93950000D02*
X110850000Y-93950000D01*
X109820000Y-95050000D02*
X109820000Y-93950000D01*
X110850000Y-92800000D02*
X112650000Y-92800000D01*
X110850000Y-93950000D02*
X110850000Y-92800000D01*
X110850000Y-95050000D02*
X109820000Y-95050000D01*
X110850000Y-96200000D02*
X110850000Y-95050000D01*
X112650000Y-92800000D02*
X112650000Y-93000000D01*
X112650000Y-93000000D02*
X113680000Y-93000000D01*
X112650000Y-94110000D02*
X112650000Y-94890000D01*
X112650000Y-94890000D02*
X113680000Y-94890000D01*
X112650000Y-96000000D02*
X112650000Y-96200000D01*
X112650000Y-96200000D02*
X110850000Y-96200000D01*
X113680000Y-93000000D02*
X113680000Y-94110000D01*
X113680000Y-94110000D02*
X112650000Y-94110000D01*
X113680000Y-94890000D02*
X113680000Y-96000000D01*
X113680000Y-96000000D02*
X112650000Y-96000000D01*
%TO.C,H2*%
X100900000Y-115250000D02*
G75*
G02*
X96600000Y-115250000I-2150000J0D01*
G01*
X96600000Y-115250000D02*
G75*
G02*
X100900000Y-115250000I2150000J0D01*
G01*
%TO.C,H3*%
X159121100Y-63500000D02*
G75*
G02*
X154821100Y-63500000I-2150000J0D01*
G01*
X154821100Y-63500000D02*
G75*
G02*
X159121100Y-63500000I2150000J0D01*
G01*
%TO.C,R1*%
X118610000Y-95360000D02*
X116710000Y-95360000D01*
X116710000Y-99060000D01*
X118610000Y-99060000D01*
X118610000Y-95360000D01*
%TO.C,H4*%
X100900000Y-63500000D02*
G75*
G02*
X96600000Y-63500000I-2150000J0D01*
G01*
X96600000Y-63500000D02*
G75*
G02*
X100900000Y-63500000I2150000J0D01*
G01*
%TO.C,H1*%
X159110000Y-115140000D02*
G75*
G02*
X154810000Y-115140000I-2150000J0D01*
G01*
X154810000Y-115140000D02*
G75*
G02*
X159110000Y-115140000I2150000J0D01*
G01*
%TD*%
M02*
